<svg width="450" height="452" viewBox="0 0 450 452" fill="none" xmlns="http://www.w3.org/2000/svg">
<rect width="450" height="452" fill="white"/>
<g clip-path="url(#clip0_35_106)">
<path d="M309.134 184.828C287.6 163.395 257.861 150.127 225 150.127C192.139 150.127 162.4 163.395 140.866 184.828C119.331 206.261 106 235.858 106 268.564C106 301.269 119.331 330.867 140.866 352.299C162.4 373.732 192.139 387 225 387C257.861 387 287.6 373.732 309.134 352.299C330.669 330.867 344 301.269 344 268.564C343.953 235.858 330.669 206.261 309.134 184.828Z" fill="#22558C"/>
<path d="M225 154.488C240.429 154.488 255.205 157.55 268.769 163.163C282.845 168.962 295.477 177.452 306.011 187.89C316.546 198.374 325.029 210.946 330.856 224.956C336.449 238.456 339.572 253.162 339.572 268.517C339.572 283.873 336.496 298.579 330.856 312.079C325.029 326.089 316.499 338.661 306.011 349.145C295.477 359.629 282.845 368.072 268.769 373.871C255.205 379.438 240.429 382.546 225 382.546C209.572 382.546 194.749 379.485 181.232 373.871C167.155 368.072 154.523 359.583 143.989 349.145C133.454 338.661 124.971 326.089 119.145 312.079C113.551 298.579 110.428 283.873 110.428 268.517C110.428 253.162 113.505 238.41 119.145 224.956C124.971 210.946 133.501 198.374 143.989 187.89C154.523 177.405 167.155 168.962 181.232 163.163C194.749 157.596 209.572 154.488 225 154.488Z" fill="#FED32C"/>
<path d="M321.067 228.992C315.8 216.327 308.062 204.915 298.507 195.405C288.951 185.895 277.485 178.194 264.76 172.952C252.501 167.895 239.077 165.112 225.047 165.112C210.97 165.112 197.546 167.895 185.333 172.952C172.608 178.194 161.142 185.895 151.586 195.405C141.984 204.915 134.293 216.327 129.026 228.992C123.852 241.193 121.056 254.554 121.056 268.564C121.056 282.574 123.852 295.934 128.933 308.089C134.2 320.754 141.938 332.166 151.493 341.676C161.095 351.186 172.515 358.887 185.24 364.129C197.499 369.186 210.923 371.969 224.953 371.969C239.03 371.969 252.454 369.186 264.667 364.129C277.392 358.887 288.858 351.186 298.414 341.676C307.969 332.119 315.707 320.754 320.974 308.089C326.055 295.888 328.851 282.527 328.851 268.564C328.944 254.554 326.148 241.193 321.067 228.992Z" fill="#22558C"/>
<path d="M274.776 318.093C302.262 290.737 302.262 246.384 274.776 219.028C247.289 191.671 202.725 191.671 175.239 219.028C147.752 246.384 147.752 290.737 175.239 318.093C202.725 345.449 247.289 345.449 274.776 318.093Z" fill="#FED32C"/>
<path fill-rule="evenodd" clip-rule="evenodd" d="M166.688 237.853L170.93 241.332L173.168 237.621C173.634 241.518 174.846 244.116 176.244 246.203C178.062 248.94 180.346 249.868 181.231 253.116C181.558 254.322 183.562 256.873 185.846 258.961C188.736 261.559 190.74 262.672 192.278 263.785V267.682C190.833 269.584 189.295 271.811 191.393 273.62C192.931 274.966 193.723 275.059 196.194 275.615V279.048C197.592 280.254 197.965 280.95 198.804 282.991C199.55 284.754 200.249 286.517 200.808 288.697C202.859 289.301 204.584 290.136 206.402 291.945V301.084L209.059 302.522C209.245 307.347 211.249 307.996 212.368 310.733C214.792 310.177 217.262 309.852 219.686 309.898V307.903C222.11 307.811 222.902 307.393 224.254 306.929C227.89 305.723 228.169 304.702 230.314 303.543C232.365 302.383 235.068 301.826 237.585 300.481C239.45 299.507 242.619 297.558 244.857 296.166C246.488 295.146 247.84 294.45 248.446 293.012C248.679 292.409 248.679 291.713 248.679 290.692C250.776 290.646 252.361 290.414 253.713 289.486C254.925 288.651 255.624 288.512 257.162 288.048V285.265H259.539C260.099 283.641 260.518 282.759 261.683 282.11C262.289 281.739 262.895 281.46 263.594 281.182C265.133 280.533 264.713 277.981 267.23 277.888L268.349 268.657L274.641 267.45V258.172C273.057 257.291 272.684 256.177 270.959 255.574C268.955 254.925 266.391 254.507 263.921 254.09C260.425 253.487 259.912 251.863 259.819 250.332C259.772 249.543 259.632 248.569 258.84 248.059C258.048 247.595 258.048 247.688 257.255 247.178C255.717 246.25 255.065 247.641 253.293 248.801C252.128 249.59 253.386 251.26 252.175 252.698C250.869 254.183 244.577 254.183 242.759 254.507C241.873 253.162 241.734 252.605 241.314 251.074C240.941 249.636 241.221 248.708 238.89 248.708C237.678 248.708 237.072 248.94 236.28 249.497C236.28 247.409 236.233 245.693 234.136 243.234C233.67 242.678 231.712 241.147 231.292 240.544C230.453 239.384 230.453 239.105 230.034 238.27C229.801 237.899 229.288 237.296 228.496 237.296C227.983 237.296 227.843 236.647 227.75 235.812C227.61 234.002 226.305 233.631 225.559 232.193L229.008 231.961L228.962 228.482L234.695 229.085C234.928 231.637 235.627 233.214 236.653 234.93C238.098 237.296 238.797 236.276 239.822 237.018C240.522 237.528 240.801 238.502 241.547 238.966C242.106 239.291 243.365 239.245 243.971 239.523C244.763 239.894 245.136 240.868 245.929 241.147C248.772 242.214 251.615 242.167 254.598 242.167C256.37 242.167 258.048 239.801 259.772 240.265C261.777 240.822 261.59 242.028 262.476 243.049C262.942 243.605 263.455 244.255 264.061 244.626C264.993 245.183 266.345 245.461 267.976 245.461C270.26 245.461 271.146 244.255 274.595 244.162C275.201 242.91 275.574 239.848 275.714 238.178C280.981 248.987 282.332 257.43 282.193 266.801C282.006 278.723 278.93 289.533 272.87 299.043C266.671 308.831 257.348 317.228 244.857 322.98V314.352C243.691 312.589 243.505 312.403 235.534 313.285C233.297 313.517 231.013 314.073 229.335 314.955C226.958 316.161 225.326 317.738 222.063 317.738C220.525 317.738 217.961 320.614 214.279 320.058V315.558C212.321 315.187 210.084 315.233 207.893 313.795L208.639 309.249C206.122 307.903 204.724 307.068 203.419 302.754H201.228C199.363 301.269 196.334 299.924 194.516 298.115C194.283 297.883 192.838 295.934 192.325 295.192L192.092 287.445C190.367 286.146 187.198 285.218 184.96 281.739C183.748 279.837 183.702 276.404 183.376 274.316C183.003 272.043 181.185 266.986 179.786 266.569C178.761 266.291 178.015 265.548 177.316 264.667C176.384 263.507 175.918 262.997 175.498 262.347L174.612 252.281L169.905 249.08L170.79 244.58L166.688 237.853Z" fill="#22558C"/>
<path fill-rule="evenodd" clip-rule="evenodd" d="M207.66 237.296C205.703 237.343 204.071 237.018 202.626 236.415L197.033 240.312C194.469 242.121 191.859 240.172 191.673 235.162C189.901 239.198 190.973 241.1 192.418 242.353C193.817 243.605 196.707 244.951 200.296 242.446L232.132 287.584L244.018 279.234C242.013 279.187 240.242 279.002 238.89 278.399L233.017 282.527L229.521 277.564C232.784 275.476 233.81 271.208 231.479 267.821L222.902 255.713L226.025 253.533C223.928 253.765 222.203 253.487 220.805 252.744L214.932 256.873L203.279 240.358L207.66 237.296ZM217.029 259.842L219.966 257.801L228.636 270.048C230.127 272.182 228.962 273.62 227.47 274.548L217.029 259.842Z" fill="#22558C"/>
<path fill-rule="evenodd" clip-rule="evenodd" d="M247.374 272.136C248.632 272.136 249.611 273.11 249.611 274.363C249.611 275.569 248.632 276.589 247.374 276.589C246.162 276.589 245.136 275.615 245.136 274.363C245.136 273.11 246.162 272.136 247.374 272.136Z" fill="#22558C"/>
<path d="M282.938 118.164C289.371 109.675 286.714 100.907 283.218 96.1748C279.442 91.0717 269.281 86.0615 260.984 88.7522C259.865 87.1749 257.861 87.4532 256.976 89.0769C253.946 83.9739 248.399 81.5616 241.92 81.6544C238.144 81.7008 233.903 82.6286 229.102 84.4378C228.402 82.9533 227.47 81.1441 226.165 78.8245L228.822 73.4896L229.102 72.9329L228.822 72.3762L226.072 67.134L225 65L223.881 67.134L221.131 72.3762L220.851 72.9329L221.131 73.4896L223.788 78.8245C222.483 81.1905 221.551 82.9533 220.851 84.4378C216.05 82.6286 211.809 81.7008 208.033 81.6544C201.554 81.608 196.007 84.0203 192.977 89.0769C192.092 87.4532 190.134 87.1749 188.969 88.7522C180.672 86.0615 170.511 91.0717 166.735 96.1748C163.286 100.907 160.629 109.675 167.061 118.118C167.061 118.118 167.061 118.118 167.015 118.118C165.523 119.138 165.057 120.298 164.078 121.69C166.036 121.504 167.854 121.272 169.625 122.386C170.557 122.989 171.023 123.777 171.769 124.984C170.371 126.051 170.511 130.829 174.706 129.715C176.057 131.432 177.456 132.638 178.901 133.566C180.252 134.447 181.744 134.865 183.003 134.958C182.723 135.097 182.49 135.282 182.303 135.561C182.117 135.885 182.024 136.303 182.117 136.721C182.21 137.138 182.49 137.463 182.816 137.695C183.142 137.88 183.562 137.973 183.981 137.88C184.261 137.834 184.541 137.741 184.774 137.695L185.333 138.947L182.49 142.055L187.291 143.447L187.617 144.189C187.524 144.236 187.431 144.282 187.384 144.375C187.151 144.561 186.965 144.746 186.778 144.932C186.498 145.303 186.359 145.767 186.452 146.184C186.452 146.277 186.498 146.416 186.545 146.509C186.592 146.602 186.638 146.648 186.685 146.741C187.291 147.53 188.223 147.39 189.528 147.158C189.808 147.112 190.088 147.066 190.414 147.019C191.672 146.834 193.071 146.648 194.189 146.463C195.495 146.277 196.66 146.091 197.033 146.045C200.389 145.488 204.91 145.071 209.571 144.793C214.838 144.468 220.432 144.282 224.953 144.282C229.475 144.282 235.021 144.468 240.335 144.793C245.043 145.071 249.518 145.535 252.874 146.045C253.247 146.091 254.412 146.277 255.717 146.463C256.836 146.648 258.234 146.834 259.493 147.019C259.819 147.066 260.099 147.112 260.378 147.158C261.683 147.39 262.616 147.53 263.222 146.741C263.268 146.648 263.315 146.602 263.361 146.509C263.408 146.416 263.455 146.277 263.455 146.184C263.548 145.767 263.408 145.303 263.128 144.932C262.988 144.746 262.755 144.561 262.522 144.375C262.429 144.329 262.382 144.282 262.289 144.189L262.616 143.447L267.417 142.055L264.573 138.947L265.133 137.695C265.412 137.741 265.645 137.834 265.925 137.88C266.344 137.973 266.764 137.927 267.09 137.695C267.417 137.509 267.696 137.138 267.789 136.721C267.883 136.303 267.836 135.885 267.603 135.561C267.463 135.282 267.23 135.097 266.904 134.958C268.162 134.865 269.654 134.447 271.006 133.566C272.404 132.684 273.849 131.478 275.201 129.715C279.396 130.829 279.536 126.051 278.137 124.984C278.883 123.731 279.349 122.942 280.281 122.386C282.053 121.272 283.871 121.504 285.828 121.69C284.943 120.344 284.43 119.185 282.938 118.164ZM277.019 94.9222C280.608 97.7984 283.777 104.34 278.65 111.437L280.235 117.793C279.769 117.979 279.349 118.257 279.023 118.535C278.883 117.793 278.603 117.097 278.277 116.587C276.599 117.7 275.807 118.582 274.735 121.18C274.455 120.855 274.175 120.576 273.849 120.344C273.15 119.881 272.124 119.788 271.332 119.834C270.213 119.881 269.887 118.767 269.607 117.886C268.628 118.257 268.582 119.417 269.048 120.623C267.929 121.087 266.531 121.736 265.459 122.293L266.484 123.267C267.23 124.149 268.302 124.937 269.281 125.726C268.302 126.143 268.162 125.819 267.137 125.679C266.904 127.118 269.001 128.602 271.612 128.092C271.192 128.648 270.866 129.205 270.307 129.623C268.955 130.736 267.556 131.478 266.391 131.432C265.366 131.432 264.666 130.411 264.154 129.53C264.713 129.391 265.226 129.112 265.599 128.695C266.111 128.138 266.391 127.396 266.391 126.561C266.391 125.726 266.065 124.984 265.599 124.473C265.086 123.917 264.34 123.545 263.501 123.545C262.662 123.545 261.963 123.917 261.404 124.473C260.891 125.03 260.611 125.772 260.611 126.561C260.611 127.164 260.798 127.767 261.077 128.231C260.005 128.973 258.7 129.808 257.488 129.808C256.37 129.808 255.251 128.788 254.645 127.906C253.992 126.978 253.619 125.633 253.666 124.241C253.666 124.056 253.666 123.87 253.713 123.685C253.899 124.241 255.158 124.195 255.903 124.195C257.581 124.195 258.048 124.612 258.793 126.607C259.679 125.308 259.586 123.731 258.98 122.432C261.357 122.618 262.196 121.875 263.594 120.901C261.45 120.298 261.031 118.906 259.679 117.793C260.238 117.004 260.565 116.216 260.704 115.473C259.539 115.566 258.374 115.705 257.209 115.798C257.488 113.757 258.56 113.015 260.238 111.948C258.84 111.159 257.675 110.881 256.043 111.809C255.903 110.37 255.391 109.071 254.738 107.865C257.721 103.597 259.353 99.3757 258.793 94.0872C267.323 90.7006 273.756 92.2779 277.019 94.9222ZM225 136.025H228.962C229.475 136.025 229.894 136.442 229.894 136.952C229.894 137.463 229.475 137.88 228.962 137.88H225H221.038C220.525 137.88 220.106 137.463 220.106 136.952C220.106 136.442 220.525 136.025 221.038 136.025H225ZM215.817 136.999C215.817 138.019 215.071 138.808 214.139 138.808C213.207 138.808 212.461 137.973 212.461 136.999C212.461 135.978 213.207 135.19 214.139 135.19C215.071 135.19 215.817 135.978 215.817 136.999ZM209.198 137.602C209.292 138.112 208.919 138.576 208.406 138.669L202.16 139.597C201.647 139.69 201.181 139.318 201.088 138.808C200.995 138.298 201.368 137.834 201.88 137.741L208.126 136.813C208.639 136.767 209.105 137.092 209.198 137.602ZM197.359 139.272C197.359 140.293 196.613 141.081 195.681 141.081C194.749 141.081 194.003 140.246 194.003 139.272C194.003 138.251 194.749 137.463 195.681 137.463C196.613 137.463 197.359 138.251 197.359 139.272ZM234.182 136.999C234.182 135.978 234.928 135.19 235.86 135.19C236.793 135.19 237.538 136.025 237.538 136.999C237.538 138.019 236.793 138.808 235.86 138.808C234.928 138.808 234.182 138.019 234.182 136.999ZM240.801 137.602C240.894 137.092 241.361 136.72 241.873 136.813L248.119 137.741C248.632 137.834 249.005 138.298 248.912 138.808C248.818 139.318 248.352 139.69 247.84 139.597L241.594 138.669C241.081 138.576 240.755 138.112 240.801 137.602ZM252.641 139.272C252.641 138.251 253.386 137.463 254.319 137.463C255.251 137.463 255.997 138.298 255.997 139.272C255.997 140.293 255.251 141.081 254.319 141.081C253.433 141.081 252.641 140.293 252.641 139.272ZM219.826 87.3141C219.313 89.1697 219.22 90.9326 219.267 93.4377V93.9016C219.313 96.5923 219.36 99.2366 217.915 101.046L217.402 101.649L217.822 102.298L220.478 106.659C219.826 106.566 219.033 106.752 218.055 107.262C219.779 107.912 218.428 109.211 218.428 110.138C216.33 110.185 215.211 110.278 213.673 109.582C213.627 111.391 213.72 112.133 214.745 113.664C214.838 113.85 214.978 113.989 215.118 114.174C213.533 115.195 213.673 115.752 211.762 116.169C212.228 117.747 212.927 118.953 215.305 119.185C214.838 120.252 214.699 121.411 214.745 122.618C216.004 122.293 216.33 120.994 217.169 120.669C219.033 119.927 220.898 120.53 222.716 119.927C223.555 123.592 220.245 127.21 217.589 127.257C216.05 127.303 213.953 125.819 212.508 123.963C212.881 123.453 213.16 122.803 213.16 122.061C213.16 121.226 212.834 120.484 212.368 119.973C211.855 119.417 211.109 119.046 210.27 119.046C209.431 119.046 208.732 119.417 208.173 119.973C207.66 120.53 207.381 121.272 207.381 122.061C207.381 122.896 207.707 123.638 208.173 124.195C208.499 124.52 208.872 124.798 209.292 124.937C208.359 126.143 207.847 126.654 206.914 127.21C205.982 127.767 205.003 128.045 204.258 127.999C203.139 127.999 201.88 127.303 200.901 126.143C200.296 125.401 199.69 124.334 199.503 122.989C200.296 122.989 201.181 122.896 201.927 122.803C203.885 122.525 204.164 122.107 206.029 123.499C205.889 122.107 205.889 121.04 205.143 120.113C206.075 119.973 207.101 119.649 207.893 118.489L208.965 116.819C208.266 116.633 207.66 116.772 207.008 116.772C206.635 116.68 206.262 116.401 205.842 116.216C205.376 115.984 204.957 115.659 204.397 115.473C204.863 114.453 204.957 112.412 203.698 111.391C203.139 113.293 202.486 113.664 200.808 113.664C200.715 111.994 201.088 110.649 201.647 109.118C200.062 108.932 198.99 109.582 198.245 110.927C197.965 110.185 197.639 109.535 197.312 108.886L199.363 105.36C192.931 97.2418 196.1 90.2831 199.69 87.2677C203.139 84.4378 209.804 83.1853 219.826 87.3141ZM250.263 87.3141C253.853 90.2831 257.022 97.2881 250.59 105.407L252.641 108.932C252.314 109.582 251.988 110.231 251.708 110.973C251.009 109.628 249.891 108.979 248.306 109.164C248.865 110.695 249.238 112.04 249.145 113.711C247.467 113.664 246.814 113.339 246.255 111.437C244.996 112.458 245.089 114.499 245.556 115.52C244.996 115.705 244.577 116.03 244.111 116.262C243.691 116.448 243.318 116.772 242.945 116.819C242.293 116.772 241.687 116.68 240.988 116.865L242.06 118.535C242.852 119.695 243.878 120.02 244.81 120.159C244.111 121.04 244.111 122.107 243.924 123.545C245.789 122.154 246.068 122.571 248.026 122.85C248.772 122.942 249.657 123.035 250.45 123.035C250.263 124.427 249.657 125.447 249.051 126.19C248.073 127.396 246.814 128.045 245.695 128.045C244.95 128.045 243.971 127.813 243.039 127.257C242.106 126.7 241.594 126.19 240.661 124.984C241.081 124.844 241.5 124.566 241.78 124.241C242.293 123.685 242.572 122.942 242.572 122.107C242.572 121.272 242.246 120.53 241.78 120.02C241.267 119.463 240.522 119.092 239.683 119.092C238.844 119.092 238.144 119.463 237.585 120.02C237.072 120.576 236.793 121.319 236.793 122.107C236.793 122.803 237.026 123.453 237.445 124.009C236.047 125.865 233.903 127.35 232.364 127.303C229.708 127.21 226.398 123.592 227.237 119.973C229.102 120.623 230.966 119.973 232.784 120.716C233.576 121.04 233.903 122.339 235.208 122.664C235.301 121.458 235.161 120.298 234.695 119.231C237.072 118.953 237.771 117.793 238.238 116.216C236.326 115.798 236.513 115.241 234.882 114.221C235.021 114.082 235.115 113.896 235.254 113.711C236.28 112.18 236.373 111.437 236.326 109.628C234.742 110.324 233.67 110.231 231.572 110.185C231.572 109.257 230.22 107.958 231.945 107.309C230.92 106.798 230.127 106.659 229.521 106.706L232.178 102.345L232.598 101.695L232.085 101.092C230.64 99.3293 230.686 96.6851 230.733 93.948V93.4841C230.78 90.9326 230.686 89.2161 230.174 87.3605C240.195 83.1853 246.861 84.4378 250.263 87.3141ZM252.78 117.004C253.666 117.004 254.365 117.747 254.365 118.674C254.365 119.602 253.666 120.344 252.78 120.344C251.895 120.344 251.196 119.602 251.196 118.674C251.149 117.747 251.895 117.004 252.78 117.004ZM225 91.1645C224.161 91.1645 223.508 90.5151 223.508 89.68C223.508 88.8914 224.161 88.1955 225 88.1955C225.792 88.1955 226.491 88.845 226.491 89.68C226.491 90.5151 225.792 91.1645 225 91.1645ZM225 98.1696C225.792 98.1696 226.491 98.819 226.491 99.6541C226.491 100.443 225.839 101.139 225 101.139C224.161 101.139 223.508 100.489 223.508 99.6541C223.508 98.819 224.161 98.1696 225 98.1696ZM225 113.525C225.885 113.525 226.585 114.267 226.585 115.195C226.585 116.123 225.885 116.865 225 116.865C224.114 116.865 223.415 116.123 223.415 115.195C223.415 114.267 224.114 113.525 225 113.525ZM198.851 118.674C198.851 119.602 198.151 120.344 197.266 120.344C196.38 120.344 195.681 119.602 195.681 118.674C195.681 117.747 196.38 117.004 197.266 117.004C198.105 117.004 198.851 117.747 198.851 118.674ZM208.359 130.272C209.338 129.762 210.27 129.066 211.156 128.185C211.948 128.88 212.834 129.437 213.627 129.855C214.232 130.179 214.838 130.411 215.444 130.55C214.885 130.55 214.326 130.597 213.766 130.643C211.156 130.782 208.592 130.968 206.029 131.2C206.821 131.014 207.567 130.69 208.359 130.272ZM222.017 129.159C223.089 128.463 224.114 127.489 225 126.375C225.885 127.489 226.957 128.463 227.983 129.159C228.822 129.762 229.661 130.179 230.547 130.458C228.682 130.411 226.864 130.411 225 130.411C223.182 130.411 221.317 130.411 219.453 130.458C220.292 130.133 221.131 129.715 222.017 129.159ZM236.373 129.855C237.166 129.437 238.051 128.88 238.844 128.185C239.729 129.066 240.661 129.762 241.64 130.272C242.433 130.69 243.178 130.968 243.924 131.154C241.361 130.922 238.75 130.736 236.187 130.597C235.627 130.55 235.068 130.551 234.509 130.504C235.161 130.411 235.767 130.179 236.373 129.855ZM188.549 132.313C189.621 132.777 190.554 133.056 191.439 133.195C189.854 133.473 188.27 133.798 186.731 134.169C187.337 133.659 188.037 133.009 188.549 132.313ZM198.291 129.205C198.851 129.762 199.27 130.226 199.876 130.597C200.855 131.2 202.16 131.432 203.372 131.478C203.232 131.478 203.139 131.525 202.999 131.525C200.249 131.803 197.592 132.174 194.935 132.592C196.24 131.942 197.312 130.782 198.291 129.205ZM250.124 130.597C250.73 130.226 251.149 129.762 251.708 129.205C252.687 130.782 253.806 131.942 255.111 132.592C252.454 132.174 249.751 131.803 247.047 131.525C246.907 131.525 246.814 131.478 246.674 131.478C247.793 131.386 249.145 131.154 250.124 130.597ZM261.45 132.313C261.963 133.009 262.662 133.659 263.268 134.123C261.73 133.798 260.145 133.473 258.56 133.148C259.446 133.056 260.378 132.777 261.45 132.313ZM191.113 94.1799C190.554 99.4685 192.185 103.644 195.168 107.958C194.516 109.211 194.003 110.463 193.863 111.901C192.232 110.973 191.066 111.252 189.668 112.04C191.346 113.107 192.418 113.85 192.698 115.891C191.533 115.798 190.367 115.659 189.202 115.566C189.342 116.355 189.668 117.143 190.227 117.886C188.876 118.999 188.503 120.391 186.312 120.994C187.71 121.968 188.549 122.71 190.927 122.525C190.321 123.87 190.227 125.401 191.113 126.7C191.859 124.659 192.325 124.288 194.003 124.288C194.749 124.288 196.007 124.334 196.194 123.777C196.194 123.963 196.24 124.149 196.24 124.334C196.24 125.726 195.914 127.071 195.261 127.999C194.656 128.88 193.537 129.901 192.418 129.901C191.206 129.901 189.901 129.066 188.829 128.324C189.155 127.86 189.295 127.257 189.295 126.654C189.295 125.819 188.969 125.076 188.503 124.566C187.99 124.009 187.244 123.638 186.405 123.638C185.566 123.638 184.867 124.009 184.308 124.566C183.795 125.123 183.515 125.865 183.515 126.654C183.515 127.489 183.842 128.231 184.308 128.788C184.681 129.205 185.193 129.53 185.753 129.623C185.24 130.504 184.541 131.525 183.515 131.525C182.303 131.525 180.952 130.829 179.6 129.715C179.087 129.298 178.714 128.741 178.295 128.185C180.905 128.648 183.003 127.164 182.769 125.772C181.744 125.865 181.604 126.236 180.625 125.819C181.604 125.03 182.676 124.195 183.422 123.36L184.448 122.386C183.375 121.783 182.024 121.133 180.858 120.716C181.325 119.509 181.325 118.35 180.299 117.979C180.019 118.86 179.693 119.973 178.574 119.927C177.782 119.881 176.757 119.927 176.057 120.437C175.731 120.669 175.451 120.948 175.172 121.272C174.1 118.674 173.354 117.793 171.629 116.68C171.303 117.236 171.07 117.886 170.883 118.628C170.557 118.35 170.138 118.071 169.672 117.886L171.256 111.53C166.129 104.432 169.299 97.9376 172.888 95.015C176.244 92.2779 182.676 90.7006 191.113 94.1799ZM174.193 128.602C173.634 128.88 172.934 128.556 172.561 127.86C172.235 127.164 172.375 126.375 172.934 126.097C173.494 125.819 174.193 126.143 174.566 126.839C174.892 127.581 174.752 128.37 174.193 128.602ZM185.426 141.267L187.011 139.55L189.668 140.014L187.99 142.009L185.426 141.267ZM261.963 142.009L260.285 140.014L262.942 139.55L264.527 141.267L261.963 142.009ZM277.438 127.86C277.112 128.556 276.366 128.88 275.807 128.602C275.247 128.324 275.108 127.535 275.434 126.839C275.76 126.143 276.506 125.819 277.065 126.097C277.625 126.375 277.764 127.164 277.438 127.86Z" fill="#22558C"/>
<path d="M166.922 322.98C165.756 321.45 161.748 318.527 157.739 321.682C153.684 324.836 154.896 329.011 156.294 330.96C157.693 332.908 162.261 335.599 166.036 331.98C169.765 328.408 168.087 324.511 166.922 322.98ZM164.032 329.151C161.188 331.702 158.345 332.398 156.947 330.449C155.548 328.501 157.413 326.181 160.116 324.187C162.82 322.192 164.871 321.96 166.083 323.398C167.248 324.836 166.875 326.599 164.032 329.151Z" fill="#FED32C"/>
<path d="M193.21 347.568L194.935 344.506L184.447 338.753L182.723 341.815L183.562 342.279C184.447 341.491 185.659 340.377 186.731 340.98L187.943 341.676L183.049 350.537C182.769 351.001 182.397 350.954 181.138 350.258L180.672 351.093L186.592 354.341L187.058 353.506C185.706 352.764 185.566 352.485 185.892 351.882L190.74 343.161L191.999 343.856C193.024 344.413 192.838 345.851 192.558 347.197L193.21 347.568Z" fill="#FED32C"/>
<path d="M251.056 354.758C250.823 356.985 250.543 358.145 248.772 358.609L246.861 359.119C246.488 359.212 246.022 359.026 245.882 358.516L243.598 349.887C243.365 349.052 243.878 348.681 245.183 348.356L244.95 347.568L238.377 349.284L238.611 350.073C239.869 349.748 240.382 349.841 240.568 350.49L242.899 359.258C243.178 360.232 242.339 360.372 241.407 360.604L241.64 361.485L252.594 358.609L251.662 354.619L251.056 354.758Z" fill="#FED32C"/>
<path d="M283.265 335.181C284.01 337.269 284.337 338.429 282.892 339.681L281.4 340.98C281.12 341.212 280.608 341.305 280.235 340.841L274.362 334.068C273.802 333.418 274.129 332.862 275.108 332.027L274.548 331.424L269.421 335.831L269.98 336.434C270.959 335.599 271.472 335.46 271.891 335.97L277.858 342.836C278.51 343.624 277.858 344.042 277.112 344.691L277.718 345.387L286.294 338.011L283.684 334.857L283.265 335.181Z" fill="#FED32C"/>
<path d="M293.845 323.259L288.858 319.223C288.112 318.62 288.252 317.877 289.184 316.718L288.485 316.161L285.129 320.29L285.828 320.846C286.667 319.826 287.46 319.687 287.926 320.058L293.1 324.279C294.591 325.485 294.731 327.248 293.566 328.686C292.587 329.846 290.956 330.403 289.231 329.011L283.871 324.697C283.358 324.279 283.358 323.862 284.197 322.841L283.498 322.238L279.442 327.202L280.142 327.759C280.981 326.738 281.493 326.831 282.053 327.295L287.133 331.424C289.883 333.65 292.354 331.887 294.312 329.614C295.43 328.362 296.362 325.3 293.845 323.259Z" fill="#FED32C"/>
<path d="M220.432 360.418L217.589 349.98L215.678 349.748L210.317 359.722C209.898 360.511 209.478 360.743 208.126 360.557L208.033 361.485L213.067 362.042L213.161 361.114C211.296 360.882 210.97 360.604 211.296 359.954L212.461 357.774L216.703 358.238L217.356 360.511C217.775 361.856 216.75 361.531 215.724 361.439L215.631 362.366L222.343 363.109L222.436 362.181C220.991 362.042 220.665 361.299 220.432 360.418ZM212.974 356.939L215.165 352.856L216.47 357.31L212.974 356.939Z" fill="#FED32C"/>
<path d="M271.612 345.294C271.612 347.846 270.726 348.959 269.421 349.655C267.277 350.769 265.039 349.145 263.361 346.222C261.683 343.3 262.289 340.887 263.501 340.191C264.62 339.542 266.578 339.124 269.001 341.769L269.654 341.351L267.09 337.501L266.391 338.011L266.717 338.568C264.806 338.521 263.734 338.892 263.035 339.31C262.429 339.635 261.497 340.284 260.891 341.258C259.912 342.836 259.027 345.805 260.611 348.31C262.196 350.908 264.294 351.882 266.298 351.882C268.629 351.882 270.074 350.908 271.379 349.47C272.404 348.356 272.451 346.733 272.311 345.294H271.612Z" fill="#FED32C"/>
<path d="M236.653 358.191C236 360.325 235.534 361.439 233.67 361.578L231.666 361.717C231.293 361.763 230.873 361.485 230.827 360.928L230.174 352.021C230.127 351.14 230.687 350.908 231.992 350.815L231.945 349.98L225.187 350.444L225.233 351.279C226.538 351.186 227.004 351.372 227.051 352.021L227.704 361.067C227.797 362.088 226.958 362.042 225.979 362.088L226.026 362.969L237.352 362.181L237.166 358.098L236.653 358.191Z" fill="#FED32C"/>
<path d="M178.108 333.604C176.663 332.305 172.189 330.171 168.833 334.068C165.477 337.918 167.434 341.815 169.159 343.485C170.884 345.155 175.918 346.918 178.901 342.697C181.931 338.429 179.507 334.903 178.108 333.604ZM176.43 340.238C174.1 343.253 171.443 344.46 169.718 342.836C167.994 341.166 169.345 338.568 171.629 336.109C173.913 333.65 175.871 333.047 177.316 334.207C178.761 335.413 178.761 337.223 176.43 340.238Z" fill="#FED32C"/>
<path d="M203.652 347.382L196.846 345.155L196.567 345.99C197.825 346.408 198.105 346.779 197.872 347.475L195.075 355.918C194.889 356.521 194.422 356.66 193.164 356.243L192.884 357.078L199.69 359.305C202.253 360.14 204.864 359.305 205.376 357.449C206.029 355.269 204.864 354.248 202.952 353.135C205.143 353.088 206.448 352.299 206.681 351.232C207.054 349.516 206.495 348.356 203.652 347.382ZM202.207 355.964C201.88 357.356 200.668 358.701 199.037 358.145L197.779 357.727L199.457 352.624L200.435 352.949C201.88 353.413 202.486 354.758 202.207 355.964ZM203.372 350.212C203.046 351.464 201.507 352.392 200.622 352.068L199.736 351.789L201.181 347.475L201.927 347.707C202.813 348.032 203.652 349.098 203.372 350.212Z" fill="#FED32C"/>
<path d="M156.434 315.28C155.222 315.975 154.476 316.022 153.824 314.908L153.078 313.61L157.32 311.151L158.904 313.841C159.557 314.723 158.765 315.883 157.879 316.857L158.392 317.785L161.328 316.115L155.781 306.558L154.942 307.068C155.828 308.553 155.595 308.692 154.896 309.11L147.018 313.656C146.412 313.981 146.179 313.563 145.573 312.496L144.734 313.006L147.997 318.62L148.836 318.109C148.323 317.228 148.184 316.532 148.696 316.207L152.519 313.981L153.264 315.28C153.87 316.3 153.404 317.089 152.146 317.785L152.565 318.527L156.947 316.022L156.434 315.28Z" fill="#FED32C"/>
<path d="M303.168 308.46C301.164 307.439 299.905 308.367 298.46 310.037C298.833 307.903 298.274 306.465 297.249 306.048C295.664 305.352 294.405 305.677 292.914 308.321L289.464 314.537L290.21 314.955C290.863 313.795 291.282 313.609 291.935 313.934L299.766 318.249C300.325 318.573 300.372 318.991 299.719 320.197L300.465 320.614L303.961 314.398C305.219 312.032 304.893 309.295 303.168 308.46ZM297.015 312.125L296.549 312.96L292.541 310.733L292.914 310.037C293.38 309.202 294.592 308.599 295.664 309.063C296.829 309.573 297.435 311.29 297.015 312.125ZM302.655 314.769L302.003 315.929L297.295 313.331L297.808 312.45C298.554 311.104 299.952 310.733 301.117 311.243C302.422 311.847 303.495 313.285 302.655 314.769Z" fill="#FED32C"/>
<path d="M197.499 179.771L199.83 190.441C200.156 191.972 200.156 193.689 197.173 194.338L197.452 195.591L205.936 193.781L205.656 192.529C203.092 193.086 201.927 191.787 201.554 190.024L199.27 179.493L214.839 191.787L217.356 191.23L213.906 175.457C213.533 173.833 214 172.581 216.563 172.024L216.284 170.771L207.987 172.581L208.266 173.833C210.783 173.277 211.855 174.529 212.135 175.643L214.186 184.967L200.575 174.204L193.164 175.782L193.444 177.034C196.147 176.478 197.173 178.38 197.499 179.771Z" fill="#FED32C"/>
<path d="M228.822 189.977C225.792 189.653 225.186 189.235 225.792 188.075L227.657 184.503L234.602 185.199L235.721 188.864C236.42 191.091 234.788 190.534 233.064 190.395L232.924 191.879L243.971 192.993L244.111 191.508C241.687 191.276 241.128 190.024 240.755 188.632L235.907 171.514L232.784 171.189L224.207 187.658C223.508 189.003 222.856 189.328 220.618 189.096L220.479 190.58L228.775 191.415L228.822 189.977ZM231.898 176.338L234.136 183.622L228.403 183.065L231.898 176.338Z" fill="#FED32C"/>
<path d="M265.972 194.848L261.777 200.647L263.175 201.621L263.735 200.879C265.785 204.312 268.442 207.049 271.892 207.977C275.667 208.951 279.07 206.864 279.816 204.034C280.561 201.158 278.79 199.024 277.438 196.936C276.506 195.544 274.455 193.457 275.015 191.415C275.387 190.07 277.438 189.189 278.79 189.56C281.074 190.163 283.078 193.225 281.214 198.652L282.193 199.395L286.295 193.735L284.896 192.761L284.29 193.596C283.172 190.905 280.328 188.029 277.485 187.287C273.57 186.266 270.447 188.354 269.747 191.044C268.815 194.524 271.053 196.704 272.87 199.302C273.756 200.554 274.828 202.085 274.409 203.663C274.036 205.054 272.311 206.121 270.633 205.657C267.184 204.73 265.506 200.74 267.044 195.637L265.972 194.848Z" fill="#FED32C"/>
<path d="M158.438 227.74L159.604 228.667L164.778 222.173L163.566 221.245C161.655 223.611 160.955 223.889 160.303 222.776L158.299 219.296L162.633 213.822L166.362 214.843C168.6 215.492 167.295 216.559 166.223 217.905L167.434 218.833L174.333 210.204L173.121 209.276C171.583 211.178 170.278 210.992 168.833 210.529L151.726 205.379L149.769 207.838L159.091 223.936C159.883 225.235 159.837 225.977 158.438 227.74ZM153.731 211.317L161.095 213.358L157.506 217.858L153.731 211.317Z" fill="#FED32C"/>
<path d="M262.523 192.111C262.523 189.142 260.285 187.519 258.421 185.849C257.162 184.735 254.645 183.204 254.692 181.117C254.692 179.725 256.51 178.38 257.908 178.38C260.285 178.38 262.942 180.838 262.569 186.544L263.735 187.008L266.252 180.514L264.667 179.91L264.294 180.885C262.523 178.565 259.074 176.478 256.137 176.478C252.128 176.478 249.611 179.261 249.565 182.044C249.518 185.617 252.222 187.194 254.645 189.281C255.811 190.302 257.256 191.508 257.209 193.132C257.162 194.57 255.811 196.008 254.039 196.008C250.45 196.008 247.84 192.529 248.027 187.194L246.861 186.73L244.251 193.364L245.836 193.967L246.162 193.086C249.005 195.915 252.268 197.864 255.857 197.91C259.773 197.91 262.523 195.034 262.523 192.111Z" fill="#FED32C"/>
<path d="M292.634 203.941L280.422 212.987C279.583 213.498 279.256 213.126 277.858 211.178L276.926 211.874L283.451 220.595L284.384 219.9C283.312 218.461 282.799 217.58 283.684 216.977L289.185 212.941L289.418 213.266C289.651 213.544 289.651 214.008 289.511 214.333L286.388 224.492L290.909 230.569L291.842 229.874C290.769 228.018 290.956 227.693 291.236 226.441L293.613 217.394C296.596 219.575 299.766 219.25 301.537 217.394C303.028 215.817 303.215 213.08 300.977 210.065L293.287 199.812L292.075 200.694C293.287 202.364 293.706 203.152 292.634 203.941ZM298.367 209.183C299.439 210.621 298.74 212.338 297.342 213.544C295.664 215.029 292.867 215.632 291.748 214.101L290.257 212.059L296.876 207.142L298.367 209.183Z" fill="#FED32C"/>
<path d="M166.875 194.292L175.498 206.121C176.477 207.467 175.312 208.07 174.007 209.044L174.846 210.204L189.995 199.255L186.266 193.828L185.52 194.431C186.406 197.91 186.732 199.859 184.215 201.668L181.558 203.616C181.045 203.987 180.253 203.987 179.694 203.245L171.21 191.601C170.371 190.441 170.977 189.606 172.748 188.354L171.956 187.287L162.867 193.828L163.659 194.895C165.384 193.596 166.223 193.457 166.875 194.292Z" fill="#FED32C"/>
</g>
<defs>
<clipPath id="clip0_35_106">
<rect width="238" height="322" fill="white" transform="translate(106 65)"/>
</clipPath>
</defs>
</svg>
