<svg width="450" height="452" viewBox="0 0 450 452" fill="none" xmlns="http://www.w3.org/2000/svg">
<rect width="450" height="452" fill="white"/>
<path d="M239.624 360.885C238.452 364.332 234.717 372.786 225.675 372.786C215.391 372.786 211.824 361.658 211.651 361.189L211.347 360.136C211.347 360.136 220.204 360.872 225.082 360.872C229.949 360.872 238.287 360.391 239.637 360.136L239.624 360.885Z" fill="black"/>
<path d="M266.61 355.399L268.72 355.666C266.203 362.244 261.682 369.615 252.821 369.615C244.178 369.615 239.916 364.613 238.131 361.269L236.621 360.347C236.621 360.347 251.509 359.866 266.61 355.399Z" fill="black"/>
<path d="M185.052 355.399L182.942 355.666C185.447 362.244 189.989 369.615 198.878 369.615C207.472 369.615 212.104 364.35 214.013 361.269L215.037 360.347C215.037 360.347 200.174 359.866 185.052 355.399Z" fill="black"/>
<path d="M232.89 361.586C231.488 363.594 230.546 363.491 228.888 363.491C228.028 363.491 226.794 364.182 226.806 365.457C226.843 366.461 227.662 367.276 229.007 367.276C232.068 367.276 234.408 363.035 235.029 361.229C235.029 361.229 236.823 361.155 237.345 361.101C237.345 361.101 234.137 370.694 225.786 370.694C217.423 370.694 214.013 361.216 214.013 361.216C214.013 361.216 221.064 361.644 225.083 361.644C229.114 361.644 231.681 361.607 232.89 361.586Z" fill="url(#paint0_radial_35_44)"/>
<path d="M186.188 357.358C191.622 358.798 195.505 360.016 204.658 361.127C204.658 361.127 204.366 362.052 202.375 361.978C201.614 361.929 201.511 361.739 201.248 361.694C200.66 361.587 199.808 362.184 199.895 363.175C199.985 363.874 200.569 364.742 202.601 364.742C204.633 364.742 206.999 363.089 208.196 361.542C208.196 361.542 209.409 361.826 210.672 361.888C210.672 361.888 206.76 367.351 199.076 367.351C190.639 367.351 187.496 359.777 186.188 357.358Z" fill="url(#paint1_radial_35_44)"/>
<path d="M224.98 312.396C254.121 312.396 286.405 294.51 309.071 268.725C311.54 265.936 315.674 260.638 325.518 260.638C335.378 260.638 348.484 269.626 346.95 285.982C345.806 297.895 328.78 324.774 299.626 341.307C270.481 357.905 243.631 361.456 224.98 361.456C206.312 361.456 179.487 357.905 150.325 341.307C121.175 324.774 104.153 297.895 103.018 285.982C101.483 269.626 114.593 260.638 124.433 260.638C134.302 260.638 138.453 265.936 140.913 268.725C163.546 294.51 195.847 312.396 224.98 312.396Z" fill="#FFE500" stroke="black" stroke-width="2.09797" stroke-miterlimit="3.863"/>
<path d="M224.733 316.361C195.411 316.361 162.045 299.059 137.47 271.07C134.968 268.227 131.784 264.57 124.207 264.57C119.781 264.57 114.762 266.94 111.434 270.605C108.929 273.328 106.119 278.129 106.794 285.488C107.769 295.542 123.701 321.561 152.098 337.72C174.986 350.739 199.425 357.317 224.733 357.317C250.065 357.317 274.504 350.739 297.393 337.72C325.781 321.561 341.738 295.542 342.676 285.488C343.379 278.129 340.549 273.328 338.077 270.605C334.732 266.94 329.701 264.57 325.296 264.57C317.685 264.57 314.505 268.227 312.027 271.07C287.466 299.059 254.059 316.361 224.733 316.361Z" fill="#DA020E"/>
<path d="M350.87 170.398L350.973 163.602C353.067 165.202 357.004 165.227 359.308 162.771C360.356 161.652 360.953 159.92 360.867 158.139C360.768 156.128 359.855 154.038 358.353 152.565C349.846 144.251 342.289 135.95 342.289 135.95C341.508 134.716 340.286 133.823 339.578 133.519C338.538 133.021 334.835 131.33 332.013 135.617C329.467 139.5 329.845 144.975 330.335 146.975L338.311 157.847C341.043 161.311 348.739 168.678 350.87 170.398Z" fill="black"/>
<path d="M180.379 99.9262C190.421 96.553 199.602 93.764 211.976 92.6697L213.852 91.6166C206.945 86.166 200.084 82.4473 193.251 82.4473C188.96 82.4473 180.231 85.3639 178.285 100.765L180.379 99.9262Z" fill="black"/>
<path d="M269.601 99.9262C259.555 96.553 250.382 93.764 238.02 92.6697L236.12 91.6166C243.055 86.166 249.9 82.4473 256.741 82.4473C261.036 82.4473 269.728 85.3639 271.715 100.765L269.601 99.9262Z" fill="black"/>
<path d="M213.634 92.1595C218.686 82.4472 223.305 78.9341 225.889 78.9341C229.081 78.9341 232.841 84.0104 235.794 90.5799L236.416 92.069L233.82 91.8675C232.117 91.5466 227.267 91.4849 225.416 91.4849C223.515 91.4849 219.418 91.4849 216.95 91.7153L213.634 92.1595Z" fill="black"/>
<path d="M173.802 311.036L166.487 324.258C164.278 328.232 162.004 330.753 158.272 328.614C154.599 326.537 155.45 323.526 157.705 319.42L165.039 306.182L159.124 302.9L151.374 316.89C147.108 324.591 152.476 329.367 156.68 331.683C161.168 334.168 167.701 336.015 171.93 328.372L179.733 314.319L173.802 311.036ZM267.856 338.276L265.392 330.69L272.731 328.32L271.715 325.165L264.368 327.547L262.278 321.064L269.79 318.6L268.778 315.478L255.026 319.949L262.669 343.446L277.828 338.531L276.828 335.396L267.856 338.276ZM283.567 307.867L275.195 312.693L287.59 334.187L295.928 329.365C304.546 324.396 305.365 316.868 301.971 310.829C297.886 303.663 291.144 303.499 283.567 307.867ZM296.216 314.408C299.355 319.908 298.717 323.919 293.884 326.687L291.58 328.028L282.481 312.306L284.957 310.87C290.761 307.534 294.056 310.504 296.216 314.408ZM229.25 324.48L229.698 327.701L236.617 326.721L239.608 347.964L246.042 347.072L243.059 325.841L249.876 324.895L249.407 321.629L229.25 324.48ZM223.392 324.681L216.913 324.327L215.617 349.009L222.1 349.354L223.392 324.681ZM203.72 321.663L199.208 338.529L190.762 318.187L185.509 316.776L179.108 340.656L184.83 342.174L189.38 325.168L197.953 345.683L203.091 347.069L209.467 323.181L203.72 321.663Z" fill="#FFE500"/>
<path d="M169.626 165.827V281.594L224.98 317.161L280.329 281.594L280.411 166.004C278.638 164.441 274.957 161.014 272.073 159.221H177.631C175.241 160.899 170.453 164.939 169.626 165.827Z" fill="#FFE500"/>
<mask id="mask0_35_44" style="mask-type:luminance" maskUnits="userSpaceOnUse" x="169" y="159" width="112" height="159">
<path d="M169.626 165.827V281.594L224.98 317.161L280.329 281.594L280.411 166.004C278.638 164.441 274.957 161.014 272.073 159.221H177.631C175.241 160.899 170.453 164.939 169.626 165.827Z" fill="white"/>
</mask>
<g mask="url(#mask0_35_44)">
<g filter="url(#filter0_f_35_44)">
<path d="M169.626 118.805L169.626 165.827V281.594L224.98 317.161L280.329 281.594L280.411 118.982" stroke="#B54005" stroke-width="10" stroke-miterlimit="3.863"/>
</g>
</g>
<path d="M247.103 248.887V244.585C247.103 244.585 245.959 242.816 243.125 242.816C240.299 242.816 238.608 243.667 238.608 244.379C238.608 245.543 241.138 248.887 247.103 248.887ZM224.782 210.799L229.06 203.329L232.413 210.799H237.966C234.626 213.934 233.26 218.677 233.26 221.84V225.287C233.26 226.752 232.524 229.175 232.524 229.175C232.524 229.175 237.345 232.848 238.086 233.486C238.394 233.729 238.732 233.877 238.509 234.514C238.127 235.588 234.852 237.065 234.519 237.345C233.779 238.003 233.585 238.398 233.779 239.048C234.013 239.673 234.626 239.788 235.881 239.344C237.148 238.937 239.772 237.558 241.973 236.616C244.166 235.662 247.103 235.905 247.103 235.905V231.688H238.81V218.29L237.345 215.929L241.002 209.413L244.68 215.97L243.232 218.29V225.287H247.457V218.29L246 215.97L249.67 209.462L253.323 215.97L251.879 218.29V225.287H256.132V218.29L254.627 215.97L258.309 209.462L261.978 215.97L260.513 218.29L260.583 231.668H252.224V237.855C254.121 239.636 255.91 243.667 255.91 246.041C255.91 248.472 254.326 249.5 254.326 249.5C254.857 251.409 254.754 252.203 254.528 253.931C254.326 255.687 252.134 258.427 252.134 258.427V290.403C252.134 292.575 247.103 292.361 247.103 290.505V259.147C244.256 256.033 236.506 253.585 236.506 253.585C233.664 256.428 231.915 261.364 231.915 261.364C233.149 262.228 235.07 261.364 235.794 260.525C236.506 259.686 237.966 259.468 238.81 259.999C239.637 260.525 239.842 260.727 239.558 261.961C239.233 263.261 238.715 265.338 238.715 266.79C238.715 268.279 240.389 267.946 241.64 268.057C244.166 268.279 244.581 271.101 244.371 272.677C244.166 274.261 243.425 277.621 243.425 279.711C243.425 281.78 243.536 283.87 243.742 285.055C243.96 286.198 244.371 287.461 244.256 288.938C244.129 290.925 242.907 291.242 241.64 289.967C240.389 288.712 222.877 270.044 222.877 270.044C221.713 273.841 226.559 280.316 228.122 282.315C229.698 284.314 229.595 285.783 228.217 287.153C226.868 288.506 224.239 289.23 223.725 290.505C223.19 291.74 224.98 295.541 228.661 300.255C232.331 304.961 224.449 308.12 219.747 309.062C215.012 309.992 215.012 306.742 215.341 304.961C215.654 303.196 215.654 302.122 215.539 300.572C215.436 298.992 213.988 296.804 211.976 294.183C209.989 291.55 209.989 289.156 210.816 283.056C211.651 276.971 211.454 273.088 211.454 273.088C211.454 273.088 209.356 273.175 206.312 273.088C203.284 272.973 200.771 271.216 200.557 263.869C200.347 256.543 200.174 239.048 199.676 237.213C199.191 235.399 197.229 235.066 196.402 234.823C195.542 234.609 195.501 233.371 196.332 232.926C198.521 231.861 201.145 229.175 200.174 227.505C199.191 225.83 195.337 226.176 192.757 227.439C190.17 228.689 187.442 231.437 186.739 232.186C186.06 232.926 185.472 232.926 185.546 232.128C185.632 231.273 185.069 227.27 184.736 225.884C184.365 224.485 183.115 221.84 182.691 221.141C182.276 220.437 182.691 220.166 183.399 220.437C184.077 220.717 185.632 221.363 187.093 221.75C188.565 222.194 189.968 221.47 190.639 220.096C191.338 218.677 192.704 215.686 193.403 214.349C194.09 213.029 195.201 213.325 196.114 213.526C197.019 213.74 197.858 214.3 198.693 214.633C199.524 214.979 200.219 214.913 200.516 214.489C200.799 214.086 201.145 213.934 201.647 212.889C202.136 211.844 202.745 212.342 202.823 212.757C205.324 227.797 211.841 228.488 211.841 228.488C210.862 230.993 208.566 234.987 208.023 235.995C207.435 236.937 207.217 238.278 207.073 239.319C206.962 240.356 207.435 250.29 208.13 253.931C208.838 257.576 211.063 256.156 211.787 255.042C212.458 253.931 214.642 249.307 214.642 249.307C214.642 249.307 215.181 248.048 215.181 247.003C215.181 245.95 213.371 243.667 212.955 242.956C212.523 242.232 210.997 240.845 210.997 237.345C210.997 233.856 214.14 231.437 215.271 230.52C216.39 229.603 216.39 228.331 216.238 227.566C215.749 224.868 212.881 219.191 211.503 217.015C210.092 214.847 207.369 210.729 207.369 210.729H213.029L216.674 203.16L220.64 210.762L224.782 210.799ZM223.865 233.729C225.712 230.676 226.485 227.505 226.485 227.505H221.146C221.146 227.505 222.001 230.75 223.865 233.729ZM218.303 218.339C218.517 219.903 219.681 220.499 220.566 220.042C221.446 219.557 221.294 218.29 220.64 217.278C220.014 216.287 218.714 215.18 218.315 215.345C217.908 215.513 218.163 217.418 218.303 218.339ZM228.888 215.345C228.505 215.18 227.135 216.287 226.485 217.278C225.86 218.29 225.7 219.557 226.588 220.042C227.456 220.499 228.575 219.89 228.855 218.339C229.007 217.418 229.307 215.513 228.888 215.345Z" fill="url(#paint2_linear_35_44)"/>
<path d="M173.969 194.688V201.656H276.094V194.688H268.563V195.812H181.5V194.688H173.969Z" fill="#DA020E"/>
<path d="M173.974 163.371H276.08V191.139H173.974V163.371Z" fill="#DA020E"/>
<path d="M191.519 183.077L199.339 184.998L203.56 173.237V170.259L191.519 183.077ZM255.968 190.01V186.388H248.588V183.344H254.619V169.917H249.061L247.161 166.222L245.305 169.917H239.731V183.344H245.787V186.388H231.269V183.344H237.308V169.917H231.742L229.863 166.222L227.962 169.917H222.413V183.344H228.48V186.388H213.663V183.344H219.714V169.917H214.14L212.277 166.222L210.364 169.917H204.81V183.344H210.882V186.388L199.158 186.425L187.496 183.701L189.832 190.01L255.968 190.01Z" fill="#FFE500"/>
<path d="M180.959 98.832C190.816 95.5328 198.265 92.9618 210.405 91.884C204.81 88.0007 199.845 84.7139 194.135 84.7139C191.132 84.7139 188.565 85.8616 187.973 87.9596C187.422 89.8683 188.927 90.6993 189.462 90.5717C190.022 90.4278 190.421 90.2632 190.285 89.7449C190.141 89.1978 190.565 87.8073 192.473 87.8073C194.415 87.8073 195.147 89.605 195.147 90.8391C195.147 92.0732 193.189 94.1342 189.59 94.1342C186.06 94.1342 184.25 91.7812 184.386 89.605C182.683 92.0979 181.691 94.6196 180.959 98.832Z" fill="url(#paint3_radial_35_44)"/>
<path d="M112.277 157.845L120.283 146.973C120.743 144.974 121.109 139.503 118.551 135.619C115.753 131.329 112.068 133.024 110.986 133.521C110.303 133.826 109.061 134.714 108.295 135.953C108.295 135.953 100.599 144.427 92.1287 152.765C90.9316 153.954 89.6152 156.126 89.5042 158.138C89.4013 159.923 90.1212 161.716 91.1578 162.835C93.4738 165.304 97.5217 165.205 99.5909 163.601L99.7348 170.396C101.866 168.681 109.55 161.309 112.277 157.845Z" fill="black"/>
<path d="M224.98 142.023C270.559 142.023 296.492 184.805 302.152 192.317C312.206 205.735 324.514 216.628 338.776 213.029C359.727 207.669 358.637 176.635 358.637 176.635C353.581 172.995 344.967 168.412 329.261 146.149C313.88 124.326 279.074 91.9966 224.98 91.9966C170.872 91.9966 136.075 124.326 120.731 146.149C105.009 168.412 96.3657 172.995 91.3594 176.635C91.3594 176.635 90.2281 207.669 111.195 213.029C125.449 216.628 137.749 205.735 147.82 192.317C153.459 184.805 179.408 142.023 224.98 142.023Z" fill="#FFE500" stroke="black" stroke-width="2.09797" stroke-miterlimit="3.863"/>
<path d="M224.98 137.961C268.922 137.961 295.056 175.235 304.507 188.685C317.015 205.38 327.603 211.682 337.777 209.095C352.479 205.351 354.305 185.116 354.503 178.991V178.748L354.338 178.621C349.155 175.029 340.483 169.077 325.954 148.48C317.286 136.18 284.381 96.0181 224.98 96.0181C165.599 96.0181 132.665 136.18 124.001 148.48C109.591 168.945 100.529 175.186 95.6747 178.518L95.469 178.686L95.4937 178.9C95.6912 185.038 97.5218 205.38 112.187 209.095C122.372 211.682 132.982 205.38 145.456 188.685C154.899 175.235 181.058 137.961 224.98 137.961Z" fill="#DA020E"/>
<path d="M201.108 106.823C193.045 108.531 187.734 114.475 189.475 122.534C190.487 126.886 194.37 134.895 206.653 132.283C210.064 131.633 211.906 130.275 213.692 128.568L211.454 125.997C210.611 126.935 209.352 128.301 206.526 128.889C200.581 130.144 197.048 125.335 196.168 121.184C194.859 115.034 198.442 110.797 202.49 109.921C205.382 109.283 207.135 110.069 208.245 110.501H208.282L209.035 107.35C207.085 106.568 204.744 106.05 201.108 106.823ZM268.539 142.277C273.151 145.053 278.182 144.58 280.535 140.685C282.246 137.961 282.263 135.699 280.206 131.647C279.675 130.499 278.98 129.677 278.515 128.632C277.606 126.937 276.767 125.551 277.548 124.238C278.412 122.815 280.411 122.7 282.221 123.806C284.118 124.954 284.903 126.85 285.303 128.146L288.277 126.863C287.363 124.419 286.01 122.227 282.917 120.396C277.631 117.212 273.332 118.051 271.542 121.034C269.728 124.033 270.242 126.53 271.608 129.088C271.608 129.088 272.455 130.54 272.945 131.532C274.142 133.531 275.537 136.053 274.558 137.628C273.373 139.615 271.333 140.047 269.346 138.813C266.799 137.209 266.203 135.341 265.672 133.519L262.402 134.917C263.122 137.427 264.812 140.027 268.539 142.277ZM233.335 105.526L233.149 115.597L223.466 115.457L223.61 105.35L217.118 105.23L216.687 129.941L223.19 130.081L223.396 118.752L233.096 118.929L232.911 130.237L239.406 130.336L239.83 105.625L233.335 105.526ZM326.332 183.993C326.378 184.055 330.142 185.915 334.325 182.159C337.822 179.016 336.649 174.709 332.996 170.665L326.262 163.182L307.903 179.728L312.243 184.541L319.553 177.983L321.663 180.365L317.035 190.806L322.577 195.232L326.332 183.993ZM329.611 171.821C331.33 173.73 331.359 175.996 329.36 177.757C327.414 179.551 324.93 179.139 323.041 177.066L321.943 175.836L328.159 170.221L329.611 171.821ZM300.959 165.508L307.109 160.403L312.041 166.273L314.592 164.147L309.631 158.252L314.835 153.871L319.915 159.922L322.437 157.82L313.156 146.758L294.237 162.645L304.456 174.842L307.006 172.724L300.959 165.508ZM293.867 128.376L291.662 130.795L296.845 135.48L282.481 151.417L287.326 155.773L301.671 139.833L306.788 144.44L308.985 142.021L293.867 128.376ZM251.566 129.943L254.183 122.406L261.46 124.916L262.542 121.781L255.252 119.276L257.469 112.822L264.969 115.393L266.022 112.274L252.36 107.573L244.33 130.975L259.386 136.13L260.456 133.011L251.566 129.943ZM173.328 117.836L182.609 132.629L161.946 124.915L157.347 127.803L170.449 148.795L175.439 145.652L166.097 130.707L186.973 138.458L191.482 135.631L178.355 114.652L173.328 117.836ZM144.426 140.189L140.201 144.722L152.044 168.273L154.936 165.18L151.719 158.914L157.437 152.764L163.92 155.512L168.684 150.411L144.426 140.189ZM154.414 151.403L150.123 156.01L145.713 147.536L154.414 151.403ZM130.468 155.134L125.869 160.609L134.462 178.38L116.033 172.345L112.068 177.043L131.003 192.942L133.878 189.528L120.497 178.265L138.432 184.106L140.32 181.868L131.768 164.731L145.207 175.998L149.403 171.033L130.468 155.134Z" fill="#FFE500"/>
<path d="M101.541 167.725L101.52 162.275C110.821 153.735 115.206 145.154 115.206 145.154C115.206 145.154 111.788 143.866 110.258 141.92C109.501 140.839 109.209 139.362 109.336 138.37C109.632 136.511 111.08 135.569 111.574 135.355C112.644 134.894 114.63 133.849 116.844 136.894C119.201 140.189 118.58 146.441 118.255 147.881C118.255 147.881 113.919 155.43 101.541 167.725Z" fill="url(#paint4_radial_35_44)"/>
<path d="M111.833 146.148C110.579 148.337 107.415 153.619 99.414 161.118C98.0853 162.364 94.7697 163.421 92.8897 161.311C92.1863 160.493 91.7214 159.345 91.7914 158.012C91.8819 156.469 92.8074 154.676 93.7371 153.886C95.3497 152.524 102.224 145.585 107.111 140.126C107.246 141.121 108.102 142.787 108.102 142.787C108.777 143.717 109.599 145.054 111.833 146.148Z" fill="url(#paint5_linear_35_44)"/>
<path d="M224.733 316.361C195.411 316.361 162.045 299.059 137.47 271.07C134.968 268.227 131.784 264.57 124.207 264.57C119.781 264.57 114.762 266.94 111.434 270.605C108.929 273.328 106.119 278.129 106.794 285.488C107.769 295.542 123.701 321.561 152.098 337.72C174.986 350.739 199.425 357.317 224.733 357.317" fill="url(#paint6_linear_35_44)"/>
<path d="M224.733 316.361C254.055 316.361 287.421 299.059 311.996 271.07C314.497 268.227 317.681 264.57 325.259 264.57C329.685 264.57 334.704 266.94 338.032 270.605C340.537 273.328 343.346 278.129 342.672 285.488C341.697 295.542 325.765 321.561 297.368 337.72C274.479 350.739 250.04 357.317 224.733 357.317" fill="url(#paint7_linear_35_44)"/>
<path d="M304.507 188.685C317.015 205.38 327.603 211.682 337.777 209.095C352.479 205.351 354.305 185.116 354.503 178.991V178.748L354.338 178.621C349.155 175.029 340.483 169.077 325.954 148.48" fill="url(#paint8_linear_35_44)"/>
<path d="M145.493 188.685C132.985 205.38 122.397 211.682 112.224 209.095C97.5213 205.351 95.6949 185.116 95.4974 178.991V178.748L95.662 178.621C100.845 175.029 109.517 169.077 124.046 148.48" fill="url(#paint9_linear_35_44)"/>
<path d="M269.041 98.832C259.185 95.5328 251.735 92.9618 239.595 91.884C245.19 88.0007 250.155 84.7139 255.865 84.7139C258.868 84.7139 261.435 85.8616 262.027 87.9596C262.578 89.8683 261.073 90.6993 260.538 90.5717C259.978 90.4278 259.579 90.2632 259.715 89.7449C259.859 89.1978 259.435 87.8073 257.527 87.8073C255.585 87.8073 254.853 89.605 254.853 90.8391C254.853 92.0732 256.811 94.1342 260.41 94.1342C263.94 94.1342 265.75 91.7812 265.614 89.605C267.317 92.0979 268.309 94.6196 269.041 98.832Z" fill="url(#paint10_radial_35_44)"/>
<path d="M225.442 85.894C225.133 87.778 222.966 89.584 220.773 89.584C218.576 89.584 217.918 89.2302 217.918 89.2302C217.585 89.7485 217.293 90.1475 216.947 90.707C218.938 90.6288 223.558 90.5013 225.409 90.5013C227.256 90.5013 232.378 90.7687 233.48 90.8469C231.699 86.6715 228.264 80.8918 225.89 80.8918C225.808 80.8918 225.705 80.8838 225.578 80.8838C225.022 80.8838 223.099 82.5517 222.068 84.0162C220.714 85.9403 225.442 85.894 225.442 85.894Z" fill="url(#paint11_radial_35_44)"/>
<path d="M348.459 167.725L348.48 162.275C339.179 153.735 334.794 145.154 334.794 145.154C334.794 145.154 338.212 143.866 339.742 141.92C340.499 140.839 340.791 139.362 340.664 138.37C340.368 136.511 338.92 135.569 338.426 135.355C337.357 134.894 335.37 133.849 333.157 136.894C330.799 140.189 331.421 146.441 331.745 147.881C331.745 147.881 336.081 155.43 348.459 167.725Z" fill="url(#paint12_radial_35_44)"/>
<path d="M338.167 146.148C339.422 148.337 342.585 153.619 350.586 161.118C351.915 162.364 355.23 163.421 357.11 161.311C357.814 160.493 358.279 159.345 358.209 158.012C358.118 156.469 357.193 154.676 356.263 153.886C354.65 152.524 347.776 145.585 342.889 140.126C342.754 141.121 341.898 142.787 341.898 142.787C341.223 143.717 340.401 145.054 338.167 146.148Z" fill="url(#paint13_linear_35_44)"/>
<path d="M169.626 165.827V281.594L224.98 317.161L280.329 281.594L280.411 166.004C278.638 164.441 274.957 161.014 272.073 159.221H177.631C175.241 160.899 170.453 164.939 169.626 165.827Z" stroke="black" stroke-width="2.09797" stroke-miterlimit="3.863"/>
<path d="M265.562 357.358C260.128 358.798 256.245 360.016 247.092 361.127C247.092 361.127 247.384 362.052 249.375 361.978C250.136 361.929 250.239 361.739 250.502 361.694C251.09 361.587 251.942 362.184 251.856 363.175C251.765 363.874 251.181 364.742 249.149 364.742C247.117 364.742 244.751 363.089 243.554 361.542C243.554 361.542 242.341 361.826 241.078 361.888C241.078 361.888 244.99 367.351 252.674 367.351C261.111 367.351 264.254 359.777 265.562 357.358Z" fill="url(#paint14_radial_35_44)"/>
<path d="M81.248 238.527C81.248 224.561 92.5812 213.203 106.564 213.203C120.55 213.203 131.875 224.561 131.875 238.527C131.875 252.518 120.55 263.851 106.564 263.851C92.5812 263.851 81.248 252.518 81.248 238.527Z" fill="#FFE500" stroke="black" stroke-width="2.09797" stroke-miterlimit="3.863"/>
<path d="M87.0433 237.586C87.0433 226.997 95.7819 218.386 106.563 218.386C117.348 218.386 126.08 226.997 126.08 237.586C126.08 248.193 117.348 256.786 106.563 256.786C95.7819 256.786 87.0433 248.193 87.0433 237.586Z" fill="url(#paint15_radial_35_44)"/>
<path d="M111.94 255.932C110.829 256.286 110.348 255.508 109.842 254.949C107.872 252.682 107.366 246.647 107.366 245.849C107.366 245.047 107.662 244.167 108.225 244.146C112.977 244.056 116.371 242.677 119.485 240.09C122.595 237.548 123.944 234.631 124.219 234.113C124.491 233.537 125.137 233.64 125.256 234.438C125.388 235.104 125.639 236.301 125.639 237.597C125.639 246.293 119.777 253.398 111.94 255.932ZM106.926 256.717C106.79 256.717 106.638 256.734 106.51 256.734C103.009 256.734 99.1548 255.397 96.8717 254.097C94.5064 252.809 93.6178 246.738 93.6178 243.669C93.6178 233.677 97.715 227.728 98.3814 226.56C99.0314 225.375 100.496 225.252 101.57 225.54C102.68 225.861 103.075 226.054 104.354 226.433C105.021 226.651 106.374 226.926 107.39 227.107C108.406 227.35 109.501 227.564 108.843 229.46C108.193 231.361 105.979 235.927 105.757 241.341C105.543 246.24 106.193 251.106 107.3 254.097C108.028 256.031 108.028 256.754 106.926 256.717ZM92.4619 233.907C91.5281 233.414 90.405 231.003 90.0266 230.299C89.7715 229.794 89.7715 228.346 90.1377 227.728C91.7009 224.993 93.9181 222.459 96.773 221.138C97.1227 220.986 97.6122 220.957 97.6122 221.797C97.6122 222.245 97.8549 222.944 97.8631 223.389C97.8631 223.837 98.0524 224.754 97.4847 225.478C96.8882 226.206 94.3336 230.736 93.6795 233.274C93.5726 233.841 93.3998 234.438 92.4619 233.907ZM91.9353 249.942C89.2861 247.326 87.3979 242.587 87.3979 237.597C87.3979 235.66 87.6859 233.804 88.2001 232.044C88.2001 232.044 88.6732 231.254 89.0846 231.924C89.4013 232.418 89.8374 232.916 90.1911 233.574C90.586 234.232 92.6347 235.791 92.4619 237.062C91.7461 241.731 92.3879 247.935 92.61 248.98C92.8074 250.012 92.5236 250.452 91.9353 249.942ZM100.298 219.509C102.261 218.859 104.355 218.493 106.51 218.493C109.789 218.493 112.973 219.09 115.63 220.785C116.313 221.229 116.506 221.747 116.506 222.516C116.506 225.022 112.59 225.861 109.998 225.861C107.39 225.861 104.182 224.828 101.911 224.108C99.6485 223.401 99.1548 222.093 99.1548 221.496C99.1548 220.924 99.595 219.74 100.298 219.509ZM117.979 222.294C118.329 222.578 119.254 223.327 119.254 223.327C121.081 224.993 122.73 226.893 123.689 229.172C124.886 232.044 121.171 236.392 120.081 237.396C115.161 242.015 112.08 241.929 110.336 242.18C108.592 242.435 107.46 241.341 107.506 240.028C107.617 236.186 110.352 229.563 111.138 228.317C111.64 227.515 112.512 227.017 112.512 227.017C114.338 226.511 116.111 225.75 117.029 224.705C117.925 223.644 117.979 222.294 117.979 222.294ZM106.699 217.247C94.9383 217.247 85.4152 226.774 85.4152 238.527C85.4152 250.288 94.9383 259.811 106.699 259.811C118.452 259.811 127.996 250.288 127.996 238.527C127.996 226.774 118.452 217.247 106.699 217.247Z" fill="#DA020E"/>
<path d="M318.615 238.478C318.615 224.512 329.948 213.195 343.931 213.195C357.921 213.195 369.246 224.512 369.246 238.478C369.246 252.469 357.921 263.806 343.931 263.806C329.948 263.806 318.615 252.469 318.615 238.478Z" fill="#FFE500" stroke="black" stroke-width="2.09797" stroke-miterlimit="3.863"/>
<path d="M358.756 249.855C358.201 250.402 357.888 249.925 358.123 248.9C358.316 247.884 358.962 241.66 358.242 236.991C358.065 235.724 360.126 234.169 360.505 233.503C360.883 232.849 361.315 232.339 361.619 231.861C362.043 231.17 362.491 231.944 362.491 231.944C363.034 233.725 363.298 235.588 363.298 237.518C363.298 242.524 361.385 247.247 358.756 249.855ZM357.041 233.207C356.383 230.677 353.812 226.127 353.232 225.403C352.647 224.704 352.833 223.774 352.841 223.326C352.841 222.881 353.096 222.17 353.096 221.709C353.096 220.907 353.581 220.923 353.927 221.075C356.798 222.396 359.003 224.893 360.583 227.653C360.932 228.283 360.941 229.722 360.681 230.212C360.311 230.919 359.196 233.33 358.242 233.84C357.288 234.363 357.148 233.754 357.041 233.207ZM353.844 254.026C351.557 255.305 347.703 256.655 344.186 256.655H343.778C342.696 256.683 342.672 255.931 343.412 254.005C344.486 251.039 345.156 246.152 344.934 241.265C344.712 235.827 342.528 231.31 341.849 229.397C341.191 227.501 342.289 227.271 343.318 227.057C344.338 226.855 345.687 226.559 346.358 226.345C347.616 225.962 348.024 225.769 349.134 225.452C350.216 225.173 351.672 225.312 352.335 226.468C352.985 227.653 357.09 233.639 357.09 243.606C357.09 246.658 356.193 252.722 353.844 254.026ZM338.776 255.852C330.919 253.306 325.069 246.206 325.069 237.518C325.069 236.238 325.32 235.054 325.423 234.363C325.575 233.565 326.176 233.433 326.476 234.021C326.752 234.556 328.118 237.468 331.211 240.019C334.346 242.586 337.707 243.989 342.487 244.087C343.067 244.116 343.338 244.968 343.338 245.786C343.338 246.597 342.849 252.619 340.886 254.869C340.364 255.445 339.862 256.235 338.776 255.852ZM327.036 229.105C327.97 226.826 329.627 224.893 331.454 223.264C331.454 223.264 332.359 222.499 332.708 222.231C332.708 222.231 332.783 223.593 333.692 224.613C334.597 225.642 336.353 226.448 338.18 226.929C338.18 226.929 339.039 227.452 339.554 228.254C340.364 229.463 343.079 236.078 343.198 239.949C343.231 241.265 342.112 242.36 340.364 242.109C338.612 241.874 335.539 241.928 330.623 237.333C329.537 236.325 325.822 231.985 327.036 229.105ZM335.066 220.713C337.76 219.01 340.903 218.414 344.186 218.414C346.358 218.414 348.423 218.784 350.401 219.434C351.129 219.66 351.557 220.833 351.557 221.421C351.557 222.001 351.076 223.326 348.797 224.037C346.526 224.737 343.33 225.781 340.726 225.781C338.106 225.781 334.202 224.93 334.202 222.437C334.202 221.684 334.391 221.137 335.066 220.713ZM343.984 217.192C332.235 217.192 322.708 226.723 322.708 238.447C322.708 250.237 332.235 259.732 343.984 259.732C355.753 259.732 365.281 250.237 365.281 238.447C365.281 226.723 355.753 217.192 343.984 217.192Z" fill="#DA020E"/>
<path d="M324.7 237.492C324.7 226.903 333.438 218.292 344.219 218.292C355.004 218.292 363.736 226.903 363.736 237.492C363.736 248.099 355.004 256.692 344.219 256.692C333.438 256.692 324.7 248.099 324.7 237.492Z" fill="url(#paint16_radial_35_44)"/>
<defs>
<filter id="filter0_f_35_44" x="158.443" y="112.622" width="133.151" height="216.665" filterUnits="userSpaceOnUse" color-interpolation-filters="sRGB">
<feFlood flood-opacity="0" result="BackgroundImageFix"/>
<feBlend mode="normal" in="SourceGraphic" in2="BackgroundImageFix" result="shape"/>
<feGaussianBlur stdDeviation="3.09142" result="effect1_foregroundBlur_35_44"/>
</filter>
<radialGradient id="paint0_radial_35_44" cx="0" cy="0" r="1" gradientUnits="userSpaceOnUse" gradientTransform="translate(225.679 365.773) scale(9.91952 7.37389)">
<stop stop-color="#FFE500"/>
<stop offset="0.5" stop-color="#FFE500"/>
<stop offset="1" stop-color="#E15007"/>
</radialGradient>
<radialGradient id="paint1_radial_35_44" cx="0" cy="0" r="1" gradientUnits="userSpaceOnUse" gradientTransform="translate(198.43 362.354) scale(10.489 9.43105)">
<stop stop-color="#FFE500"/>
<stop offset="0.5" stop-color="#FFE500"/>
<stop offset="1" stop-color="#E15007"/>
</radialGradient>
<linearGradient id="paint2_linear_35_44" x1="222.124" y1="202.806" x2="222.124" y2="257.873" gradientUnits="userSpaceOnUse">
<stop stop-color="#8F0904"/>
<stop offset="0.249601" stop-color="#B40509"/>
<stop offset="1" stop-color="#DA020E"/>
</linearGradient>
<radialGradient id="paint3_radial_35_44" cx="0" cy="0" r="1" gradientUnits="userSpaceOnUse" gradientTransform="translate(193.472 92.3916) scale(11.9921 11.4182)">
<stop stop-color="#FFE500"/>
<stop offset="0.5" stop-color="#FFE500"/>
<stop offset="1" stop-color="#E15007"/>
</radialGradient>
<radialGradient id="paint4_radial_35_44" cx="0" cy="0" r="1" gradientUnits="userSpaceOnUse" gradientTransform="translate(106.299 153.264) rotate(-60.273) scale(18.7126 16.4611)">
<stop stop-color="#FFE500"/>
<stop offset="0.5" stop-color="#FFE500"/>
<stop offset="1" stop-color="#E15007"/>
</radialGradient>
<linearGradient id="paint5_linear_35_44" x1="103.784" y1="145.82" x2="108.333" y2="150.82" gradientUnits="userSpaceOnUse">
<stop stop-color="#FFE500"/>
<stop offset="0.5" stop-color="#FFE500"/>
<stop offset="1" stop-color="#E15007"/>
</linearGradient>
<linearGradient id="paint6_linear_35_44" x1="114.117" y1="269.932" x2="145.537" y2="305.994" gradientUnits="userSpaceOnUse">
<stop stop-color="#740703"/>
<stop offset="1" stop-color="#DA020E" stop-opacity="0"/>
</linearGradient>
<linearGradient id="paint7_linear_35_44" x1="335.349" y1="269.932" x2="303.929" y2="305.994" gradientUnits="userSpaceOnUse">
<stop stop-color="#740703"/>
<stop offset="1" stop-color="#DA020E" stop-opacity="0"/>
</linearGradient>
<linearGradient id="paint8_linear_35_44" x1="347.007" y1="203.567" x2="330.003" y2="187.567" gradientUnits="userSpaceOnUse">
<stop stop-color="#740703"/>
<stop offset="1" stop-color="#DA020E" stop-opacity="0"/>
</linearGradient>
<linearGradient id="paint9_linear_35_44" x1="102.993" y1="203.567" x2="120.997" y2="184.567" gradientUnits="userSpaceOnUse">
<stop stop-color="#740703"/>
<stop offset="1" stop-color="#DA020E" stop-opacity="0"/>
</linearGradient>
<radialGradient id="paint10_radial_35_44" cx="0" cy="0" r="1" gradientUnits="userSpaceOnUse" gradientTransform="translate(256.528 92.3916) rotate(180) scale(11.9921 11.4182)">
<stop stop-color="#FFE500"/>
<stop offset="0.5" stop-color="#FFE500"/>
<stop offset="1" stop-color="#E15007"/>
</radialGradient>
<radialGradient id="paint11_radial_35_44" cx="0" cy="0" r="1" gradientUnits="userSpaceOnUse" gradientTransform="translate(225 86.8376) scale(9.0599 8.65967)">
<stop stop-color="#FFE500"/>
<stop offset="0.5" stop-color="#FFE500"/>
<stop offset="1" stop-color="#E15007"/>
</radialGradient>
<radialGradient id="paint12_radial_35_44" cx="0" cy="0" r="1" gradientUnits="userSpaceOnUse" gradientTransform="translate(343.701 153.264) rotate(-119.727) scale(18.7126 16.4611)">
<stop stop-color="#FFE500"/>
<stop offset="0.5" stop-color="#FFE500"/>
<stop offset="1" stop-color="#E15007"/>
</radialGradient>
<linearGradient id="paint13_linear_35_44" x1="346.216" y1="145.82" x2="341.667" y2="150.82" gradientUnits="userSpaceOnUse">
<stop stop-color="#FFE500"/>
<stop offset="0.5" stop-color="#FFE500"/>
<stop offset="1" stop-color="#E15007"/>
</linearGradient>
<radialGradient id="paint14_radial_35_44" cx="0" cy="0" r="1" gradientUnits="userSpaceOnUse" gradientTransform="translate(253.32 362.354) rotate(180) scale(10.4891 9.43105)">
<stop stop-color="#FFE500"/>
<stop offset="0.5" stop-color="#FFE500"/>
<stop offset="1" stop-color="#E15007"/>
</radialGradient>
<radialGradient id="paint15_radial_35_44" cx="0" cy="0" r="1" gradientUnits="userSpaceOnUse" gradientTransform="translate(106.562 237.586) scale(19.5182 19.1999)">
<stop stop-color="#DA030E" stop-opacity="0"/>
<stop offset="0.875" stop-color="#DA020E" stop-opacity="0"/>
<stop offset="1" stop-color="#DA020E"/>
</radialGradient>
<radialGradient id="paint16_radial_35_44" cx="0" cy="0" r="1" gradientUnits="userSpaceOnUse" gradientTransform="translate(344.218 237.492) scale(19.5182 19.1999)">
<stop stop-color="#DA030E" stop-opacity="0"/>
<stop offset="0.875" stop-color="#DA020E" stop-opacity="0"/>
<stop offset="1" stop-color="#DA020E"/>
</radialGradient>
</defs>
</svg>
