<svg width="450" height="452" viewBox="0 0 450 452" fill="none" xmlns="http://www.w3.org/2000/svg">
<rect width="450" height="452" fill="white"/>
<g clip-path="url(#clip0_38_66)">
<path d="M181.163 328.014C176.475 322.907 172.297 317.291 168.027 311.767C160.692 302.344 151.362 296.588 140.964 291.157C143.053 273.564 143.982 256.064 142.914 238.425H125.739L88 286.468V103.113L117.012 140.016L142.914 111.979C149.737 116.249 154.844 119.174 163.106 118.71C169.419 118.338 175.454 116.528 181.163 113.975V80.7388L133.119 43H316.475L268.431 80.7388V113.975C274.141 116.528 280.175 118.338 286.488 118.71C294.751 119.174 299.857 116.249 306.681 111.979L332.583 140.016L361.595 103.113V286.468L323.856 238.425H306.634C305.613 256.064 306.541 273.564 308.63 291.157C298.232 296.588 288.902 302.344 281.568 311.767C277.297 317.291 273.12 322.907 268.431 328.014V370.766L316.475 408.504H133.119L181.163 370.766V328.014ZM227.954 342.45C226.747 341.522 225.633 340.454 224.797 339.154C223.962 340.454 222.848 341.522 221.641 342.45L221.78 369.095H227.814L227.954 342.45ZM221.641 104.134C223.033 105.48 224.147 107.105 224.797 108.869C225.447 107.105 226.561 105.48 227.954 104.134L227.814 82.4099H221.78L221.641 104.134ZM313.968 192.563C313.411 194.651 312.901 196.694 312.39 198.736L322.37 198.69V192.655L313.968 192.563ZM137.204 198.736C136.694 196.694 136.183 194.651 135.626 192.563L127.224 192.655V198.69L137.204 198.736Z" fill="black"/>
<path d="M238.537 345.699C236.588 345.699 234.545 345.421 232.596 344.771L232.41 373.783H217.184L216.999 344.771C215.049 345.421 213.007 345.699 211.057 345.699V379.214H238.537V345.699Z" fill="#D3C084"/>
<path d="M317.125 181.886C316.475 183.882 315.872 185.925 315.268 187.921L327.012 188.014V203.285L311.369 203.425C310.951 205.421 310.533 207.417 310.162 209.413H332.49V181.886H317.125Z" fill="#D3C084"/>
<path d="M322.835 166.521C321.349 170.049 319.957 173.624 318.703 177.244H337.132V214.101H309.327C308.862 217.118 308.445 220.136 308.073 223.153H331.283L346.23 242.138V147.443L331.283 166.521H322.835Z" fill="#E42518"/>
<path d="M329.89 151.157C328.126 154.638 326.455 158.212 324.877 161.787H329.008L350.964 133.796V255.785L329.008 227.841H307.516C307.423 228.816 307.33 229.837 307.238 230.858C307.145 231.787 307.052 232.761 306.959 233.736H326.13L356.86 272.45V117.178L329.89 151.157Z" fill="#D3C084"/>
<path d="M211.057 100.792C213.146 100.56 215.188 100.653 216.999 101.256L217.184 77.7216H232.41L232.596 101.256C234.406 100.653 236.448 100.56 238.537 100.792V72.2905H211.057V100.792Z" fill="#D3C084"/>
<path d="M196.482 105.991C198.57 104.923 200.799 103.856 203.027 102.927C204.141 102.509 205.255 102.092 206.369 101.767V67.6486H243.226V101.767C244.34 102.092 245.454 102.509 246.568 102.927C248.796 103.856 251.024 104.923 253.113 105.991V73.3117L272.145 58.3647H177.45L196.482 73.3117V105.991Z" fill="#E42518"/>
<path d="M185.898 111.747C187.615 110.865 189.287 109.937 190.958 109.008C191.236 108.869 191.515 108.73 191.793 108.544V75.5864L163.802 53.6301H285.792L257.801 75.5864V108.544C258.08 108.73 258.358 108.869 258.637 109.008C260.308 109.937 261.979 110.865 263.696 111.747V78.4643L302.456 47.7349H147.138L185.898 78.4643V111.747Z" fill="#D3C084"/>
<path d="M139.432 209.413C139.061 207.417 138.643 205.421 138.226 203.425L122.582 203.285V188.014L134.326 187.921C133.723 185.925 133.119 183.882 132.47 181.886H117.105V209.413H139.432Z" fill="#D3C084"/>
<path d="M141.521 223.153C141.15 220.136 140.732 217.118 140.222 214.101H112.463V177.244H130.891C129.638 173.624 128.245 170.049 126.76 166.521H118.312L103.365 147.443V242.138L118.312 223.153H141.521Z" fill="#E42518"/>
<path d="M142.635 233.736C142.542 232.761 142.45 231.787 142.357 230.858C142.264 229.837 142.171 228.816 142.078 227.841H120.586L98.63 255.785V133.796L120.586 161.787H124.718C123.139 158.212 121.468 154.638 119.704 151.11L92.7347 117.178V272.45L123.464 233.736H142.635Z" fill="#D3C084"/>
<path d="M224.797 117.039C223.358 120.334 220.202 122.191 216.674 122.562C212.589 123.027 208.272 120.984 205.58 117.967C203.398 119.174 201.309 120.566 199.127 121.866C188.544 128.365 176.382 133.378 163.895 134.028C157.814 134.399 151.594 133.657 145.931 131.336L133.63 144.565C138.411 154.081 142.542 163.922 145.978 173.995C151.919 191.448 155.679 209.598 157.489 227.888C159.3 246.084 159.161 264.466 157.35 282.569C166.077 287.768 173.875 294.36 180.096 302.437C187.291 311.674 194.207 321.747 204.512 327.874C207.808 329.824 210.779 331.959 213.517 328.942C215.328 326.946 217.509 326.018 219.552 325.925C221.501 325.832 223.451 326.621 224.797 327.967C226.143 326.621 228.093 325.832 229.996 325.925C232.039 326.018 234.267 326.946 236.077 328.942C238.816 331.959 241.787 329.824 245.082 327.874C255.387 321.747 262.257 311.721 269.499 302.437C275.719 294.36 283.471 287.768 292.244 282.569C290.434 264.466 290.295 246.084 292.105 227.888C293.915 209.598 297.675 191.448 303.617 173.995C307.052 163.922 311.183 154.081 315.964 144.565L303.663 131.336C297.954 133.657 291.78 134.399 285.699 134.028C273.212 133.378 261.051 128.365 250.467 121.866C248.285 120.566 246.196 119.174 244.015 117.967C241.322 120.984 237.005 123.027 232.921 122.562C229.393 122.191 226.236 120.334 224.797 117.039ZM224.797 150.507C227.443 149.068 230.275 147.907 233.246 147.443C240.858 146.329 245.686 149.671 252.37 151.621C262.675 154.685 272.563 155.009 283.146 153.803L294.101 166.893C288.206 184.625 283.935 202.45 281.661 220.971C279.293 239.864 278.968 258.756 279.525 277.788C273.723 281.502 268.478 285.215 263.836 290.321C257.755 297.052 253.809 305.408 246.289 310.839C233.849 319.797 215.745 319.797 203.305 310.839C195.785 305.408 191.84 297.052 185.759 290.321C181.117 285.215 175.871 281.502 170.069 277.788C170.626 258.756 170.301 239.864 167.934 220.971C165.659 202.45 161.389 184.625 155.493 166.893L166.448 153.803C177.032 155.009 186.919 154.685 197.224 151.621C203.909 149.671 208.736 146.329 216.349 147.443C219.32 147.907 222.151 149.068 224.797 150.507Z" fill="#E42518"/>
<path d="M191.793 337.762C191.747 337.762 191.7 337.715 191.7 337.715C191.561 337.622 191.468 337.53 191.375 337.483C191.283 337.39 191.19 337.344 191.097 337.251C191.004 337.205 190.911 337.112 190.772 337.019C190.726 336.973 190.679 336.926 190.633 336.926C190.54 336.833 190.401 336.741 190.308 336.648C190.215 336.601 190.168 336.555 190.076 336.462C189.983 336.416 189.89 336.323 189.797 336.276C189.751 336.183 189.658 336.137 189.565 336.044C189.472 335.998 189.379 335.905 189.287 335.859C189.194 335.766 189.147 335.673 189.054 335.626C189.008 335.58 188.962 335.58 188.962 335.534C188.915 335.534 188.869 335.487 188.869 335.441C188.822 335.441 188.822 335.441 188.822 335.441C188.73 335.348 188.59 335.255 188.497 335.162C188.451 335.116 188.405 335.116 188.405 335.069C188.265 334.977 188.126 334.884 188.033 334.744C187.987 334.744 187.94 334.698 187.94 334.698C187.894 334.652 187.894 334.605 187.848 334.605C187.198 334.002 186.501 333.445 185.898 332.841V373.04L147.138 403.77H302.456L263.696 373.04V332.841C262.907 333.584 262.072 334.327 261.19 335.069C261.19 335.116 261.143 335.116 261.097 335.162C260.818 335.394 260.586 335.626 260.308 335.859C260.261 335.859 260.215 335.905 260.169 335.905C260.169 335.951 260.122 335.951 260.076 335.998C259.983 336.091 259.844 336.183 259.704 336.323C259.704 336.323 259.658 336.369 259.612 336.369C259.612 336.416 259.565 336.416 259.519 336.462C259.426 336.508 259.333 336.601 259.24 336.694C259.24 336.694 259.194 336.741 259.147 336.741C259.147 336.787 259.101 336.787 259.055 336.833C258.962 336.926 258.869 336.973 258.776 337.065C258.73 337.065 258.73 337.112 258.683 337.112C258.637 337.158 258.637 337.158 258.59 337.205H258.544C258.451 337.298 258.312 337.39 258.219 337.483C258.173 337.53 258.126 337.53 258.08 337.576C258.033 337.622 258.033 337.622 257.987 337.669C257.894 337.715 257.848 337.762 257.801 337.762V375.918L285.792 397.875H163.802L191.793 375.918V337.762Z" fill="#D3C084"/>
<path d="M206.369 345.096C203.259 344.4 200.195 343.053 197.317 341.382C197.039 341.243 196.76 341.104 196.482 340.918V378.193L177.45 393.14H272.145L253.113 378.193V340.918C252.834 341.104 252.556 341.243 252.277 341.382C249.399 343.053 246.336 344.4 243.226 345.096V383.856H206.369V345.096Z" fill="#E42518"/>
<path d="M224.797 155.891C227.629 154.22 230.692 152.596 233.988 152.131C240.719 151.11 245.082 154.359 251.071 156.17C261.004 159.094 270.845 159.976 281.15 158.769L288.763 167.914C283.1 185.043 279.201 202.45 276.972 220.367C274.698 238.61 274.187 256.899 274.744 275.281C269.36 278.67 264.671 282.43 260.354 287.165C254.645 293.431 250.374 302.065 243.551 307.032C232.781 314.784 216.813 314.784 206.044 307.032C199.22 302.065 194.95 293.431 189.24 287.165C184.923 282.43 180.235 278.67 174.85 275.281C175.407 256.899 174.897 238.61 172.622 220.367C170.394 202.45 166.495 185.043 160.832 167.914L168.444 158.769C178.749 159.976 188.59 159.094 198.524 156.17C204.512 154.359 208.875 151.11 215.606 152.131C218.902 152.596 222.012 154.22 224.797 155.891Z" fill="#D3C084"/>
<path d="M224.797 161.415C221.78 159.559 218.531 157.33 214.91 156.773C209.386 155.938 204.93 159.187 199.87 160.673C190.354 163.504 180.328 164.711 170.44 163.736L166.123 168.935C171.554 185.553 175.175 202.496 177.31 219.811C179.492 237.079 180.142 254.718 179.678 272.728C184.83 276.163 188.962 279.877 192.722 284.008C198.106 289.95 202.377 298.538 208.829 303.179C217.881 309.771 231.714 309.771 240.765 303.179C247.218 298.538 251.488 289.95 256.873 284.008C260.633 279.877 264.764 276.163 269.917 272.728C269.452 254.718 270.102 237.079 272.284 219.811C274.419 202.496 278.04 185.553 283.471 168.935L279.154 163.736C269.267 164.711 259.24 163.504 249.724 160.673C244.665 159.187 240.208 155.938 234.685 156.773C231.064 157.33 227.814 159.559 224.797 161.415Z" fill="black"/>
<path d="M209.943 340.918C202.005 340.175 193.557 333.677 187.987 328.385C181.767 322.49 176.939 315.62 171.74 308.889C164.731 299.837 156.097 293.71 146.024 288.464C150.434 251.097 148.159 213.265 135.951 177.383C131.866 165.407 126.714 154.035 120.772 142.894L143.703 118.013C150.109 122.052 155.726 123.816 163.338 123.444C174.154 122.841 183.948 118.292 193.232 113.139C199.128 109.844 210.407 103.345 216.117 105.991C221.687 108.59 223.265 117.085 216.163 117.874C212.543 118.292 208.133 115.182 207.483 111.7C203.816 113.325 200.334 115.646 196.667 117.874C186.873 123.862 175.268 128.69 163.663 129.34C157.025 129.665 150.666 128.736 144.817 125.58L127.921 143.776C133.305 154.081 137.808 164.665 141.521 175.527C153.497 210.62 156.422 248.405 152.337 285.122C161.667 290.228 169.883 296.866 176.382 305.315C181.395 311.767 186.084 318.451 192.025 324.114C196.528 328.339 204.048 334.466 210.5 335.069C213.657 335.394 215.003 334.28 216.999 332.098C219.691 329.128 223.265 331.031 221.873 334.744C220.109 339.386 214.492 341.382 209.943 340.918ZM239.651 340.918C247.589 340.175 256.037 333.677 261.608 328.385C267.828 322.49 272.655 315.62 277.854 308.889C284.864 299.837 293.498 293.71 303.571 288.464C299.161 251.097 301.435 213.265 313.644 177.383C317.728 165.407 322.835 154.035 328.823 142.894L305.892 118.013C299.486 122.052 293.869 123.816 286.256 123.444C275.441 122.841 265.646 118.292 256.362 113.139C250.467 109.844 239.187 103.345 233.478 105.991C227.907 108.59 226.329 117.085 233.431 117.874C237.052 118.292 241.462 115.182 242.112 111.7C245.779 113.325 249.26 115.646 252.927 117.874C262.722 123.862 274.327 128.69 285.931 129.34C292.569 129.665 298.929 128.736 304.777 125.58L321.674 143.776C316.289 154.081 311.787 164.665 308.073 175.527C296.097 210.62 293.173 248.405 297.258 285.122C287.927 290.228 279.711 296.866 273.212 305.315C268.199 311.767 263.511 318.451 257.569 324.114C253.067 328.339 245.547 334.466 239.094 335.069C235.938 335.394 234.592 334.28 232.596 332.098C229.903 329.128 226.329 331.031 227.722 334.744C229.439 339.386 235.102 341.382 239.651 340.918Z" fill="#D3C084"/>
<path d="M224.797 139.505H223.312V146.886H216.674V123.119H224.983C229.811 123.119 231.76 127.019 231.76 131.336C231.76 135.977 229.857 139.505 224.797 139.505ZM225.169 131.336C225.169 130.732 225.261 130.036 224.565 130.036H223.312V132.682H224.565C225.215 132.682 225.169 131.846 225.169 131.336Z" fill="black"/>
<path d="M224.797 166.939C221.78 165.082 218.02 162.019 214.214 161.462C210.129 160.812 205.208 164.015 201.216 165.175C191.933 167.914 182.185 169.26 172.529 168.61L171.415 169.956C176.475 186.017 179.91 202.543 181.999 219.253C184.134 236.15 184.83 253.232 184.459 270.315C188.73 273.378 192.675 276.906 196.203 280.805C201.448 286.608 205.255 294.824 211.568 299.373C218.995 304.758 230.6 304.758 238.027 299.373C244.34 294.824 248.146 286.608 253.392 280.805C256.919 276.906 260.865 273.378 265.136 270.315C264.764 253.232 265.46 236.15 267.596 219.253C269.685 202.543 273.12 186.017 278.179 169.956L277.065 168.61C267.41 169.26 257.662 167.914 248.378 165.175C244.386 164.015 239.466 160.812 235.381 161.462C231.575 162.019 227.815 165.082 224.797 166.939Z" fill="white"/>
<path d="M235.52 216.886H214.074V242.695C214.074 247.152 218.902 250.819 224.797 250.819C230.693 250.819 235.52 247.152 235.52 242.695V216.886Z" fill="#004595"/>
<path d="M224.797 234.479C225.911 234.479 226.793 233.551 226.793 232.436C226.793 231.322 225.911 230.44 224.797 230.44C223.73 230.44 222.801 231.322 222.801 232.436C222.801 233.551 223.73 234.479 224.797 234.479Z" fill="white"/>
<path d="M218.67 224.453C219.738 224.453 220.666 223.571 220.666 222.457C220.666 221.342 219.738 220.414 218.67 220.414C217.556 220.414 216.627 221.342 216.627 222.457C216.627 223.571 217.556 224.453 218.67 224.453Z" fill="white"/>
<path d="M218.67 244.413C219.738 244.413 220.666 243.531 220.666 242.417C220.666 241.303 219.738 240.374 218.67 240.374C217.556 240.374 216.627 241.303 216.627 242.417C216.627 243.531 217.556 244.413 218.67 244.413Z" fill="white"/>
<path d="M230.971 224.453C232.085 224.453 232.967 223.571 232.967 222.457C232.967 221.342 232.085 220.414 230.971 220.414C229.857 220.414 228.929 221.342 228.929 222.457C228.929 223.571 229.857 224.453 230.971 224.453Z" fill="white"/>
<path d="M230.971 244.413C232.085 244.413 232.967 243.531 232.967 242.417C232.967 241.303 232.085 240.374 230.971 240.374C229.857 240.374 228.929 241.303 228.929 242.417C228.929 243.531 229.857 244.413 230.971 244.413Z" fill="white"/>
<path d="M235.52 258.431H214.074V284.287C214.074 288.743 218.902 292.364 224.797 292.364C230.693 292.364 235.52 288.743 235.52 284.287V258.431Z" fill="#004595"/>
<path d="M224.797 276.071C225.911 276.071 226.793 275.142 226.793 274.028C226.793 272.914 225.911 272.032 224.797 272.032C223.73 272.032 222.801 272.914 222.801 274.028C222.801 275.142 223.73 276.071 224.797 276.071Z" fill="white"/>
<path d="M218.67 265.998C219.738 265.998 220.666 265.069 220.666 263.955C220.666 262.841 219.738 261.959 218.67 261.959C217.556 261.959 216.627 262.841 216.627 263.955C216.627 265.069 217.556 265.998 218.67 265.998Z" fill="white"/>
<path d="M218.67 286.004C219.738 286.004 220.666 285.122 220.666 284.008C220.666 282.894 219.738 281.966 218.67 281.966C217.556 281.966 216.627 282.894 216.627 284.008C216.627 285.122 217.556 286.004 218.67 286.004Z" fill="white"/>
<path d="M230.971 265.998C232.085 265.998 232.967 265.069 232.967 263.955C232.967 262.841 232.085 261.959 230.971 261.959C229.857 261.959 228.929 262.841 228.929 263.955C228.929 265.069 229.857 265.998 230.971 265.998Z" fill="white"/>
<path d="M230.971 286.004C232.085 286.004 232.967 285.122 232.967 284.008C232.967 282.894 232.085 281.966 230.971 281.966C229.857 281.966 228.929 282.894 228.929 284.008C228.929 285.122 229.857 286.004 230.971 286.004Z" fill="white"/>
<path d="M209.757 216.886H188.219V242.695C188.219 247.152 193.047 250.819 198.988 250.819C204.93 250.819 209.757 247.152 209.757 242.695V216.886Z" fill="#004595"/>
<path d="M198.895 234.479C200.009 234.479 200.938 233.551 200.938 232.436C200.938 231.322 200.009 230.44 198.895 230.44C197.781 230.44 196.853 231.322 196.853 232.436C196.853 233.551 197.781 234.479 198.895 234.479Z" fill="white"/>
<path d="M192.722 224.453C193.836 224.453 194.764 223.571 194.764 222.457C194.764 221.342 193.836 220.414 192.722 220.414C191.608 220.414 190.679 221.342 190.679 222.457C190.679 223.571 191.608 224.453 192.722 224.453Z" fill="white"/>
<path d="M192.722 244.413C193.836 244.413 194.764 243.531 194.764 242.417C194.764 241.303 193.836 240.374 192.722 240.374C191.608 240.374 190.679 241.303 190.679 242.417C190.679 243.531 191.608 244.413 192.722 244.413Z" fill="white"/>
<path d="M205.069 224.453C206.183 224.453 207.111 223.571 207.111 222.457C207.111 221.342 206.183 220.414 205.069 220.414C203.955 220.414 203.027 221.342 203.027 222.457C203.027 223.571 203.955 224.453 205.069 224.453Z" fill="white"/>
<path d="M205.069 244.413C206.183 244.413 207.111 243.531 207.111 242.417C207.111 241.303 206.183 240.374 205.069 240.374C203.955 240.374 203.027 241.303 203.027 242.417C203.027 243.531 203.955 244.413 205.069 244.413Z" fill="white"/>
<path d="M239.837 216.886H261.376V242.695C261.376 247.152 256.548 250.819 250.606 250.819C244.665 250.819 239.837 247.152 239.837 242.695V216.886Z" fill="#004595"/>
<path d="M250.699 234.479C251.813 234.479 252.742 233.551 252.742 232.436C252.742 231.322 251.813 230.44 250.699 230.44C249.585 230.44 248.657 231.322 248.657 232.436C248.657 233.551 249.585 234.479 250.699 234.479Z" fill="white"/>
<path d="M256.873 224.453C257.987 224.453 258.915 223.571 258.915 222.457C258.915 221.342 257.987 220.414 256.873 220.414C255.759 220.414 254.83 221.342 254.83 222.457C254.83 223.571 255.759 224.453 256.873 224.453Z" fill="white"/>
<path d="M256.873 244.413C257.987 244.413 258.915 243.531 258.915 242.417C258.915 241.303 257.987 240.374 256.873 240.374C255.759 240.374 254.83 241.303 254.83 242.417C254.83 243.531 255.759 244.413 256.873 244.413Z" fill="white"/>
<path d="M244.525 224.453C245.639 224.453 246.568 223.571 246.568 222.457C246.568 221.342 245.639 220.414 244.525 220.414C243.411 220.414 242.483 221.342 242.483 222.457C242.483 223.571 243.411 224.453 244.525 224.453Z" fill="white"/>
<path d="M244.525 244.413C245.639 244.413 246.568 243.531 246.568 242.417C246.568 241.303 245.639 240.374 244.525 240.374C243.411 240.374 242.483 241.303 242.483 242.417C242.483 243.531 243.411 244.413 244.525 244.413Z" fill="white"/>
<path d="M224.565 128.318H221.594V134.399H224.565C226.004 134.399 226.886 133.378 226.886 131.336C226.886 129.665 226.329 128.318 224.565 128.318ZM224.797 137.834H221.594V145.169H218.345V124.791H224.983C228.047 124.791 230.043 126.926 230.043 131.336C230.043 135.049 228.882 137.834 224.797 137.834Z" fill="#D3C084"/>
<path d="M236.959 139.413H230.414V146.886H236.959V139.413Z" fill="black"/>
<path d="M235.288 141.13H232.131V145.169H235.288V141.13Z" fill="#D3C084"/>
<path d="M251.442 149.718L253.067 142.383L259.287 143.776L257.662 151.11L251.442 149.718Z" fill="black"/>
<path d="M254.366 144.426L257.291 145.076L256.362 149.068L253.484 148.418L254.366 144.426Z" fill="#D3C084"/>
<path d="M239.605 147.025L244.85 123.862L258.219 126.879L256.687 133.703L249.585 132.078L249.307 133.332L255.527 134.724L253.995 141.548L247.775 140.155L245.918 148.464L239.605 147.025Z" fill="black"/>
<path d="M246.104 125.905L256.177 128.179L255.434 131.661L248.332 130.036L247.264 134.631L253.484 136.024L252.695 139.505L246.521 138.113L244.618 146.422L241.647 145.772L246.104 125.905Z" fill="#D3C084"/>
<path d="M207.251 147.165L205.812 139.83L212.078 138.577L213.192 144.24L213.517 145.911L207.251 147.165Z" fill="black"/>
<path d="M207.808 141.176L210.732 140.573L211.521 144.611L208.597 145.168L207.808 141.176Z" fill="#D3C084"/>
<path d="M195.6 150.089L190.308 126.972L203.63 123.909L205.255 130.686L198.106 132.311L198.431 133.564L204.605 132.125L206.183 138.948L199.963 140.387L201.913 148.697L195.6 150.089Z" fill="black"/>
<path d="M192.35 128.225L202.377 125.951L203.166 129.432L196.064 131.057L197.131 135.606L203.352 134.167L204.141 137.649L197.967 139.088L199.87 147.397L196.899 148.093L192.35 128.225Z" fill="#D3C084"/>
<path d="M235.52 175.295H214.074V201.15C214.074 205.653 218.902 209.273 224.797 209.273C230.693 209.273 235.52 205.653 235.52 201.15V175.295Z" fill="#004595"/>
<path d="M224.797 192.934C225.911 192.934 226.793 192.052 226.793 190.938C226.793 189.824 225.911 188.896 224.797 188.896C223.73 188.896 222.801 189.824 222.801 190.938C222.801 192.052 223.73 192.934 224.797 192.934Z" fill="white"/>
<path d="M218.67 182.861C219.738 182.861 220.666 181.979 220.666 180.865C220.666 179.751 219.738 178.823 218.67 178.823C217.556 178.823 216.627 179.751 216.627 180.865C216.627 181.979 217.556 182.861 218.67 182.861Z" fill="white"/>
<path d="M218.67 202.868C219.738 202.868 220.666 201.986 220.666 200.872C220.666 199.757 219.738 198.829 218.67 198.829C217.556 198.829 216.627 199.757 216.627 200.872C216.627 201.986 217.556 202.868 218.67 202.868Z" fill="white"/>
<path d="M230.971 182.861C232.085 182.861 232.967 181.979 232.967 180.865C232.967 179.751 232.085 178.823 230.971 178.823C229.857 178.823 228.929 179.751 228.929 180.865C228.929 181.979 229.857 182.861 230.971 182.861Z" fill="white"/>
<path d="M230.971 202.868C232.085 202.868 232.967 201.986 232.967 200.872C232.967 199.757 232.085 198.829 230.971 198.829C229.857 198.829 228.929 199.757 228.929 200.872C228.929 201.986 229.857 202.868 230.971 202.868Z" fill="white"/>
</g>
<defs>
<clipPath id="clip0_38_66">
<rect width="273.595" height="365.504" fill="white" transform="translate(88 43)"/>
</clipPath>
</defs>
</svg>
