<svg width="450" height="452" viewBox="0 0 450 452" fill="none" xmlns="http://www.w3.org/2000/svg">
<rect width="450" height="452" fill="white"/>
<g clip-path="url(#clip0_35_93)">
<path d="M276.472 151.957C274.944 151.957 273.75 150.763 273.75 149.316C273.75 147.869 274.944 146.675 276.472 146.675C278.001 146.675 279.195 147.869 279.195 149.316C279.277 150.763 278.001 151.957 276.472 151.957ZM113.998 275.368C113.998 216.389 163.869 168.472 224.81 168.472C285.752 168.472 335.623 216.471 335.623 275.368C335.623 334.176 285.752 382.347 224.81 382.347C163.877 382.265 113.998 334.176 113.998 275.368ZM268.297 112.125C270.937 112.804 272.548 115.363 271.869 117.913C271.191 120.464 268.468 122.001 265.828 121.314C263.187 120.628 261.576 118.077 262.255 115.526C262.933 112.975 265.656 111.438 268.297 112.125ZM272.81 102.764C274.339 102.764 275.532 103.957 275.532 105.405C275.532 106.852 274.339 108.045 272.81 108.045C271.281 108.045 270.087 106.852 270.087 105.405C270.005 103.876 271.281 102.764 272.81 102.764ZM270.512 93.231C272.041 93.231 273.235 94.4247 273.235 95.8718C273.235 97.3189 272.041 98.5125 270.512 98.5125C268.983 98.5125 267.79 97.3189 267.79 95.8718C267.708 94.4247 268.983 93.231 270.512 93.231ZM304.556 118.257C306.085 118.257 307.278 119.45 307.278 120.897C307.278 122.345 306.085 123.538 304.556 123.538C303.027 123.538 301.833 122.345 301.833 120.897C301.833 119.45 303.027 118.257 304.556 118.257ZM302.258 108.814C303.787 108.814 304.981 110.007 304.981 111.455C304.981 112.902 303.787 114.095 302.258 114.095C300.73 114.095 299.536 112.902 299.536 111.455C299.536 110.007 300.73 108.814 302.258 108.814ZM298.171 100.475C299.699 100.475 300.893 101.668 300.893 103.115C300.893 104.562 299.618 105.756 298.171 105.756C296.642 105.756 295.448 104.562 295.448 103.115C295.366 101.668 296.642 100.475 298.171 100.475ZM291.614 93.0675C293.143 93.0675 294.336 94.2612 294.336 95.7083C294.336 97.1553 293.143 98.349 291.614 98.349C290.085 98.349 288.891 97.1553 288.891 95.7083C288.891 94.2612 290.085 93.0675 291.614 93.0675ZM283.61 87.4508C285.139 87.4508 286.332 88.6445 286.332 90.0916C286.332 91.5387 285.139 92.7323 283.61 92.7323C282.081 92.7323 280.887 91.5387 280.887 90.0916C280.887 88.6445 282.081 87.4508 283.61 87.4508ZM274.927 84.1315C276.456 84.1315 277.65 85.3252 277.65 86.7723C277.65 88.2194 276.456 89.413 274.927 89.413C273.398 89.413 272.205 88.2194 272.205 86.7723C272.205 85.3252 273.48 84.1315 274.927 84.1315ZM266.163 84.9C267.692 84.9 268.885 86.0937 268.885 87.5408C268.885 88.9879 267.692 90.1815 266.163 90.1815C264.634 90.1815 263.44 88.9879 263.44 87.5408C263.44 86.0937 264.634 84.9 266.163 84.9ZM259.696 77.6646C261.225 77.6646 262.418 78.8582 262.418 80.3053C262.418 81.7524 261.143 82.9461 259.696 82.9461C258.167 82.9461 256.973 81.7524 256.973 80.3053C256.973 78.8582 258.167 77.6646 259.696 77.6646ZM251.267 72.3013C252.796 72.3013 253.989 73.495 253.989 74.9421C253.989 76.3892 252.796 77.5828 251.267 77.5828C249.738 77.5828 248.544 76.3892 248.544 74.9421C248.544 73.495 249.738 72.3013 251.267 72.3013ZM242.503 69.1537C244.031 69.1537 245.225 70.3474 245.225 71.7945C245.225 73.2416 244.031 74.4352 242.503 74.4352C240.974 74.4352 239.78 73.2416 239.78 71.7945C239.78 70.3474 240.974 69.1537 242.503 69.1537ZM233.567 67.6249C235.095 67.6249 236.289 68.8185 236.289 70.2656C236.289 71.7127 235.095 72.9063 233.567 72.9063C232.038 72.9063 230.844 71.7127 230.844 70.2656C230.762 68.8185 232.038 67.6249 233.567 67.6249ZM148.556 137.494C147.409 138.102 146.073 138.246 144.823 137.898C143.572 137.55 142.503 136.735 141.836 135.622C141.521 135.073 141.321 134.466 141.249 133.837C141.178 133.209 141.235 132.572 141.418 131.967C141.601 131.361 141.906 130.8 142.313 130.316C142.721 129.832 143.224 129.437 143.79 129.155C144.937 128.547 146.273 128.403 147.523 128.751C148.773 129.099 149.843 129.914 150.51 131.027C151.785 133.324 150.935 136.219 148.556 137.494ZM183.793 121.323C181.152 122.001 178.43 120.472 177.751 117.922C177.073 115.371 178.692 112.73 181.324 112.133C183.965 111.455 186.687 112.983 187.366 115.534C188.044 118.085 186.426 120.726 183.793 121.323ZM224.81 116.303C224.173 116.315 223.54 116.201 222.946 115.968C222.353 115.734 221.811 115.386 221.353 114.944C220.894 114.501 220.527 113.972 220.273 113.387C220.019 112.803 219.883 112.174 219.872 111.536C219.872 108.896 222.088 106.77 224.81 106.77C227.533 106.77 229.749 108.896 229.749 111.536C229.749 114.177 227.533 116.303 224.81 116.303ZM176.893 108.045C175.364 108.045 174.17 106.852 174.17 105.405C174.17 103.957 175.364 102.764 176.893 102.764C178.422 102.764 179.615 103.957 179.615 105.405C179.615 106.852 178.34 108.045 176.893 108.045ZM179.19 98.5125C177.661 98.5125 176.468 97.3189 176.468 95.8718C176.468 94.4247 177.661 93.231 179.19 93.231C180.719 93.231 181.913 94.4247 181.913 95.8718C181.913 97.3189 180.637 98.5125 179.19 98.5125ZM145.065 123.62C143.536 123.62 142.343 122.426 142.343 120.979C142.343 119.532 143.536 118.338 145.065 118.338C146.594 118.338 147.788 119.532 147.788 120.979C147.869 122.426 146.594 123.62 145.065 123.62ZM147.362 114.087C145.834 114.087 144.64 112.893 144.64 111.446C144.64 109.999 145.915 108.806 147.362 108.806C148.891 108.806 150.085 109.999 150.085 111.446C150.167 112.893 148.891 114.087 147.362 114.087ZM151.45 105.748C149.921 105.748 148.728 104.554 148.728 103.107C148.728 101.66 149.921 100.466 151.45 100.466C152.979 100.466 154.173 101.66 154.173 103.107C154.254 104.554 152.979 105.748 151.45 105.748ZM158.007 98.3408C156.478 98.3408 155.285 97.1472 155.285 95.7001C155.285 94.253 156.478 93.0593 158.007 93.0593C159.536 93.0593 160.73 94.253 160.73 95.7001C160.73 97.1472 159.536 98.3408 158.007 98.3408ZM166.011 92.7241C164.482 92.7241 163.289 91.5305 163.289 90.0834C163.289 88.6363 164.482 87.4427 166.011 87.4427C167.54 87.4427 168.734 88.6363 168.734 90.0834C168.815 91.5305 167.54 92.7241 166.011 92.7241ZM174.694 89.4866C173.165 89.4866 171.971 88.2929 171.971 86.8458C171.971 85.3988 173.165 84.2051 174.694 84.2051C176.222 84.2051 177.416 85.3988 177.416 86.8458C177.416 88.2929 176.222 89.4866 174.694 89.4866ZM183.458 90.1652C181.929 90.1652 180.735 88.9715 180.735 87.5244C180.735 86.0773 181.929 84.8837 183.458 84.8837C184.987 84.8837 186.18 86.0773 186.18 87.5244C186.262 88.9715 184.987 90.1652 183.458 90.1652ZM189.925 83.0196C188.396 83.0196 187.202 81.826 187.202 80.3789C187.202 78.9318 188.478 77.7382 189.925 77.7382C191.454 77.7382 192.647 78.9318 192.647 80.3789C192.647 81.826 191.454 83.0196 189.925 83.0196ZM198.354 77.5746C196.825 77.5746 195.631 76.381 195.631 74.9339C195.631 73.4868 196.825 72.2932 198.354 72.2932C199.883 72.2932 201.076 73.4868 201.076 74.9339C201.076 76.381 199.883 77.5746 198.354 77.5746ZM207.118 74.427C205.589 74.427 204.396 73.2334 204.396 71.7863C204.396 70.3392 205.671 69.1455 207.118 69.1455C208.647 69.1455 209.841 70.3392 209.841 71.7863C209.841 73.2334 208.647 74.427 207.118 74.427ZM224.81 100.466C223.282 100.466 222.088 99.2728 222.088 97.8257C222.088 96.3787 223.363 95.185 224.81 95.185C226.339 95.185 227.533 96.3787 227.533 97.8257C227.533 99.2728 226.339 100.466 224.81 100.466ZM224.81 90.8519C223.282 90.8519 222.088 89.6583 222.088 88.2112C222.088 86.7641 223.363 85.5704 224.81 85.5704C226.339 85.5704 227.533 86.7641 227.533 88.2112C227.533 89.6583 226.339 90.8519 224.81 90.8519ZM224.81 81.2373C223.282 81.2373 222.088 80.0437 222.088 78.5966C222.088 77.1495 223.363 75.9559 224.81 75.9559C226.339 75.9559 227.533 77.1495 227.533 78.5966C227.533 80.0437 226.339 81.2373 224.81 81.2373ZM216.128 72.8982C214.599 72.8982 213.315 71.7045 213.315 70.2574C213.315 68.8103 214.591 67.6167 216.128 67.6167C217.665 67.6167 218.85 68.8103 218.85 70.2574C218.85 71.7863 217.575 72.8982 216.128 72.8982ZM305.831 129.147C308.21 130.422 309.069 133.316 307.785 135.614C306.502 137.911 303.444 138.761 301.065 137.486C300.507 137.195 300.013 136.795 299.611 136.31C299.21 135.826 298.91 135.266 298.728 134.663C298.546 134.061 298.486 133.428 298.552 132.802C298.617 132.177 298.807 131.57 299.111 131.019C299.778 129.906 300.847 129.091 302.098 128.743C303.348 128.394 304.684 128.539 305.831 129.147ZM242.429 143.103C240.9 143.103 239.706 141.909 239.706 140.462C239.706 139.015 240.9 137.821 242.429 137.821C243.958 137.821 245.151 139.015 245.151 140.462C245.233 141.909 243.958 143.103 242.429 143.103ZM173.148 151.957C171.62 151.957 170.426 150.763 170.426 149.316C170.426 147.869 171.701 146.675 173.148 146.675C174.677 146.675 175.871 147.869 175.871 149.316C175.871 150.763 174.677 151.957 173.148 151.957ZM207.192 143.103C205.663 143.103 204.469 141.909 204.469 140.462C204.469 139.015 205.745 137.821 207.192 137.821C208.721 137.821 209.914 139.015 209.914 140.462C209.914 141.909 208.721 143.103 207.192 143.103Z" fill="white"/>
<path d="M245.233 123.955C246.002 125.574 246.852 126.768 247.956 127.781L240.385 126.841C241.805 126.084 243.053 125.04 244.048 123.775C244.438 123.878 244.838 123.936 245.242 123.947L245.233 123.955ZM204.38 123.955C204.81 123.942 205.237 123.885 205.655 123.784C206.595 125.059 207.871 126.081 209.228 126.849L201.657 127.79C202.851 126.686 203.783 125.41 204.38 123.963V123.955ZM189.655 129.997L183.017 131.616C184.21 130.169 184.971 128.378 185.142 126.506C186.325 128.035 187.879 129.236 189.655 129.997ZM164.376 138.001C165.012 136.968 165.499 135.851 165.823 134.682L166.167 134.6C166.803 134.448 167.409 134.188 167.957 133.831C169.006 134.511 170.153 135.027 171.358 135.36L164.376 138.001ZM224.811 121.658C225.489 123.448 226.765 124.977 228.302 126.171C227.108 126.171 226.004 126.089 224.811 126.089L221.32 126.171C222.938 124.977 224.132 123.448 224.811 121.658ZM281.664 133.741C282.171 134.085 282.858 134.338 283.455 134.51L283.798 134.592C284.051 135.785 284.566 136.889 285.245 137.911L278.181 135.189C279.428 134.937 280.605 134.446 281.664 133.741ZM266.596 131.616L259.958 129.997C261.721 129.256 263.25 128.049 264.381 126.506C264.632 128.382 265.399 130.151 266.596 131.616ZM275.189 110.85C277.061 110.081 278.427 108.471 278.852 106.508C281.828 107.187 285.147 107.955 287.869 109.059C290.064 109.877 292.107 111.057 293.911 112.55C295.358 116.213 296.209 120.464 296.724 125.656C294.933 126.424 293.748 128.207 293.061 129.997C291.957 132.72 291.957 135.532 295.015 137.658C294.334 137.71 293.65 137.618 293.008 137.387C292.366 137.155 291.78 136.791 291.289 136.316C290.799 135.842 290.414 135.268 290.162 134.634C289.909 134 289.794 133.32 289.823 132.638C290.41 131.973 290.845 131.189 291.099 130.34C291.949 127.103 289.995 123.873 286.676 123.105C283.356 122.255 280.037 124.209 279.187 127.356C279.105 127.7 279.015 128.035 279.015 128.378C276.203 131.698 270.586 129.997 270.333 125.656C275.524 126.678 277.74 124.127 278.59 120.718C279.359 117.905 279.015 115.019 275.696 113.311C275.524 112.37 275.442 111.528 275.189 110.85ZM187.448 99.1094C197.324 93.8361 210.168 92.8959 220.126 94.343V95.0216C219.403 96.1044 219.124 97.4233 219.347 98.7059C219.569 99.9886 220.275 101.137 221.32 101.914C219.447 102.51 218 103.868 217.493 106.255C213.749 107.105 212.727 109.828 212.727 112.722C212.727 116.213 214.174 119.189 219.447 119.442C218.851 121.396 216.978 122.762 214.763 122.762C213.755 122.77 212.769 122.462 211.945 121.881C211.121 121.3 210.499 120.476 210.168 119.524C210.34 119.017 210.34 118.502 210.34 117.995C210.34 114.676 207.527 112.035 204.126 112.035C200.725 112.035 197.913 114.676 197.913 117.995C197.893 118.987 198.159 119.964 198.681 120.808C198.605 121.824 198.21 122.791 197.552 123.571C196.895 124.35 196.008 124.902 195.018 125.149C194.015 125.407 192.955 125.34 191.991 124.958C191.028 124.576 190.21 123.899 189.655 123.023C194.675 121.494 195.354 118.257 194.422 114.856C193.653 112.043 191.953 109.664 188.126 109.746C187.567 108.546 186.603 107.582 185.404 107.023C185.911 104.301 186.508 101.578 187.448 99.1094ZM229.405 94.2612C239.363 92.8141 252.297 93.7543 262.083 99.0276C263.043 101.611 263.699 104.297 264.037 107.032C262.839 107.592 261.875 108.555 261.315 109.754C257.489 109.672 255.78 112.051 255.101 114.864C254.161 118.265 254.848 121.503 259.868 123.031C258.764 124.732 256.63 125.672 254.505 125.157C253.511 124.919 252.619 124.369 251.96 123.588C251.302 122.807 250.91 121.835 250.842 120.816C251.351 119.967 251.617 118.994 251.61 118.003C251.61 114.684 248.888 112.043 245.397 112.043C241.996 112.043 239.183 114.684 239.183 118.003C239.196 118.517 239.253 119.029 239.355 119.532C239.013 120.478 238.389 121.295 237.567 121.874C236.746 122.453 235.766 122.766 234.76 122.77C233.73 122.779 232.723 122.463 231.882 121.867C231.041 121.271 230.409 120.426 230.076 119.45C235.349 119.197 236.796 116.213 236.796 112.73C236.796 109.754 235.774 107.113 232.03 106.263C231.82 105.271 231.357 104.35 230.687 103.59C230.016 102.829 229.161 102.255 228.203 101.922C229.397 100.982 230.247 99.4528 230.247 97.834C230.247 96.812 229.904 95.7901 229.397 95.0216L229.405 94.2612ZM161.833 109.067C164.556 108.045 167.875 107.195 170.851 106.517C171.276 108.471 172.642 110.089 174.514 110.858C174.222 111.615 174.105 112.428 174.171 113.237C170.769 114.937 170.508 117.832 171.276 120.644C172.217 124.045 174.342 126.604 179.534 125.582C179.362 129.923 173.664 131.624 170.851 128.305C170.851 127.961 170.769 127.626 170.68 127.283C169.829 124.045 166.428 122.173 163.109 123.031C159.79 123.89 157.836 127.119 158.686 130.267C158.939 131.117 159.364 131.967 159.961 132.564C160.043 134.355 159.111 136.055 157.41 136.987C156.588 137.386 155.684 137.59 154.77 137.584C157.836 135.54 157.836 132.736 156.724 129.923C155.955 128.223 154.851 126.432 152.979 125.672C153.404 120.481 154.255 116.229 155.702 112.567C157.231 111.373 159.193 110.008 161.833 109.067ZM233.665 139.538L224.811 142.686L216.046 139.538L224.811 136.382L233.665 139.538ZM167.36 151.107L166.592 154.083L166.338 155.186L165.741 154.843L162.766 153.224L163.534 150.412L163.706 149.815L164.728 150.158L167.36 151.107ZM282.253 151.107L285.915 149.741L286.087 150.338L286.856 153.232L283.961 154.761L283.365 155.104L283.111 154.001L282.253 151.107Z" fill="#E62644"/>
<path d="M266.596 131.616C265.403 130.169 264.642 128.378 264.471 126.506C263.367 128.035 261.748 129.229 260.048 129.997L266.596 131.616ZM281.664 133.741C280.642 134.42 279.448 134.935 278.263 135.27L285.327 137.993C284.654 136.98 284.164 135.856 283.88 134.673L283.536 134.592C282.858 134.42 282.261 134.085 281.664 133.741ZM224.81 121.658C224.132 123.448 222.938 124.977 221.319 126.171L224.81 126.089L228.301 126.171C226.748 125.012 225.541 123.452 224.81 121.658ZM164.384 138.001L171.448 135.278C170.254 134.935 169.069 134.428 168.047 133.75C167.54 134.093 166.853 134.346 166.256 134.518L165.913 134.6C165.488 135.794 165.063 136.979 164.384 138.001ZM189.663 129.997C187.9 129.256 186.371 128.049 185.24 126.506C184.987 128.378 184.3 130.169 183.115 131.616L189.663 129.997ZM204.388 123.955C203.791 125.402 202.859 126.678 201.665 127.781L209.236 126.841C207.826 126.106 206.604 125.057 205.663 123.775C205.238 123.857 204.813 123.955 204.388 123.955ZM245.241 123.955C244.838 123.946 244.437 123.889 244.048 123.784C243.108 125.059 241.832 126.081 240.385 126.849L247.956 127.79C246.864 126.771 245.969 125.56 245.315 124.217L245.241 123.955ZM305.839 129.147C304.693 128.537 303.356 128.391 302.105 128.74C300.854 129.088 299.785 129.904 299.119 131.019C297.844 133.316 298.694 136.211 301.073 137.486C302.22 138.094 303.556 138.238 304.806 137.89C306.057 137.542 307.126 136.727 307.793 135.614C308.118 135.067 308.326 134.46 308.403 133.829C308.48 133.198 308.424 132.558 308.241 131.95C308.057 131.342 307.748 130.778 307.335 130.296C306.922 129.813 306.412 129.422 305.839 129.147ZM268.305 112.125C265.664 111.446 262.942 112.975 262.263 115.526C261.585 118.077 263.203 120.718 265.836 121.314C268.477 121.993 271.199 120.464 271.878 117.913C272.556 115.363 270.937 112.722 268.305 112.125ZM272.818 102.764C271.289 102.764 270.095 103.958 270.095 105.405C270.095 106.852 271.371 108.045 272.818 108.045C274.347 108.045 275.54 106.852 275.54 105.405C275.544 105.05 275.475 104.698 275.339 104.371C275.202 104.043 275 103.747 274.746 103.5C274.491 103.253 274.189 103.06 273.858 102.934C273.526 102.807 273.172 102.749 272.818 102.764ZM270.521 93.2311C268.992 93.2311 267.798 94.4247 267.798 95.8718C267.798 97.3189 269.073 98.5126 270.521 98.5126C272.049 98.5126 273.243 97.3189 273.243 95.8718C273.243 94.4247 272.049 93.2311 270.521 93.2311ZM304.564 118.257C303.035 118.257 301.841 119.45 301.841 120.898C301.841 122.345 303.035 123.538 304.564 123.538C306.093 123.538 307.286 122.345 307.286 120.898C307.286 119.45 306.093 118.257 304.564 118.257ZM302.267 108.814C300.738 108.814 299.544 110.008 299.544 111.455C299.544 112.902 300.738 114.095 302.267 114.095C303.795 114.095 304.989 112.902 304.989 111.455C304.989 110.008 303.795 108.814 302.267 108.814ZM298.179 100.475C296.65 100.475 295.456 101.668 295.456 103.115C295.456 104.563 296.732 105.756 298.179 105.756C299.708 105.756 300.901 104.563 300.901 103.115C300.901 101.668 299.708 100.475 298.179 100.475ZM291.622 93.0676C290.093 93.0676 288.899 94.2612 288.899 95.7083C288.899 97.1554 290.093 98.349 291.622 98.349C293.151 98.349 294.344 97.1554 294.344 95.7083C294.344 94.2612 293.151 93.0676 291.622 93.0676ZM283.618 87.4509C282.089 87.4509 280.895 88.6445 280.895 90.0916C280.895 91.5387 282.089 92.7324 283.618 92.7324C285.147 92.7324 286.34 91.5387 286.34 90.0916C286.34 88.6445 285.147 87.4509 283.618 87.4509ZM274.935 84.1316C273.407 84.1316 272.213 85.3252 272.213 86.7723C272.213 88.2194 273.407 89.4131 274.935 89.4131C276.464 89.4131 277.658 88.2194 277.658 86.7723C277.74 85.3252 276.464 84.1316 274.935 84.1316ZM266.171 84.9001C264.642 84.9001 263.449 86.0937 263.449 87.5408C263.449 88.9879 264.642 90.1816 266.171 90.1816C267.7 90.1816 268.894 88.9879 268.894 87.5408C268.894 86.0937 267.7 84.9001 266.171 84.9001ZM259.704 77.6646C258.175 77.6646 256.982 78.8583 256.982 80.3054C256.982 81.7525 258.175 82.9461 259.704 82.9461C261.233 82.9461 262.427 81.7525 262.427 80.3054C262.508 78.8583 261.233 77.6646 259.704 77.6646ZM251.275 72.3014C249.746 72.3014 248.553 73.4951 248.553 74.9421C248.553 76.3892 249.746 77.5829 251.275 77.5829C252.804 77.5829 253.998 76.3892 253.998 74.9421C253.998 73.4951 252.804 72.3014 251.275 72.3014ZM242.511 69.1538C240.982 69.1538 239.788 70.3474 239.788 71.7945C239.788 73.2416 240.982 74.4353 242.511 74.4353C244.04 74.4353 245.233 73.2416 245.233 71.7945C245.315 70.3474 244.04 69.1538 242.511 69.1538ZM233.575 67.6249C232.046 67.6249 230.852 68.8186 230.852 70.2657C230.852 71.7128 232.046 72.9064 233.575 72.9064C235.104 72.9064 236.297 71.7128 236.297 70.2657C236.297 68.8186 235.104 67.6249 233.575 67.6249ZM148.556 137.494C150.935 136.219 151.794 133.325 150.51 131.027C149.848 129.908 148.779 129.088 147.527 128.739C146.274 128.39 144.935 128.539 143.79 129.155C141.411 130.43 140.552 133.325 141.836 135.622C143.119 137.919 146.177 138.769 148.556 137.494ZM183.793 121.323C186.434 120.644 188.045 118.085 187.366 115.534C186.687 112.983 183.965 111.446 181.324 112.133C178.683 112.82 177.073 115.371 177.751 117.922C178.121 119.161 178.957 120.209 180.085 120.844C181.212 121.478 182.542 121.65 183.793 121.323ZM224.81 116.303C227.533 116.303 229.749 114.177 229.749 111.536C229.738 110.899 229.602 110.27 229.348 109.685C229.094 109.101 228.727 108.572 228.268 108.129C227.809 107.686 227.268 107.338 226.675 107.105C226.081 106.872 225.448 106.758 224.81 106.77C224.173 106.758 223.54 106.872 222.946 107.105C222.353 107.338 221.812 107.686 221.353 108.129C220.894 108.572 220.527 109.101 220.273 109.685C220.019 110.27 219.883 110.899 219.872 111.536C219.872 114.177 222.088 116.303 224.81 116.303ZM176.893 108.045C178.422 108.045 179.615 106.852 179.615 105.405C179.615 103.958 178.422 102.764 176.893 102.764C175.364 102.764 174.17 103.958 174.17 105.405C174.089 106.852 175.364 108.045 176.893 108.045ZM179.19 98.5126C180.719 98.5126 181.913 97.3189 181.913 95.8718C181.913 94.4247 180.719 93.2311 179.19 93.2311C177.661 93.2311 176.468 94.4247 176.468 95.8718C176.386 97.3189 177.661 98.5126 179.19 98.5126ZM145.065 123.62C146.594 123.62 147.788 122.426 147.788 120.979C147.788 119.532 146.594 118.339 145.065 118.339C143.536 118.339 142.343 119.532 142.343 120.979C142.343 122.426 143.536 123.62 145.065 123.62ZM147.362 114.087C148.891 114.087 150.085 112.894 150.085 111.446C150.064 110.739 149.767 110.067 149.259 109.574C148.751 109.081 148.071 108.805 147.362 108.806C145.834 108.806 144.64 109.999 144.64 111.446C144.64 112.894 145.834 114.087 147.362 114.087ZM151.45 105.748C152.979 105.748 154.173 104.554 154.173 103.107C154.173 101.66 152.979 100.467 151.45 100.467C149.921 100.467 148.728 101.66 148.728 103.107C148.728 104.554 150.003 105.748 151.45 105.748ZM158.007 98.3409C159.536 98.3409 160.73 97.1472 160.73 95.7001C160.73 94.253 159.536 93.0594 158.007 93.0594C156.478 93.0594 155.285 94.253 155.285 95.7001C155.285 97.1472 156.478 98.3409 158.007 98.3409ZM166.011 92.7242C167.54 92.7242 168.734 91.5305 168.734 90.0835C168.734 88.6364 167.54 87.4427 166.011 87.4427C164.482 87.4427 163.289 88.6364 163.289 90.0835C163.289 91.5305 164.564 92.7242 166.011 92.7242ZM174.694 89.4866C176.223 89.4866 177.416 88.293 177.416 86.8459C177.416 85.3988 176.223 84.2052 174.694 84.2052C173.165 84.2052 171.971 85.3988 171.971 86.8459C171.971 88.293 173.165 89.4866 174.694 89.4866ZM183.458 90.1652C184.987 90.1652 186.18 88.9716 186.18 87.5245C186.18 86.0774 184.987 84.8837 183.458 84.8837C181.929 84.8837 180.735 86.0774 180.735 87.5245C180.735 88.9716 181.929 90.1652 183.458 90.1652ZM189.925 83.0197C191.454 83.0197 192.647 81.826 192.647 80.379C192.647 78.9319 191.454 77.7382 189.925 77.7382C188.396 77.7382 187.202 78.9319 187.202 80.379C187.202 81.826 188.396 83.0197 189.925 83.0197ZM198.354 77.5747C199.883 77.5747 201.077 76.3811 201.077 74.934C201.077 73.4869 199.883 72.2932 198.354 72.2932C196.825 72.2932 195.632 73.4869 195.632 74.934C195.632 76.3811 196.825 77.5747 198.354 77.5747ZM207.118 74.4271C208.647 74.4271 209.841 73.2334 209.841 71.7863C209.841 70.3393 208.647 69.1456 207.118 69.1456C205.589 69.1456 204.396 70.3393 204.396 71.7863C204.396 73.2334 205.589 74.4271 207.118 74.4271ZM224.81 100.467C226.339 100.467 227.533 99.2729 227.533 97.8258C227.533 96.3787 226.339 95.1851 224.81 95.1851C223.282 95.1851 222.088 96.3787 222.088 97.8258C222.088 99.2729 223.282 100.467 224.81 100.467ZM224.81 90.852C226.339 90.852 227.533 89.6583 227.533 88.2112C227.533 86.7641 226.339 85.5705 224.81 85.5705C223.282 85.5705 222.088 86.7641 222.088 88.2112C222.088 89.6583 223.282 90.852 224.81 90.852ZM224.81 81.2374C226.339 81.2374 227.533 80.0438 227.533 78.5967C227.533 77.1496 226.339 75.9559 224.81 75.9559C223.282 75.9559 222.088 77.1496 222.088 78.5967C222.088 80.0438 223.282 81.2374 224.81 81.2374ZM216.128 72.8982C217.657 72.8982 218.85 71.7046 218.85 70.2575C218.829 69.5497 218.533 68.8781 218.025 68.385C217.516 67.892 216.836 67.6164 216.128 67.6168C214.599 67.6168 213.315 68.8104 213.315 70.2575C213.315 71.7863 214.591 72.8982 216.128 72.8982ZM291.704 138.009C294.001 139.203 295.791 138.688 297.999 137.927C294.336 136.137 292.382 134.526 294.083 130.357C294.851 128.485 295.783 127.037 297.827 126.441C296.552 110.187 291.867 102.437 276.554 95.0379L275.45 95.3813C275.45 95.553 275.532 95.7247 275.532 95.9781C275.532 98.1937 274.257 99.2974 272.556 100.491C275.279 100.998 277.748 102.282 277.748 105.429C277.748 108.07 275.876 109.517 273.496 110.196C274.265 111.643 274.437 112.239 274.265 113.94C277.413 115.387 278.091 117.259 277.241 120.407C276.047 124.83 273.325 125.255 268.984 124.151C268.75 125.503 268.983 126.894 269.644 128.095C270.306 129.297 271.357 130.237 272.624 130.762C273.891 131.288 275.299 131.366 276.617 130.985C277.934 130.603 279.083 129.785 279.873 128.664C279.873 128.239 279.955 127.896 280.045 127.471C280.724 124.92 283.446 123.301 286.177 123.98C288.908 124.658 290.518 127.299 289.75 129.85C289.496 130.7 289.071 131.379 288.474 131.976C288.393 134.526 289.496 136.824 291.712 138.017L291.704 138.009ZM220.551 78.5149C220.551 78.1715 220.633 77.8363 220.633 77.4112C200.635 75.9641 186.246 89.1596 184.292 107.71C186.082 108.389 186.761 109.157 187.529 110.858C191.02 110.686 192.549 112.051 193.4 115.109C194.593 119.45 192.378 121.151 188.036 122.255C189.312 125.067 191.952 127.021 195.354 126.171C196.642 125.877 197.792 125.152 198.612 124.115C199.433 123.079 199.875 121.794 199.867 120.472C199.359 119.719 199.092 118.83 199.098 117.922C199.098 115.281 201.314 113.073 204.118 113.073C206.84 113.073 209.138 115.199 209.138 117.922C209.136 118.442 209.051 118.958 208.884 119.45C209.244 120.722 210.016 121.838 211.078 122.623C212.14 123.409 213.433 123.82 214.754 123.792C218.245 123.792 220.289 121.323 220.796 118.257C216.373 118.257 213.814 117.153 213.814 112.64C213.814 109.403 215.008 107.792 218.409 107.105C219.177 103.107 221.303 102.854 224.704 102.339C228.195 102.936 230.239 103.107 230.999 107.105C234.4 107.784 235.594 109.403 235.594 112.64C235.594 117.153 233.043 118.257 228.612 118.257C229.119 121.323 231.163 123.792 234.654 123.792C235.968 123.793 237.249 123.372 238.306 122.59C239.362 121.808 240.14 120.708 240.524 119.45C240.358 118.958 240.272 118.442 240.271 117.922C240.271 115.281 242.486 113.073 245.29 113.073C248.095 113.073 250.31 115.199 250.31 117.922C250.318 118.83 250.05 119.719 249.542 120.472C249.624 123.195 251.332 125.492 254.055 126.171C257.456 127.021 260.097 125.067 261.372 122.255C257.031 121.151 254.905 119.442 256.009 115.109C256.859 112.043 258.388 110.686 261.879 110.858C262.729 109.157 263.326 108.389 265.116 107.71C263.162 89.1596 248.863 75.9641 228.776 77.4112C228.848 77.7743 228.876 78.145 228.857 78.5149C228.857 79.4551 228.514 80.2154 228.007 80.984V85.6686C228.514 86.4371 228.857 87.1975 228.857 88.1377C228.857 89.0779 228.514 89.8382 228.007 90.6067L228.089 95.4549C228.514 96.1334 228.857 96.902 228.857 97.7522C228.857 100.565 226.732 101.325 224.606 102.265C222.48 101.325 220.355 100.475 220.355 97.7522C220.355 96.812 220.698 96.0517 221.205 95.2832V90.6885C220.674 89.9727 220.377 89.1104 220.355 88.2194C220.355 87.2792 220.698 86.5189 221.205 85.7504V80.984C220.763 80.2358 220.529 79.3836 220.526 78.5149H220.551ZM155.53 130.34C157.149 134.51 155.276 136.129 151.614 137.911C153.829 138.68 155.612 139.186 157.909 137.993C158.966 137.453 159.828 136.598 160.377 135.546C160.927 134.495 161.135 133.298 160.975 132.123C160.376 131.534 159.937 130.803 159.7 129.997C159.415 128.722 159.638 127.387 160.322 126.274C161.006 125.161 162.096 124.359 163.362 124.037C164.091 123.845 164.854 123.82 165.594 123.963C166.334 124.106 167.033 124.414 167.637 124.864C168.242 125.314 168.738 125.895 169.087 126.562C169.437 127.23 169.632 127.968 169.657 128.722C173.484 133.57 181.234 131.019 180.547 124.209C176.206 125.231 173.484 124.805 172.29 120.464C171.44 117.398 172.118 115.444 175.266 113.997C175.079 112.698 175.35 111.373 176.034 110.253C173.655 109.574 171.783 108.127 171.783 105.486C171.783 102.249 174.252 101.063 176.975 100.548C175.356 99.2729 174.08 98.2509 174.08 96.0353C174.08 95.8636 174.08 95.6102 172.977 95.2668C157.402 102.674 153.061 110.163 151.704 126.588C153.829 127.095 154.77 128.468 155.53 130.34ZM287.959 145.743C268.812 137.061 247.359 132.123 224.81 132.123C202.262 132.123 180.899 136.971 161.743 145.653C160.468 146.25 159.021 145.653 158.424 144.46C157.827 143.184 158.424 142.244 159.021 141.222C155.105 142.416 152.211 142.416 148.81 139.857C142.514 143.945 135.279 135.516 140.045 131.689C137.83 128.877 137.83 125.819 141.067 123.775C140.454 122.935 140.125 121.921 140.127 120.881C140.127 117.734 142.596 116.458 145.319 115.943C143.7 114.749 142.424 113.646 142.424 111.43C142.424 108.193 145.065 106.835 147.869 106.582C147.101 105.388 146.504 104.538 146.504 103.091C146.504 100.45 148.72 98.3245 151.524 98.3245C152.374 98.3245 153.224 98.578 153.993 98.8314C153.486 97.7277 153.053 96.8774 153.053 95.6838C153.053 93.043 155.268 90.9174 158.073 90.9174C159.438 90.9174 160.198 91.4243 161.392 91.9393C161.195 91.3331 161.08 90.7036 161.048 90.0671C161.048 87.4264 163.264 85.2189 166.068 85.2189C167.597 85.2189 168.447 85.8158 169.641 86.5843C170.238 84.0335 171.685 81.9896 174.661 81.9896C176.877 81.9896 178.152 83.1832 179.256 84.802C180.449 83.5266 181.553 82.6763 183.425 82.6763C184.194 82.6763 184.872 82.848 185.641 83.0197C185.18 82.1829 184.917 81.2515 184.872 80.2972C184.872 77.6565 187.088 75.5308 189.81 75.5308C191.429 75.5308 192.279 76.2094 193.555 76.9779C193.473 76.3811 193.212 75.6125 193.212 74.934C193.212 72.2932 195.427 70.1676 198.231 70.1676C199.85 70.1676 200.7 70.7644 201.894 71.6147C202.491 69.0638 203.938 67.0199 207.004 67.0199C208.876 67.0199 209.898 67.7884 211.092 68.9739C212.032 66.93 213.389 65.4829 215.94 65.4829C216.612 65.5016 217.275 65.6458 217.894 65.908C219.2 64.353 221.007 63.3009 223.004 62.9321V57.8305H218.834V54.7646H223.004V51.1101H226.323V54.7728H230.493V57.7487H226.323V62.8585C228.313 63.2462 230.114 64.2949 231.433 65.8345C232.052 65.5722 232.715 65.4281 233.387 65.4093C235.938 65.4093 237.303 66.9382 238.235 68.9003C239.429 67.7067 240.532 66.9464 242.323 66.9464C245.389 66.9464 246.836 69.072 247.343 71.5411C248.536 70.6908 249.468 70.094 251.087 70.094C253.809 70.094 256.107 72.2197 256.107 74.8604C256.107 75.539 255.935 76.3075 255.853 76.9043C257.129 76.1358 257.979 75.539 259.598 75.539C262.32 75.539 264.618 77.6646 264.618 80.3054C264.618 81.3273 264.274 82.0958 263.849 83.0279C264.571 82.8239 265.315 82.7086 266.065 82.6845C267.937 82.6845 269.041 83.5348 270.234 84.8102C271.338 83.1096 272.613 81.9977 274.829 81.9977C277.895 81.9977 279.342 84.1234 279.939 86.5925C281.133 85.8239 281.983 85.2271 283.512 85.2271C286.234 85.2271 288.532 87.3528 288.532 90.0753C288.532 90.6721 288.36 91.3507 288.278 91.9475C289.382 91.3507 290.232 90.9256 291.516 90.9256C294.238 90.9256 296.535 93.0512 296.535 95.692C296.535 96.8856 296.11 97.7359 295.595 98.7578C296.446 98.5044 297.214 98.2509 298.146 98.2509C300.869 98.2509 303.166 100.377 303.166 103.017C303.166 104.464 302.569 105.315 301.801 106.508C304.695 106.762 307.336 108.127 307.336 111.357C307.336 113.572 306.06 114.676 304.441 115.869C307.164 116.466 309.633 117.66 309.633 120.808C309.633 122.001 309.289 122.762 308.693 123.702C312.012 125.746 311.93 128.722 309.715 131.534C312.609 133.831 311.08 137.404 308.693 139.276C306.224 141.149 303.673 141.492 300.95 139.702C297.549 142.252 294.655 142.252 290.739 141.067L291.336 142.261C292.104 144.386 290.142 146.512 287.935 145.752L287.959 145.743ZM168.3 150.591L164.212 149.144L163.869 148.548C163.526 148.719 163.272 148.719 163.019 148.801C161.915 148.883 161.997 147.697 162.512 147.436C181.406 138.843 202.425 134.077 224.729 134.077C247.032 134.077 268.051 138.843 286.945 147.436C287.452 147.689 287.542 148.883 286.439 148.801C286.185 148.801 285.932 148.719 285.588 148.548L285.245 149.144L281.157 150.591L282.351 155.104L282.007 155.873C284.133 156.813 282.686 158.342 281.754 157.917C264.389 150.003 245.07 145.662 224.647 145.662C204.224 145.662 184.905 150.003 167.54 157.917C167.115 158.089 166.6 157.917 166.346 157.41C166.093 156.903 166.346 156.56 166.69 156.216C166.861 156.045 167.115 155.963 167.368 155.873L167.025 155.104L168.3 150.591ZM190.857 147.272L199.539 141.402L188.985 140.298L180.302 146.168L190.857 147.272ZM276.472 152.717C278.426 152.717 280.045 151.188 280.045 149.316C280.045 147.444 278.426 145.915 276.472 145.915C274.518 145.915 272.9 147.444 272.9 149.316C272.981 151.188 274.518 152.717 276.472 152.717ZM207.192 143.863C209.146 143.863 210.765 142.334 210.765 140.462C210.765 138.59 209.146 137.061 207.192 137.061C205.238 137.061 203.619 138.59 203.619 140.462C203.619 142.334 205.238 143.863 207.192 143.863ZM173.148 152.717C175.102 152.717 176.721 151.188 176.721 149.316C176.721 147.444 175.192 145.915 173.148 145.915C171.194 145.915 169.576 147.444 169.576 149.316C169.576 151.188 171.194 152.717 173.148 152.717ZM242.429 143.863C244.383 143.863 246.002 142.334 246.002 140.462C246.002 138.59 244.383 137.061 242.429 137.061C241.976 137.053 241.526 137.135 241.105 137.302C240.684 137.47 240.3 137.718 239.975 138.035C239.651 138.351 239.392 138.728 239.214 139.145C239.036 139.561 238.942 140.009 238.938 140.462C238.938 142.334 240.557 143.863 242.429 143.863ZM258.772 147.264L269.327 146.16L260.644 140.29L250.09 141.394L258.772 147.264ZM235.88 139.522L224.81 135.532L213.749 139.53L224.81 143.528L235.88 139.522ZM110.253 275.368C110.253 336.22 161.825 386.009 224.81 386.009C287.877 386.009 339.449 336.22 339.449 275.368C339.449 214.345 287.877 164.727 224.81 164.727C161.743 164.727 110.253 214.345 110.253 275.368ZM351.876 275.368C351.876 342.858 294.851 398.011 224.81 398.011C154.77 398.011 97.7444 342.858 97.7444 275.368C97.7444 207.797 154.77 152.644 224.81 152.644C294.851 152.562 351.876 207.707 351.876 275.368ZM208.132 223.191L224.729 239.534L240.222 223.706C234.777 222.341 229.585 221.327 223.878 221.156C218.605 220.902 213.242 222.088 208.132 223.191ZM251.79 211.786L276.129 187.529C307.622 204.976 328.813 237.654 328.813 275.017C328.813 299.356 319.877 321.659 304.809 339.106L293.486 328.126C306.248 313.058 314.595 298.08 314.595 274.085C314.595 248.47 300.721 219.872 278.598 205.066L263.964 219.537C271.453 224.982 277.413 230.427 282.432 238.087L271.281 247.367C266.858 239.878 261.151 234.605 253.834 229.748L224.729 259.369L194.511 229.323C178.855 239.878 169.657 254.937 169.232 273.668C168.725 298.604 185.404 315.879 208.811 323.458V273.414H244.555V283.716H222.685V297.075H244.301V308.823H222.685V325.673C238.685 326.442 255.788 317.506 266.171 306.436L276.898 316.901C263.195 332.222 243.451 339.964 222.767 340.136V355.539H208.892V338.517C177.318 330.946 154.426 304.22 154.851 272.302C155.105 250.433 167.188 232.471 184.725 219.708L169.919 204.902C146.937 223.028 134.6 245.159 133.578 273.921C132.81 299.372 146.43 319.795 155.023 328.387L145.065 338.174C129.662 320.809 120.554 299.364 120.554 274.935C120.554 237.826 141.746 205.148 172.977 187.701L197.659 212.555C206.423 209.317 215.531 207.617 224.892 207.617C233.821 207.75 242.66 209.42 251.022 212.555L251.79 211.786Z" fill="#FCBF00"/>
<path d="M355.621 275.368C355.621 344.902 296.895 401.666 224.811 401.666C152.636 401.666 94 344.902 94 275.368C94 205.744 152.726 148.899 224.811 148.899C296.985 148.899 355.621 205.752 355.621 275.368ZM351.877 275.368C351.877 207.796 294.851 152.643 224.811 152.643C154.77 152.643 97.7445 207.788 97.7445 275.368C97.7445 342.858 154.77 398.011 224.811 398.011C294.851 398.011 351.877 342.858 351.877 275.368ZM113.998 275.368C113.998 334.176 163.869 382.347 224.811 382.347C285.752 382.347 335.623 334.257 335.623 275.368C335.623 216.389 285.752 168.471 224.811 168.471C163.877 168.39 113.998 216.389 113.998 275.368ZM110.253 275.368C110.253 214.345 161.825 164.727 224.811 164.727C287.878 164.727 339.45 214.345 339.45 275.368C339.45 336.22 287.878 386.009 224.811 386.009C161.743 385.928 110.253 336.22 110.253 275.368ZM238.251 250.939L300.206 312.641C307.27 301.408 310.843 289.921 310.843 274.003C310.843 246.255 294.671 220.984 279.097 209.75L269.736 219.03C276.796 224.447 282.773 231.145 287.354 238.774L270.161 253.155C266.073 245.323 261.732 239.796 254.333 234.604L238.251 250.939ZM316.803 329.156C305.651 347.453 288.63 361.924 268.46 370.606L258.429 360.73L239.707 342.261C235.369 343.205 230.949 343.717 226.511 343.79V359.283H205.066V341.411C172.895 332.982 150.682 303.877 151.025 272.302C151.107 267.029 151.875 261.919 153.151 256.981L142.596 246.598C139.448 255.109 137.658 264.298 137.323 274.085C136.726 293.657 145.58 314.848 160.305 328.379L144.812 343.61C126.596 323.866 116.638 301.653 116.638 274.927C116.638 235.945 138.77 201.902 173.574 183.179L198.509 208.369C206.767 205.475 216.128 204.027 224.721 204.027C234 204.109 242.421 205.728 250 208.369L275.361 182.918C310.426 201.73 332.549 235.773 332.549 275C332.631 294.916 327.104 312.96 316.803 329.131V329.156ZM204.968 308.136L172.977 276.644C173.745 294.262 184.889 310.94 204.976 318.348L204.968 308.136ZM251.79 211.786L250.94 212.636C242.601 209.424 233.747 207.754 224.811 207.706C215.449 207.706 206.342 209.407 197.577 212.645L172.895 187.791C141.664 205.156 120.473 237.834 120.473 274.943C120.473 299.454 129.58 320.817 144.983 338.182L154.941 328.395C146.349 319.803 132.728 299.372 133.497 273.929C134.519 245.159 146.856 223.036 169.837 204.91L184.644 219.717C167.115 232.479 155.023 250.441 154.77 272.31C154.345 304.228 177.155 330.946 208.811 338.525V355.547H222.685V340.128C243.451 339.956 263.195 332.214 276.816 316.892L266.089 306.428C255.706 317.489 238.685 326.515 222.603 325.665V308.815H244.22V297.066H222.603V283.707H244.473V273.406H208.729V323.449C185.322 315.879 168.562 298.595 169.151 273.659C169.576 254.937 178.765 239.869 194.43 229.315L224.647 259.36L253.752 229.74C261.159 234.588 266.776 239.869 271.199 247.358L282.351 238.079C277.331 230.418 271.371 224.973 263.882 219.528L278.516 205.058C300.648 219.864 314.514 248.462 314.514 274.076C314.514 297.99 306.175 313.058 293.404 328.118L304.728 339.097C320.22 321.343 328.748 298.572 328.731 275.008C328.731 237.646 307.54 204.968 276.047 187.521L251.79 211.786ZM208.132 223.191C213.242 222.087 218.597 220.894 223.878 221.065C229.577 221.237 234.768 222.259 240.222 223.616L224.729 239.444L208.132 223.191ZM215.703 225.407L224.639 234.261L232.978 225.75C230.002 225.153 226.936 224.9 223.699 224.81C221.745 224.728 218.769 224.982 215.703 225.407ZM282.261 151.106L283.029 154.082L283.373 155.104L283.97 154.761L286.864 153.232L286.095 150.338L285.924 149.741L282.261 151.106ZM287.959 145.743C290.175 146.512 292.129 144.296 291.107 142.424L290.51 141.23C294.426 142.424 297.32 142.424 300.721 139.865C303.444 141.655 305.913 141.312 308.464 139.44C310.933 137.567 312.38 133.995 309.486 131.697C311.701 128.885 311.783 125.827 308.464 123.865C309.061 122.925 309.404 122.165 309.404 120.971C309.404 117.823 306.935 116.548 304.212 116.033C305.831 114.757 307.107 113.735 307.107 111.52C307.107 108.282 304.466 106.925 301.572 106.672C302.34 105.478 302.937 104.718 302.937 103.181C302.937 100.54 300.721 98.4143 297.917 98.4143C297.067 98.4143 296.217 98.6677 295.366 98.9212C295.873 97.8175 296.307 97.049 296.307 95.8553C296.307 93.2146 294.091 91.0889 291.287 91.0889C289.921 91.0889 289.161 91.514 288.049 92.1109C288.131 91.514 288.303 90.8354 288.303 90.2386C288.279 88.9303 287.737 87.6849 286.796 86.7759C285.855 85.8669 284.591 85.3686 283.283 85.3905C281.754 85.3905 280.904 85.9873 279.71 86.7558C279.113 84.205 277.666 82.1611 274.6 82.1611C272.385 82.1611 271.109 83.3547 270.006 84.9735C268.812 83.6981 267.708 82.8478 265.836 82.8478C265.067 82.8478 264.307 83.0195 263.62 83.1912C264.045 82.251 264.389 81.4907 264.389 80.4687C264.389 77.828 262.173 75.7023 259.369 75.7023C257.75 75.7023 256.9 76.2991 255.625 77.0676C255.706 76.4708 255.878 75.7023 255.878 75.0237C255.878 72.383 253.662 70.2573 250.858 70.2573C249.239 70.2573 248.389 70.8541 247.114 71.7044C246.517 69.1536 245.07 67.1097 242.094 67.1097C240.222 67.1097 239.2 67.8782 238.006 69.0637C236.984 67.0198 235.709 65.5727 233.158 65.5727C232.389 65.5727 231.882 65.7444 231.204 65.9978C229.898 64.4428 228.091 63.3907 226.094 63.0219V57.9121H230.264V54.7645H226.094V51.1099H222.775V54.7726H218.605V57.7486H222.775V62.8584C220.649 63.3652 219.284 64.1338 217.665 65.8343C217.046 65.5723 216.383 65.4281 215.711 65.4092C213.16 65.4092 211.795 66.938 210.863 68.9002C209.669 67.7065 208.565 66.9462 206.775 66.9462C203.709 66.9462 202.262 69.0719 201.665 71.5409C200.472 70.6906 199.54 70.0938 198.003 70.0938C195.28 70.0938 192.983 72.2195 192.983 74.8602C192.983 75.5388 193.154 76.3073 193.326 76.9041C192.051 76.1356 191.11 75.457 189.582 75.457C188.944 75.4451 188.311 75.559 187.717 75.7922C187.124 76.0254 186.583 76.3734 186.124 76.8161C185.665 77.2588 185.298 77.7876 185.044 78.3723C184.79 78.957 184.654 79.5861 184.644 80.2234C184.644 81.2454 184.987 82.0139 185.412 82.9459C184.643 82.7743 183.965 82.6026 183.196 82.6026C181.324 82.6026 180.22 83.4528 179.027 84.7282C177.923 83.0277 176.648 81.9158 174.432 81.9158C171.366 81.9158 169.919 84.0415 169.412 86.5105C168.472 85.8319 167.54 85.2351 166.011 85.2351C164.703 85.2132 163.439 85.7115 162.498 86.6206C161.557 87.5296 161.015 88.775 160.991 90.0833C160.991 90.6801 161.163 91.3587 161.245 91.9555C160.288 91.3001 159.158 90.9443 157.999 90.9336C155.277 90.9336 152.979 93.0592 152.979 95.7C152.979 96.8936 153.404 97.7439 153.919 98.7658C153.151 98.5941 152.391 98.3407 151.45 98.3407C148.728 98.3407 146.43 100.466 146.43 103.107C146.43 104.554 147.027 105.404 147.796 106.598C144.983 106.852 142.433 108.217 142.433 111.446C142.433 113.662 143.708 114.766 145.327 115.959C142.604 116.556 140.135 117.75 140.135 120.897C140.135 122.091 140.479 122.851 141.075 123.792C137.838 125.835 137.838 128.901 140.053 131.706C135.287 135.532 142.523 144.043 148.818 139.873C152.219 142.424 155.113 142.424 159.029 141.238C158.522 142.342 157.836 143.282 158.432 144.476C158.567 144.776 158.762 145.046 159.003 145.269C159.245 145.493 159.529 145.666 159.839 145.777C160.149 145.888 160.478 145.936 160.806 145.918C161.135 145.899 161.456 145.815 161.752 145.67C180.899 136.987 202.262 132.139 224.819 132.139C247.457 132.221 268.82 137.077 287.967 145.76L287.959 145.743ZM167.36 151.106L164.719 150.166L163.697 149.823L163.526 150.42L162.757 153.232L165.651 154.761L166.248 155.104L166.502 154.001L167.36 151.106ZM165.66 155.701L161.833 153.657L162.774 149.994C161.327 149.823 160.648 148.204 161.327 147.1C160.542 147.215 159.741 147.079 159.038 146.712C158.335 146.345 157.765 145.766 157.41 145.056C157.067 144.378 156.985 143.691 157.067 143.012C155.647 143.298 154.184 143.294 152.765 143.002C151.347 142.71 150.001 142.135 148.81 141.312C142.089 145.228 134.175 135.867 138.508 131.526C136.554 128.713 137.061 125.312 139.53 123.44C139.114 122.655 138.909 121.777 138.933 120.889C138.933 118.42 140.552 116.294 142.76 115.354C141.775 114.288 141.229 112.889 141.231 111.438C141.231 108.626 143.275 106.328 145.915 105.65C145.5 104.865 145.294 103.986 145.319 103.099C145.319 99.7796 148.041 97.1389 151.45 97.1389H152.047C151.835 96.2463 151.83 95.3171 152.032 94.4223C152.234 93.5274 152.638 92.6906 153.213 91.9759C153.789 91.2611 154.519 90.6874 155.35 90.2984C156.181 89.9095 157.09 89.7156 158.007 89.7317C158.64 89.7263 159.271 89.8117 159.879 89.9852C159.879 86.7476 162.692 84.1151 166.011 84.1151C166.989 84.1168 167.953 84.3493 168.824 84.7936C169.674 82.4963 171.971 80.8775 174.612 80.8775C175.52 80.8761 176.417 81.0737 177.241 81.4565C178.064 81.8393 178.794 82.3979 179.378 83.0931C180.519 82.1289 181.973 81.6144 183.466 81.646H183.891C183.81 81.2209 183.72 80.7957 183.72 80.3706C183.72 77.0513 186.442 74.4106 189.851 74.4106C190.702 74.4106 191.47 74.5822 192.149 74.8357C192.231 71.5981 194.961 68.9656 198.28 68.9656C199.384 68.9656 200.406 69.219 201.256 69.7341C202.107 67.4367 204.404 65.8179 207.045 65.8179C208.492 65.8179 209.767 66.2431 210.789 67.0933C211.893 65.4746 213.765 64.3709 215.981 64.3709C216.578 64.3709 217.085 64.4526 217.6 64.6243C218.622 63.6023 219.815 62.8338 221.262 62.2452L221.859 61.9917V58.9259H217.69V53.6607H221.859V49.998H227.558V53.6607H231.727V58.934H227.558V61.9999L228.154 62.2534C229.545 62.7479 230.8 63.5629 231.817 64.6325C232.324 64.4608 232.839 64.379 233.436 64.379C235.651 64.379 237.524 65.4827 238.627 67.1015C239.649 66.333 241.006 65.8261 242.372 65.8261C245.013 65.8261 247.31 67.4449 248.16 69.7423C249.01 69.2354 250.032 68.9737 251.136 68.9737C254.537 68.9737 257.268 71.6145 257.268 74.8439C257.946 74.5904 258.715 74.4187 259.565 74.4187C262.966 74.4187 265.697 77.0595 265.697 80.3788C265.697 80.8039 265.697 81.2291 265.525 81.6542H265.95C267.434 81.6783 268.87 82.1864 270.038 83.1013C271.142 81.7359 272.851 80.8857 274.805 80.8857C277.445 80.8857 279.743 82.5045 280.593 84.8018C281.464 84.3575 282.428 84.125 283.405 84.1232C286.807 84.1232 289.537 86.764 289.537 89.9934C290.146 89.8201 290.776 89.7347 291.409 89.7399C294.81 89.7399 297.541 92.3807 297.541 95.7C297.541 96.2069 297.459 96.7219 297.369 97.2288H297.966C301.367 97.2288 304.098 99.8696 304.098 103.189C304.098 104.129 303.845 104.979 303.501 105.74C306.224 106.336 308.186 108.716 308.186 111.528C308.18 113.019 307.6 114.451 306.567 115.526C307.711 115.932 308.701 116.682 309.402 117.673C310.103 118.664 310.481 119.847 310.483 121.061C310.483 122.001 310.23 122.851 309.886 123.612C312.355 125.484 312.862 128.885 310.908 131.697C313.631 134.42 311.252 138.761 308.954 140.552C306.739 142.252 303.591 143.274 300.525 141.492C298.146 143.111 295.162 143.789 292.268 143.192C292.611 145.571 290.396 147.615 288.017 147.28C288.695 148.384 288.017 150.003 286.569 150.174L287.51 153.837L283.683 155.881C284.19 156.478 284.28 157.328 283.937 158.097C283.43 159.119 282.236 159.715 281.124 159.2C263.931 151.368 244.784 147.027 224.443 147.027C204.921 146.979 185.618 151.131 167.843 159.2C166.739 159.707 165.545 159.119 165.03 158.097C165.112 157.156 165.202 156.306 165.709 155.717L165.66 155.701ZM168.3 150.591L167.107 155.104L167.45 155.873C167.278 155.955 167.025 156.044 166.772 156.216C166.428 156.47 166.175 156.813 166.428 157.41C166.682 157.917 167.197 158.088 167.622 157.917C184.987 150.003 204.306 145.661 224.729 145.661C245.241 145.661 264.471 150.003 281.836 157.917C282.686 158.342 284.215 156.813 282.089 155.873L282.433 155.104L281.239 150.591L285.327 149.144L285.67 148.547C286.013 148.719 286.267 148.719 286.52 148.801C287.624 148.883 287.542 147.697 287.027 147.436C267.485 138.577 246.267 134.024 224.811 134.085C202.515 134.085 181.488 138.851 162.594 147.444C162.087 147.697 161.997 148.891 163.101 148.809C163.354 148.809 163.608 148.727 163.951 148.556L164.204 149.152L168.3 150.591ZM261.748 97.9973C256.9 86.1671 245.495 77.738 230.345 78.5066C230.345 79.5285 230.002 80.4605 229.495 81.319V85.3169C230.002 86.1672 230.345 87.1074 230.345 88.1293C230.345 89.1513 230.002 90.1732 229.495 90.9417V93.4925C239.878 92.1272 252.134 93.141 261.748 97.9973ZM229.405 95.0214C230.128 96.1042 230.407 97.4231 230.185 98.7058C229.962 99.9884 229.256 101.137 228.212 101.913C230.084 102.51 231.531 103.867 232.038 106.255C235.782 107.105 236.804 109.827 236.804 112.722C236.804 116.213 235.357 119.189 230.084 119.442C230.681 121.396 232.553 122.761 234.768 122.761C235.777 122.77 236.762 122.462 237.586 121.881C238.41 121.3 239.032 120.476 239.363 119.524C239.191 119.017 239.191 118.502 239.191 117.995C239.191 114.676 242.004 112.035 245.405 112.035C248.806 112.035 251.618 114.676 251.618 117.995C251.618 119.017 251.365 119.949 250.85 120.807C250.932 122.851 252.379 124.552 254.513 125.149C256.638 125.656 258.764 124.805 259.876 123.023C254.856 121.494 254.177 118.257 255.109 114.856C255.878 112.043 257.579 109.664 261.323 109.746C262.002 108.38 262.942 107.53 264.045 107.023C263.702 104.211 263.105 101.578 262.091 99.0193C252.215 93.746 239.371 92.8058 229.413 94.2529L229.405 95.0214ZM220.551 78.5066C220.551 79.4468 220.894 80.2071 221.401 80.9756V85.6603C220.894 86.4288 220.551 87.1891 220.551 88.1293C220.551 89.0695 220.894 89.8298 221.401 90.5984V95.3648C220.894 96.1333 220.551 96.8936 220.551 97.8338C220.551 100.646 222.677 101.407 224.802 102.347C226.928 101.407 229.054 100.556 229.054 97.8338C229.054 96.9835 228.8 96.1333 228.285 95.5365L228.203 90.6883C228.71 89.9198 229.054 89.1594 229.054 88.2192C229.054 87.279 228.71 86.5187 228.203 85.7502V80.9838C228.71 80.2153 229.054 79.4549 229.054 78.5147C229.054 78.1714 228.972 77.8362 228.972 77.411C248.97 75.9639 263.359 89.1594 265.313 107.71C263.522 108.389 262.844 109.157 262.075 110.858C258.584 110.686 257.055 112.051 256.205 115.109C255.011 119.45 257.227 121.151 261.568 122.254C260.293 125.067 257.652 127.021 254.251 126.171C252.963 125.875 251.814 125.15 250.994 124.114C250.174 123.078 249.731 121.794 249.738 120.472C250.245 119.719 250.513 118.83 250.507 117.921C250.483 116.613 249.941 115.368 249 114.459C248.059 113.55 246.795 113.051 245.487 113.073C244.178 113.051 242.915 113.55 241.974 114.459C241.032 115.368 240.491 116.613 240.467 117.921C240.468 118.441 240.554 118.958 240.72 119.45C240.348 120.714 239.573 121.823 238.514 122.606C237.454 123.39 236.168 123.806 234.85 123.792C231.359 123.792 229.315 121.322 228.808 118.257C233.231 118.257 235.79 117.153 235.79 112.64C235.79 109.402 234.597 107.792 231.196 107.105C230.427 103.107 228.302 102.854 224.9 102.339C221.409 102.935 219.366 103.107 218.605 107.105C215.204 107.784 214.01 109.402 214.01 112.64C214.01 117.153 216.561 118.257 220.992 118.257C220.486 121.322 218.442 123.792 214.951 123.792C213.636 123.793 212.356 123.371 211.299 122.59C210.242 121.808 209.464 120.708 209.081 119.45C209.247 118.958 209.332 118.441 209.334 117.921C209.31 116.613 208.768 115.368 207.827 114.459C206.886 113.55 205.622 113.051 204.314 113.073C201.502 113.073 199.294 115.199 199.294 117.921C199.287 118.83 199.555 119.719 200.063 120.472C199.981 123.195 198.272 125.492 195.55 126.171C192.149 127.021 189.508 125.067 188.233 122.254C192.574 121.151 194.7 119.442 193.596 115.109C192.746 112.043 191.217 110.686 187.726 110.858C186.875 109.157 186.279 108.389 184.488 107.71C186.442 89.1594 200.741 75.9639 220.829 77.411C220.674 77.7591 220.588 78.1339 220.576 78.5147L220.551 78.5066ZM187.448 99.1092C186.508 101.66 185.829 104.301 185.576 107.113C186.679 107.62 187.619 108.479 188.298 109.836C192.124 109.754 193.833 112.133 194.593 114.945C195.533 118.347 194.847 121.584 189.827 123.113C190.931 124.813 193.064 125.754 195.19 125.239C197.316 124.724 198.763 122.941 198.853 120.897C198.342 120.049 198.076 119.075 198.084 118.085C198.084 114.766 200.897 112.125 204.298 112.125C207.699 112.125 210.511 114.766 210.511 118.085C210.511 118.592 210.43 119.107 210.34 119.614C210.681 120.559 211.305 121.377 212.127 121.956C212.949 122.535 213.929 122.848 214.934 122.851C217.15 122.851 218.932 121.486 219.619 119.532C214.346 119.279 212.899 116.294 212.899 112.812C212.899 109.836 213.921 107.195 217.665 106.345C217.875 105.353 218.337 104.432 219.008 103.671C219.678 102.911 220.534 102.336 221.491 102.003C220.869 101.516 220.362 100.897 220.009 100.19C219.655 99.4826 219.464 98.7059 219.447 97.9156C219.447 96.8936 219.791 95.8717 220.298 95.1031V94.2529C210.168 92.8875 197.316 93.8359 187.448 99.1092ZM219.366 78.5147C204.134 77.6645 192.811 86.1753 187.873 98.0055C197.406 93.2391 209.743 92.0454 220.126 93.4925V90.9336C219.619 90.0833 219.276 89.1431 219.276 88.1211C219.276 87.0992 219.619 86.0772 220.126 85.3087V81.3108C219.642 80.4508 219.378 79.4848 219.357 78.4984L219.366 78.5147ZM281.321 132.646L281.664 132.392C282.343 132.899 282.939 133.243 283.79 133.496C284.133 133.578 284.558 133.578 284.893 133.668C285.319 135.793 286.087 137.494 287.616 139.031L286.937 139.971C283.275 138.415 279.555 136.997 275.786 135.72L275.957 134.616C277.83 134.444 279.784 133.766 281.321 132.662V132.646ZM281.664 133.749C280.642 134.428 279.448 134.943 278.263 135.278C280.637 136.134 282.992 137.042 285.327 138.001C284.654 136.988 284.164 135.864 283.88 134.681L283.536 134.6C282.858 134.428 282.261 134.093 281.664 133.749ZM224.214 119.368H225.407C225.832 122.434 227.876 125.067 230.681 126.35L230.427 127.454C228.555 127.372 226.683 127.372 224.811 127.372C222.938 127.372 221.066 127.372 219.194 127.454L218.94 126.35C221.753 124.985 223.789 122.434 224.214 119.368ZM224.811 121.666C224.132 123.456 222.938 124.985 221.319 126.179C222.513 126.179 223.617 126.097 224.811 126.097C225.975 126.082 227.139 126.109 228.302 126.179C226.747 125.018 225.54 123.463 224.811 121.666ZM162.765 139.881L162.087 138.941C163.616 137.322 164.384 135.703 164.809 133.578C165.96 133.532 167.065 133.113 167.957 132.384C169.747 133.66 171.53 134.428 173.745 134.51L173.917 135.614C170.148 136.89 166.428 138.308 162.765 139.865V139.881ZM164.384 138.009C166.719 137.05 169.074 136.143 171.448 135.286C170.254 134.943 169.069 134.436 168.047 133.758C167.54 134.101 166.853 134.354 166.256 134.526L165.913 134.608C165.488 135.802 165.063 136.987 164.384 138.009ZM192.042 129.58V130.684C188.436 131.433 184.858 132.314 181.316 133.324L180.809 132.302C183.106 130.348 184.472 127.364 184.047 124.298L185.15 124.045C186.344 126.939 188.977 128.983 192.042 129.58ZM189.663 130.005C187.9 129.264 186.371 128.057 185.24 126.514C184.987 128.386 184.3 130.177 183.115 131.624C185.24 131.027 187.448 130.52 189.663 130.005ZM199.621 129.237L199.196 128.215C201.322 126.849 202.687 125.067 203.537 122.77H204.216C204.895 122.77 205.41 122.598 206.088 122.426C207.535 124.47 209.236 125.917 211.705 126.596L211.623 127.699C207.611 128.115 203.609 128.624 199.621 129.228V129.237ZM204.388 123.963C203.791 125.41 202.859 126.686 201.665 127.789L209.236 126.849C207.826 126.114 206.604 125.065 205.663 123.783C205.238 123.865 204.813 123.955 204.388 123.955V123.963ZM238.006 127.789L237.924 126.686C240.21 125.964 242.188 124.495 243.541 122.516C244.22 122.688 244.735 122.859 245.413 122.859H246.092C246.942 125.157 248.307 126.947 250.433 128.304L250.008 129.326C246.092 128.648 242.094 128.125 238.006 127.789ZM245.241 123.963C244.838 123.954 244.437 123.897 244.048 123.792C243.108 125.067 241.832 126.089 240.385 126.857C242.936 127.111 245.495 127.364 247.956 127.798C246.864 126.779 245.969 125.568 245.315 124.225L245.241 123.963ZM268.902 132.302L268.395 133.324C264.904 132.302 261.331 131.452 257.668 130.684V129.58C260.644 128.983 263.285 126.939 264.479 124.135L265.582 124.388C265.417 125.881 265.635 127.391 266.216 128.776C266.797 130.161 267.721 131.374 268.902 132.302ZM266.604 131.624C265.411 130.177 264.65 128.386 264.479 126.514C263.375 128.043 261.756 129.237 260.056 130.005L266.613 131.624H266.604ZM268.305 112.133C265.664 111.454 262.942 112.983 262.263 115.534C261.585 118.085 263.203 120.726 265.836 121.322C268.477 122.001 271.199 120.472 271.878 117.921C272.556 115.371 270.938 112.73 268.305 112.133ZM268.477 111.365C271.543 112.133 273.415 115.109 272.646 118.085C271.878 121.061 268.73 122.851 265.664 122.083C264.946 121.92 264.268 121.617 263.669 121.19C263.069 120.763 262.561 120.221 262.173 119.595C261.785 118.97 261.525 118.274 261.409 117.547C261.292 116.82 261.322 116.078 261.495 115.362C262.263 112.386 265.411 110.596 268.477 111.365ZM272.818 102.772C271.289 102.772 270.095 103.966 270.095 105.413C270.095 106.86 271.371 108.053 272.818 108.053C274.347 108.053 275.54 106.86 275.54 105.413C275.544 105.058 275.476 104.706 275.339 104.379C275.202 104.051 275.001 103.755 274.746 103.508C274.491 103.261 274.189 103.068 273.858 102.942C273.526 102.815 273.172 102.757 272.818 102.772ZM272.818 102.003C274.772 102.003 276.391 103.532 276.391 105.404C276.391 107.277 274.772 108.806 272.818 108.806C270.864 108.806 269.245 107.277 269.245 105.404C269.245 103.532 270.864 102.003 272.818 102.003ZM270.521 93.2391C268.992 93.2391 267.798 94.4327 267.798 95.8798C267.798 97.3269 269.074 98.5206 270.521 98.5206C272.049 98.5206 273.243 97.3269 273.243 95.8798C273.243 94.4327 272.049 93.2391 270.521 93.2391ZM270.521 92.4706C272.475 92.4706 274.093 93.9994 274.093 95.8717C274.093 97.7439 272.475 99.2727 270.521 99.2727C268.567 99.2727 266.948 97.7439 266.948 95.8717C266.948 93.9994 268.567 92.4706 270.521 92.4706ZM304.564 118.257C303.035 118.257 301.842 119.45 301.842 120.897C301.842 122.344 303.035 123.538 304.564 123.538C306.093 123.538 307.287 122.344 307.287 120.897C307.287 119.45 306.093 118.257 304.564 118.257ZM304.564 117.488C306.518 117.488 308.137 119.017 308.137 120.889C308.137 122.761 306.518 124.29 304.564 124.29C302.61 124.29 300.991 122.761 300.991 120.889C300.991 119.017 302.61 117.488 304.564 117.488ZM302.267 108.806C300.738 108.806 299.544 109.999 299.544 111.446C299.544 112.893 300.738 114.087 302.267 114.087C303.796 114.087 304.989 112.893 304.989 111.446C304.989 109.999 303.796 108.806 302.267 108.806ZM302.267 108.037C304.221 108.037 305.839 109.566 305.839 111.438C305.839 113.31 304.221 114.839 302.267 114.839C300.313 114.839 298.694 113.31 298.694 111.438C298.776 109.566 300.313 108.037 302.267 108.037ZM298.179 100.466C296.65 100.466 295.456 101.66 295.456 103.107C295.456 104.554 296.732 105.748 298.179 105.748C299.708 105.748 300.901 104.554 300.901 103.107C300.901 101.66 299.708 100.466 298.179 100.466ZM298.179 99.6979C300.133 99.6979 301.752 101.227 301.752 103.099C301.752 104.971 300.133 106.5 298.179 106.5C296.225 106.5 294.606 104.971 294.606 103.099C294.606 101.227 296.225 99.6979 298.179 99.6979ZM291.622 93.0592C290.093 93.0592 288.899 94.2529 288.899 95.7C288.899 97.1471 290.093 98.3407 291.622 98.3407C293.151 98.3407 294.344 97.1471 294.344 95.7C294.344 94.2529 293.151 93.0592 291.622 93.0592ZM291.622 92.2907C293.576 92.2907 295.195 93.8196 295.195 95.6918C295.195 97.564 293.666 99.1092 291.622 99.1092C289.668 99.1092 288.049 97.5804 288.049 95.7081C288.131 93.8359 289.668 92.3071 291.622 92.3071V92.2907ZM283.618 87.4426C282.089 87.4426 280.896 88.6362 280.896 90.0833C280.896 91.5304 282.089 92.724 283.618 92.724C285.147 92.724 286.34 91.5304 286.34 90.0833C286.34 88.6362 285.147 87.4426 283.618 87.4426ZM283.618 86.674C285.572 86.674 287.191 88.2029 287.191 90.0751C287.191 91.9473 285.572 93.4762 283.618 93.4762C281.664 93.4762 280.045 91.9473 280.045 90.0751C280.045 88.2029 281.664 86.674 283.618 86.674ZM274.935 84.1232C273.407 84.1232 272.213 85.3169 272.213 86.764C272.213 88.2111 273.407 89.4047 274.935 89.4047C276.464 89.4047 277.658 88.2111 277.658 86.764C277.74 85.3169 276.464 84.1232 274.935 84.1232ZM274.935 83.3547C276.889 83.3547 278.508 84.8836 278.508 86.7558C278.508 88.628 276.889 90.1569 274.935 90.1569C272.981 90.1569 271.363 88.628 271.363 86.7558C271.444 84.8836 272.981 83.3547 274.935 83.3547ZM266.171 84.8836C264.642 84.8836 263.449 86.0772 263.449 87.5243C263.449 88.9714 264.642 90.165 266.171 90.165C267.7 90.165 268.894 88.9714 268.894 87.5243C268.894 86.0772 267.7 84.8836 266.171 84.8836ZM266.171 84.1151C268.125 84.1151 269.744 85.6439 269.744 87.5161C269.744 89.3884 268.133 90.9336 266.171 90.9336C264.209 90.9336 262.598 89.4047 262.598 87.5325C262.598 85.6603 264.217 84.1314 266.171 84.1314V84.1151ZM259.704 77.6481C258.175 77.6481 256.982 78.8418 256.982 80.2889C256.982 81.7359 258.175 82.9296 259.704 82.9296C261.233 82.9296 262.427 81.7359 262.427 80.2889C262.508 78.8418 261.233 77.6481 259.704 77.6481ZM259.704 76.9695C261.658 76.9695 263.277 78.4984 263.277 80.3706C263.277 82.2428 261.658 83.7717 259.704 83.7717C257.75 83.7717 256.131 82.2428 256.131 80.3706C256.213 78.4984 257.75 76.9695 259.704 76.9695ZM251.275 72.2849C249.746 72.2849 248.553 73.4785 248.553 74.9256C248.553 76.3727 249.746 77.5664 251.275 77.5664C252.804 77.5664 253.998 76.3727 253.998 74.9256C253.998 73.4785 252.804 72.2849 251.275 72.2849ZM251.275 71.5164C253.229 71.5164 254.848 73.0452 254.848 74.9174C254.848 76.7897 253.229 78.3185 251.275 78.3185C249.321 78.3185 247.702 76.7897 247.702 74.9174C247.784 73.0452 249.321 71.5164 251.275 71.5164ZM242.511 69.1373C240.982 69.1373 239.788 70.3309 239.788 71.778C239.788 73.2251 240.982 74.4187 242.511 74.4187C244.04 74.4187 245.233 73.2251 245.233 71.778C245.315 70.3309 244.04 69.1373 242.511 69.1373ZM242.511 68.3687C244.465 68.3687 246.084 69.8976 246.084 71.7698C246.084 73.642 244.465 75.1709 242.511 75.1709C240.557 75.1709 238.938 73.642 238.938 71.7698C239.02 69.8976 240.557 68.3687 242.511 68.3687ZM233.575 67.6002C232.046 67.6002 230.852 68.7939 230.852 70.241C230.852 71.6881 232.046 72.8817 233.575 72.8817C235.104 72.8817 236.297 71.6881 236.297 70.241C236.297 68.7939 235.104 67.6002 233.575 67.6002ZM233.575 66.8317C235.529 66.8317 237.148 68.3606 237.148 70.2328C237.148 72.105 235.529 73.6339 233.575 73.6339C233.122 73.6414 232.672 73.5593 232.251 73.3922C231.83 73.225 231.446 72.9762 231.121 72.6601C230.797 72.3439 230.538 71.9667 230.36 71.5501C230.182 71.1335 230.088 70.6858 230.084 70.2328C230.002 68.3606 231.613 66.8317 233.575 66.8317ZM148.556 137.469C150.935 136.194 151.794 133.3 150.51 131.002C149.848 129.883 148.779 129.063 147.527 128.714C146.274 128.365 144.935 128.514 143.79 129.13C141.411 130.406 140.552 133.3 141.836 135.597C143.119 137.895 146.177 138.745 148.556 137.469ZM148.9 138.148C146.087 139.595 142.686 138.655 141.157 135.932C140.795 135.295 140.567 134.59 140.487 133.861C140.407 133.132 140.477 132.394 140.692 131.693C140.907 130.992 141.263 130.342 141.738 129.783C142.213 129.224 142.797 128.769 143.455 128.443C146.267 126.996 149.75 127.937 151.197 130.659C151.558 131.297 151.785 132.002 151.864 132.731C151.943 133.459 151.873 134.197 151.659 134.898C151.444 135.598 151.088 136.248 150.614 136.807C150.139 137.366 149.556 137.822 148.9 138.148ZM183.793 121.298C186.434 120.619 188.045 118.06 187.366 115.51C186.687 112.959 183.965 111.422 181.324 112.109C178.683 112.795 177.073 115.346 177.751 117.897C178.121 119.137 178.957 120.184 180.085 120.819C181.212 121.454 182.542 121.625 183.793 121.298ZM184.047 122.066C182.591 122.448 181.044 122.244 179.738 121.496C178.432 120.748 177.472 119.517 177.065 118.069C176.881 117.353 176.844 116.607 176.956 115.877C177.068 115.147 177.326 114.447 177.716 113.819C178.105 113.191 178.618 112.648 179.222 112.224C179.827 111.799 180.511 111.501 181.234 111.348C184.3 110.58 187.448 112.37 188.216 115.346C188.985 118.322 187.113 121.306 184.047 122.066ZM224.811 116.303C227.533 116.303 229.749 114.177 229.749 111.536C229.738 110.899 229.602 110.27 229.348 109.685C229.094 109.1 228.727 108.572 228.268 108.129C227.809 107.686 227.268 107.338 226.675 107.105C226.081 106.872 225.448 106.758 224.811 106.77C224.173 106.758 223.54 106.872 222.946 107.105C222.353 107.338 221.812 107.686 221.353 108.129C220.894 108.572 220.527 109.1 220.273 109.685C220.019 110.27 219.883 110.899 219.872 111.536C219.872 114.177 222.088 116.303 224.811 116.303ZM224.811 117.071C224.073 117.082 223.34 116.947 222.655 116.675C221.969 116.403 221.344 115.998 220.815 115.484C220.286 114.97 219.863 114.357 219.571 113.679C219.279 113.002 219.123 112.274 219.112 111.536C219.112 108.47 221.663 106.001 224.811 106.001C227.958 106.001 230.509 108.47 230.509 111.536C230.591 114.602 227.958 117.071 224.811 117.071ZM176.893 108.053C178.422 108.053 179.615 106.86 179.615 105.413C179.615 103.966 178.422 102.772 176.893 102.772C175.364 102.772 174.17 103.966 174.17 105.413C174.089 106.86 175.364 108.053 176.893 108.053ZM176.893 108.822C176.44 108.829 175.99 108.747 175.569 108.58C175.148 108.413 174.764 108.164 174.439 107.848C174.115 107.532 173.856 107.155 173.678 106.738C173.5 106.322 173.406 105.874 173.402 105.421C173.402 103.549 175.021 102.02 176.893 102.02C178.847 102.02 180.466 103.549 180.466 105.421C180.384 107.293 178.847 108.822 176.893 108.822ZM179.19 98.5206C180.719 98.5206 181.913 97.3269 181.913 95.8798C181.913 94.4327 180.719 93.2391 179.19 93.2391C177.661 93.2391 176.468 94.4327 176.468 95.8798C176.386 97.3269 177.661 98.5206 179.19 98.5206ZM179.19 99.2891C177.236 99.2891 175.618 97.7602 175.618 95.888C175.618 94.0158 177.236 92.4869 179.19 92.4869C181.144 92.4869 182.763 94.0158 182.763 95.888C182.681 97.7602 181.063 99.2891 179.19 99.2891ZM145.065 123.62C146.594 123.62 147.788 122.426 147.788 120.979C147.788 119.532 146.594 118.338 145.065 118.338C143.536 118.338 142.343 119.532 142.343 120.979C142.343 122.426 143.536 123.62 145.065 123.62ZM145.065 124.388C143.111 124.388 141.492 122.859 141.492 120.987C141.492 119.115 143.111 117.586 145.065 117.586C145.518 117.579 145.968 117.661 146.389 117.828C146.81 117.995 147.194 118.244 147.519 118.56C147.843 118.876 148.102 119.253 148.28 119.67C148.458 120.087 148.552 120.534 148.556 120.987C148.638 122.859 147.027 124.388 145.065 124.388ZM147.363 114.087C148.891 114.087 150.085 112.893 150.085 111.446C150.064 110.738 149.768 110.067 149.259 109.574C148.751 109.081 148.071 108.805 147.363 108.806C145.834 108.806 144.64 109.999 144.64 111.446C144.64 112.893 145.834 114.087 147.363 114.087ZM147.363 114.856C145.409 114.856 143.79 113.327 143.79 111.454C143.79 109.582 145.409 108.053 147.363 108.053C149.316 108.053 150.935 109.582 150.935 111.454C150.935 113.327 149.316 114.856 147.363 114.856ZM151.45 105.748C152.979 105.748 154.173 104.554 154.173 103.107C154.173 101.66 152.979 100.466 151.45 100.466C149.921 100.466 148.728 101.66 148.728 103.107C148.728 104.554 150.003 105.748 151.45 105.748ZM151.45 106.516C149.496 106.516 147.878 104.988 147.878 103.115C147.878 101.243 149.496 99.7142 151.45 99.7142C153.404 99.7142 155.023 101.243 155.023 103.115C155.023 104.988 153.404 106.516 151.45 106.516ZM158.007 98.3489C159.536 98.3489 160.73 97.1552 160.73 95.7081C160.73 94.2611 159.536 93.0674 158.007 93.0674C156.478 93.0674 155.285 94.2611 155.285 95.7081C155.285 97.1552 156.478 98.3489 158.007 98.3489ZM158.007 99.1174C156.053 99.1174 154.434 97.5885 154.434 95.7163C154.434 93.8441 156.053 92.3152 158.007 92.3152C159.961 92.3152 161.58 93.8441 161.58 95.7163C161.58 97.5885 159.961 99.1092 157.999 99.1092L158.007 99.1174ZM166.011 92.7322C167.54 92.7322 168.734 91.5386 168.734 90.0915C168.734 88.6444 167.54 87.4507 166.011 87.4507C164.482 87.4507 163.289 88.6444 163.289 90.0915C163.289 91.5386 164.564 92.7322 166.011 92.7322ZM166.011 93.5007C164.057 93.5007 162.438 91.9719 162.438 90.0996C162.438 88.2274 164.057 86.6986 166.011 86.6986C167.965 86.6986 169.584 88.2274 169.584 90.0996C169.584 91.9719 167.965 93.5007 166.011 93.5007ZM174.694 89.5028C176.223 89.5028 177.416 88.3092 177.416 86.8621C177.416 85.415 176.223 84.2213 174.694 84.2213C173.165 84.2213 171.971 85.415 171.971 86.8621C171.971 88.3092 173.165 89.5028 174.694 89.5028ZM174.694 90.2713C172.74 90.2713 171.121 88.7425 171.121 86.8703C171.121 84.998 172.74 83.4692 174.694 83.4692C176.648 83.4692 178.266 84.998 178.266 86.8703C178.185 88.7425 176.648 90.2713 174.694 90.2713ZM183.458 90.1896C184.987 90.1896 186.181 88.9959 186.181 87.5488C186.181 86.1017 184.987 84.9081 183.458 84.9081C181.929 84.9081 180.736 86.1017 180.736 87.5488C180.736 88.9959 181.929 90.1896 183.458 90.1896ZM183.458 90.9581C181.504 90.9581 179.885 89.4292 179.885 87.557C179.885 85.6848 181.504 84.1559 183.458 84.1559C185.412 84.1559 187.031 85.6848 187.031 87.557C187.031 89.4292 185.404 90.9336 183.45 90.9336L183.458 90.9581ZM189.925 83.044C191.454 83.044 192.647 81.8504 192.647 80.4033C192.647 78.9562 191.454 77.7626 189.925 77.7626C188.396 77.7626 187.202 78.9562 187.202 80.4033C187.202 81.8504 188.396 83.044 189.925 83.044ZM189.925 83.8126C187.971 83.8126 186.352 82.2837 186.352 80.4115C186.352 78.5393 187.971 77.0104 189.925 77.0104C191.879 77.0104 193.498 78.5393 193.498 80.4115C193.498 82.2837 191.879 83.8126 189.925 83.8126ZM198.354 77.5991C199.883 77.5991 201.077 76.4054 201.077 74.9583C201.077 73.5112 199.883 72.3176 198.354 72.3176C196.825 72.3176 195.632 73.5112 195.632 74.9583C195.632 76.4054 196.825 77.5991 198.354 77.5991ZM198.354 78.3676C196.4 78.3676 194.781 76.8387 194.781 74.9665C194.781 73.0943 196.4 71.5654 198.354 71.5654C200.308 71.5654 201.927 73.0943 201.927 74.9665C201.927 76.8387 200.308 78.3676 198.354 78.3676ZM207.118 74.4514C208.647 74.4514 209.841 73.2578 209.841 71.8107C209.841 70.3636 208.647 69.17 207.118 69.17C205.59 69.17 204.396 70.3636 204.396 71.8107C204.396 73.2578 205.59 74.4514 207.118 74.4514ZM207.118 75.2199C205.164 75.2199 203.546 73.6911 203.546 71.8189C203.546 69.9466 205.164 68.4178 207.118 68.4178C209.072 68.4178 210.691 69.9466 210.691 71.8189C210.691 73.6911 209.072 75.2199 207.118 75.2199ZM224.811 100.466C226.339 100.466 227.533 99.2727 227.533 97.8256C227.533 96.3785 226.339 95.1849 224.811 95.1849C223.282 95.1849 222.088 96.3785 222.088 97.8256C222.088 99.2727 223.282 100.466 224.811 100.466ZM224.811 101.235C222.857 101.235 221.238 99.706 221.238 97.8338C221.238 95.9616 222.857 94.4327 224.811 94.4327C226.764 94.4327 228.383 95.9616 228.383 97.8338C228.383 99.706 226.764 101.235 224.811 101.235ZM224.811 90.8518C226.339 90.8518 227.533 89.6582 227.533 88.2111C227.533 86.764 226.339 85.5703 224.811 85.5703C223.282 85.5703 222.088 86.764 222.088 88.2111C222.088 89.6582 223.282 90.8518 224.811 90.8518ZM224.811 91.6203C222.857 91.6203 221.238 90.0915 221.238 88.2192C221.238 86.347 222.857 84.8182 224.811 84.8182C226.764 84.8182 228.383 86.347 228.383 88.2192C228.383 90.0915 226.764 91.6203 224.811 91.6203ZM224.811 81.2372C226.339 81.2372 227.533 80.0436 227.533 78.5965C227.533 77.1494 226.339 75.9558 224.811 75.9558C223.282 75.9558 222.088 77.1494 222.088 78.5965C222.088 80.0436 223.282 81.2372 224.811 81.2372ZM224.811 81.9158C222.857 81.9158 221.238 80.387 221.238 78.5147C221.238 76.6425 222.857 75.1137 224.811 75.1137C226.764 75.1137 228.383 76.6425 228.383 78.5147C228.383 80.4687 226.764 81.9158 224.811 81.9158ZM216.128 72.8981C217.657 72.8981 218.85 71.7044 218.85 70.2573C218.829 69.5495 218.533 68.8779 218.025 68.3849C217.516 67.8919 216.836 67.6163 216.128 67.6166C214.599 67.6166 213.316 68.8102 213.316 70.2573C213.316 71.7862 214.591 72.8981 216.128 72.8981ZM216.128 73.7483C214.174 73.7483 212.555 72.2195 212.555 70.3473C212.555 68.475 214.174 66.9462 216.128 66.9462C218.082 66.9462 219.701 68.475 219.701 70.3473C219.619 72.2195 218.082 73.7483 216.128 73.7483ZM305.831 129.147C304.685 128.537 303.348 128.391 302.097 128.74C300.846 129.088 299.777 129.904 299.111 131.019C297.835 133.316 298.686 136.21 301.065 137.486C302.212 138.093 303.548 138.238 304.798 137.89C306.049 137.541 307.118 136.727 307.785 135.614C308.11 135.067 308.317 134.459 308.394 133.829C308.471 133.198 308.416 132.558 308.232 131.95C308.049 131.341 307.74 130.778 307.327 130.295C306.913 129.813 306.404 129.422 305.831 129.147ZM306.256 128.468C309.069 129.915 310.001 133.316 308.472 135.957C307.706 137.267 306.462 138.23 305.002 138.643C303.542 139.056 301.978 138.887 300.64 138.172C299.987 137.843 299.408 137.383 298.939 136.821C298.471 136.26 298.122 135.608 297.914 134.907C297.707 134.205 297.645 133.469 297.733 132.742C297.82 132.016 298.056 131.316 298.424 130.684C299.19 129.373 300.434 128.411 301.894 127.998C303.354 127.585 304.918 127.753 306.256 128.468ZM155.53 130.34C154.761 128.468 153.829 127.021 151.786 126.424C153.151 109.999 157.484 102.51 172.895 95.0214C174.26 95.5283 174.17 95.7 174.17 95.8717C174.17 98.0873 175.446 99.191 177.065 100.385C174.342 100.981 171.873 102.175 171.873 105.404C171.873 108.045 173.745 109.492 176.124 110.171C175.356 111.618 175.184 112.215 175.356 113.915C172.208 115.362 171.53 117.316 172.29 120.382C173.484 124.724 176.206 125.23 180.548 124.127C180.781 125.478 180.548 126.869 179.887 128.071C179.225 129.272 178.174 130.213 176.907 130.738C175.64 131.263 174.232 131.341 172.914 130.96C171.597 130.579 170.448 129.76 169.658 128.64C169.658 128.215 169.576 127.871 169.486 127.446C168.807 124.977 166.085 123.448 163.354 124.045C160.713 124.724 159.013 127.364 159.691 129.915C159.945 130.765 160.37 131.444 160.967 132.041C161.22 134.51 160.117 136.725 157.901 137.911C155.604 139.105 153.813 138.589 151.606 137.829C155.268 136.129 157.149 134.51 155.53 130.34ZM155.783 112.55C154.255 116.213 153.486 120.464 152.971 125.656C154.761 126.424 155.947 128.206 156.634 129.997C157.737 132.719 157.737 135.532 154.68 137.657C155.602 137.758 156.531 137.548 157.32 137.061C159.021 136.12 159.961 134.42 159.871 132.638C159.284 131.943 158.849 131.132 158.596 130.258C157.746 127.021 159.79 123.792 163.019 123.023C164.585 122.624 166.245 122.843 167.654 123.635C169.064 124.426 170.115 125.729 170.59 127.274C170.671 127.618 170.761 127.953 170.761 128.296C173.574 131.616 179.19 129.915 179.444 125.574C174.252 126.596 172.037 124.045 171.186 120.636C170.418 117.823 170.761 114.937 174.081 113.229C174.051 112.421 174.167 111.615 174.424 110.849C173.518 110.474 172.718 109.882 172.095 109.125C171.472 108.368 171.045 107.469 170.851 106.508C167.875 107.105 164.556 107.955 161.833 109.059C159.193 109.999 157.231 111.356 155.783 112.55ZM172.977 96.215C164.384 100.556 159.356 104.979 156.38 111.111C157.949 109.971 159.669 109.055 161.49 108.389C164.302 107.285 167.704 106.435 170.679 105.838V105.404C170.679 102.935 172.298 100.72 174.506 99.8695C173.593 98.8588 173.054 97.5746 172.977 96.215ZM291.704 138.001C290.66 137.446 289.808 136.589 289.261 135.541C288.714 134.493 288.496 133.304 288.638 132.131C289.235 131.534 289.66 130.855 289.913 130.005C290.066 129.385 290.094 128.741 289.997 128.11C289.899 127.479 289.678 126.873 289.347 126.328C289.015 125.782 288.578 125.308 288.062 124.931C287.546 124.555 286.961 124.284 286.34 124.135C285.612 123.943 284.849 123.918 284.109 124.061C283.368 124.204 282.67 124.512 282.065 124.962C281.461 125.412 280.965 125.993 280.615 126.66C280.266 127.328 280.071 128.066 280.045 128.82C276.219 133.668 268.469 131.117 269.155 124.307C273.497 125.329 276.219 124.903 277.413 120.562C278.263 117.496 277.494 115.542 274.437 114.095C274.624 112.796 274.352 111.471 273.668 110.351C276.047 109.672 277.92 108.225 277.92 105.584C277.92 102.347 275.451 101.161 272.728 100.646C274.347 99.3708 275.704 98.3489 275.704 96.1333C275.704 95.9616 275.704 95.7081 275.622 95.5365L276.726 95.1931C292.047 102.6 296.724 110.343 298.089 126.596C295.963 127.193 295.023 128.64 294.344 130.512C292.726 134.681 294.598 136.3 298.261 138.083C295.792 138.679 294.009 139.186 291.704 138.001ZM278.852 106.508C278.426 108.462 277.061 110.081 275.189 110.849C275.481 111.607 275.598 112.42 275.532 113.229C278.933 114.929 279.195 117.823 278.426 120.636C277.486 124.037 275.361 126.596 270.169 125.574C270.422 129.915 276.039 131.616 278.852 128.296C278.852 127.953 278.933 127.618 279.023 127.274C279.874 124.127 283.275 122.165 286.512 123.023C289.832 123.873 291.785 127.111 290.935 130.258C290.682 131.109 290.257 131.959 289.66 132.556C289.63 133.238 289.745 133.918 289.998 134.552C290.251 135.186 290.635 135.76 291.126 136.234C291.617 136.709 292.202 137.074 292.845 137.305C293.487 137.536 294.171 137.628 294.851 137.576C291.785 135.532 291.785 132.728 292.897 129.915C293.576 128.125 294.688 126.342 296.56 125.574C296.135 120.382 295.285 116.131 293.748 112.468C291.943 110.975 289.901 109.795 287.706 108.977C285.155 108.037 281.746 107.187 278.852 106.508ZM276.636 96.0433C276.554 97.4904 275.957 98.8558 275.017 99.7878C276.161 100.194 277.151 100.944 277.852 101.935C278.553 102.926 278.931 104.109 278.933 105.323V105.748C281.999 106.426 285.229 107.195 288.123 108.299C290.167 109.067 291.867 109.999 293.233 111.021C290.257 104.979 285.229 100.556 276.636 96.0433ZM258.764 147.28L250.081 141.41L260.636 140.306L269.319 146.176L258.764 147.28ZM242.421 143.879C241.968 143.887 241.518 143.805 241.097 143.637C240.676 143.47 240.292 143.221 239.967 142.905C239.643 142.589 239.384 142.212 239.206 141.795C239.028 141.379 238.934 140.931 238.93 140.478C238.93 138.606 240.549 137.077 242.421 137.077C244.375 137.077 245.994 138.606 245.994 140.478C245.994 142.35 244.375 143.879 242.421 143.879ZM242.421 143.111C243.95 143.111 245.143 141.917 245.143 140.47C245.143 139.023 243.95 137.829 242.421 137.829C240.892 137.829 239.698 139.023 239.698 140.47C239.698 141.917 240.974 143.111 242.421 143.111ZM173.14 151.965C174.669 151.965 175.863 150.771 175.863 149.324C175.863 147.877 174.669 146.683 173.14 146.683C171.612 146.683 170.418 147.877 170.418 149.324C170.418 150.771 171.612 151.965 173.14 151.965ZM173.14 152.733C171.186 152.733 169.568 151.204 169.568 149.332C169.568 147.46 171.186 145.931 173.14 145.931C175.094 145.931 176.713 147.46 176.713 149.332C176.631 151.204 175.094 152.733 173.14 152.733ZM207.184 143.119C208.713 143.119 209.906 141.925 209.906 140.478C209.885 139.77 209.589 139.099 209.081 138.606C208.572 138.113 207.892 137.837 207.184 137.837C205.655 137.837 204.461 139.031 204.461 140.478C204.38 141.925 205.655 143.119 207.184 143.119ZM207.184 143.887C205.23 143.887 203.611 142.358 203.611 140.486C203.611 138.614 205.23 137.085 207.184 137.085C209.138 137.085 210.757 138.614 210.757 140.486C210.675 142.358 209.138 143.887 207.184 143.887ZM276.464 151.973C277.993 151.973 279.187 150.779 279.187 149.332C279.187 147.885 277.993 146.692 276.464 146.692C274.935 146.692 273.742 147.885 273.742 149.332C273.742 150.779 274.935 151.973 276.464 151.973ZM276.464 152.742C274.51 152.742 272.892 151.213 272.892 149.34C272.892 147.468 274.51 145.939 276.464 145.939C278.418 145.939 280.037 147.468 280.037 149.34C280.037 151.213 278.418 152.742 276.464 152.742ZM190.849 147.297L180.294 146.193L188.977 140.323L199.531 141.426L190.849 147.297ZM233.657 139.554L224.811 136.382L216.046 139.53L224.811 142.685L233.657 139.554ZM235.872 139.554L224.811 143.536L213.749 139.538L224.811 135.532L235.872 139.554Z" fill="#004996"/>
</g>
<defs>
<clipPath id="clip0_35_93">
<rect width="261.621" height="351.664" fill="white" transform="translate(94 50)"/>
</clipPath>
</defs>
</svg>
