<svg width="450" height="452" viewBox="0 0 450 452" fill="none" xmlns="http://www.w3.org/2000/svg">
<rect width="450" height="452" fill="white"/>
<g clip-path="url(#clip0_35_2)">
<path fill-rule="evenodd" clip-rule="evenodd" d="M225.478 409.358C166.823 389.617 122.456 351.995 101.779 300.664H165.674C161.582 294.849 158.136 288.674 155.48 282.069H95.5333C93.8819 276.04 92.5183 269.867 91.5124 263.548H149.952C148.875 257.589 148.229 251.416 148.157 244.953H89.4315C89.1436 240.789 89 236.481 89 232.175C89 230.235 89.0725 228.297 89.0725 226.431H148.875C149.234 222.195 149.808 218.104 150.526 214.083C150.886 212 151.317 209.917 151.747 207.836H89.7898C91.6573 179.191 97.1847 155.357 107.165 131.162C140.332 130.372 151.245 124.915 164.67 118.168C179.89 110.558 193.028 102.374 225.479 102.374C257.931 102.374 271.067 110.558 286.287 118.168C299.713 124.915 310.625 130.372 343.793 131.162C353.771 155.357 359.302 179.191 361.166 207.836H299.209C299.641 209.917 300.071 212 300.43 214.083C301.148 218.104 301.723 222.195 302.081 226.431H361.885C361.885 228.297 361.957 230.236 361.957 232.175C361.957 236.481 361.812 240.789 361.525 244.953H302.799C302.729 251.416 302.08 257.589 301.004 263.548H359.442C358.436 269.867 357.075 276.04 355.423 282.069H295.477C292.821 288.674 289.372 294.849 285.282 300.664H349.177C328.502 351.995 284.133 389.617 225.478 409.358Z" fill="#008057"/>
<path fill-rule="evenodd" clip-rule="evenodd" d="M355.423 282.069C353.628 288.458 351.545 294.635 349.178 300.664H285.283C289.374 294.849 292.821 288.674 295.477 282.069H355.423Z" fill="white"/>
<path fill-rule="evenodd" clip-rule="evenodd" d="M302.8 244.953C302.729 251.416 302.081 257.589 301.004 263.548H359.443C360.447 257.517 361.095 251.271 361.525 244.953H302.8Z" fill="white"/>
<path fill-rule="evenodd" clip-rule="evenodd" d="M299.208 207.835C299.641 209.917 300.071 211.999 300.43 214.082C301.148 218.103 301.723 222.195 302.081 226.43H361.885C361.812 219.969 361.596 213.795 361.166 207.835H299.208Z" fill="white"/>
<path fill-rule="evenodd" clip-rule="evenodd" d="M148.875 226.431C149.235 222.195 149.809 218.104 150.527 214.083C150.887 212 151.317 209.917 151.748 207.836H89.7899C89.3597 213.795 89.1437 219.97 89.0725 226.431H148.875Z" fill="white"/>
<path fill-rule="evenodd" clip-rule="evenodd" d="M149.952 263.548C148.875 257.589 148.229 251.416 148.157 244.953H89.4315C89.8617 251.271 90.5079 257.517 91.5131 263.548H149.952Z" fill="white"/>
<path fill-rule="evenodd" clip-rule="evenodd" d="M165.675 300.665C161.582 294.85 158.137 288.675 155.481 282.07H95.5333C97.3284 288.459 99.4093 294.636 101.779 300.665H165.675Z" fill="white"/>
<path fill-rule="evenodd" clip-rule="evenodd" d="M226.053 338.141H224.905C202.505 330.532 183.982 318.109 171.204 301.596C158.999 285.733 152.107 266.062 152.107 243.446C152.107 232.821 152.825 223.487 154.404 214.8C155.984 206.114 158.353 198.001 161.727 189.817L162.23 188.667C168.834 188.453 175.584 188.165 181.973 186.441C186.496 185.221 190.588 183.14 194.752 181.057C202.147 177.252 209.47 173.518 225.479 173.518C241.489 173.518 248.812 177.252 256.207 181.057C260.37 183.139 264.462 185.221 268.985 186.441C275.376 188.165 282.124 188.453 288.727 188.667L289.231 189.817C292.606 198.001 294.974 206.114 296.553 214.8C298.135 223.487 298.852 232.821 298.852 243.446C298.852 266.061 291.959 285.733 279.753 301.596C266.976 318.109 248.453 330.532 226.053 338.141Z" fill="white"/>
<path fill-rule="evenodd" clip-rule="evenodd" d="M225.478 334.192C246.8 326.869 264.461 314.949 276.593 299.156C288.297 284.008 294.904 265.197 294.904 243.445C294.904 233.035 294.257 223.917 292.676 215.446C291.242 207.477 289.088 200.082 286.071 192.544C277.96 192.257 272.357 191.466 267.98 190.246C263.171 188.954 258.862 186.8 254.41 184.575C247.447 180.985 240.555 177.467 225.479 177.467C210.402 177.467 203.51 180.985 196.546 184.575C192.095 186.8 187.787 188.954 182.977 190.246C178.597 191.466 172.998 192.257 164.885 192.544C161.87 200.082 159.716 207.477 158.28 215.446C156.702 223.918 156.055 233.035 156.055 243.445C156.055 265.196 162.66 284.008 174.362 299.156C186.494 314.949 204.156 326.869 225.478 334.192Z" fill="#008057"/>
<path fill-rule="evenodd" clip-rule="evenodd" d="M141.983 172.155C143.994 173.663 144.926 175.888 144.64 178.904C144.353 181.919 142.917 185.221 140.261 188.883C138.753 190.965 137.317 192.688 135.882 193.981C134.446 195.345 133.871 195.847 132.435 196.852L127.194 193.621C129.205 192.471 130.497 191.683 132.435 190.176C134.159 188.883 135.522 187.447 136.67 185.867C136.958 185.507 137.317 184.934 137.676 184.287C138.107 183.57 138.394 182.996 138.537 182.492C138.753 181.918 138.825 181.344 138.825 180.841C138.825 180.339 138.609 179.909 138.107 179.548C137.605 179.19 137.102 179.19 136.383 179.406C135.738 179.622 135.02 180.124 134.159 180.913C133.297 181.704 132.364 182.637 131.43 183.571C130.497 184.504 129.635 185.294 128.702 186.084C126.548 187.807 124.682 188.74 123.102 189.027C121.45 189.242 119.871 188.812 118.507 187.807C116.569 186.371 115.778 184.218 116.066 181.274C116.424 178.258 117.789 175.1 120.159 171.797C121.379 170.146 122.743 168.566 124.18 167.13C125.4 165.91 126.548 164.905 127.697 164.043L131.574 167.776C128.774 169.356 125.903 171.94 124.107 174.381C123.677 174.884 123.319 175.458 123.031 176.033C122.672 176.607 122.385 177.181 122.241 177.827C122.026 178.401 121.954 178.904 122.026 179.407C122.097 179.909 122.312 180.34 122.672 180.627C123.174 180.985 123.82 181.057 124.467 180.77C125.113 180.412 126.045 179.694 127.339 178.401C128.129 177.612 128.989 176.823 129.707 176.103C130.497 175.313 131.358 174.596 132.291 173.806C134.229 172.227 135.952 171.293 137.532 171.005C139.112 170.719 140.548 171.15 141.983 172.155Z" fill="white"/>
<path fill-rule="evenodd" clip-rule="evenodd" d="M155.983 145.161C154.762 144.802 153.542 144.73 152.107 145.017C150.958 145.233 149.737 145.735 148.517 146.381C147.297 147.028 145.933 148.033 144.424 149.325L134.302 157.797L150.599 177.253L156.486 172.299L151.173 165.982L155.266 162.536C157.061 161.028 158.353 159.665 159.143 158.229C160.003 156.864 160.578 155.429 160.866 153.849C161.152 152.701 161.082 151.552 160.723 150.403C160.435 149.255 159.86 148.25 159.143 147.388C158.208 146.238 157.131 145.52 155.983 145.161ZM153.973 154.35C154.117 154.853 154.117 155.428 153.973 156.073C153.757 156.791 153.399 157.438 152.753 158.155C152.178 158.802 151.388 159.592 150.311 160.453L148.086 162.32L143.204 156.505L144.713 155.212C145.718 154.351 146.579 153.704 147.154 153.203C147.8 152.699 148.518 152.341 149.379 151.981C149.954 151.767 150.599 151.695 151.319 151.767C152.036 151.838 152.61 152.197 153.041 152.699C153.542 153.274 153.83 153.847 153.973 154.35Z" fill="white"/>
<path fill-rule="evenodd" clip-rule="evenodd" d="M186.064 131.161C182.475 130.085 178.311 130.587 173.644 132.526C168.906 134.535 165.675 137.191 163.952 140.494C162.229 143.868 162.157 147.387 163.736 151.12C165.316 154.853 167.9 157.223 171.49 158.299C175.079 159.376 179.243 158.874 183.981 156.863C188.72 154.853 191.951 152.197 193.674 148.894C195.397 145.592 195.469 142.074 193.889 138.342C192.31 134.535 189.725 132.167 186.064 131.161ZM184.915 150.761C184.126 151.407 183.12 152.053 182.116 152.484C181.11 152.915 179.962 153.202 178.956 153.274C177.95 153.345 176.947 153.274 176.013 152.915C175.079 152.556 174.217 151.981 173.428 151.192C172.566 150.402 171.849 149.325 171.274 147.889C170.7 146.525 170.413 145.305 170.413 144.085C170.413 142.864 170.556 141.787 170.987 140.926C171.489 139.992 172.063 139.203 172.781 138.556C173.571 137.982 174.576 137.335 175.51 136.977C176.514 136.545 177.591 136.259 178.597 136.115C179.602 136.043 180.608 136.187 181.541 136.473C182.474 136.833 183.336 137.407 184.197 138.197C185.058 138.986 185.704 140.136 186.35 141.5C186.853 142.792 187.212 144.013 187.212 145.161C187.284 146.238 187.068 147.315 186.638 148.391C186.28 149.325 185.633 150.114 184.915 150.761Z" fill="white"/>
<path fill-rule="evenodd" clip-rule="evenodd" d="M220.238 138.7C222.176 137.767 223.612 136.618 224.545 135.326C225.479 134.106 225.837 132.526 225.693 130.66C225.55 129.296 225.191 128.219 224.473 127.357C223.684 126.495 222.678 125.849 221.458 125.419C220.238 124.915 219.016 124.7 217.653 124.629C216.289 124.557 214.71 124.629 212.915 124.772L199.633 125.921L201.858 151.265L209.325 150.547L208.535 141.285L212.484 140.927C216.146 143.727 218.946 146.599 220.526 149.613L229.284 149.111C226.985 145.161 224.689 141.5 220.238 138.7ZM217.295 133.889C217.079 134.321 216.72 134.751 216.217 135.182C215.642 135.612 214.925 135.9 214.063 136.043C213.274 136.259 212.197 136.402 210.904 136.473L208.176 136.761L207.53 129.94L210.761 129.654C211.695 129.582 212.556 129.51 213.274 129.51C213.992 129.438 214.638 129.51 215.212 129.654C216.002 129.869 216.576 130.157 216.936 130.587C217.295 131.018 217.51 131.521 217.582 132.167C217.653 132.885 217.509 133.459 217.295 133.889Z" fill="white"/>
<path fill-rule="evenodd" clip-rule="evenodd" d="M256.276 126.279L228.925 123.408L228.35 128.648L238.402 129.725L236.247 149.684L243.642 150.474L245.724 130.443L255.703 131.521L256.276 126.279Z" fill="white"/>
<path fill-rule="evenodd" clip-rule="evenodd" d="M270.133 130.659L262.955 128.577L255.917 152.987L263.171 154.997L270.133 130.659Z" fill="white"/>
<path fill-rule="evenodd" clip-rule="evenodd" d="M307.968 149.468L301.65 145.735L293.178 158.802L286.573 137.694L279.825 134.607L269.416 157.725L275.878 160.525L282.196 146.74L288.585 167.416L294.112 171.222L307.968 149.468Z" fill="white"/>
<path fill-rule="evenodd" clip-rule="evenodd" d="M325.269 187.59L318.593 177.18L314.86 179.909L317.3 183.785L313.638 186.37C311.412 183.857 307.968 178.688 308.111 175.242C308.182 172.873 309.402 170.863 311.628 169.211C312.705 168.351 313.854 167.847 315.004 167.633C316.151 167.417 317.227 167.417 318.305 167.704C320.676 168.351 322.902 170.36 324.336 172.227C325.055 173.233 325.628 174.238 326.132 175.243C327.137 177.541 327.855 181.13 328.285 184.145L333.094 180.556C332.379 178.188 331.587 175.243 330.727 173.591C329.793 171.941 328.786 170.218 327.495 168.638C324.265 164.259 320.748 161.601 317.013 160.669C313.28 159.736 309.833 160.381 306.675 162.751C303.372 165.264 301.65 168.422 301.577 172.227C301.577 176.033 303.086 180.052 306.316 184.289C307.679 186.155 309.259 187.808 310.981 189.387C312.705 190.966 315.217 193.407 316.439 194.268L325.269 187.59Z" fill="white"/>
<path fill-rule="evenodd" clip-rule="evenodd" d="M154.691 337.135C154.044 337.854 153.327 338.355 152.465 338.715C151.532 339.074 150.67 339.216 149.736 339.145C148.445 339.074 147.225 338.787 146.075 338.211C144.854 337.708 143.634 336.777 142.27 335.555L139.039 332.542L134.516 337.351L130.136 333.26L143.994 318.47L151.819 325.431C152.967 326.51 153.83 327.514 154.475 328.449C155.624 329.956 156.484 332.542 156.126 334.406C155.983 335.412 155.481 336.274 154.691 337.135ZM149.881 332.899C150.311 332.469 150.527 331.966 150.527 331.392C150.527 330.889 150.383 330.316 150.097 329.883C149.809 329.239 149.379 328.735 148.949 328.305C148.517 327.802 147.872 327.227 147.081 326.51L145.789 325.29L141.625 329.739L143.491 331.465C144.281 332.182 144.999 332.756 145.573 333.188C146.147 333.618 146.722 333.832 147.296 333.905C147.8 333.976 148.302 333.976 148.732 333.762C149.091 333.618 149.522 333.329 149.881 332.899Z" fill="white"/>
<path fill-rule="evenodd" clip-rule="evenodd" d="M176.947 352.715C175.295 355.512 173.069 357.164 170.126 357.668C167.183 358.171 163.952 357.453 160.506 355.444C157.06 353.432 154.762 350.992 153.757 348.19C152.752 345.463 153.039 342.664 154.691 339.864C156.27 336.992 158.568 335.341 161.511 334.839C164.383 334.334 167.614 335.125 171.06 337.062C174.505 339.074 176.803 341.514 177.808 344.243C178.885 347.041 178.597 349.842 176.947 352.715ZM167.11 352.929C167.901 352.715 168.691 352.282 169.408 351.709C170.054 351.135 170.701 350.416 171.276 349.412C171.85 348.335 172.209 347.329 172.352 346.467C172.496 345.533 172.424 344.673 172.208 343.953C171.992 343.236 171.634 342.519 171.132 341.946C170.558 341.37 169.84 340.796 169.193 340.436C168.475 340.006 167.685 339.717 166.967 339.576C166.178 339.36 165.46 339.36 164.67 339.576C163.88 339.718 163.162 340.079 162.372 340.724C161.654 341.297 161.009 342.089 160.361 343.166C159.787 344.17 159.428 345.175 159.285 346.036C159.142 346.971 159.213 347.831 159.428 348.551C159.644 349.268 160.002 349.985 160.505 350.561C161.08 351.134 161.725 351.708 162.443 352.068C163.161 352.498 164.023 352.856 164.813 353.001C165.531 353.145 166.321 353.145 167.11 352.929Z" fill="white"/>
<path fill-rule="evenodd" clip-rule="evenodd" d="M199.705 369.155L192.526 366.858C192.238 363.769 190.659 360.753 188.649 357.739L185.562 356.733L183.264 363.842L177.449 361.976L183.695 342.663L193.961 345.964C195.397 346.396 196.545 346.899 197.48 347.329C198.485 347.833 199.345 348.406 200.064 349.123C200.854 349.842 201.356 350.632 201.644 351.495C201.93 352.355 201.93 353.29 201.644 354.294C201.141 355.73 200.351 356.807 199.274 357.381C198.125 358.027 196.762 358.387 195.039 358.53C197.048 361.329 198.628 364.848 199.705 369.155ZM195.254 352.929C195.398 352.425 195.398 351.995 195.326 351.565C195.182 351.135 194.823 350.703 194.321 350.345C193.961 350.059 193.459 349.842 192.956 349.628C192.383 349.412 191.736 349.196 191.018 348.908L188.434 348.119L186.711 353.29L189.008 354.005C189.941 354.367 190.804 354.581 191.522 354.724C192.167 354.868 192.813 354.868 193.317 354.724C193.819 354.581 194.25 354.367 194.537 354.149C194.823 353.862 195.11 353.504 195.254 352.929Z" fill="white"/>
<path fill-rule="evenodd" clip-rule="evenodd" d="M225.478 350.273L203.582 348.406L203.223 352.571L211.335 353.29L209.972 369.298L215.571 369.801L216.935 353.791L225.12 354.508L225.478 350.273Z" fill="white"/>
<path fill-rule="evenodd" clip-rule="evenodd" d="M250.677 347.832L244.432 348.478L245.508 361.186C245.652 362.693 245.364 363.769 244.648 364.487C244.001 365.206 242.638 365.636 241.058 365.779C239.406 365.925 237.97 365.709 237.18 365.133C236.391 364.487 235.96 363.483 235.817 362.046L234.74 349.482L228.565 349.912L229.642 362.906C229.858 365.421 231.007 367.215 232.945 368.364C234.954 369.586 237.756 370.016 241.417 369.656C245.006 369.368 247.735 368.436 249.458 366.927C251.251 365.42 251.971 363.482 251.755 360.968L250.677 347.832Z" fill="white"/>
<path fill-rule="evenodd" clip-rule="evenodd" d="M279.682 348.62L270.78 351.349L271.856 355.011L275.302 353.935L276.451 357.74C273.795 358.816 269.774 359.893 267.045 358.816C265.251 358.097 264.103 356.661 263.385 354.508C263.098 353.431 263.025 352.498 263.171 351.564C263.456 349.627 264.605 348.189 266.184 347.113C266.976 346.609 268.122 346.109 269.2 345.749C270.133 345.463 271.066 345.319 272 345.246C273.939 345.175 276.522 345.462 278.534 345.822L277.096 341.224C275.159 341.083 273.436 341.156 271.927 341.37C270.493 341.586 268.913 341.873 267.406 342.374C263.241 343.668 260.298 345.533 258.504 348.119C256.781 350.632 256.349 353.431 257.282 356.447C258.216 359.606 260.152 361.762 263.025 362.836C265.827 363.912 269.27 363.842 273.363 362.622C275.086 362.119 276.811 361.4 278.462 360.54C280.114 359.677 281.621 358.816 282.627 358.17L279.682 348.62Z" fill="white"/>
<path fill-rule="evenodd" clip-rule="evenodd" d="M309.692 343.596L303.947 346.972L300.357 344.243L292.389 348.908L292.89 353.29L287.293 356.517L285.137 334.333L291.528 330.673L309.692 343.596ZM297.126 341.801L290.882 337.062L291.814 344.887L297.126 341.801Z" fill="white"/>
<path fill-rule="evenodd" clip-rule="evenodd" d="M323.333 324.931L314.861 332.826L303.804 320.981L299.425 325.073L313.209 339.936L326.132 327.946L323.333 324.931Z" fill="white"/>
<path fill-rule="evenodd" clip-rule="evenodd" d="M137.605 99.7162C140.044 99.7162 149.881 100.004 157.993 97.7782C163.88 96.1267 169.552 92.6091 168.187 89.3062C166.896 86.363 161.295 86.2906 154.69 87.7984C146.363 89.7364 137.963 89.0908 135.091 87.7984C131.86 86.363 129.204 83.7775 127.911 80.3317C126.619 76.7422 128.198 71.6456 131.716 67.7677C135.235 63.8924 140.475 60.7331 147.368 58.2207C153.972 55.7794 160.649 54.5594 167.542 53.8414L171.992 63.3897C168.187 63.3179 163.665 63.4616 158.854 64.395C153.972 65.2553 148.732 66.908 145.716 69.7076C142.917 72.365 144.28 76.0262 148.229 75.5947C150.454 75.3793 153.326 75.0928 155.911 74.8049C162.372 74.2305 169.193 73.2253 175.511 75.0928C188.145 78.8258 185.059 91.0301 177.377 97.9936C174.434 100.65 170.915 102.732 167.828 104.167C160.075 107.757 151.029 109.121 142.773 109.768L137.605 99.7162Z" fill="#008057"/>
<path fill-rule="evenodd" clip-rule="evenodd" d="M253.263 47.4511C249.744 46.015 246.011 44.8668 242.064 44.1482C238.186 43.3584 234.02 43 229.785 43C224.402 43 219.233 43.6456 214.35 44.8662C206.31 46.9478 197.622 51.1116 192.956 58.3636C191.018 61.4511 190.084 64.6821 190.084 68.1985C190.084 72.2194 191.376 76.0249 193.96 79.3982C199.273 86.363 208.462 90.3826 216.791 92.1776C220.883 93.0399 225.191 93.3271 229.641 93.3271C233.876 93.3271 237.898 92.9674 241.774 92.2494C245.65 91.5321 250.533 89.6659 253.765 88.3016L253.692 76.5993C246.513 80.3323 238.688 82.5582 230.574 82.5582C221.745 82.5582 207.96 79.4713 207.96 68.0562C207.96 56.7135 221.673 53.6266 230.574 53.6266C238.113 53.6266 246.943 55.4217 253.262 59.3695L253.263 47.4511Z" fill="#008057"/>
<path fill-rule="evenodd" clip-rule="evenodd" d="M279.825 101.009L285.426 83.4192L298.275 87.5118C302.511 88.8036 309.332 89.8088 315.148 87.7984C323.405 84.8552 325.918 75.8088 320.891 68.7736C318.808 65.8297 315.649 63.4609 312.635 61.9531C309.404 60.3734 303.087 58.5072 297.342 56.5686L279.108 50.5379L264.748 96.0549L279.825 101.009ZM308.039 75.4505C306.892 79.2553 299.569 78.3937 296.768 77.5321L288.224 74.8761L291.455 64.2514L301.147 67.3388C304.452 68.4152 309.332 71.4296 308.039 75.4505Z" fill="#008057"/>
<path fill-rule="evenodd" clip-rule="evenodd" d="M239.909 192.616C238.113 193.98 236.679 195.128 235.17 195.559C235.026 195.559 235.026 195.775 235.099 195.775C236.247 196.277 237.755 196.205 239.335 196.205C240.842 196.133 242.492 196.133 243.928 196.493C244.934 196.707 245.652 197.211 246.227 197.785C246.73 198.431 247.087 199.149 247.16 199.795C245.364 198.861 243.641 198.431 242.135 198.503C241.488 198.503 240.842 198.647 240.339 198.933C239.765 199.22 239.335 199.652 239.047 200.154C238.689 200.729 238.543 201.446 238.543 202.308C238.616 202.379 238.689 202.452 238.759 202.379C239.479 201.949 240.195 201.661 240.915 201.517C241.561 201.302 242.206 201.231 242.852 201.302C244.359 201.374 245.652 201.948 246.658 202.81C247.661 203.671 248.31 204.819 248.31 205.969C248.38 206.975 248.453 208.051 248.667 208.984C248.811 209.774 249.097 210.491 249.457 211.21C248.453 210.78 247.807 209.846 247.16 208.912C246.227 207.692 245.294 206.4 243.571 206.113C242.851 205.969 242.064 206.113 241.345 206.472C240.626 206.83 240.052 207.477 239.62 208.266C239.549 208.41 239.62 208.482 239.765 208.482C241.129 208.41 242.349 208.696 243.355 209.271C244.504 209.846 245.436 210.78 246.154 211.855C247.661 214.224 247.806 216.306 247.878 218.102C247.95 219.536 248.021 220.757 248.74 221.906C247.015 221.26 246.011 219.393 245.15 217.67C244.647 216.665 244.217 215.804 243.641 215.158C243.355 214.87 243.067 214.654 242.708 214.44C242.134 214.152 241.56 214.009 240.914 214.081C240.266 214.224 239.692 214.512 239.189 215.015C238.831 215.301 238.473 215.732 238.255 216.234C238.185 216.306 238.255 216.45 238.328 216.45C239.764 216.45 241.127 217.024 242.204 218.102C243.21 219.034 243.927 220.47 244.216 222.193C244.357 223.558 244.357 225.137 244.286 226.716C244.216 229.874 244.143 233.104 246.009 235.114C242.636 234.542 241.917 231.526 241.198 228.583C240.984 227.719 240.768 226.931 240.481 226.141C240.121 224.994 239.477 224.06 238.757 223.342C237.897 222.552 236.962 222.12 236.101 221.977C236.029 221.977 235.958 222.121 236.029 222.265C237.394 223.701 237.897 225.425 237.897 227.289C237.897 229.157 237.465 231.24 236.893 233.466C236.459 235.114 236.317 236.767 236.605 238.203C236.821 239.566 237.324 240.716 238.255 241.649C238.327 241.721 238.473 241.648 238.473 241.576C238.614 240.358 238.831 239.35 239.261 238.562C239.691 237.843 240.194 237.197 240.84 236.625C240.84 237.055 240.84 237.485 240.84 237.989C240.913 241.576 240.984 245.383 241.344 248.111C241.56 249.834 242.707 252.633 244.073 255.289C245.723 258.521 247.66 261.606 248.738 262.756C250.532 264.624 252.472 265.699 254.409 266.131C256.059 266.491 257.712 266.345 259.075 265.771C260.511 265.268 261.66 264.264 262.45 263.044C263.24 261.895 263.67 260.459 263.599 258.879C263.454 256.655 263.096 254.932 261.947 252.274C260.798 249.69 258.934 246.171 255.988 240.429C254.481 237.559 253.261 234.543 252.759 231.527C252.254 228.439 252.472 225.352 253.835 222.266C254.77 219.968 256.275 218.173 258.214 216.953C260.01 215.876 262.163 215.301 264.603 215.589C264.603 215.589 264.676 215.519 264.747 215.519C265.107 214.655 265.68 214.081 266.399 213.65C267.189 213.22 268.12 213.005 269.055 212.932C270.346 212.932 271.641 213.148 272.79 213.58C273.291 213.724 273.794 214.01 274.224 214.225C275.084 214.656 275.947 215.088 277.024 215.088C278.244 215.16 279.466 214.513 280.613 215.088C279.823 215.16 279.177 215.59 278.532 215.948C277.74 216.38 276.953 216.81 275.731 216.881C274.367 216.954 273.291 216.596 271.998 216.092C271.925 216.021 271.854 216.092 271.782 216.164C271.782 216.235 271.782 216.308 271.782 216.308C271.782 218.246 275.301 218.533 276.737 218.246C277.526 218.03 278.46 217.886 278.962 218.03C278.243 218.03 277.597 218.46 276.88 218.82C276.018 219.25 274.224 219.682 272.717 219.682C271.855 219.682 270.994 219.466 270.564 218.962C270.491 218.891 270.275 218.891 270.275 219.035C270.275 219.179 270.275 219.323 270.346 219.465C270.418 220.256 271.137 220.757 271.855 220.973C272.645 221.189 273.505 221.045 274.152 220.973C275.158 220.829 275.947 220.757 277.095 220.973C275.947 221.261 275.014 221.691 274.008 222.121C271.782 223.126 269.558 223.845 267.116 223.342C265.536 222.984 264.246 222.05 263.815 220.543C263.526 219.609 263.526 218.532 263.815 217.528C263.815 217.455 263.815 217.383 263.669 217.383C262.522 217.167 261.372 217.311 260.366 217.742C259.217 218.245 258.213 219.034 257.353 219.968C255.915 221.619 255.127 223.558 254.84 225.639C254.551 227.937 254.84 230.45 255.557 232.82C256.131 234.829 257.064 236.839 258.213 238.849C259.289 240.93 260.583 242.87 261.802 244.88C262.592 246.1 263.31 247.32 264.028 248.54C264.746 249.69 265.394 250.838 266.038 251.986C266.828 253.278 267.188 254.499 267.404 255.719C267.618 256.868 267.618 258.017 267.618 259.094C267.545 261.248 266.974 263.258 265.895 264.981C264.818 266.633 263.309 268.069 261.227 269.29C261.085 269.362 261.085 269.504 261.227 269.504C261.873 269.792 262.592 269.934 263.309 269.72C263.955 269.576 264.601 269.216 265.248 268.716C264.531 270.295 263.239 271.372 261.659 272.019C259.647 272.808 257.207 272.879 254.696 272.376C254.624 272.376 254.551 272.449 254.551 272.59C254.769 273.667 255.197 274.673 255.845 275.463C256.273 275.966 256.849 276.396 257.493 276.684C258.139 276.899 258.931 276.971 259.719 276.826C260.723 276.612 261.945 276.038 263.167 275.034C263.74 278.981 260.581 280.705 257.206 282.5C256.778 282.714 256.418 282.931 256.056 283.074C254.909 283.792 253.761 284.868 253.115 286.09C252.539 287.239 252.251 288.53 252.612 289.752C252.612 289.895 252.755 289.895 252.826 289.822C253.545 289.105 254.549 288.673 255.628 288.172C257.351 287.38 259.287 286.447 260.581 284.294C261.156 285.229 261.37 286.16 261.225 287.023C261.083 288.1 260.507 289.105 259.645 289.823C257.35 291.905 255.482 292.408 254.549 292.766C254.263 292.839 254.045 292.839 253.904 292.91C253.329 293.196 252.826 293.556 252.25 293.988C251.608 294.489 251.032 295.064 250.529 295.566L250.458 295.638C250.17 296.214 249.955 296.788 249.883 297.363C249.812 297.933 249.955 298.509 250.242 299.012C250.313 299.082 250.386 299.082 250.458 299.082C250.889 298.797 251.608 298.724 252.323 298.654C252.898 298.581 253.472 298.508 253.975 298.367C253.617 299.444 252.969 300.231 252.25 300.88C251.391 301.527 250.385 302.1 249.308 302.604C248.735 302.889 248.016 303.607 247.513 304.468C246.939 305.401 246.509 306.478 246.222 307.627C245.862 308.919 246.149 310.14 246.436 311.289C246.652 312.079 246.868 312.869 246.939 313.658C246.939 314.664 246.295 315.452 245.359 316.026C244.212 316.745 242.56 317.175 241.124 317.248C241.841 315.812 241.556 314.806 241.34 313.8C241.194 313.299 241.053 312.796 241.053 312.222C241.053 312.152 240.981 312.079 240.909 312.079C240.261 312.079 239.544 312.939 238.827 313.8C238.47 314.234 238.108 314.592 237.751 314.95C236.601 316.026 235.022 316.099 233.586 316.171C233.012 316.171 232.438 316.171 231.936 316.315C231.936 316.245 231.936 316.171 232.006 316.027C232.366 314.519 232.652 313.443 233.156 312.655C233.37 312.223 233.8 311.863 234.234 311.506C234.664 311.146 235.165 310.786 235.452 310.284C235.524 310.284 235.524 310.213 235.452 310.14C234.878 308.777 233.012 309.136 231.075 309.496C230.212 309.637 229.349 309.782 228.632 309.782C228.56 309.063 228.56 308.419 228.705 307.916C228.776 307.27 228.99 306.84 229.279 306.624C230.499 305.26 232.293 305.547 234.161 305.832C235.452 305.978 236.817 306.194 238.037 305.832C239.4 304.758 240.55 303.608 241.556 302.315C242.487 300.951 243.349 299.586 243.996 298.006C244.642 296.142 244.785 294.489 244.499 293.269C244.283 292.409 243.923 291.76 243.421 291.33V291.402C242.847 290.899 242.129 290.683 241.34 290.756C240.19 290.829 238.754 291.33 237.174 292.336C237.678 288.243 236.314 286.737 234.302 284.438C234.234 284.367 234.088 284.222 234.016 284.08C233.442 283.434 232.509 282.428 231.79 281.424C231.002 280.418 230.356 279.414 230.356 278.768C230.356 278.622 230.356 278.406 230.356 278.265C230.283 275.32 230.283 273.383 231.36 271.372C231.79 270.51 232.293 269.72 232.796 268.931C233.299 268.07 233.8 267.28 234.161 266.561C234.735 265.485 234.949 264.551 234.234 264.119C234.735 263.115 234.448 262.325 233.442 261.679C232.438 260.96 230.713 260.459 228.488 259.956C226.192 259.526 224.612 259.166 223.104 258.738C221.669 258.306 220.448 257.732 219.156 257.013C217.864 256.223 216.428 255.075 215.279 253.855C214.203 252.85 213.413 251.773 213.126 250.912C214.417 250.408 215.494 249.763 216.285 248.9C216.355 248.828 216.285 248.686 216.212 248.686C213.197 248.828 210.397 247.107 207.957 245.669C206.161 244.665 204.583 243.731 203.362 243.731C202.428 243.731 201.496 243.875 200.778 244.162C200.06 244.45 199.486 244.881 199.054 245.527C199.054 245.598 199.127 245.741 199.199 245.741C201.424 245.311 202.644 246.315 203.936 247.464C204.941 248.325 206.018 249.26 207.812 249.763C205.874 250.767 204.367 251.054 203.003 250.912C201.567 250.696 200.203 249.904 198.48 248.971C197.187 248.256 195.823 247.537 194.459 247.321C193.167 247.034 191.875 247.248 190.725 248.256C190.582 248.325 190.654 248.47 190.725 248.47C191.803 248.828 192.736 249.333 193.454 249.904C194.101 250.48 194.603 251.126 194.89 251.916C193.526 251.484 192.161 251.054 190.87 250.767C189.505 250.407 188.212 250.193 186.992 250.193C185.556 250.193 184.193 250.696 182.757 251.197C182.182 251.415 181.537 251.556 180.962 251.773C177.802 252.56 176.869 253.28 175.864 253.926C175.649 254.14 175.362 254.356 175.003 254.572C174.787 254.643 174.429 254.786 174.069 254.859C173.496 255.075 172.777 255.216 172.131 255.792C172.06 255.578 172.06 255.289 171.987 255.075C171.915 253.925 172.06 252.778 172.633 251.915C173.137 251.053 174.141 250.336 175.577 250.049C175.864 249.977 176.223 249.977 176.509 249.904C176.654 249.904 176.725 249.762 176.582 249.69C174.93 247.75 173.998 248.11 172.274 248.756C171.915 248.9 171.413 249.116 170.91 249.259C170.695 249.332 170.48 249.546 170.336 249.833C170.192 250.12 170.048 250.407 169.977 250.696C168.827 248.11 169.833 246.818 171.413 246.171C173.136 245.526 175.505 245.526 176.725 245.526C176.797 245.526 176.869 245.454 176.869 245.31C176.439 244.521 176.009 244.019 175.577 243.731C175.074 243.444 174.499 243.371 173.71 243.301C173.566 243.301 173.423 243.228 173.279 243.228C172.921 243.085 172.418 243.012 171.915 243.158C171.987 242.368 172.203 241.722 172.561 241.291C172.921 240.861 173.423 240.645 174.141 240.645C175.864 240.716 177.3 241.506 178.808 242.368C180.458 243.302 182.182 244.235 184.479 244.235C186.275 244.162 187.853 243.803 189.361 243.158C190.869 242.51 192.304 241.722 193.74 240.716C194.387 240.286 194.89 239.927 195.464 239.567C197.546 238.06 199.556 236.695 201.422 236.123C201.924 236.626 202.714 236.84 203.72 236.911C204.725 236.911 206.017 236.695 207.525 236.265C207.883 236.123 208.243 236.051 208.603 235.979C210.326 235.549 211.976 235.115 212.838 234.4C213.842 233.608 214.632 232.82 215.206 231.887C215.71 231.024 216.068 230.091 216.284 228.942C216.284 228.869 216.068 228.798 215.996 228.869C214.058 231.024 212.407 231.384 210.899 231.671C210.109 231.814 209.319 232.028 208.53 232.459C206.95 233.537 205.515 234.327 204.366 234.757C203.289 235.187 202.427 235.331 201.782 235.187C202.069 233.607 202.644 232.1 203.504 230.951C204.366 229.66 205.515 228.727 206.807 228.154C208.315 227.434 209.967 226.861 211.474 226.357C214.848 225.209 217.72 224.276 218.151 222.266C218.151 222.194 218.079 222.05 218.007 222.122C215.206 222.984 213.556 222.984 211.832 222.984C211.043 222.984 210.181 222.984 209.248 223.126C209.392 222.338 209.968 221.691 210.971 221.045C211.977 220.399 213.485 219.897 215.064 219.323C215.638 219.107 216.285 218.962 216.93 218.748C218.87 218.174 221.166 217.528 222.315 216.307C222.817 215.876 223.033 215.301 223.104 214.799C223.176 214.513 223.176 214.225 223.104 213.938C223.032 213.722 222.889 213.436 222.673 213.292C222.458 213.075 222.242 212.932 221.884 212.932C221.31 212.861 220.376 213.075 219.371 213.579C218.438 214.081 217.361 214.799 216.284 215.661C214.776 214.799 213.628 213.866 212.91 212.861C212.336 211.928 212.12 210.994 212.479 210.133C216.57 210.708 219.156 210.78 220.734 210.349C222.458 209.847 223.103 208.913 223.319 207.405C223.463 206.473 223.103 205.61 222.386 204.749C221.883 204.247 221.31 203.817 220.591 203.457C219.945 203.098 219.083 202.811 218.221 202.667C215.78 202.237 212.765 202.883 210.109 205.251C209.391 204.965 208.96 204.534 208.672 204.103C208.457 203.744 208.386 203.314 208.386 202.883C208.458 202.453 208.602 202.02 208.889 201.735C209.248 201.233 209.751 200.873 210.396 200.729C210.541 200.658 210.541 200.442 210.396 200.442C210.11 200.37 209.894 200.37 209.679 200.37C208.817 200.227 208.243 200.154 207.883 199.938C207.669 199.795 207.669 199.581 207.883 199.22L208.53 198C211.545 197.212 213.555 196.852 215.135 196.924C216.642 197.068 217.648 197.642 218.58 198.791C218.652 198.862 218.724 198.862 218.797 198.862C219.586 198.216 220.662 197.857 221.668 197.571C223.032 197.067 224.251 196.707 224.755 195.775C224.827 195.703 224.755 195.559 224.683 195.559C223.032 195.775 221.595 195.847 220.304 195.919C219.011 195.919 218.007 195.847 217.146 195.703C216.355 195.559 215.782 195.128 215.494 194.697C215.351 194.411 215.278 194.195 215.278 193.908C215.278 193.692 215.423 193.406 215.565 193.19C215.853 192.76 216.427 192.4 217.217 192.329C217.934 192.185 218.797 192.257 219.8 192.329C220.806 192.471 221.956 192.687 223.174 192.902C223.246 192.902 223.319 192.902 223.319 192.902C226.979 190.246 229.348 190.893 232.148 191.682C234.232 192.257 236.673 192.902 240.046 192.471C240.052 192.472 239.981 192.545 239.909 192.616Z" fill="#F3C242"/>
<path fill-rule="evenodd" clip-rule="evenodd" d="M172.782 207.333C173.285 207.405 173.572 207.621 173.86 207.835C174.003 207.979 174.146 208.051 174.218 208.124C174.864 208.338 175.511 208.696 176.014 209.2C176.444 209.63 176.802 210.205 177.09 210.85C177.09 210.994 177.018 211.066 176.947 211.066C176.227 211.138 175.654 210.78 175.007 210.348C174.074 209.774 173.068 209.127 171.274 209.774C173.428 214.369 175.007 214.655 178.883 215.301C179.746 215.519 180.821 215.661 182.043 215.947C183.479 216.234 184.628 216.738 185.488 217.455C186.063 217.885 186.494 218.387 186.71 218.962C186.925 219.537 186.996 220.184 186.853 220.83C186.71 221.547 186.35 222.194 185.777 222.984C186.925 222.984 188.29 222.624 189.51 222.266C191.233 221.836 192.741 221.476 193.674 221.906C193.746 221.978 193.746 222.122 193.674 222.194C192.74 222.481 192.238 222.912 191.52 223.558C190.586 224.42 189.295 225.568 186.28 227.076C187.355 227.579 188.361 227.72 189.438 227.651C190.586 227.579 191.735 227.148 192.955 226.502C193.099 226.43 193.315 226.286 193.601 226.142C194.966 225.28 197.407 223.701 199.13 224.994C199.202 225.065 199.13 225.28 198.986 225.28C197.12 225.209 196.186 226.357 195.11 227.72C194.32 228.798 193.386 229.945 191.807 230.879C194.966 231.313 197.334 230.81 199.13 229.731C200.996 228.584 202.36 226.861 203.581 224.994C204.657 223.271 205.663 222.409 206.451 221.691C206.811 221.404 207.097 221.116 207.314 220.901C206.164 220.615 204.8 220.615 203.508 220.543C202.216 220.543 200.995 220.47 199.847 220.327C198.483 220.04 197.191 219.754 196.042 219.323C194.821 218.891 193.744 218.317 192.739 217.671C190.801 216.379 189.436 215.087 188.432 213.866C187.354 212.645 186.708 211.425 186.278 210.348C186.062 209.916 185.919 209.487 185.775 209.127C184.769 206.614 183.764 204.173 180.103 204.604C180.678 205.537 181.109 206.4 181.468 207.188C181.898 208.122 182.114 208.912 182.185 209.701C182.185 209.846 181.969 209.915 181.898 209.773C180.965 207.978 179.672 206.472 178.381 205.752C177.735 205.394 177.089 205.178 176.513 205.107C175.868 205.107 175.222 205.178 174.648 205.537C174.003 205.898 173.357 206.401 172.782 207.333Z" fill="#F3C242"/>
<path fill-rule="evenodd" clip-rule="evenodd" d="M186.351 282.716C186.639 282.716 186.997 282.643 187.357 282.643C187.644 282.643 187.86 282.575 188.075 282.575C189.582 282.286 190.659 282.213 191.377 282.502C192.095 282.716 192.527 283.29 192.599 284.154C192.599 284.223 192.527 284.369 192.454 284.369C191.881 284.369 191.306 284.296 190.731 284.296C189.368 284.224 188.075 284.224 187.214 284.656C186.352 285.015 185.778 285.589 185.275 286.163C184.772 286.882 184.485 287.672 184.413 288.318C184.341 288.605 184.413 288.963 184.558 289.395C184.629 289.825 184.772 290.255 184.915 290.615C185.849 289.251 186.926 288.391 188.075 287.815C189.367 287.241 190.731 287.169 192.167 287.527C192.311 287.527 192.311 287.672 192.167 287.745C191.306 288.246 190.014 289.179 189.08 290.401C188.434 291.261 187.859 292.194 187.716 293.128C188.864 292.912 189.941 293.128 190.947 293.271C192.167 293.487 193.245 293.701 193.962 293.057C194.178 292.841 194.537 292.411 194.896 291.908C195.47 291.188 196.26 290.256 196.978 289.536C197.336 289.251 197.695 288.963 197.983 288.821C198.343 288.675 198.701 288.605 198.988 288.532C202.148 288.391 204.66 288.391 206.454 288.676C208.107 288.963 209.327 289.395 209.974 289.97C209.974 289.395 209.758 288.821 209.327 288.318C208.753 287.672 207.819 287.026 206.527 286.45C206.454 286.38 206.454 286.236 206.527 286.164C208.968 284.871 211.552 285.662 214.137 286.523C217.153 287.527 220.096 288.461 222.896 286.02C221.819 285.95 220.958 285.374 220.096 284.656C218.876 283.723 217.512 282.645 215.214 282.933C215.142 282.933 215.071 282.79 215.071 282.717C215.501 281.927 216.147 281.354 216.937 280.923C217.871 280.42 218.948 280.204 219.88 280.204C221.172 280.204 222.322 280.564 223.399 280.923C224.763 281.354 225.983 281.713 227.418 281.568C225.911 279.128 225.696 276.687 226.27 274.245C226.845 271.878 228.208 269.506 229.787 267.139C228.712 266.777 227.489 266.923 226.2 267.569C224.907 268.215 223.399 269.365 221.82 270.944C221.748 271.086 221.604 270.944 221.604 270.799C222.178 268.933 222.969 267.425 223.974 266.347C224.763 265.343 225.696 264.697 226.845 264.194C225.408 264.121 223.83 264.194 222.178 264.626C220.241 265.056 218.231 265.917 216.148 267.211C216.004 267.211 215.932 267.139 215.932 267.066C216.076 265.846 216.722 264.912 217.656 264.194C218.589 263.549 219.738 262.976 220.815 262.472C221.603 262.184 222.178 261.753 222.68 261.323C223.112 261.034 223.471 260.82 223.83 260.604C222.825 260.531 221.604 260.747 220.241 260.961C219.235 261.107 218.159 261.323 216.937 261.393C216.292 261.466 215.645 261.466 215 261.537C213.923 261.537 212.774 261.607 211.697 261.753C210.045 262.111 208.61 262.902 207.604 264.051C206.742 265.055 206.312 266.419 206.454 268.142C206.599 269.794 207.389 271.012 208.107 272.235C209.04 273.669 209.974 275.107 209.83 277.404C209.686 279.557 208.466 280.85 206.814 281.567C205.234 282.286 203.225 282.429 201.501 282.429C200.496 282.429 199.492 282.359 198.63 282.286C197.768 282.142 196.979 281.926 196.404 281.712C195.759 281.425 195.184 281.136 194.609 280.778C193.676 280.275 192.743 279.7 191.451 279.557C190.302 279.486 189.082 279.7 188.148 280.348C187.356 280.922 186.71 281.712 186.351 282.716Z" fill="#F3C242"/>
<path fill-rule="evenodd" clip-rule="evenodd" d="M197.91 206.545C198.269 207.621 198.987 208.483 199.992 209.056C201.213 209.847 202.791 210.276 204.299 210.276C205.807 210.206 207.458 209.559 209.325 208.769C211.981 207.621 214.925 206.328 218.586 206.472C214.35 205.467 210.904 206.4 208.033 207.19C206.597 207.621 205.305 207.979 204.156 207.979C202.577 208.051 201.284 207.908 200.28 207.621C199.274 207.333 198.556 206.975 197.91 206.545Z" fill="#F3C242"/>
<path fill-rule="evenodd" clip-rule="evenodd" d="M235.96 268.931C236.03 268.861 236.176 268.931 236.176 269.075C235.887 270.081 235.673 271.085 235.53 272.162C235.384 273.167 235.384 274.244 235.384 275.321C235.456 277.403 236.103 278.769 236.75 280.132C237.539 281.782 238.257 283.362 237.755 286.019C237.755 286.091 237.539 286.162 237.467 286.019C236.679 284.081 235.817 282.789 235.099 281.639C234.166 280.132 233.374 278.983 233.09 277.046C232.944 276.04 233.16 274.388 233.734 272.737C234.238 271.301 235.026 269.936 235.96 268.931Z" fill="#008057"/>
<path fill-rule="evenodd" clip-rule="evenodd" d="M222.607 255.721C223.325 256.583 224.473 257.23 225.623 257.66C226.913 258.163 228.423 258.378 229.785 258.306C232.944 258.163 234.524 256.943 236.03 255.793C236.319 255.579 236.606 255.363 236.894 255.218C236.963 255.145 236.894 254.932 236.749 254.932C234.238 255.579 231.794 255.936 229.354 256.009C226.985 256.081 224.831 255.936 222.749 255.505C222.607 255.507 222.464 255.652 222.607 255.721Z" fill="#008057"/>
<path fill-rule="evenodd" clip-rule="evenodd" d="M216.505 251.988C217.366 252.78 218.515 253.353 219.806 253.784C221.099 254.214 222.464 254.43 223.899 254.43C225.479 254.357 227.057 253.927 228.423 253.28C229.785 252.561 230.935 251.557 231.581 250.481C231.652 250.337 231.511 250.194 231.365 250.267C230.289 250.982 228.853 251.558 227.416 251.917C225.909 252.347 224.402 252.634 222.894 252.707C221.818 252.779 220.74 252.707 219.665 252.561C218.659 252.419 217.654 252.131 216.721 251.701C216.575 251.701 216.433 251.847 216.505 251.988Z" fill="#008057"/>
<path fill-rule="evenodd" clip-rule="evenodd" d="M210.546 243.373C211.551 243.373 212.484 244.09 213.489 244.882C215.284 246.173 217.295 247.752 220.74 246.532C220.812 246.462 220.812 246.316 220.74 246.246C219.736 245.886 218.802 245.24 217.87 244.666C215.787 243.23 213.634 241.723 210.475 243.086C210.402 243.159 210.402 243.373 210.546 243.373Z" fill="#008057"/>
<path fill-rule="evenodd" clip-rule="evenodd" d="M221.171 242.511C222.966 241.004 224.616 240.79 226.124 240.573C227.272 240.43 228.278 240.359 229.354 239.786C231.509 238.636 232.943 237.198 233.519 235.332C234.02 233.538 233.663 231.241 232.083 228.513C232.011 228.369 231.795 228.513 231.795 228.656C232.225 230.02 232.154 231.385 231.724 232.605C231.221 233.898 230.288 235.117 229.068 235.908C228.135 236.555 227.13 237.058 226.125 237.632C223.755 238.924 221.459 240.072 220.884 242.37C220.884 242.511 221.028 242.583 221.171 242.511Z" fill="#008057"/>
<path fill-rule="evenodd" clip-rule="evenodd" d="M210.69 240.143C212.556 239.21 214.135 239.067 215.715 238.851C217.151 238.709 218.658 238.491 220.381 237.774C222.105 236.985 223.684 235.692 224.473 233.898C225.12 232.391 225.191 230.523 224.33 228.297C224.33 228.225 224.114 228.225 224.114 228.297C222.464 232.246 220.238 233.252 217.295 234.472C216.505 234.759 215.715 235.116 214.853 235.551C213.489 236.195 212.124 237.058 211.263 237.918C210.546 238.637 210.187 239.352 210.475 240.071C210.474 240.143 210.618 240.216 210.69 240.143Z" fill="#008057"/>
</g>
<defs>
<clipPath id="clip0_35_2">
<rect width="272.957" height="366.358" fill="white" transform="translate(89 43)"/>
</clipPath>
</defs>
</svg>
