<svg width="550" height="550" viewBox="0 0 550 550" fill="none" xmlns="http://www.w3.org/2000/svg">
<circle cx="275" cy="275" r="275" fill="white"/>
<g clip-path="url(#clip0_67_67)">
<path d="M231.163 377.014C226.475 371.907 222.297 366.291 218.027 360.767C210.692 351.344 201.362 345.588 190.964 340.157C193.053 322.564 193.982 305.064 192.914 287.425H175.739L138 335.468V152.113L167.012 189.016L192.914 160.979C199.737 165.249 204.844 168.174 213.106 167.71C219.419 167.338 225.454 165.528 231.163 162.975V129.739L183.119 92H366.475L318.431 129.739V162.975C324.141 165.528 330.175 167.338 336.488 167.71C344.751 168.174 349.857 165.249 356.681 160.979L382.583 189.016L411.595 152.113V335.468L373.856 287.425H356.634C355.613 305.064 356.541 322.564 358.63 340.157C348.232 345.588 338.902 351.344 331.568 360.767C327.297 366.291 323.12 371.907 318.431 377.014V419.766L366.475 457.504H183.119L231.163 419.766V377.014ZM277.954 391.45C276.747 390.522 275.633 389.454 274.797 388.154C273.962 389.454 272.848 390.522 271.641 391.45L271.78 418.095H277.814L277.954 391.45ZM271.641 153.134C273.033 154.48 274.147 156.105 274.797 157.869C275.447 156.105 276.561 154.48 277.954 153.134L277.814 131.41H271.78L271.641 153.134ZM363.968 241.563C363.411 243.651 362.901 245.694 362.39 247.736L372.37 247.69V241.655L363.968 241.563ZM187.204 247.736C186.694 245.694 186.183 243.651 185.626 241.563L177.224 241.655V247.69L187.204 247.736Z" fill="black"/>
<path d="M288.537 394.699C286.588 394.699 284.545 394.421 282.596 393.771L282.41 422.783H267.184L266.999 393.771C265.049 394.421 263.007 394.699 261.057 394.699V428.214H288.537V394.699Z" fill="#D3C084"/>
<path d="M367.125 230.886C366.475 232.882 365.872 234.925 365.268 236.921L377.012 237.013V252.285L361.369 252.425C360.951 254.421 360.533 256.417 360.162 258.413H382.49V230.886H367.125Z" fill="#D3C084"/>
<path d="M372.835 215.521C371.349 219.049 369.957 222.624 368.703 226.244H387.132V263.101H359.327C358.862 266.118 358.445 269.136 358.073 272.153H381.283L396.23 291.138V196.443L381.283 215.521H372.835Z" fill="#E42518"/>
<path d="M379.89 200.157C378.126 203.638 376.455 207.212 374.877 210.787H379.008L400.964 182.796V304.785L379.008 276.841H357.516C357.423 277.816 357.33 278.837 357.238 279.858C357.145 280.787 357.052 281.762 356.959 282.736H376.13L406.86 321.45V166.178L379.89 200.157Z" fill="#D3C084"/>
<path d="M261.057 149.792C263.146 149.56 265.188 149.653 266.999 150.256L267.184 126.722H282.41L282.596 150.256C284.406 149.653 286.448 149.56 288.537 149.792V121.29H261.057V149.792Z" fill="#D3C084"/>
<path d="M246.482 154.991C248.57 153.923 250.799 152.856 253.027 151.927C254.141 151.509 255.255 151.092 256.369 150.767V116.649H293.226V150.767C294.34 151.092 295.454 151.509 296.568 151.927C298.796 152.856 301.024 153.923 303.113 154.991V122.312L322.145 107.365H227.45L246.482 122.312V154.991Z" fill="#E42518"/>
<path d="M235.898 160.747C237.615 159.865 239.287 158.936 240.958 158.008C241.236 157.869 241.515 157.73 241.793 157.544V124.586L213.802 102.63H335.792L307.801 124.586V157.544C308.08 157.73 308.358 157.869 308.637 158.008C310.308 158.936 311.979 159.865 313.696 160.747V127.464L352.456 96.7348H197.138L235.898 127.464V160.747Z" fill="#D3C084"/>
<path d="M189.432 258.413C189.061 256.417 188.643 254.421 188.226 252.425L172.582 252.285V237.013L184.326 236.921C183.723 234.925 183.119 232.882 182.47 230.886H167.105V258.413H189.432Z" fill="#D3C084"/>
<path d="M191.521 272.153C191.15 269.136 190.732 266.118 190.222 263.101H162.463V226.244H180.891C179.638 222.624 178.245 219.049 176.76 215.521H168.312L153.365 196.443V291.138L168.312 272.153H191.521Z" fill="#E42518"/>
<path d="M192.635 282.736C192.542 281.762 192.45 280.787 192.357 279.858C192.264 278.837 192.171 277.816 192.078 276.841H170.586L148.63 304.785V182.796L170.586 210.787H174.718C173.139 207.212 171.468 203.638 169.704 200.11L142.735 166.178V321.45L173.464 282.736H192.635Z" fill="#D3C084"/>
<path d="M274.797 166.039C273.358 169.334 270.202 171.191 266.674 171.562C262.589 172.027 258.272 169.984 255.58 166.967C253.398 168.174 251.309 169.566 249.127 170.866C238.544 177.365 226.382 182.378 213.895 183.028C207.814 183.399 201.594 182.657 195.931 180.336L183.63 193.565C188.411 203.081 192.542 212.922 195.978 222.995C201.919 240.448 205.679 258.598 207.489 276.887C209.3 295.084 209.161 313.466 207.35 331.569C216.077 336.768 223.875 343.36 230.096 351.437C237.291 360.674 244.207 370.747 254.512 376.874C257.808 378.824 260.779 380.959 263.517 377.942C265.328 375.946 267.509 375.018 269.552 374.925C271.501 374.832 273.451 375.621 274.797 376.967C276.143 375.621 278.093 374.832 279.996 374.925C282.039 375.018 284.267 375.946 286.077 377.942C288.816 380.959 291.787 378.824 295.082 376.874C305.387 370.747 312.257 360.72 319.499 351.437C325.719 343.36 333.471 336.768 342.244 331.569C340.434 313.466 340.295 295.084 342.105 276.887C343.915 258.598 347.675 240.448 353.617 222.995C357.052 212.922 361.183 203.081 365.964 193.565L353.663 180.336C347.954 182.657 341.78 183.399 335.699 183.028C323.212 182.378 311.051 177.365 300.467 170.866C298.285 169.566 296.196 168.174 294.015 166.967C291.322 169.984 287.005 172.027 282.921 171.562C279.393 171.191 276.236 169.334 274.797 166.039ZM274.797 199.507C277.443 198.068 280.275 196.907 283.246 196.443C290.858 195.329 295.686 198.671 302.37 200.621C312.675 203.684 322.563 204.009 333.146 202.803L344.101 215.893C338.206 233.625 333.935 251.45 331.661 269.971C329.293 288.864 328.968 307.756 329.525 326.788C323.723 330.502 318.478 334.215 313.836 339.321C307.755 346.052 303.809 354.407 296.289 359.839C283.849 368.797 265.745 368.797 253.305 359.839C245.785 354.407 241.84 346.052 235.759 339.321C231.117 334.215 225.871 330.502 220.069 326.788C220.626 307.756 220.301 288.864 217.934 269.971C215.659 251.45 211.389 233.625 205.493 215.893L216.448 202.803C227.032 204.009 236.919 203.684 247.224 200.621C253.909 198.671 258.736 195.329 266.349 196.443C269.32 196.907 272.151 198.068 274.797 199.507Z" fill="#E42518"/>
<path d="M241.793 386.762C241.747 386.762 241.7 386.715 241.7 386.715C241.561 386.622 241.468 386.53 241.375 386.483C241.283 386.39 241.19 386.344 241.097 386.251C241.004 386.205 240.911 386.112 240.772 386.019C240.726 385.972 240.679 385.926 240.633 385.926C240.54 385.833 240.401 385.74 240.308 385.648C240.215 385.601 240.168 385.555 240.076 385.462C239.983 385.415 239.89 385.323 239.797 385.276C239.751 385.183 239.658 385.137 239.565 385.044C239.472 384.998 239.379 384.905 239.287 384.858C239.194 384.766 239.147 384.673 239.054 384.626C239.008 384.58 238.962 384.58 238.962 384.533C238.915 384.533 238.869 384.487 238.869 384.441C238.822 384.441 238.822 384.441 238.822 384.441C238.73 384.348 238.59 384.255 238.497 384.162C238.451 384.116 238.405 384.116 238.405 384.069C238.265 383.976 238.126 383.884 238.033 383.744C237.987 383.744 237.94 383.698 237.94 383.698C237.894 383.652 237.894 383.605 237.848 383.605C237.198 383.002 236.501 382.445 235.898 381.841V422.04L197.138 452.77H352.456L313.696 422.04V381.841C312.907 382.584 312.072 383.327 311.19 384.069C311.19 384.116 311.143 384.116 311.097 384.162C310.818 384.394 310.586 384.626 310.308 384.858C310.261 384.858 310.215 384.905 310.169 384.905C310.169 384.951 310.122 384.951 310.076 384.998C309.983 385.091 309.844 385.183 309.704 385.323C309.704 385.323 309.658 385.369 309.612 385.369C309.612 385.415 309.565 385.415 309.519 385.462C309.426 385.508 309.333 385.601 309.24 385.694C309.24 385.694 309.194 385.74 309.147 385.74C309.147 385.787 309.101 385.787 309.055 385.833C308.962 385.926 308.869 385.972 308.776 386.065C308.73 386.065 308.73 386.112 308.683 386.112C308.637 386.158 308.637 386.158 308.59 386.205H308.544C308.451 386.297 308.312 386.39 308.219 386.483C308.173 386.53 308.126 386.53 308.08 386.576C308.033 386.622 308.033 386.622 307.987 386.669C307.894 386.715 307.848 386.762 307.801 386.762V424.918L335.792 446.874H213.802L241.793 424.918V386.762Z" fill="#D3C084"/>
<path d="M256.369 394.096C253.259 393.4 250.195 392.053 247.317 390.382C247.039 390.243 246.76 390.104 246.482 389.918V427.193L227.45 442.14H322.145L303.113 427.193V389.918C302.834 390.104 302.556 390.243 302.277 390.382C299.399 392.053 296.336 393.4 293.226 394.096V432.856H256.369V394.096Z" fill="#E42518"/>
<path d="M274.797 204.891C277.629 203.22 280.692 201.596 283.988 201.131C290.719 200.11 295.082 203.36 301.071 205.17C311.004 208.094 320.845 208.976 331.15 207.769L338.763 216.914C333.1 234.043 329.201 251.45 326.972 269.368C324.698 287.61 324.187 305.899 324.744 324.281C319.36 327.67 314.671 331.43 310.354 336.165C304.645 342.431 300.374 351.065 293.551 356.032C282.781 363.784 266.813 363.784 256.044 356.032C249.22 351.065 244.95 342.431 239.24 336.165C234.923 331.43 230.235 327.67 224.85 324.281C225.407 305.899 224.897 287.61 222.622 269.368C220.394 251.45 216.495 234.043 210.832 216.914L218.444 207.769C228.749 208.976 238.59 208.094 248.524 205.17C254.512 203.36 258.875 200.11 265.606 201.131C268.902 201.596 272.012 203.22 274.797 204.891Z" fill="#D3C084"/>
<path d="M274.797 210.415C271.78 208.558 268.531 206.33 264.91 205.773C259.386 204.938 254.93 208.187 249.87 209.673C240.354 212.504 230.328 213.711 220.44 212.736L216.123 217.935C221.554 234.553 225.175 251.496 227.31 268.811C229.492 286.078 230.142 303.718 229.678 321.728C234.83 325.163 238.962 328.877 242.722 333.008C248.106 338.95 252.377 347.537 258.829 352.179C267.881 358.771 281.714 358.771 290.765 352.179C297.218 347.537 301.488 338.95 306.873 333.008C310.633 328.877 314.764 325.163 319.917 321.728C319.452 303.718 320.102 286.078 322.284 268.811C324.419 251.496 328.04 234.553 333.471 217.935L329.154 212.736C319.267 213.711 309.24 212.504 299.724 209.673C294.665 208.187 290.208 204.938 284.685 205.773C281.064 206.33 277.814 208.558 274.797 210.415Z" fill="black"/>
<path d="M259.943 389.918C252.005 389.175 243.557 382.677 237.987 377.385C231.767 371.49 226.939 364.62 221.74 357.889C214.731 348.837 206.097 342.71 196.024 337.464C200.434 300.097 198.159 262.265 185.951 226.383C181.866 214.407 176.714 203.035 170.772 191.894L193.703 167.013C200.109 171.052 205.726 172.816 213.338 172.444C224.154 171.841 233.948 167.292 243.232 162.139C249.128 158.844 260.407 152.345 266.117 154.991C271.687 157.59 273.265 166.085 266.163 166.874C262.543 167.292 258.133 164.182 257.483 160.7C253.816 162.325 250.334 164.646 246.667 166.874C236.873 172.862 225.268 177.69 213.663 178.34C207.025 178.665 200.666 177.736 194.817 174.58L177.921 192.776C183.305 203.081 187.808 213.665 191.521 224.527C203.497 259.62 206.422 297.405 202.337 334.122C211.667 339.228 219.883 345.866 226.382 354.315C231.395 360.767 236.084 367.451 242.025 373.114C246.528 377.339 254.048 383.466 260.5 384.069C263.657 384.394 265.003 383.28 266.999 381.098C269.691 378.128 273.265 380.031 271.873 383.744C270.109 388.386 264.492 390.382 259.943 389.918ZM289.651 389.918C297.589 389.175 306.037 382.677 311.608 377.385C317.828 371.49 322.655 364.62 327.854 357.889C334.864 348.837 343.498 342.71 353.571 337.464C349.161 300.097 351.435 262.265 363.644 226.383C367.728 214.407 372.835 203.035 378.823 191.894L355.892 167.013C349.486 171.052 343.869 172.816 336.256 172.444C325.441 171.841 315.646 167.292 306.362 162.139C300.467 158.844 289.187 152.345 283.478 154.991C277.907 157.59 276.329 166.085 283.431 166.874C287.052 167.292 291.462 164.182 292.112 160.7C295.779 162.325 299.26 164.646 302.927 166.874C312.722 172.862 324.327 177.69 335.931 178.34C342.569 178.665 348.929 177.736 354.777 174.58L371.674 192.776C366.289 203.081 361.787 213.665 358.073 224.527C346.097 259.62 343.173 297.405 347.258 334.122C337.927 339.228 329.711 345.866 323.212 354.315C318.199 360.767 313.511 367.451 307.569 373.114C303.067 377.339 295.547 383.466 289.094 384.069C285.938 384.394 284.592 383.28 282.596 381.098C279.903 378.128 276.329 380.031 277.722 383.744C279.439 388.386 285.102 390.382 289.651 389.918Z" fill="#D3C084"/>
<path d="M274.797 188.505H273.312V195.886H266.674V172.119H274.983C279.811 172.119 281.76 176.019 281.76 180.336C281.76 184.978 279.857 188.505 274.797 188.505ZM275.169 180.336C275.169 179.732 275.261 179.036 274.565 179.036H273.312V181.682H274.565C275.215 181.682 275.169 180.846 275.169 180.336Z" fill="black"/>
<path d="M274.797 215.939C271.78 214.082 268.02 211.019 264.214 210.462C260.129 209.812 255.208 213.015 251.216 214.175C241.933 216.914 232.185 218.26 222.529 217.61L221.415 218.956C226.475 235.017 229.91 251.543 231.999 268.254C234.134 285.15 234.83 302.232 234.459 319.315C238.73 322.378 242.675 325.906 246.203 329.805C251.448 335.608 255.255 343.824 261.568 348.373C268.995 353.758 280.6 353.758 288.027 348.373C294.34 343.824 298.146 335.608 303.392 329.805C306.919 325.906 310.865 322.378 315.136 319.315C314.764 302.232 315.46 285.15 317.596 268.254C319.685 251.543 323.12 235.017 328.179 218.956L327.065 217.61C317.41 218.26 307.662 216.914 298.378 214.175C294.386 213.015 289.466 209.812 285.381 210.462C281.575 211.019 277.815 214.082 274.797 215.939Z" fill="white"/>
<path d="M285.52 265.886H264.074V291.695C264.074 296.151 268.902 299.819 274.797 299.819C280.693 299.819 285.52 296.151 285.52 291.695V265.886Z" fill="#004595"/>
<path d="M274.797 283.479C275.911 283.479 276.793 282.551 276.793 281.437C276.793 280.323 275.911 279.441 274.797 279.441C273.73 279.441 272.801 280.323 272.801 281.437C272.801 282.551 273.73 283.479 274.797 283.479Z" fill="white"/>
<path d="M268.67 273.452C269.738 273.452 270.666 272.571 270.666 271.456C270.666 270.342 269.738 269.414 268.67 269.414C267.556 269.414 266.627 270.342 266.627 271.456C266.627 272.571 267.556 273.452 268.67 273.452Z" fill="white"/>
<path d="M268.67 293.413C269.738 293.413 270.666 292.531 270.666 291.417C270.666 290.303 269.738 289.374 268.67 289.374C267.556 289.374 266.627 290.303 266.627 291.417C266.627 292.531 267.556 293.413 268.67 293.413Z" fill="white"/>
<path d="M280.971 273.452C282.085 273.452 282.967 272.571 282.967 271.456C282.967 270.342 282.085 269.414 280.971 269.414C279.857 269.414 278.929 270.342 278.929 271.456C278.929 272.571 279.857 273.452 280.971 273.452Z" fill="white"/>
<path d="M280.971 293.413C282.085 293.413 282.967 292.531 282.967 291.417C282.967 290.303 282.085 289.374 280.971 289.374C279.857 289.374 278.929 290.303 278.929 291.417C278.929 292.531 279.857 293.413 280.971 293.413Z" fill="white"/>
<path d="M285.52 307.431H264.074V333.287C264.074 337.743 268.902 341.364 274.797 341.364C280.693 341.364 285.52 337.743 285.52 333.287V307.431Z" fill="#004595"/>
<path d="M274.797 325.071C275.911 325.071 276.793 324.142 276.793 323.028C276.793 321.914 275.911 321.032 274.797 321.032C273.73 321.032 272.801 321.914 272.801 323.028C272.801 324.142 273.73 325.071 274.797 325.071Z" fill="white"/>
<path d="M268.67 314.998C269.738 314.998 270.666 314.069 270.666 312.955C270.666 311.841 269.738 310.959 268.67 310.959C267.556 310.959 266.627 311.841 266.627 312.955C266.627 314.069 267.556 314.998 268.67 314.998Z" fill="white"/>
<path d="M268.67 335.004C269.738 335.004 270.666 334.122 270.666 333.008C270.666 331.894 269.738 330.966 268.67 330.966C267.556 330.966 266.627 331.894 266.627 333.008C266.627 334.122 267.556 335.004 268.67 335.004Z" fill="white"/>
<path d="M280.971 314.998C282.085 314.998 282.967 314.069 282.967 312.955C282.967 311.841 282.085 310.959 280.971 310.959C279.857 310.959 278.929 311.841 278.929 312.955C278.929 314.069 279.857 314.998 280.971 314.998Z" fill="white"/>
<path d="M280.971 335.004C282.085 335.004 282.967 334.122 282.967 333.008C282.967 331.894 282.085 330.966 280.971 330.966C279.857 330.966 278.929 331.894 278.929 333.008C278.929 334.122 279.857 335.004 280.971 335.004Z" fill="white"/>
<path d="M259.757 265.886H238.219V291.695C238.219 296.151 243.047 299.819 248.988 299.819C254.93 299.819 259.757 296.151 259.757 291.695V265.886Z" fill="#004595"/>
<path d="M248.895 283.479C250.009 283.479 250.938 282.551 250.938 281.437C250.938 280.323 250.009 279.441 248.895 279.441C247.781 279.441 246.853 280.323 246.853 281.437C246.853 282.551 247.781 283.479 248.895 283.479Z" fill="white"/>
<path d="M242.722 273.452C243.836 273.452 244.764 272.571 244.764 271.456C244.764 270.342 243.836 269.414 242.722 269.414C241.608 269.414 240.679 270.342 240.679 271.456C240.679 272.571 241.608 273.452 242.722 273.452Z" fill="white"/>
<path d="M242.722 293.413C243.836 293.413 244.764 292.531 244.764 291.417C244.764 290.303 243.836 289.374 242.722 289.374C241.608 289.374 240.679 290.303 240.679 291.417C240.679 292.531 241.608 293.413 242.722 293.413Z" fill="white"/>
<path d="M255.069 273.452C256.183 273.452 257.111 272.571 257.111 271.456C257.111 270.342 256.183 269.414 255.069 269.414C253.955 269.414 253.027 270.342 253.027 271.456C253.027 272.571 253.955 273.452 255.069 273.452Z" fill="white"/>
<path d="M255.069 293.413C256.183 293.413 257.111 292.531 257.111 291.417C257.111 290.303 256.183 289.374 255.069 289.374C253.955 289.374 253.027 290.303 253.027 291.417C253.027 292.531 253.955 293.413 255.069 293.413Z" fill="white"/>
<path d="M289.837 265.886H311.376V291.695C311.376 296.151 306.548 299.819 300.606 299.819C294.665 299.819 289.837 296.151 289.837 291.695V265.886Z" fill="#004595"/>
<path d="M300.699 283.479C301.813 283.479 302.742 282.551 302.742 281.437C302.742 280.323 301.813 279.441 300.699 279.441C299.585 279.441 298.657 280.323 298.657 281.437C298.657 282.551 299.585 283.479 300.699 283.479Z" fill="white"/>
<path d="M306.873 273.452C307.987 273.452 308.915 272.571 308.915 271.456C308.915 270.342 307.987 269.414 306.873 269.414C305.759 269.414 304.83 270.342 304.83 271.456C304.83 272.571 305.759 273.452 306.873 273.452Z" fill="white"/>
<path d="M306.873 293.413C307.987 293.413 308.915 292.531 308.915 291.417C308.915 290.303 307.987 289.374 306.873 289.374C305.759 289.374 304.83 290.303 304.83 291.417C304.83 292.531 305.759 293.413 306.873 293.413Z" fill="white"/>
<path d="M294.525 273.452C295.639 273.452 296.568 272.571 296.568 271.456C296.568 270.342 295.639 269.414 294.525 269.414C293.411 269.414 292.483 270.342 292.483 271.456C292.483 272.571 293.411 273.452 294.525 273.452Z" fill="white"/>
<path d="M294.525 293.413C295.639 293.413 296.568 292.531 296.568 291.417C296.568 290.303 295.639 289.374 294.525 289.374C293.411 289.374 292.483 290.303 292.483 291.417C292.483 292.531 293.411 293.413 294.525 293.413Z" fill="white"/>
<path d="M274.565 177.318H271.594V183.399H274.565C276.004 183.399 276.886 182.378 276.886 180.336C276.886 178.665 276.329 177.318 274.565 177.318ZM274.797 186.834H271.594V194.169H268.345V173.791H274.983C278.047 173.791 280.043 175.926 280.043 180.336C280.043 184.049 278.882 186.834 274.797 186.834Z" fill="#D3C084"/>
<path d="M286.959 188.413H280.414V195.886H286.959V188.413Z" fill="black"/>
<path d="M285.288 190.13H282.131V194.169H285.288V190.13Z" fill="#D3C084"/>
<path d="M301.442 198.718L303.067 191.383L309.287 192.776L307.662 200.11L301.442 198.718Z" fill="black"/>
<path d="M304.366 193.426L307.291 194.076L306.362 198.068L303.484 197.418L304.366 193.426Z" fill="#D3C084"/>
<path d="M289.605 196.025L294.85 172.862L308.219 175.879L306.687 182.703L299.585 181.078L299.307 182.332L305.527 183.724L303.995 190.548L297.775 189.155L295.918 197.464L289.605 196.025Z" fill="black"/>
<path d="M296.104 174.905L306.177 177.179L305.434 180.661L298.332 179.036L297.264 183.631L303.484 185.024L302.695 188.505L296.521 187.113L294.618 195.422L291.647 194.772L296.104 174.905Z" fill="#D3C084"/>
<path d="M257.251 196.165L255.812 188.83L262.078 187.577L263.192 193.24L263.517 194.911L257.251 196.165Z" fill="black"/>
<path d="M257.808 190.177L260.732 189.573L261.521 193.612L258.597 194.169L257.808 190.177Z" fill="#D3C084"/>
<path d="M245.6 199.089L240.308 175.972L253.63 172.909L255.255 179.686L248.106 181.31L248.431 182.564L254.605 181.125L256.183 187.948L249.963 189.387L251.913 197.696L245.6 199.089Z" fill="black"/>
<path d="M242.35 177.226L252.377 174.951L253.166 178.432L246.064 180.057L247.131 184.606L253.352 183.167L254.141 186.649L247.967 188.088L249.87 196.397L246.899 197.093L242.35 177.226Z" fill="#D3C084"/>
<path d="M285.52 224.295H264.074V250.15C264.074 254.653 268.902 258.273 274.797 258.273C280.693 258.273 285.52 254.653 285.52 250.15V224.295Z" fill="#004595"/>
<path d="M274.797 241.934C275.911 241.934 276.793 241.052 276.793 239.938C276.793 238.824 275.911 237.895 274.797 237.895C273.73 237.895 272.801 238.824 272.801 239.938C272.801 241.052 273.73 241.934 274.797 241.934Z" fill="white"/>
<path d="M268.67 231.861C269.738 231.861 270.666 230.979 270.666 229.865C270.666 228.751 269.738 227.822 268.67 227.822C267.556 227.822 266.627 228.751 266.627 229.865C266.627 230.979 267.556 231.861 268.67 231.861Z" fill="white"/>
<path d="M268.67 251.868C269.738 251.868 270.666 250.986 270.666 249.872C270.666 248.757 269.738 247.829 268.67 247.829C267.556 247.829 266.627 248.757 266.627 249.872C266.627 250.986 267.556 251.868 268.67 251.868Z" fill="white"/>
<path d="M280.971 231.861C282.085 231.861 282.967 230.979 282.967 229.865C282.967 228.751 282.085 227.822 280.971 227.822C279.857 227.822 278.929 228.751 278.929 229.865C278.929 230.979 279.857 231.861 280.971 231.861Z" fill="white"/>
<path d="M280.971 251.868C282.085 251.868 282.967 250.986 282.967 249.872C282.967 248.757 282.085 247.829 280.971 247.829C279.857 247.829 278.929 248.757 278.929 249.872C278.929 250.986 279.857 251.868 280.971 251.868Z" fill="white"/>
</g>
<defs>
<clipPath id="clip0_67_67">
<rect width="273.595" height="365.504" fill="white" transform="translate(138 92)"/>
</clipPath>
</defs>
</svg>
