<svg width="450" height="450" viewBox="0 0 450 450" fill="none" xmlns="http://www.w3.org/2000/svg">
<circle cx="225" cy="225" r="225" fill="white"/>
<g clip-path="url(#clip0_29_110)">
<path d="M276.472 124.957C274.944 124.957 273.75 123.763 273.75 122.316C273.75 120.869 274.944 119.675 276.472 119.675C278.001 119.675 279.195 120.869 279.195 122.316C279.277 123.763 278.001 124.957 276.472 124.957ZM113.998 248.368C113.998 189.389 163.869 141.472 224.81 141.472C285.752 141.472 335.623 189.471 335.623 248.368C335.623 307.176 285.752 355.347 224.81 355.347C163.877 355.265 113.998 307.176 113.998 248.368ZM268.297 85.125C270.937 85.8036 272.548 88.3625 271.869 90.9133C271.191 93.4641 268.468 95.0012 265.828 94.3144C263.187 93.6277 261.576 91.0769 262.255 88.5261C262.933 85.9752 265.656 84.4382 268.297 85.125ZM272.81 75.7638C274.339 75.7638 275.532 76.9575 275.532 78.4046C275.532 79.8517 274.339 81.0453 272.81 81.0453C271.281 81.0453 270.087 79.8517 270.087 78.4046C270.005 76.8757 271.281 75.7638 272.81 75.7638ZM270.512 66.231C272.041 66.231 273.235 67.4247 273.235 68.8718C273.235 70.3189 272.041 71.5125 270.512 71.5125C268.983 71.5125 267.79 70.3189 267.79 68.8718C267.708 67.4247 268.983 66.231 270.512 66.231ZM304.556 91.2567C306.085 91.2567 307.278 92.4504 307.278 93.8975C307.278 95.3445 306.085 96.5382 304.556 96.5382C303.027 96.5382 301.833 95.3445 301.833 93.8975C301.833 92.4504 303.027 91.2567 304.556 91.2567ZM302.258 81.8138C303.787 81.8138 304.981 83.0075 304.981 84.4546C304.981 85.9017 303.787 87.0953 302.258 87.0953C300.73 87.0953 299.536 85.9017 299.536 84.4546C299.536 83.0075 300.73 81.8138 302.258 81.8138ZM298.171 73.4747C299.699 73.4747 300.893 74.6683 300.893 76.1154C300.893 77.5625 299.618 78.7561 298.171 78.7561C296.642 78.7561 295.448 77.5625 295.448 76.1154C295.366 74.6683 296.642 73.4747 298.171 73.4747ZM291.614 66.0675C293.143 66.0675 294.336 67.2612 294.336 68.7083C294.336 70.1553 293.143 71.349 291.614 71.349C290.085 71.349 288.891 70.1553 288.891 68.7083C288.891 67.2612 290.085 66.0675 291.614 66.0675ZM283.61 60.4508C285.139 60.4508 286.332 61.6445 286.332 63.0916C286.332 64.5387 285.139 65.7323 283.61 65.7323C282.081 65.7323 280.887 64.5387 280.887 63.0916C280.887 61.6445 282.081 60.4508 283.61 60.4508ZM274.927 57.1315C276.456 57.1315 277.65 58.3252 277.65 59.7723C277.65 61.2194 276.456 62.413 274.927 62.413C273.398 62.413 272.205 61.2194 272.205 59.7723C272.205 58.3252 273.48 57.1315 274.927 57.1315ZM266.163 57.9C267.692 57.9 268.885 59.0937 268.885 60.5408C268.885 61.9879 267.692 63.1815 266.163 63.1815C264.634 63.1815 263.44 61.9879 263.44 60.5408C263.44 59.0937 264.634 57.9 266.163 57.9ZM259.696 50.6646C261.225 50.6646 262.418 51.8582 262.418 53.3053C262.418 54.7524 261.143 55.9461 259.696 55.9461C258.167 55.9461 256.973 54.7524 256.973 53.3053C256.973 51.8582 258.167 50.6646 259.696 50.6646ZM251.267 45.3013C252.796 45.3013 253.989 46.495 253.989 47.9421C253.989 49.3892 252.796 50.5828 251.267 50.5828C249.738 50.5828 248.544 49.3892 248.544 47.9421C248.544 46.495 249.738 45.3013 251.267 45.3013ZM242.503 42.1537C244.031 42.1537 245.225 43.3474 245.225 44.7945C245.225 46.2416 244.031 47.4352 242.503 47.4352C240.974 47.4352 239.78 46.2416 239.78 44.7945C239.78 43.3474 240.974 42.1537 242.503 42.1537ZM233.567 40.6249C235.095 40.6249 236.289 41.8185 236.289 43.2656C236.289 44.7127 235.095 45.9063 233.567 45.9063C232.038 45.9063 230.844 44.7127 230.844 43.2656C230.762 41.8185 232.038 40.6249 233.567 40.6249ZM148.556 110.494C147.409 111.102 146.073 111.246 144.823 110.898C143.572 110.55 142.503 109.735 141.836 108.622C141.521 108.073 141.321 107.466 141.249 106.837C141.178 106.209 141.235 105.572 141.418 104.967C141.601 104.361 141.906 103.8 142.313 103.316C142.721 102.832 143.224 102.437 143.79 102.155C144.937 101.547 146.273 101.403 147.523 101.751C148.773 102.099 149.843 102.914 150.51 104.027C151.785 106.324 150.935 109.219 148.556 110.494ZM183.793 94.3226C181.152 95.0012 178.43 93.4723 177.751 90.9215C177.073 88.3707 178.692 85.73 181.324 85.1331C183.965 84.4546 186.687 85.9834 187.366 88.5342C188.044 91.085 186.426 93.7258 183.793 94.3226ZM224.81 89.3027C224.173 89.3146 223.54 89.2007 222.946 88.9675C222.353 88.7343 221.811 88.3864 221.353 87.9437C220.894 87.501 220.527 86.9721 220.273 86.3874C220.019 85.8028 219.883 85.1737 219.872 84.5363C219.872 81.8956 222.088 79.7699 224.81 79.7699C227.533 79.7699 229.749 81.8956 229.749 84.5363C229.749 87.1771 227.533 89.3027 224.81 89.3027ZM176.893 81.0453C175.364 81.0453 174.17 79.8517 174.17 78.4046C174.17 76.9575 175.364 75.7638 176.893 75.7638C178.422 75.7638 179.615 76.9575 179.615 78.4046C179.615 79.8517 178.34 81.0453 176.893 81.0453ZM179.19 71.5125C177.661 71.5125 176.468 70.3189 176.468 68.8718C176.468 67.4247 177.661 66.231 179.19 66.231C180.719 66.231 181.913 67.4247 181.913 68.8718C181.913 70.3189 180.637 71.5125 179.19 71.5125ZM145.065 96.6199C143.536 96.6199 142.343 95.4263 142.343 93.9792C142.343 92.5321 143.536 91.3385 145.065 91.3385C146.594 91.3385 147.788 92.5321 147.788 93.9792C147.869 95.4263 146.594 96.6199 145.065 96.6199ZM147.362 87.0871C145.834 87.0871 144.64 85.8935 144.64 84.4464C144.64 82.9993 145.915 81.8057 147.362 81.8057C148.891 81.8057 150.085 82.9993 150.085 84.4464C150.167 85.8935 148.891 87.0871 147.362 87.0871ZM151.45 78.748C149.921 78.748 148.728 77.5543 148.728 76.1072C148.728 74.6601 149.921 73.4665 151.45 73.4665C152.979 73.4665 154.173 74.6601 154.173 76.1072C154.254 77.5543 152.979 78.748 151.45 78.748ZM158.007 71.3408C156.478 71.3408 155.285 70.1472 155.285 68.7001C155.285 67.253 156.478 66.0593 158.007 66.0593C159.536 66.0593 160.73 67.253 160.73 68.7001C160.73 70.1472 159.536 71.3408 158.007 71.3408ZM166.011 65.7241C164.482 65.7241 163.289 64.5305 163.289 63.0834C163.289 61.6363 164.482 60.4427 166.011 60.4427C167.54 60.4427 168.734 61.6363 168.734 63.0834C168.815 64.5305 167.54 65.7241 166.011 65.7241ZM174.694 62.4866C173.165 62.4866 171.971 61.2929 171.971 59.8458C171.971 58.3988 173.165 57.2051 174.694 57.2051C176.222 57.2051 177.416 58.3988 177.416 59.8458C177.416 61.2929 176.222 62.4866 174.694 62.4866ZM183.458 63.1652C181.929 63.1652 180.735 61.9715 180.735 60.5244C180.735 59.0773 181.929 57.8837 183.458 57.8837C184.987 57.8837 186.18 59.0773 186.18 60.5244C186.262 61.9715 184.987 63.1652 183.458 63.1652ZM189.925 56.0196C188.396 56.0196 187.202 54.826 187.202 53.3789C187.202 51.9318 188.478 50.7382 189.925 50.7382C191.454 50.7382 192.647 51.9318 192.647 53.3789C192.647 54.826 191.454 56.0196 189.925 56.0196ZM198.354 50.5746C196.825 50.5746 195.631 49.381 195.631 47.9339C195.631 46.4868 196.825 45.2932 198.354 45.2932C199.883 45.2932 201.076 46.4868 201.076 47.9339C201.076 49.381 199.883 50.5746 198.354 50.5746ZM207.118 47.427C205.589 47.427 204.396 46.2334 204.396 44.7863C204.396 43.3392 205.671 42.1455 207.118 42.1455C208.647 42.1455 209.841 43.3392 209.841 44.7863C209.841 46.2334 208.647 47.427 207.118 47.427ZM224.81 73.4665C223.282 73.4665 222.088 72.2728 222.088 70.8257C222.088 69.3787 223.363 68.185 224.81 68.185C226.339 68.185 227.533 69.3787 227.533 70.8257C227.533 72.2728 226.339 73.4665 224.81 73.4665ZM224.81 63.8519C223.282 63.8519 222.088 62.6583 222.088 61.2112C222.088 59.7641 223.363 58.5704 224.81 58.5704C226.339 58.5704 227.533 59.7641 227.533 61.2112C227.533 62.6583 226.339 63.8519 224.81 63.8519ZM224.81 54.2373C223.282 54.2373 222.088 53.0437 222.088 51.5966C222.088 50.1495 223.363 48.9559 224.81 48.9559C226.339 48.9559 227.533 50.1495 227.533 51.5966C227.533 53.0437 226.339 54.2373 224.81 54.2373ZM216.128 45.8982C214.599 45.8982 213.315 44.7045 213.315 43.2574C213.315 41.8103 214.591 40.6167 216.128 40.6167C217.665 40.6167 218.85 41.8103 218.85 43.2574C218.85 44.7863 217.575 45.8982 216.128 45.8982ZM305.831 102.147C308.21 103.422 309.069 106.316 307.785 108.614C306.502 110.911 303.444 111.761 301.065 110.486C300.507 110.195 300.013 109.795 299.611 109.31C299.21 108.826 298.91 108.266 298.728 107.663C298.546 107.061 298.486 106.428 298.552 105.802C298.617 105.177 298.807 104.57 299.111 104.019C299.778 102.906 300.847 102.091 302.098 101.743C303.348 101.394 304.684 101.539 305.831 102.147ZM242.429 116.103C240.9 116.103 239.706 114.909 239.706 113.462C239.706 112.015 240.9 110.821 242.429 110.821C243.958 110.821 245.151 112.015 245.151 113.462C245.233 114.909 243.958 116.103 242.429 116.103ZM173.148 124.957C171.62 124.957 170.426 123.763 170.426 122.316C170.426 120.869 171.701 119.675 173.148 119.675C174.677 119.675 175.871 120.869 175.871 122.316C175.871 123.763 174.677 124.957 173.148 124.957ZM207.192 116.103C205.663 116.103 204.469 114.909 204.469 113.462C204.469 112.015 205.745 110.821 207.192 110.821C208.721 110.821 209.914 112.015 209.914 113.462C209.914 114.909 208.721 116.103 207.192 116.103Z" fill="white"/>
<path d="M245.233 96.9551C246.002 98.5739 246.852 99.7676 247.956 100.781L240.385 99.8412C241.805 99.0841 243.053 98.0401 244.048 96.7753C244.438 96.8783 244.838 96.9359 245.242 96.947L245.233 96.9551ZM204.38 96.9551C204.81 96.9422 205.237 96.8847 205.655 96.7835C206.595 98.0589 207.871 99.0808 209.228 99.8493L201.657 100.79C202.851 99.6858 203.783 98.4104 204.38 96.9633V96.9551ZM189.655 102.997L183.017 104.616C184.21 103.169 184.971 101.378 185.142 99.506C186.325 101.034 187.879 102.236 189.655 102.997ZM164.376 111.001C165.012 109.968 165.499 108.851 165.823 107.682L166.167 107.6C166.803 107.448 167.409 107.188 167.957 106.831C169.006 107.511 170.153 108.027 171.358 108.36L164.376 111.001ZM224.811 94.6578C225.489 96.4483 226.765 97.9771 228.302 99.1708C227.108 99.1708 226.004 99.089 224.811 99.089L221.32 99.1708C222.938 97.9771 224.132 96.4483 224.811 94.6578ZM281.664 106.741C282.171 107.085 282.858 107.338 283.455 107.51L283.798 107.592C284.051 108.785 284.566 109.889 285.245 110.911L278.181 108.189C279.428 107.937 280.605 107.445 281.664 106.741ZM266.596 104.616L259.958 102.997C261.721 102.256 263.25 101.049 264.381 99.506C264.632 101.381 265.399 103.15 266.596 104.616ZM275.189 83.8496C277.061 83.0811 278.427 81.4705 278.852 79.5083C281.828 80.1869 285.147 80.9554 287.869 82.0591C290.064 82.8765 292.107 84.0566 293.911 85.5501C295.358 89.2128 296.209 93.4641 296.724 98.6557C294.933 99.4242 293.748 101.206 293.061 102.997C291.957 105.719 291.957 108.532 295.015 110.658C294.334 110.71 293.65 110.618 293.008 110.387C292.366 110.155 291.78 109.79 291.289 109.316C290.799 108.842 290.414 108.268 290.162 107.634C289.909 107 289.794 106.32 289.823 105.638C290.41 104.973 290.845 104.189 291.099 103.34C291.949 100.103 289.995 96.8734 286.676 96.1049C283.356 95.2546 280.037 97.2086 279.187 100.356C279.105 100.7 279.015 101.035 279.015 101.378C276.203 104.697 270.586 102.997 270.333 98.6557C275.524 99.6776 277.74 97.1268 278.59 93.7176C279.359 90.9052 279.015 88.0192 275.696 86.3104C275.524 85.3702 275.442 84.5281 275.189 83.8496ZM187.448 72.1093C197.324 66.836 210.168 65.8958 220.126 67.3429V68.0215C219.403 69.1043 219.124 70.4233 219.347 71.7059C219.569 72.9885 220.275 74.1368 221.32 74.9136C219.447 75.5104 218 76.8676 217.493 79.2549C213.749 80.1051 212.727 82.8276 212.727 85.7218C212.727 89.2128 214.174 92.1887 219.447 92.4422C218.851 94.3962 216.978 95.7615 214.763 95.7615C213.755 95.7697 212.769 95.4618 211.945 94.8811C211.121 94.3004 210.499 93.4761 210.168 92.5239C210.34 92.017 210.34 91.502 210.34 90.9951C210.34 87.6758 207.527 85.035 204.126 85.035C200.725 85.035 197.913 87.6758 197.913 90.9951C197.893 91.987 198.159 92.9636 198.681 93.8075C198.605 94.8244 198.21 95.7913 197.552 96.5707C196.895 97.3501 196.008 97.9023 195.018 98.1488C194.015 98.4065 192.955 98.3396 191.991 97.9577C191.028 97.5758 190.21 96.8986 189.655 96.0231C194.675 94.4943 195.354 91.2567 194.422 87.8556C193.653 85.0432 191.953 82.6641 188.126 82.7459C187.567 81.5464 186.603 80.5823 185.404 80.0234C185.911 77.3009 186.508 74.5784 187.448 72.1093ZM229.405 67.2612C239.363 65.8141 252.297 66.7543 262.083 72.0276C263.043 74.6106 263.699 77.2967 264.037 80.0315C262.839 80.5917 261.875 81.5553 261.315 82.754C257.489 82.6723 255.78 85.0514 255.101 87.8638C254.161 91.2649 254.848 94.5024 259.868 96.0313C258.764 97.7318 256.63 98.672 254.505 98.157C253.511 97.9186 252.619 97.3687 251.96 96.5876C251.302 95.8066 250.91 94.8353 250.842 93.8157C251.351 92.9665 251.617 91.9935 251.61 91.0033C251.61 87.684 248.888 85.0432 245.397 85.0432C241.996 85.0432 239.183 87.684 239.183 91.0033C239.196 91.5169 239.253 92.0285 239.355 92.5321C239.013 93.4776 238.389 94.2952 237.567 94.8742C236.746 95.4533 235.766 95.7659 234.76 95.7697C233.73 95.7786 232.723 95.4628 231.882 94.867C231.041 94.2712 230.409 93.4256 230.076 92.4504C235.349 92.1969 236.796 89.2128 236.796 85.73C236.796 82.754 235.774 80.1133 232.03 79.263C231.82 78.2712 231.357 77.3503 230.687 76.5898C230.016 75.8292 229.161 75.2546 228.203 74.9218C229.397 73.9816 230.247 72.4527 230.247 70.8339C230.247 69.812 229.904 68.79 229.397 68.0215L229.405 67.2612ZM161.833 82.0673C164.556 81.0453 167.875 80.1951 170.851 79.5165C171.276 81.4705 172.642 83.0892 174.514 83.8577C174.222 84.6149 174.105 85.4281 174.171 86.2369C170.769 87.9374 170.508 90.8316 171.276 93.644C172.217 97.0451 174.342 99.6041 179.534 98.5821C179.362 102.923 173.664 104.624 170.851 101.305C170.851 100.961 170.769 100.626 170.68 100.283C169.829 97.0451 166.428 95.1729 163.109 96.0313C159.79 96.8897 157.836 100.119 158.686 103.267C158.939 104.117 159.364 104.967 159.961 105.564C160.043 107.355 159.111 109.055 157.41 109.987C156.588 110.386 155.684 110.59 154.77 110.584C157.836 108.54 157.836 105.736 156.724 102.923C155.955 101.223 154.851 99.4324 152.979 98.672C153.404 93.4805 154.255 89.2292 155.702 85.5665C157.231 84.3728 159.193 83.0075 161.833 82.0673ZM233.665 112.538L224.811 115.686L216.046 112.538L224.811 109.382L233.665 112.538ZM167.36 124.107L166.592 127.082L166.338 128.186L165.741 127.843L162.766 126.224L163.534 123.412L163.706 122.815L164.728 123.158L167.36 124.107ZM282.253 124.107L285.915 122.741L286.087 123.338L286.856 126.232L283.961 127.761L283.365 128.104L283.111 127.001L282.253 124.107Z" fill="#E62644"/>
<path d="M266.596 104.616C265.403 103.169 264.642 101.378 264.471 99.5059C263.367 101.035 261.748 102.228 260.048 102.997L266.596 104.616ZM281.664 106.741C280.642 107.42 279.448 107.935 278.263 108.27L285.327 110.993C284.654 109.98 284.164 108.856 283.88 107.673L283.536 107.592C282.858 107.42 282.261 107.085 281.664 106.741ZM224.81 94.6578C224.132 96.4483 222.938 97.9771 221.319 99.1708L224.81 99.089L228.301 99.1708C226.748 98.0124 225.541 96.452 224.81 94.6578ZM164.384 111.001L171.448 108.278C170.254 107.935 169.069 107.428 168.047 106.75C167.54 107.093 166.853 107.346 166.256 107.518L165.913 107.6C165.488 108.793 165.063 109.979 164.384 111.001ZM189.663 102.997C187.9 102.256 186.371 101.049 185.24 99.5059C184.987 101.378 184.3 103.169 183.115 104.616L189.663 102.997ZM204.388 96.9551C203.791 98.4022 202.859 99.6776 201.665 100.781L209.236 99.8412C207.826 99.1062 206.604 98.0573 205.663 96.7753C205.238 96.857 204.813 96.9551 204.388 96.9551ZM245.241 96.9551C244.838 96.9461 244.437 96.8884 244.048 96.7835C243.108 98.0589 241.832 99.0808 240.385 99.8493L247.956 100.79C246.864 99.7706 245.969 98.5595 245.315 97.2168L245.241 96.9551ZM305.839 102.147C304.693 101.537 303.356 101.391 302.105 101.74C300.854 102.088 299.785 102.904 299.119 104.019C297.844 106.316 298.694 109.21 301.073 110.486C302.22 111.094 303.556 111.238 304.806 110.89C306.057 110.541 307.126 109.727 307.793 108.614C308.118 108.067 308.326 107.46 308.403 106.829C308.48 106.198 308.424 105.558 308.241 104.95C308.057 104.342 307.748 103.778 307.335 103.296C306.922 102.813 306.412 102.422 305.839 102.147ZM268.305 85.125C265.664 84.4464 262.942 85.9752 262.263 88.526C261.585 91.0768 263.203 93.7176 265.836 94.3144C268.477 94.993 271.199 93.4641 271.878 90.9133C272.556 88.3625 270.937 85.7218 268.305 85.125ZM272.818 75.7638C271.289 75.7638 270.095 76.9575 270.095 78.4046C270.095 79.8517 271.371 81.0453 272.818 81.0453C274.347 81.0453 275.54 79.8517 275.54 78.4046C275.544 78.0498 275.475 77.698 275.339 77.3706C275.202 77.0432 275 76.747 274.746 76.5C274.491 76.253 274.189 76.0603 273.858 75.9338C273.526 75.8072 273.172 75.7494 272.818 75.7638ZM270.521 66.231C268.992 66.231 267.798 67.4247 267.798 68.8718C267.798 70.3189 269.073 71.5125 270.521 71.5125C272.049 71.5125 273.243 70.3189 273.243 68.8718C273.243 67.4247 272.049 66.231 270.521 66.231ZM304.564 91.2567C303.035 91.2567 301.841 92.4504 301.841 93.8975C301.841 95.3445 303.035 96.5382 304.564 96.5382C306.093 96.5382 307.286 95.3445 307.286 93.8975C307.286 92.4504 306.093 91.2567 304.564 91.2567ZM302.267 81.8138C300.738 81.8138 299.544 83.0075 299.544 84.4546C299.544 85.9017 300.738 87.0953 302.267 87.0953C303.795 87.0953 304.989 85.9017 304.989 84.4546C304.989 83.0075 303.795 81.8138 302.267 81.8138ZM298.179 73.4747C296.65 73.4747 295.456 74.6683 295.456 76.1154C295.456 77.5625 296.732 78.7561 298.179 78.7561C299.708 78.7561 300.901 77.5625 300.901 76.1154C300.901 74.6683 299.708 73.4747 298.179 73.4747ZM291.622 66.0675C290.093 66.0675 288.899 67.2612 288.899 68.7083C288.899 70.1553 290.093 71.349 291.622 71.349C293.151 71.349 294.344 70.1553 294.344 68.7083C294.344 67.2612 293.151 66.0675 291.622 66.0675ZM283.618 60.4508C282.089 60.4508 280.895 61.6445 280.895 63.0916C280.895 64.5387 282.089 65.7323 283.618 65.7323C285.147 65.7323 286.34 64.5387 286.34 63.0916C286.34 61.6445 285.147 60.4508 283.618 60.4508ZM274.935 57.1315C273.407 57.1315 272.213 58.3252 272.213 59.7723C272.213 61.2194 273.407 62.413 274.935 62.413C276.464 62.413 277.658 61.2194 277.658 59.7723C277.74 58.3252 276.464 57.1315 274.935 57.1315ZM266.171 57.9C264.642 57.9 263.449 59.0937 263.449 60.5408C263.449 61.9879 264.642 63.1815 266.171 63.1815C267.7 63.1815 268.894 61.9879 268.894 60.5408C268.894 59.0937 267.7 57.9 266.171 57.9ZM259.704 50.6646C258.175 50.6646 256.982 51.8582 256.982 53.3053C256.982 54.7524 258.175 55.9461 259.704 55.9461C261.233 55.9461 262.427 54.7524 262.427 53.3053C262.508 51.8582 261.233 50.6646 259.704 50.6646ZM251.275 45.3013C249.746 45.3013 248.553 46.495 248.553 47.9421C248.553 49.3892 249.746 50.5828 251.275 50.5828C252.804 50.5828 253.998 49.3892 253.998 47.9421C253.998 46.495 252.804 45.3013 251.275 45.3013ZM242.511 42.1537C240.982 42.1537 239.788 43.3474 239.788 44.7945C239.788 46.2415 240.982 47.4352 242.511 47.4352C244.04 47.4352 245.233 46.2415 245.233 44.7945C245.315 43.3474 244.04 42.1537 242.511 42.1537ZM233.575 40.6249C232.046 40.6249 230.852 41.8185 230.852 43.2656C230.852 44.7127 232.046 45.9063 233.575 45.9063C235.104 45.9063 236.297 44.7127 236.297 43.2656C236.297 41.8185 235.104 40.6249 233.575 40.6249ZM148.556 110.494C150.935 109.219 151.794 106.324 150.51 104.027C149.848 102.908 148.779 102.088 147.527 101.739C146.274 101.39 144.935 101.539 143.79 102.155C141.411 103.43 140.552 106.324 141.836 108.622C143.119 110.919 146.177 111.769 148.556 110.494ZM183.793 94.3226C186.434 93.644 188.045 91.085 187.366 88.5342C186.687 85.9834 183.965 84.4464 181.324 85.1331C178.683 85.8199 177.073 88.3707 177.751 90.9215C178.121 92.1613 178.957 93.2091 180.085 93.8437C181.212 94.4783 182.542 94.65 183.793 94.3226ZM224.81 89.3027C227.533 89.3027 229.749 87.1771 229.749 84.5363C229.738 83.8989 229.602 83.2699 229.348 82.6852C229.094 82.1005 228.727 81.5717 228.268 81.129C227.809 80.6862 227.268 80.3383 226.675 80.1051C226.081 79.8719 225.448 79.758 224.81 79.7699C224.173 79.758 223.54 79.8719 222.946 80.1051C222.353 80.3383 221.812 80.6862 221.353 81.129C220.894 81.5717 220.527 82.1005 220.273 82.6852C220.019 83.2699 219.883 83.8989 219.872 84.5363C219.872 87.1771 222.088 89.3027 224.81 89.3027ZM176.893 81.0453C178.422 81.0453 179.615 79.8517 179.615 78.4046C179.615 76.9575 178.422 75.7638 176.893 75.7638C175.364 75.7638 174.17 76.9575 174.17 78.4046C174.089 79.8517 175.364 81.0453 176.893 81.0453ZM179.19 71.5125C180.719 71.5125 181.913 70.3189 181.913 68.8718C181.913 67.4247 180.719 66.231 179.19 66.231C177.661 66.231 176.468 67.4247 176.468 68.8718C176.386 70.3189 177.661 71.5125 179.19 71.5125ZM145.065 96.6199C146.594 96.6199 147.788 95.4263 147.788 93.9792C147.788 92.5321 146.594 91.3385 145.065 91.3385C143.536 91.3385 142.343 92.5321 142.343 93.9792C142.343 95.4263 143.536 96.6199 145.065 96.6199ZM147.362 87.0871C148.891 87.0871 150.085 85.8935 150.085 84.4464C150.064 83.7386 149.767 83.0669 149.259 82.5739C148.751 82.0809 148.071 81.8053 147.362 81.8057C145.834 81.8057 144.64 82.9993 144.64 84.4464C144.64 85.8935 145.834 87.0871 147.362 87.0871ZM151.45 78.748C152.979 78.748 154.173 77.5543 154.173 76.1072C154.173 74.6601 152.979 73.4665 151.45 73.4665C149.921 73.4665 148.728 74.6601 148.728 76.1072C148.728 77.5543 150.003 78.748 151.45 78.748ZM158.007 71.3408C159.536 71.3408 160.73 70.1472 160.73 68.7001C160.73 67.253 159.536 66.0593 158.007 66.0593C156.478 66.0593 155.285 67.253 155.285 68.7001C155.285 70.1472 156.478 71.3408 158.007 71.3408ZM166.011 65.7241C167.54 65.7241 168.734 64.5305 168.734 63.0834C168.734 61.6363 167.54 60.4427 166.011 60.4427C164.482 60.4427 163.289 61.6363 163.289 63.0834C163.289 64.5305 164.564 65.7241 166.011 65.7241ZM174.694 62.4866C176.223 62.4866 177.416 61.2929 177.416 59.8458C177.416 58.3987 176.223 57.2051 174.694 57.2051C173.165 57.2051 171.971 58.3987 171.971 59.8458C171.971 61.2929 173.165 62.4866 174.694 62.4866ZM183.458 63.1652C184.987 63.1652 186.18 61.9715 186.18 60.5244C186.18 59.0773 184.987 57.8837 183.458 57.8837C181.929 57.8837 180.735 59.0773 180.735 60.5244C180.735 61.9715 181.929 63.1652 183.458 63.1652ZM189.925 56.0196C191.454 56.0196 192.647 54.826 192.647 53.3789C192.647 51.9318 191.454 50.7382 189.925 50.7382C188.396 50.7382 187.202 51.9318 187.202 53.3789C187.202 54.826 188.396 56.0196 189.925 56.0196ZM198.354 50.5746C199.883 50.5746 201.077 49.381 201.077 47.9339C201.077 46.4868 199.883 45.2932 198.354 45.2932C196.825 45.2932 195.632 46.4868 195.632 47.9339C195.632 49.381 196.825 50.5746 198.354 50.5746ZM207.118 47.427C208.647 47.427 209.841 46.2334 209.841 44.7863C209.841 43.3392 208.647 42.1455 207.118 42.1455C205.589 42.1455 204.396 43.3392 204.396 44.7863C204.396 46.2334 205.589 47.427 207.118 47.427ZM224.81 73.4665C226.339 73.4665 227.533 72.2728 227.533 70.8257C227.533 69.3787 226.339 68.185 224.81 68.185C223.282 68.185 222.088 69.3787 222.088 70.8257C222.088 72.2728 223.282 73.4665 224.81 73.4665ZM224.81 63.8519C226.339 63.8519 227.533 62.6583 227.533 61.2112C227.533 59.7641 226.339 58.5704 224.81 58.5704C223.282 58.5704 222.088 59.7641 222.088 61.2112C222.088 62.6583 223.282 63.8519 224.81 63.8519ZM224.81 54.2373C226.339 54.2373 227.533 53.0437 227.533 51.5966C227.533 50.1495 226.339 48.9559 224.81 48.9559C223.282 48.9559 222.088 50.1495 222.088 51.5966C222.088 53.0437 223.282 54.2373 224.81 54.2373ZM216.128 45.8982C217.657 45.8982 218.85 44.7045 218.85 43.2574C218.829 42.5496 218.533 41.878 218.025 41.385C217.516 40.892 216.836 40.6164 216.128 40.6167C214.599 40.6167 213.315 41.8103 213.315 43.2574C213.315 44.7863 214.591 45.8982 216.128 45.8982ZM291.704 111.009C294.001 112.203 295.791 111.688 297.999 110.927C294.336 109.137 292.382 107.526 294.083 103.357C294.851 101.484 295.783 100.037 297.827 99.4405C296.552 83.1873 291.867 75.4368 276.554 68.0378L275.45 68.3812C275.45 68.5529 275.532 68.7246 275.532 68.978C275.532 71.1937 274.257 72.2974 272.556 73.491C275.279 73.9979 277.748 75.2815 277.748 78.4291C277.748 81.0698 275.876 82.5169 273.496 83.1955C274.265 84.6426 274.437 85.2394 274.265 86.94C277.413 88.3871 278.091 90.2593 277.241 93.4069C276.047 97.8299 273.325 98.2551 268.984 97.1514C268.75 98.5029 268.983 99.8937 269.644 101.095C270.306 102.297 271.357 103.237 272.624 103.762C273.891 104.288 275.299 104.366 276.617 103.985C277.934 103.603 279.083 102.785 279.873 101.664C279.873 101.239 279.955 100.896 280.045 100.471C280.724 97.9199 283.446 96.3011 286.177 96.9797C288.908 97.6583 290.518 100.299 289.75 102.85C289.496 103.7 289.071 104.379 288.474 104.975C288.393 107.526 289.496 109.824 291.712 111.017L291.704 111.009ZM220.551 51.5148C220.551 51.1715 220.633 50.8363 220.633 50.4111C200.635 48.964 186.246 62.1595 184.292 80.7101C186.082 81.3887 186.761 82.1572 187.529 83.8577C191.02 83.6861 192.549 85.0514 193.4 88.1091C194.593 92.4504 192.378 94.1509 188.036 95.2546C189.312 98.067 191.952 100.021 195.354 99.1708C196.642 98.8766 197.792 98.1516 198.612 97.1154C199.433 96.0792 199.875 94.794 199.867 93.4723C199.359 92.7188 199.092 91.8297 199.098 90.9215C199.098 88.2808 201.314 86.0733 204.118 86.0733C206.84 86.0733 209.138 88.199 209.138 90.9215C209.136 91.4415 209.051 91.9577 208.884 92.4504C209.244 93.7217 210.016 94.8377 211.078 95.6233C212.14 96.409 213.433 96.8199 214.754 96.7916C218.245 96.7916 220.289 94.3226 220.796 91.2567C216.373 91.2567 213.814 90.153 213.814 85.64C213.814 82.4025 215.008 80.7919 218.409 80.1051C219.177 76.1072 221.303 75.8538 224.704 75.3387C228.195 75.9355 230.239 76.1072 230.999 80.1051C234.4 80.7837 235.594 82.4025 235.594 85.64C235.594 90.153 233.043 91.2567 228.612 91.2567C229.119 94.3226 231.163 96.7916 234.654 96.7916C235.968 96.7928 237.249 96.3715 238.306 95.5899C239.362 94.8082 240.14 93.7076 240.524 92.4504C240.358 91.9578 240.272 91.4415 240.271 90.9215C240.271 88.2808 242.486 86.0733 245.29 86.0733C248.095 86.0733 250.31 88.199 250.31 90.9215C250.318 91.8299 250.05 92.7192 249.542 93.4723C249.624 96.1948 251.332 98.4922 254.055 99.1708C257.456 100.021 260.097 98.067 261.372 95.2546C257.031 94.1509 254.905 92.4422 256.009 88.1091C256.859 85.0432 258.388 83.6861 261.879 83.8577C262.729 82.1572 263.326 81.3887 265.116 80.7101C263.162 62.1595 248.863 48.964 228.776 50.4111C228.848 50.7743 228.876 51.145 228.857 51.5148C228.857 52.455 228.514 53.2154 228.007 53.9839V58.6685C228.514 59.4371 228.857 60.1974 228.857 61.1376C228.857 62.0778 228.514 62.8381 228.007 63.6066L228.089 68.4548C228.514 69.1334 228.857 69.9019 228.857 70.7522C228.857 73.5646 226.732 74.3249 224.606 75.2651C222.48 74.3249 220.355 73.4747 220.355 70.7522C220.355 69.812 220.698 69.0516 221.205 68.2831V63.6884C220.674 62.9726 220.377 62.1103 220.355 61.2194C220.355 60.2792 220.698 59.5188 221.205 58.7503V53.9839C220.763 53.2358 220.529 52.3835 220.526 51.5148H220.551ZM155.53 103.34C157.149 107.51 155.276 109.129 151.614 110.911C153.829 111.68 155.612 112.186 157.909 110.993C158.966 110.453 159.828 109.598 160.377 108.546C160.927 107.495 161.135 106.298 160.975 105.123C160.376 104.534 159.937 103.803 159.7 102.997C159.415 101.722 159.638 100.387 160.322 99.2739C161.006 98.161 162.096 97.3586 163.362 97.0369C164.091 96.8449 164.854 96.8196 165.594 96.9628C166.334 97.106 167.033 97.4141 167.637 97.8641C168.242 98.3142 168.738 98.8946 169.087 99.5624C169.437 100.23 169.632 100.968 169.657 101.722C173.484 106.57 181.234 104.019 180.547 97.2086C176.206 98.2305 173.484 97.8054 172.29 93.4641C171.44 90.3983 172.118 88.4443 175.266 86.9972C175.079 85.6976 175.35 84.3734 176.034 83.2527C173.655 82.5742 171.783 81.1271 171.783 78.4863C171.783 75.2488 174.252 74.0633 176.975 73.5482C175.356 72.2728 174.08 71.2509 174.08 69.0353C174.08 68.8636 174.08 68.6101 172.977 68.2668C157.402 75.6739 153.061 83.1628 151.704 99.5877C153.829 100.095 154.77 101.468 155.53 103.34ZM287.959 118.743C268.812 110.061 247.359 105.123 224.81 105.123C202.262 105.123 180.899 109.971 161.743 118.653C160.468 119.25 159.021 118.653 158.424 117.46C157.827 116.184 158.424 115.244 159.021 114.222C155.105 115.416 152.211 115.416 148.81 112.857C142.514 116.945 135.279 108.516 140.045 104.689C137.83 101.877 137.83 98.8192 141.067 96.7753C140.454 95.9349 140.125 94.9212 140.127 93.8811C140.127 90.7335 142.596 89.4581 145.319 88.943C143.7 87.7494 142.424 86.6456 142.424 84.43C142.424 81.1925 145.065 79.8353 147.869 79.5819C147.101 78.3882 146.504 77.538 146.504 76.0909C146.504 73.4501 148.72 71.3245 151.524 71.3245C152.374 71.3245 153.224 71.5779 153.993 71.8314C153.486 70.7276 153.053 69.8774 153.053 68.6837C153.053 66.043 155.268 63.9173 158.073 63.9173C159.438 63.9173 160.198 64.4242 161.392 64.9393C161.195 64.333 161.08 63.7035 161.048 63.067C161.048 60.4263 163.264 58.2189 166.068 58.2189C167.597 58.2189 168.447 58.8157 169.641 59.5842C170.238 57.0334 171.685 54.9895 174.661 54.9895C176.877 54.9895 178.152 56.1831 179.256 57.8019C180.449 56.5265 181.553 55.6763 183.425 55.6763C184.194 55.6763 184.872 55.8479 185.641 56.0196C185.18 55.1829 184.917 54.2515 184.872 53.2971C184.872 50.6564 187.088 48.5307 189.81 48.5307C191.429 48.5307 192.279 49.2093 193.555 49.9778C193.473 49.381 193.212 48.6125 193.212 47.9339C193.212 45.2932 195.427 43.1675 198.231 43.1675C199.85 43.1675 200.7 43.7643 201.894 44.6146C202.491 42.0638 203.938 40.0199 207.004 40.0199C208.876 40.0199 209.898 40.7884 211.092 41.9739C212.032 39.9299 213.389 38.4829 215.94 38.4829C216.612 38.5016 217.275 38.6458 217.894 38.908C219.2 37.353 221.007 36.3008 223.004 35.932V30.8304H218.834V27.7646H223.004V24.11H226.323V27.7727H230.493V30.7487H226.323V35.8585C228.313 36.2461 230.114 37.2948 231.433 38.8344C232.052 38.5722 232.715 38.428 233.387 38.4093C235.938 38.4093 237.303 39.9381 238.235 41.9003C239.429 40.7066 240.532 39.9463 242.323 39.9463C245.389 39.9463 246.836 42.072 247.343 44.541C248.536 43.6907 249.468 43.0939 251.087 43.0939C253.809 43.0939 256.107 45.2196 256.107 47.8603C256.107 48.5389 255.935 49.3074 255.853 49.9042C257.129 49.1357 257.979 48.5389 259.598 48.5389C262.32 48.5389 264.618 50.6646 264.618 53.3053C264.618 54.3273 264.274 55.0958 263.849 56.0278C264.571 55.8238 265.315 55.7085 266.065 55.6844C267.937 55.6844 269.041 56.5347 270.234 57.8101C271.338 56.1096 272.613 54.9977 274.829 54.9977C277.895 54.9977 279.342 57.1233 279.939 59.5924C281.133 58.8239 281.983 58.2271 283.512 58.2271C286.234 58.2271 288.532 60.3527 288.532 63.0752C288.532 63.672 288.36 64.3506 288.278 64.9474C289.382 64.3506 290.232 63.9255 291.516 63.9255C294.238 63.9255 296.535 66.0512 296.535 68.6919C296.535 69.8855 296.11 70.7358 295.595 71.7578C296.446 71.5043 297.214 71.2509 298.146 71.2509C300.869 71.2509 303.166 73.3766 303.166 76.0173C303.166 77.4644 302.569 78.3146 301.801 79.5083C304.695 79.7617 307.336 81.1271 307.336 84.3565C307.336 86.5721 306.06 87.6758 304.441 88.8694C307.164 89.4662 309.633 90.6599 309.633 93.8075C309.633 95.0012 309.289 95.7615 308.693 96.7017C312.012 98.7456 311.93 101.722 309.715 104.534C312.609 106.831 311.08 110.404 308.693 112.276C306.224 114.149 303.673 114.492 300.95 112.701C297.549 115.252 294.655 115.252 290.739 114.067L291.336 115.26C292.104 117.386 290.142 119.512 287.935 118.751L287.959 118.743ZM168.3 123.591L164.212 122.144L163.869 121.548C163.526 121.719 163.272 121.719 163.019 121.801C161.915 121.883 161.997 120.697 162.512 120.436C181.406 111.843 202.425 107.077 224.729 107.077C247.032 107.077 268.051 111.843 286.945 120.436C287.452 120.689 287.542 121.883 286.439 121.801C286.185 121.801 285.932 121.719 285.588 121.548L285.245 122.144L281.157 123.591L282.351 128.104L282.007 128.873C284.133 129.813 282.686 131.342 281.754 130.917C264.389 123.003 245.07 118.662 224.647 118.662C204.224 118.662 184.905 123.003 167.54 130.917C167.115 131.089 166.6 130.917 166.346 130.41C166.093 129.903 166.346 129.56 166.69 129.216C166.861 129.045 167.115 128.963 167.368 128.873L167.025 128.104L168.3 123.591ZM190.857 120.272L199.539 114.402L188.985 113.298L180.302 119.168L190.857 120.272ZM276.472 125.717C278.426 125.717 280.045 124.188 280.045 122.316C280.045 120.444 278.426 118.915 276.472 118.915C274.518 118.915 272.9 120.444 272.9 122.316C272.981 124.188 274.518 125.717 276.472 125.717ZM207.192 116.863C209.146 116.863 210.765 115.334 210.765 113.462C210.765 111.59 209.146 110.061 207.192 110.061C205.238 110.061 203.619 111.59 203.619 113.462C203.619 115.334 205.238 116.863 207.192 116.863ZM173.148 125.717C175.102 125.717 176.721 124.188 176.721 122.316C176.721 120.444 175.192 118.915 173.148 118.915C171.194 118.915 169.576 120.444 169.576 122.316C169.576 124.188 171.194 125.717 173.148 125.717ZM242.429 116.863C244.383 116.863 246.002 115.334 246.002 113.462C246.002 111.59 244.383 110.061 242.429 110.061C241.976 110.053 241.526 110.135 241.105 110.302C240.684 110.47 240.3 110.718 239.975 111.034C239.651 111.351 239.392 111.728 239.214 112.144C239.036 112.561 238.942 113.009 238.938 113.462C238.938 115.334 240.557 116.863 242.429 116.863ZM258.772 120.264L269.327 119.16L260.644 113.29L250.09 114.394L258.772 120.264ZM235.88 112.522L224.81 108.532L213.749 112.53L224.81 116.528L235.88 112.522ZM110.253 248.368C110.253 309.22 161.825 359.009 224.81 359.009C287.877 359.009 339.449 309.22 339.449 248.368C339.449 187.345 287.877 137.727 224.81 137.727C161.743 137.727 110.253 187.345 110.253 248.368ZM351.876 248.368C351.876 315.858 294.851 371.011 224.81 371.011C154.77 371.011 97.7444 315.858 97.7444 248.368C97.7444 180.796 154.77 125.644 224.81 125.644C294.851 125.562 351.876 180.707 351.876 248.368ZM208.132 196.191L224.729 212.534L240.222 196.706C234.777 195.341 229.585 194.327 223.878 194.156C218.605 193.902 213.242 195.088 208.132 196.191ZM251.79 184.786L276.129 160.529C307.622 177.976 328.813 210.654 328.813 248.017C328.813 272.356 319.877 294.659 304.809 312.106L293.486 301.126C306.248 286.058 314.595 271.08 314.595 247.085C314.595 221.47 300.721 192.872 278.598 178.066L263.964 192.537C271.453 197.982 277.413 203.427 282.432 211.087L271.281 220.367C266.858 212.878 261.151 207.604 253.834 202.748L224.729 232.369L194.511 202.323C178.855 212.878 169.657 227.937 169.232 246.668C168.725 271.604 185.404 288.879 208.811 296.458V246.414H244.555V256.716H222.685V270.075H244.301V281.823H222.685V298.673C238.685 299.442 255.788 290.506 266.171 279.436L276.898 289.901C263.195 305.222 243.451 312.964 222.767 313.136V328.539H208.892V311.517C177.318 303.946 154.426 277.22 154.851 245.302C155.105 223.433 167.188 205.471 184.725 192.708L169.919 177.902C146.937 196.028 134.6 218.159 133.578 246.921C132.81 272.372 146.43 292.795 155.023 301.387L145.065 311.174C129.662 293.809 120.554 272.364 120.554 247.935C120.554 210.826 141.746 178.148 172.977 160.701L197.659 185.555C206.423 182.317 215.531 180.617 224.892 180.617C233.821 180.75 242.66 182.42 251.022 185.555L251.79 184.786Z" fill="#FCBF00"/>
<path d="M355.621 248.368C355.621 317.902 296.895 374.666 224.811 374.666C152.636 374.666 94 317.902 94 248.368C94 178.744 152.726 121.899 224.811 121.899C296.985 121.899 355.621 178.753 355.621 248.368ZM351.877 248.368C351.877 180.797 294.851 125.644 224.811 125.644C154.77 125.644 97.7445 180.788 97.7445 248.368C97.7445 315.858 154.77 371.011 224.811 371.011C294.851 371.011 351.877 315.858 351.877 248.368ZM113.998 248.368C113.998 307.176 163.869 355.347 224.811 355.347C285.752 355.347 335.623 307.258 335.623 248.368C335.623 189.389 285.752 141.472 224.811 141.472C163.877 141.39 113.998 189.389 113.998 248.368ZM110.253 248.368C110.253 187.345 161.825 137.727 224.811 137.727C287.878 137.727 339.45 187.345 339.45 248.368C339.45 309.22 287.878 359.009 224.811 359.009C161.743 358.928 110.253 309.22 110.253 248.368ZM238.251 223.939L300.206 285.641C307.27 274.408 310.843 262.921 310.843 247.003C310.843 219.255 294.671 193.984 279.097 182.751L269.736 192.03C276.796 197.447 282.773 204.145 287.354 211.774L270.161 226.155C266.073 218.323 261.732 212.796 254.333 207.604L238.251 223.939ZM316.803 302.156C305.651 320.453 288.63 334.924 268.46 343.607L258.429 333.73L239.707 315.262C235.369 316.205 230.949 316.717 226.511 316.79V332.283H205.066V314.411C172.895 305.982 150.682 276.877 151.025 245.302C151.107 240.029 151.875 234.919 153.151 229.981L142.596 219.598C139.448 228.109 137.658 237.298 137.323 247.085C136.726 266.657 145.58 287.849 160.305 301.379L144.812 316.61C126.596 296.866 116.638 274.653 116.638 247.927C116.638 208.945 138.77 174.902 173.574 156.18L198.509 181.369C206.767 178.475 216.128 177.028 224.721 177.028C234 177.109 242.421 178.728 250 181.369L275.361 155.918C310.426 174.73 332.549 208.774 332.549 248C332.631 267.916 327.104 285.96 316.803 302.131V302.156ZM204.968 281.136L172.977 249.644C173.745 267.262 184.889 283.941 204.976 291.348L204.968 281.136ZM251.79 184.786L250.94 185.636C242.601 182.424 233.747 180.754 224.811 180.707C215.449 180.707 206.342 182.407 197.577 185.645L172.895 160.791C141.664 178.156 120.473 210.834 120.473 247.943C120.473 272.454 129.58 293.817 144.983 311.182L154.941 301.396C146.349 292.803 132.728 272.372 133.497 246.929C134.519 218.159 146.856 196.036 169.837 177.911L184.644 192.717C167.115 205.479 155.023 223.441 154.77 245.311C154.345 277.228 177.155 303.946 208.811 311.525V328.547H222.685V313.128C243.451 312.956 263.195 305.214 276.816 289.892L266.089 279.428C255.706 290.489 238.685 299.515 222.603 298.665V281.815H244.22V270.066H222.603V256.707H244.473V246.406H208.729V296.449C185.322 288.879 168.562 271.595 169.151 246.66C169.576 227.937 178.765 212.87 194.43 202.315L224.647 232.36L253.752 202.74C261.159 207.588 266.776 212.87 271.199 220.359L282.351 211.079C277.331 203.419 271.371 197.974 263.882 192.529L278.516 178.058C300.648 192.864 314.514 221.462 314.514 247.077C314.514 270.99 306.175 286.058 293.404 301.118L304.728 312.098C320.22 294.343 328.748 271.572 328.731 248.009C328.731 210.646 307.54 177.968 276.047 160.521L251.79 184.786ZM208.132 196.191C213.242 195.088 218.597 193.894 223.878 194.066C229.577 194.237 234.768 195.259 240.222 196.616L224.729 212.444L208.132 196.191ZM215.703 198.407L224.639 207.261L232.978 198.75C230.002 198.153 226.936 197.9 223.699 197.81C221.745 197.728 218.769 197.982 215.703 198.407ZM282.261 124.107L283.029 127.082L283.373 128.104L283.97 127.761L286.864 126.232L286.095 123.338L285.924 122.741L282.261 124.107ZM287.959 118.743C290.175 119.512 292.129 117.296 291.107 115.424L290.51 114.23C294.426 115.424 297.32 115.424 300.721 112.865C303.444 114.655 305.913 114.312 308.464 112.44C310.933 110.568 312.38 106.995 309.486 104.698C311.701 101.885 311.783 98.8274 308.464 96.8652C309.061 95.925 309.404 95.1647 309.404 93.971C309.404 90.8234 306.935 89.548 304.212 89.0329C305.831 87.7575 307.107 86.7356 307.107 84.52C307.107 81.2824 304.466 79.9253 301.572 79.6718C302.34 78.4782 302.937 77.7178 302.937 76.1808C302.937 73.5401 300.721 71.4144 297.917 71.4144C297.067 71.4144 296.217 71.6679 295.366 71.9213C295.873 70.8176 296.307 70.0491 296.307 68.8554C296.307 66.2147 294.091 64.089 291.287 64.089C289.921 64.089 289.161 64.5142 288.049 65.111C288.131 64.5142 288.303 63.8356 288.303 63.2387C288.279 61.9305 287.737 60.685 286.796 59.776C285.855 58.867 284.591 58.3687 283.283 58.3906C281.754 58.3906 280.904 58.9874 279.71 59.7559C279.113 57.2051 277.666 55.1612 274.6 55.1612C272.385 55.1612 271.109 56.3548 270.006 57.9736C268.812 56.6982 267.708 55.848 265.836 55.848C265.067 55.848 264.307 56.0196 263.62 56.1913C264.045 55.2511 264.389 54.4908 264.389 53.4688C264.389 50.8281 262.173 48.7024 259.369 48.7024C257.75 48.7024 256.9 49.2993 255.625 50.0678C255.706 49.4709 255.878 48.7024 255.878 48.0239C255.878 45.3831 253.662 43.2574 250.858 43.2574C249.239 43.2574 248.389 43.8543 247.114 44.7045C246.517 42.1537 245.07 40.1098 242.094 40.1098C240.222 40.1098 239.2 40.8783 238.006 42.0638C236.984 40.0199 235.709 38.5728 233.158 38.5728C232.389 38.5728 231.882 38.7445 231.204 38.9979C229.898 37.4429 228.091 36.3908 226.094 36.022V30.9122H230.264V27.7646H226.094V24.1101H222.775V27.7728H218.605V30.7487H222.775V35.8585C220.649 36.3654 219.284 37.1339 217.665 38.8344C217.046 38.5724 216.383 38.4282 215.711 38.4093C213.16 38.4093 211.795 39.9381 210.863 41.9003C209.669 40.7066 208.565 39.9463 206.775 39.9463C203.709 39.9463 202.262 42.072 201.665 44.541C200.472 43.6908 199.54 43.0939 198.003 43.0939C195.28 43.0939 192.983 45.2196 192.983 47.8603C192.983 48.5389 193.154 49.3074 193.326 49.9043C192.051 49.1357 191.11 48.4572 189.582 48.4572C188.944 48.4452 188.311 48.5592 187.717 48.7924C187.124 49.0256 186.583 49.3735 186.124 49.8162C185.665 50.2589 185.298 50.7878 185.044 51.3725C184.79 51.9571 184.654 52.5862 184.644 53.2236C184.644 54.2455 184.987 55.014 185.412 55.9461C184.643 55.7744 183.965 55.6027 183.196 55.6027C181.324 55.6027 180.22 56.453 179.027 57.7284C177.923 56.0278 176.648 54.9159 174.432 54.9159C171.366 54.9159 169.919 57.0416 169.412 59.5107C168.472 58.8321 167.54 58.2352 166.011 58.2352C164.703 58.2134 163.439 58.7117 162.498 59.6207C161.557 60.5297 161.015 61.7751 160.991 63.0834C160.991 63.6802 161.163 64.3588 161.245 64.9556C160.288 64.3002 159.158 63.9444 157.999 63.9337C155.277 63.9337 152.979 66.0594 152.979 68.7001C152.979 69.8937 153.404 70.744 153.919 71.766C153.151 71.5943 152.391 71.3408 151.45 71.3408C148.728 71.3408 146.43 73.4665 146.43 76.1072C146.43 77.5543 147.027 78.4046 147.796 79.5982C144.983 79.8517 142.433 81.217 142.433 84.4464C142.433 86.662 143.708 87.7657 145.327 88.9594C142.604 89.5562 140.135 90.7498 140.135 93.8975C140.135 95.0911 140.479 95.8514 141.075 96.7916C137.838 98.8356 137.838 101.901 140.053 104.706C135.287 108.532 142.523 117.043 148.818 112.873C152.219 115.424 155.113 115.424 159.029 114.238C158.522 115.342 157.836 116.282 158.432 117.476C158.567 117.776 158.762 118.046 159.003 118.27C159.245 118.493 159.529 118.666 159.839 118.777C160.149 118.888 160.478 118.936 160.806 118.918C161.135 118.899 161.456 118.815 161.752 118.67C180.899 109.987 202.262 105.139 224.819 105.139C247.457 105.221 268.82 110.077 287.967 118.76L287.959 118.743ZM167.36 124.107L164.719 123.166L163.697 122.823L163.526 123.42L162.757 126.232L165.651 127.761L166.248 128.104L166.502 127.001L167.36 124.107ZM165.66 128.701L161.833 126.657L162.774 122.995C161.327 122.823 160.648 121.204 161.327 120.1C160.542 120.215 159.741 120.079 159.038 119.712C158.335 119.345 157.765 118.766 157.41 118.057C157.067 117.378 156.985 116.691 157.067 116.013C155.647 116.298 154.184 116.294 152.765 116.002C151.347 115.71 150.001 115.135 148.81 114.312C142.089 118.228 134.175 108.867 138.508 104.526C136.554 101.713 137.061 98.3123 139.53 96.4401C139.114 95.6556 138.909 94.7768 138.933 93.8893C138.933 91.4202 140.552 89.2946 142.76 88.3544C141.775 87.288 141.229 85.8895 141.231 84.4382C141.231 81.6258 143.275 79.3284 145.915 78.6499C145.5 77.8654 145.294 76.9866 145.319 76.0991C145.319 72.7797 148.041 70.139 151.45 70.139H152.047C151.835 69.2464 151.83 68.3172 152.032 67.4224C152.234 66.5275 152.638 65.6908 153.213 64.976C153.789 64.2613 154.519 63.6875 155.35 63.2985C156.181 62.9096 157.09 62.7157 158.007 62.7319C158.64 62.7264 159.271 62.8118 159.879 62.9853C159.879 59.7477 162.692 57.1152 166.011 57.1152C166.989 57.1169 167.953 57.3494 168.824 57.7938C169.674 55.4964 171.971 53.8776 174.612 53.8776C175.52 53.8762 176.417 54.0738 177.241 54.4566C178.064 54.8394 178.794 55.398 179.378 56.0932C180.519 55.1291 181.973 54.6145 183.466 54.6461H183.891C183.81 54.221 183.72 53.7959 183.72 53.3707C183.72 50.0514 186.442 47.4107 189.851 47.4107C190.702 47.4107 191.47 47.5824 192.149 47.8358C192.231 44.5983 194.961 41.9657 198.28 41.9657C199.384 41.9657 200.406 42.2191 201.256 42.7342C202.107 40.4368 204.404 38.8181 207.045 38.8181C208.492 38.8181 209.767 39.2432 210.789 40.0935C211.893 38.4747 213.765 37.371 215.981 37.371C216.578 37.371 217.085 37.4527 217.6 37.6244C218.622 36.6025 219.815 35.8339 221.262 35.2453L221.859 34.9919V31.926H217.69V26.6609H221.859V22.9982H227.558V26.6609H231.727V31.9342H227.558V35L228.154 35.2535C229.545 35.748 230.8 36.563 231.817 37.6326C232.324 37.4609 232.839 37.3791 233.436 37.3791C235.651 37.3791 237.524 38.4829 238.627 40.1016C239.649 39.3331 241.006 38.8262 242.372 38.8262C245.013 38.8262 247.31 40.445 248.16 42.7424C249.01 42.2355 250.032 41.9739 251.136 41.9739C254.537 41.9739 257.268 44.6146 257.268 47.844C257.946 47.5905 258.715 47.4189 259.565 47.4189C262.966 47.4189 265.697 50.0596 265.697 53.3789C265.697 53.804 265.697 54.2292 265.525 54.6543H265.95C267.434 54.6784 268.87 55.1865 270.038 56.1014C271.142 54.7361 272.851 53.8858 274.805 53.8858C277.445 53.8858 279.743 55.5046 280.593 57.8019C281.464 57.3576 282.428 57.1251 283.405 57.1234C286.807 57.1234 289.537 59.7641 289.537 62.9935C290.146 62.8202 290.776 62.7348 291.409 62.74C294.81 62.74 297.541 65.3808 297.541 68.7001C297.541 69.207 297.459 69.722 297.369 70.2289H297.966C301.367 70.2289 304.098 72.8697 304.098 76.189C304.098 77.1292 303.845 77.9795 303.501 78.7398C306.224 79.3366 308.186 81.7157 308.186 84.5282C308.18 86.0192 307.6 87.4508 306.567 88.5261C307.711 88.9323 308.701 89.6822 309.402 90.6731C310.103 91.6639 310.481 92.8472 310.483 94.061C310.483 95.0012 310.23 95.8514 309.886 96.6118C312.355 98.484 312.862 101.885 310.908 104.698C313.631 107.42 311.252 111.761 308.954 113.552C306.739 115.252 303.591 116.274 300.525 114.492C298.146 116.111 295.162 116.789 292.268 116.192C292.611 118.572 290.396 120.616 288.017 120.28C288.695 121.384 288.017 123.003 286.569 123.174L287.51 126.837L283.683 128.881C284.19 129.478 284.28 130.328 283.937 131.097C283.43 132.119 282.236 132.715 281.124 132.2C263.931 124.368 244.784 120.027 224.443 120.027C204.921 119.979 185.618 124.131 167.843 132.2C166.739 132.707 165.545 132.119 165.03 131.097C165.112 130.156 165.202 129.306 165.709 128.718L165.66 128.701ZM168.3 123.591L167.107 128.104L167.45 128.873C167.278 128.955 167.025 129.045 166.772 129.216C166.428 129.47 166.175 129.813 166.428 130.41C166.682 130.917 167.197 131.089 167.622 130.917C184.987 123.003 204.306 118.662 224.729 118.662C245.241 118.662 264.471 123.003 281.836 130.917C282.686 131.342 284.215 129.813 282.089 128.873L282.433 128.104L281.239 123.591L285.327 122.144L285.67 121.548C286.013 121.719 286.267 121.719 286.52 121.801C287.624 121.883 287.542 120.697 287.027 120.436C267.485 111.577 246.267 107.024 224.811 107.085C202.515 107.085 181.488 111.851 162.594 120.444C162.087 120.697 161.997 121.891 163.101 121.809C163.354 121.809 163.608 121.727 163.951 121.556L164.204 122.153L168.3 123.591ZM261.748 70.9974C256.9 59.1673 245.495 50.7382 230.345 51.5067C230.345 52.5286 230.002 53.4607 229.495 54.3191V58.317C230.002 59.1673 230.345 60.1075 230.345 61.1294C230.345 62.1514 230.002 63.1733 229.495 63.9419V66.4927C239.878 65.1273 252.134 66.1411 261.748 70.9974ZM229.405 68.0215C230.128 69.1043 230.407 70.4233 230.185 71.7059C229.962 72.9885 229.256 74.1368 228.212 74.9136C230.084 75.5104 231.531 76.8676 232.038 79.2549C235.782 80.1051 236.804 82.8276 236.804 85.7218C236.804 89.2128 235.357 92.1888 230.084 92.4422C230.681 94.3962 232.553 95.7615 234.768 95.7615C235.777 95.7697 236.762 95.4618 237.586 94.8811C238.41 94.3004 239.032 93.4761 239.363 92.5239C239.191 92.0171 239.191 91.502 239.191 90.9951C239.191 87.6758 242.004 85.035 245.405 85.035C248.806 85.035 251.618 87.6758 251.618 90.9951C251.618 92.0171 251.365 92.9491 250.85 93.8075C250.932 95.8514 252.379 97.552 254.513 98.1488C256.638 98.6557 258.764 97.8054 259.876 96.0231C254.856 94.4943 254.177 91.2567 255.109 87.8557C255.878 85.0432 257.579 82.6641 261.323 82.7459C262.002 81.3805 262.942 80.5303 264.045 80.0234C263.702 77.2109 263.105 74.5784 262.091 72.0194C252.215 66.7461 239.371 65.8059 229.413 67.253L229.405 68.0215ZM220.551 51.5067C220.551 52.4469 220.894 53.2072 221.401 53.9757V58.6604C220.894 59.4289 220.551 60.1892 220.551 61.1294C220.551 62.0696 220.894 62.83 221.401 63.5985V68.3649C220.894 69.1334 220.551 69.8937 220.551 70.8339C220.551 73.6464 222.677 74.4067 224.802 75.3469C226.928 74.4067 229.054 73.5564 229.054 70.8339C229.054 69.9837 228.8 69.1334 228.285 68.5366L228.203 63.6884C228.71 62.9199 229.054 62.1596 229.054 61.2194C229.054 60.2792 228.71 59.5188 228.203 58.7503V53.9839C228.71 53.2154 229.054 52.4551 229.054 51.5149C229.054 51.1715 228.972 50.8363 228.972 50.4111C248.97 48.9641 263.359 62.1596 265.313 80.7101C263.522 81.3887 262.844 82.1572 262.075 83.8578C258.584 83.6861 257.055 85.0514 256.205 88.1091C255.011 92.4504 257.227 94.1509 261.568 95.2546C260.293 98.067 257.652 100.021 254.251 99.1708C252.963 98.8753 251.814 98.1498 250.994 97.114C250.174 96.0781 249.731 94.7937 249.738 93.4723C250.245 92.7188 250.513 91.8297 250.507 90.9215C250.483 89.6132 249.941 88.3678 249 87.4588C248.059 86.5498 246.795 86.0515 245.487 86.0734C244.178 86.0515 242.915 86.5498 241.974 87.4588C241.032 88.3678 240.491 89.6132 240.467 90.9215C240.468 91.4415 240.554 91.9577 240.72 92.4504C240.348 93.7146 239.573 94.8227 238.514 95.6063C237.454 96.3899 236.168 96.8061 234.85 96.7916C231.359 96.7916 229.315 94.3226 228.808 91.2567C233.231 91.2567 235.79 90.153 235.79 85.64C235.79 82.4025 234.597 80.7919 231.196 80.1051C230.427 76.1072 228.302 75.8538 224.9 75.3387C221.409 75.9355 219.366 76.1072 218.605 80.1051C215.204 80.7837 214.01 82.4025 214.01 85.64C214.01 90.153 216.561 91.2567 220.992 91.2567C220.486 94.3226 218.442 96.7916 214.951 96.7916C213.636 96.7928 212.356 96.3716 211.299 95.5899C210.242 94.8083 209.464 93.7076 209.081 92.4504C209.247 91.9577 209.332 91.4415 209.334 90.9215C209.31 89.6132 208.768 88.3678 207.827 87.4588C206.886 86.5498 205.622 86.0515 204.314 86.0734C201.502 86.0734 199.294 88.199 199.294 90.9215C199.287 91.8299 199.555 92.7192 200.063 93.4723C199.981 96.1948 198.272 98.4922 195.55 99.1708C192.149 100.021 189.508 98.067 188.233 95.2546C192.574 94.1509 194.7 92.4422 193.596 88.1091C192.746 85.0432 191.217 83.6861 187.726 83.8578C186.875 82.1572 186.279 81.3887 184.488 80.7101C186.442 62.1596 200.741 48.9641 220.829 50.4111C220.674 50.7592 220.588 51.134 220.576 51.5149L220.551 51.5067ZM187.448 72.1093C186.508 74.6601 185.829 77.3009 185.576 80.1133C186.679 80.6202 187.619 81.4786 188.298 82.8358C192.124 82.754 193.833 85.1332 194.593 87.9456C195.533 91.3467 194.847 94.5842 189.827 96.1131C190.931 97.8136 193.064 98.7538 195.19 98.2387C197.316 97.7237 198.763 95.9414 198.853 93.8975C198.342 93.0489 198.076 92.0755 198.084 91.085C198.084 87.7657 200.897 85.125 204.298 85.125C207.699 85.125 210.511 87.7657 210.511 91.085C210.511 91.5919 210.43 92.107 210.34 92.6139C210.681 93.5593 211.305 94.3769 212.127 94.956C212.949 95.5351 213.929 95.8477 214.934 95.8514C217.15 95.8514 218.932 94.4861 219.619 92.5321C214.346 92.2787 212.899 89.2946 212.899 85.8117C212.899 82.8358 213.921 80.1951 217.665 79.3448C217.875 78.3529 218.337 77.4321 219.008 76.6715C219.678 75.9109 220.534 75.3364 221.491 75.0035C220.869 74.5163 220.362 73.8968 220.009 73.1898C219.655 72.4828 219.464 71.706 219.447 70.9157C219.447 69.8937 219.791 68.8718 220.298 68.1033V67.253C210.168 65.8877 197.316 66.836 187.448 72.1093ZM219.366 51.5149C204.134 50.6646 192.811 59.1754 187.873 71.0056C197.406 66.2392 209.743 65.0456 220.126 66.4927V63.9337C219.619 63.0834 219.276 62.1432 219.276 61.1213C219.276 60.0993 219.619 59.0773 220.126 58.3088V54.3109C219.642 53.4509 219.378 52.4849 219.357 51.4985L219.366 51.5149ZM281.321 105.646L281.664 105.392C282.343 105.899 282.939 106.243 283.79 106.496C284.133 106.578 284.558 106.578 284.893 106.668C285.319 108.794 286.087 110.494 287.616 112.031L286.937 112.971C283.275 111.415 279.555 109.997 275.786 108.72L275.957 107.616C277.83 107.445 279.784 106.766 281.321 105.662V105.646ZM281.664 106.75C280.642 107.428 279.448 107.943 278.263 108.278C280.637 109.134 282.992 110.042 285.327 111.001C284.654 109.988 284.164 108.864 283.88 107.682L283.536 107.6C282.858 107.428 282.261 107.093 281.664 106.75ZM224.214 92.3686H225.407C225.832 95.4345 227.876 98.067 230.681 99.3506L230.427 100.454C228.555 100.373 226.683 100.373 224.811 100.373C222.938 100.373 221.066 100.373 219.194 100.454L218.94 99.3506C221.753 97.9853 223.789 95.4345 224.214 92.3686ZM224.811 94.666C224.132 96.4564 222.938 97.9853 221.319 99.1789C222.513 99.1789 223.617 99.0972 224.811 99.0972C225.975 99.0819 227.139 99.1091 228.302 99.1789C226.747 98.0184 225.54 96.4631 224.811 94.666ZM162.765 112.881L162.087 111.941C163.616 110.322 164.384 108.704 164.809 106.578C165.96 106.532 167.065 106.113 167.957 105.384C169.747 106.66 171.53 107.428 173.745 107.51L173.917 108.614C170.148 109.89 166.428 111.309 162.765 112.865V112.881ZM164.384 111.009C166.719 110.05 169.074 109.143 171.448 108.287C170.254 107.943 169.069 107.436 168.047 106.758C167.54 107.101 166.853 107.355 166.256 107.526L165.913 107.608C165.488 108.802 165.063 109.987 164.384 111.009ZM192.042 102.58V103.684C188.436 104.433 184.858 105.314 181.316 106.324L180.809 105.303C183.106 103.349 184.472 100.364 184.047 97.2985L185.15 97.0451C186.344 99.9393 188.977 101.983 192.042 102.58ZM189.663 103.005C187.9 102.264 186.371 101.057 185.24 99.5141C184.987 101.386 184.3 103.177 183.115 104.624C185.24 104.027 187.448 103.52 189.663 103.005ZM199.621 102.237L199.196 101.215C201.322 99.8493 202.687 98.067 203.537 95.7697H204.216C204.895 95.7697 205.41 95.598 206.088 95.4263C207.535 97.4702 209.236 98.9173 211.705 99.5959L211.623 100.7C207.611 101.115 203.609 101.624 199.621 102.228V102.237ZM204.388 96.9633C203.791 98.4104 202.859 99.6858 201.665 100.79L209.236 99.8493C207.826 99.1144 206.604 98.0655 205.663 96.7835C205.238 96.8652 204.813 96.9552 204.388 96.9552V96.9633ZM238.006 100.79L237.924 99.6858C240.21 98.9638 242.188 97.4956 243.541 95.5162C244.22 95.6879 244.735 95.8596 245.413 95.8596H246.092C246.942 98.157 248.307 99.9474 250.433 101.305L250.008 102.327C246.092 101.648 242.094 101.125 238.006 100.79ZM245.241 96.9633C244.838 96.9543 244.437 96.8966 244.048 96.7916C243.108 98.067 241.832 99.089 240.385 99.8575C242.936 100.111 245.495 100.364 247.956 100.798C246.864 99.7787 245.969 98.5677 245.315 97.2249L245.241 96.9633ZM268.902 105.303L268.395 106.324C264.904 105.303 261.331 104.452 257.668 103.684V102.58C260.644 101.983 263.285 99.9393 264.479 97.135L265.582 97.3885C265.417 98.881 265.635 100.391 266.216 101.776C266.797 103.161 267.721 104.374 268.902 105.303ZM266.604 104.624C265.411 103.177 264.65 101.386 264.479 99.5141C263.375 101.043 261.756 102.237 260.056 103.005L266.613 104.624H266.604ZM268.305 85.1332C265.664 84.4546 262.942 85.9834 262.263 88.5342C261.585 91.085 263.203 93.7258 265.836 94.3226C268.477 95.0012 271.199 93.4723 271.878 90.9215C272.556 88.3707 270.938 85.73 268.305 85.1332ZM268.477 84.3646C271.543 85.1332 273.415 88.1091 272.646 91.085C271.878 94.061 268.73 95.8514 265.664 95.0829C264.946 94.9204 264.268 94.6168 263.669 94.1898C263.069 93.7627 262.561 93.2207 262.173 92.5954C261.785 91.97 261.525 91.2737 261.409 90.5471C261.292 89.8204 261.322 89.0778 261.495 88.3625C262.263 85.3866 265.411 83.5961 268.477 84.3646ZM272.818 75.772C271.289 75.772 270.095 76.9657 270.095 78.4128C270.095 79.8599 271.371 81.0535 272.818 81.0535C274.347 81.0535 275.54 79.8599 275.54 78.4128C275.544 78.058 275.476 77.7062 275.339 77.3788C275.202 77.0514 275.001 76.7552 274.746 76.5082C274.491 76.2611 274.189 76.0685 273.858 75.942C273.526 75.8154 273.172 75.7576 272.818 75.772ZM272.818 75.0035C274.772 75.0035 276.391 76.5324 276.391 78.4046C276.391 80.2768 274.772 81.8057 272.818 81.8057C270.864 81.8057 269.245 80.2768 269.245 78.4046C269.245 76.5324 270.864 75.0035 272.818 75.0035ZM270.521 66.2392C268.992 66.2392 267.798 67.4329 267.798 68.88C267.798 70.327 269.074 71.5207 270.521 71.5207C272.049 71.5207 273.243 70.327 273.243 68.88C273.243 67.4329 272.049 66.2392 270.521 66.2392ZM270.521 65.4707C272.475 65.4707 274.093 66.9996 274.093 68.8718C274.093 70.744 272.475 72.2728 270.521 72.2728C268.567 72.2728 266.948 70.744 266.948 68.8718C266.948 66.9996 268.567 65.4707 270.521 65.4707ZM304.564 91.2567C303.035 91.2567 301.842 92.4504 301.842 93.8975C301.842 95.3446 303.035 96.5382 304.564 96.5382C306.093 96.5382 307.287 95.3446 307.287 93.8975C307.287 92.4504 306.093 91.2567 304.564 91.2567ZM304.564 90.4882C306.518 90.4882 308.137 92.0171 308.137 93.8893C308.137 95.7615 306.518 97.2904 304.564 97.2904C302.61 97.2904 300.991 95.7615 300.991 93.8893C300.991 92.0171 302.61 90.4882 304.564 90.4882ZM302.267 81.8057C300.738 81.8057 299.544 82.9993 299.544 84.4464C299.544 85.8935 300.738 87.0871 302.267 87.0871C303.796 87.0871 304.989 85.8935 304.989 84.4464C304.989 82.9993 303.796 81.8057 302.267 81.8057ZM302.267 81.0372C304.221 81.0372 305.839 82.566 305.839 84.4382C305.839 86.3105 304.221 87.8393 302.267 87.8393C300.313 87.8393 298.694 86.3105 298.694 84.4382C298.776 82.566 300.313 81.0372 302.267 81.0372ZM298.179 73.4665C296.65 73.4665 295.456 74.6601 295.456 76.1072C295.456 77.5543 296.732 78.748 298.179 78.748C299.708 78.748 300.901 77.5543 300.901 76.1072C300.901 74.6601 299.708 73.4665 298.179 73.4665ZM298.179 72.698C300.133 72.698 301.752 74.2268 301.752 76.0991C301.752 77.9713 300.133 79.5001 298.179 79.5001C296.225 79.5001 294.606 77.9713 294.606 76.0991C294.606 74.2268 296.225 72.698 298.179 72.698ZM291.622 66.0594C290.093 66.0594 288.899 67.253 288.899 68.7001C288.899 70.1472 290.093 71.3408 291.622 71.3408C293.151 71.3408 294.344 70.1472 294.344 68.7001C294.344 67.253 293.151 66.0594 291.622 66.0594ZM291.622 65.2908C293.576 65.2908 295.195 66.8197 295.195 68.6919C295.195 70.5641 293.666 72.1093 291.622 72.1093C289.668 72.1093 288.049 70.5805 288.049 68.7083C288.131 66.836 289.668 65.3072 291.622 65.3072V65.2908ZM283.618 60.4427C282.089 60.4427 280.896 61.6363 280.896 63.0834C280.896 64.5305 282.089 65.7241 283.618 65.7241C285.147 65.7241 286.34 64.5305 286.34 63.0834C286.34 61.6363 285.147 60.4427 283.618 60.4427ZM283.618 59.6742C285.572 59.6742 287.191 61.203 287.191 63.0752C287.191 64.9475 285.572 66.4763 283.618 66.4763C281.664 66.4763 280.045 64.9475 280.045 63.0752C280.045 61.203 281.664 59.6742 283.618 59.6742ZM274.935 57.1234C273.407 57.1234 272.213 58.317 272.213 59.7641C272.213 61.2112 273.407 62.4048 274.935 62.4048C276.464 62.4048 277.658 61.2112 277.658 59.7641C277.74 58.317 276.464 57.1234 274.935 57.1234ZM274.935 56.3548C276.889 56.3548 278.508 57.8837 278.508 59.7559C278.508 61.6281 276.889 63.157 274.935 63.157C272.981 63.157 271.363 61.6281 271.363 59.7559C271.444 57.8837 272.981 56.3548 274.935 56.3548ZM266.171 57.8837C264.642 57.8837 263.449 59.0773 263.449 60.5244C263.449 61.9715 264.642 63.1652 266.171 63.1652C267.7 63.1652 268.894 61.9715 268.894 60.5244C268.894 59.0773 267.7 57.8837 266.171 57.8837ZM266.171 57.1152C268.125 57.1152 269.744 58.644 269.744 60.5163C269.744 62.3885 268.133 63.9337 266.171 63.9337C264.209 63.9337 262.598 62.4048 262.598 60.5326C262.598 58.6604 264.217 57.1315 266.171 57.1315V57.1152ZM259.704 50.6482C258.175 50.6482 256.982 51.8419 256.982 53.289C256.982 54.7361 258.175 55.9297 259.704 55.9297C261.233 55.9297 262.427 54.7361 262.427 53.289C262.508 51.8419 261.233 50.6482 259.704 50.6482ZM259.704 49.9697C261.658 49.9697 263.277 51.4985 263.277 53.3707C263.277 55.243 261.658 56.7718 259.704 56.7718C257.75 56.7718 256.131 55.243 256.131 53.3707C256.213 51.4985 257.75 49.9697 259.704 49.9697ZM251.275 45.285C249.746 45.285 248.553 46.4787 248.553 47.9257C248.553 49.3728 249.746 50.5665 251.275 50.5665C252.804 50.5665 253.998 49.3728 253.998 47.9257C253.998 46.4787 252.804 45.285 251.275 45.285ZM251.275 44.5165C253.229 44.5165 254.848 46.0453 254.848 47.9176C254.848 49.7898 253.229 51.3186 251.275 51.3186C249.321 51.3186 247.702 49.7898 247.702 47.9176C247.784 46.0453 249.321 44.5165 251.275 44.5165ZM242.511 42.1374C240.982 42.1374 239.788 43.331 239.788 44.7781C239.788 46.2252 240.982 47.4189 242.511 47.4189C244.04 47.4189 245.233 46.2252 245.233 44.7781C245.315 43.331 244.04 42.1374 242.511 42.1374ZM242.511 41.3689C244.465 41.3689 246.084 42.8977 246.084 44.7699C246.084 46.6422 244.465 48.171 242.511 48.171C240.557 48.171 238.938 46.6422 238.938 44.7699C239.02 42.8977 240.557 41.3689 242.511 41.3689ZM233.575 40.6004C232.046 40.6004 230.852 41.794 230.852 43.2411C230.852 44.6882 232.046 45.8818 233.575 45.8818C235.104 45.8818 236.297 44.6882 236.297 43.2411C236.297 41.794 235.104 40.6004 233.575 40.6004ZM233.575 39.8318C235.529 39.8318 237.148 41.3607 237.148 43.2329C237.148 45.1051 235.529 46.634 233.575 46.634C233.122 46.6416 232.672 46.5594 232.251 46.3923C231.83 46.2252 231.446 45.9764 231.121 45.6602C230.797 45.3441 230.538 44.9668 230.36 44.5502C230.182 44.1337 230.088 43.6859 230.084 43.2329C230.002 41.3607 231.613 39.8318 233.575 39.8318ZM148.556 110.47C150.935 109.194 151.794 106.3 150.51 104.003C149.848 102.883 148.779 102.063 147.527 101.714C146.274 101.365 144.935 101.514 143.79 102.13C141.411 103.406 140.552 106.3 141.836 108.597C143.119 110.895 146.177 111.745 148.556 110.47ZM148.9 111.148C146.087 112.595 142.686 111.655 141.157 108.932C140.795 108.295 140.567 107.59 140.487 106.861C140.407 106.132 140.477 105.394 140.692 104.693C140.907 103.992 141.263 103.342 141.738 102.783C142.213 102.225 142.797 101.769 143.455 101.444C146.267 99.9965 149.75 100.937 151.197 103.659C151.558 104.297 151.785 105.002 151.864 105.731C151.943 106.46 151.873 107.197 151.659 107.898C151.444 108.598 151.088 109.248 150.614 109.807C150.139 110.366 149.556 110.822 148.9 111.148ZM183.793 94.2981C186.434 93.6195 188.045 91.0605 187.366 88.5097C186.687 85.9589 183.965 84.4219 181.324 85.1086C178.683 85.7954 177.073 88.3462 177.751 90.897C178.121 92.1368 178.957 93.1846 180.085 93.8192C181.212 94.4538 182.542 94.6255 183.793 94.2981ZM184.047 95.0666C182.591 95.4486 181.044 95.2436 179.738 94.4959C178.432 93.7481 177.472 92.5174 177.065 91.0687C176.881 90.353 176.844 89.6076 176.956 88.8773C177.068 88.147 177.326 87.4468 177.716 86.819C178.105 86.1912 178.618 85.6486 179.222 85.224C179.827 84.7994 180.511 84.5015 181.234 84.3483C184.3 83.5798 187.448 85.3703 188.216 88.3462C188.985 91.3221 187.113 94.3062 184.047 95.0666ZM224.811 89.3027C227.533 89.3027 229.749 87.1771 229.749 84.5363C229.738 83.8989 229.602 83.2699 229.348 82.6852C229.094 82.1005 228.727 81.5717 228.268 81.129C227.809 80.6862 227.268 80.3383 226.675 80.1051C226.081 79.8719 225.448 79.758 224.811 79.7699C224.173 79.758 223.54 79.8719 222.946 80.1051C222.353 80.3383 221.812 80.6862 221.353 81.129C220.894 81.5717 220.527 82.1005 220.273 82.6852C220.019 83.2699 219.883 83.8989 219.872 84.5363C219.872 87.1771 222.088 89.3027 224.811 89.3027ZM224.811 90.0712C224.073 90.0821 223.34 89.9475 222.655 89.6752C221.969 89.4028 221.344 88.9981 220.815 88.4842C220.286 87.9702 219.863 87.357 219.571 86.6796C219.279 86.0022 219.123 85.2739 219.112 84.5363C219.112 81.4705 221.663 79.0014 224.811 79.0014C227.958 79.0014 230.509 81.4705 230.509 84.5363C230.591 87.6022 227.958 90.0712 224.811 90.0712ZM176.893 81.0535C178.422 81.0535 179.615 79.8599 179.615 78.4128C179.615 76.9657 178.422 75.772 176.893 75.772C175.364 75.772 174.17 76.9657 174.17 78.4128C174.089 79.8599 175.364 81.0535 176.893 81.0535ZM176.893 81.822C176.44 81.8296 175.99 81.7474 175.569 81.5803C175.148 81.4132 174.764 81.1644 174.439 80.8482C174.115 80.5321 173.856 80.1549 173.678 79.7383C173.5 79.3217 173.406 78.874 173.402 78.4209C173.402 76.5487 175.021 75.0199 176.893 75.0199C178.847 75.0199 180.466 76.5487 180.466 78.4209C180.384 80.2932 178.847 81.822 176.893 81.822ZM179.19 71.5207C180.719 71.5207 181.913 70.327 181.913 68.88C181.913 67.4329 180.719 66.2392 179.19 66.2392C177.661 66.2392 176.468 67.4329 176.468 68.88C176.386 70.327 177.661 71.5207 179.19 71.5207ZM179.19 72.2892C177.236 72.2892 175.618 70.7604 175.618 68.8881C175.618 67.0159 177.236 65.4871 179.19 65.4871C181.144 65.4871 182.763 67.0159 182.763 68.8881C182.681 70.7604 181.063 72.2892 179.19 72.2892ZM145.065 96.62C146.594 96.62 147.788 95.4263 147.788 93.9792C147.788 92.5321 146.594 91.3385 145.065 91.3385C143.536 91.3385 142.343 92.5321 142.343 93.9792C142.343 95.4263 143.536 96.62 145.065 96.62ZM145.065 97.3885C143.111 97.3885 141.492 95.8596 141.492 93.9874C141.492 92.1152 143.111 90.5863 145.065 90.5863C145.518 90.5788 145.968 90.6609 146.389 90.828C146.81 90.9951 147.194 91.2439 147.519 91.5601C147.843 91.8762 148.102 92.2535 148.28 92.6701C148.458 93.0867 148.552 93.5344 148.556 93.9874C148.638 95.8596 147.027 97.3885 145.065 97.3885ZM147.363 87.0871C148.891 87.0871 150.085 85.8935 150.085 84.4464C150.064 83.7386 149.768 83.067 149.259 82.5739C148.751 82.0809 148.071 81.8053 147.363 81.8057C145.834 81.8057 144.64 82.9993 144.64 84.4464C144.64 85.8935 145.834 87.0871 147.363 87.0871ZM147.363 87.8557C145.409 87.8557 143.79 86.3268 143.79 84.4546C143.79 82.5824 145.409 81.0535 147.363 81.0535C149.316 81.0535 150.935 82.5824 150.935 84.4546C150.935 86.3268 149.316 87.8557 147.363 87.8557ZM151.45 78.748C152.979 78.748 154.173 77.5543 154.173 76.1072C154.173 74.6601 152.979 73.4665 151.45 73.4665C149.921 73.4665 148.728 74.6601 148.728 76.1072C148.728 77.5543 150.003 78.748 151.45 78.748ZM151.45 79.5165C149.496 79.5165 147.878 77.9876 147.878 76.1154C147.878 74.2432 149.496 72.7143 151.45 72.7143C153.404 72.7143 155.023 74.2432 155.023 76.1154C155.023 77.9876 153.404 79.5165 151.45 79.5165ZM158.007 71.349C159.536 71.349 160.73 70.1554 160.73 68.7083C160.73 67.2612 159.536 66.0675 158.007 66.0675C156.478 66.0675 155.285 67.2612 155.285 68.7083C155.285 70.1554 156.478 71.349 158.007 71.349ZM158.007 72.1175C156.053 72.1175 154.434 70.5887 154.434 68.7164C154.434 66.8442 156.053 65.3154 158.007 65.3154C159.961 65.3154 161.58 66.8442 161.58 68.7164C161.58 70.5887 159.961 72.1093 157.999 72.1093L158.007 72.1175ZM166.011 65.7323C167.54 65.7323 168.734 64.5387 168.734 63.0916C168.734 61.6445 167.54 60.4508 166.011 60.4508C164.482 60.4508 163.289 61.6445 163.289 63.0916C163.289 64.5387 164.564 65.7323 166.011 65.7323ZM166.011 66.5008C164.057 66.5008 162.438 64.972 162.438 63.0998C162.438 61.2275 164.057 59.6987 166.011 59.6987C167.965 59.6987 169.584 61.2275 169.584 63.0998C169.584 64.972 167.965 66.5008 166.011 66.5008ZM174.694 62.5029C176.223 62.5029 177.416 61.3093 177.416 59.8622C177.416 58.4151 176.223 57.2215 174.694 57.2215C173.165 57.2215 171.971 58.4151 171.971 59.8622C171.971 61.3093 173.165 62.5029 174.694 62.5029ZM174.694 63.2715C172.74 63.2715 171.121 61.7426 171.121 59.8704C171.121 57.9982 172.74 56.4693 174.694 56.4693C176.648 56.4693 178.266 57.9982 178.266 59.8704C178.185 61.7426 176.648 63.2715 174.694 63.2715ZM183.458 63.1897C184.987 63.1897 186.181 61.996 186.181 60.549C186.181 59.1019 184.987 57.9082 183.458 57.9082C181.929 57.9082 180.736 59.1019 180.736 60.549C180.736 61.996 181.929 63.1897 183.458 63.1897ZM183.458 63.9582C181.504 63.9582 179.885 62.4294 179.885 60.5571C179.885 58.6849 181.504 57.1561 183.458 57.1561C185.412 57.1561 187.031 58.6849 187.031 60.5571C187.031 62.4294 185.404 63.9337 183.45 63.9337L183.458 63.9582ZM189.925 56.0442C191.454 56.0442 192.647 54.8505 192.647 53.4034C192.647 51.9563 191.454 50.7627 189.925 50.7627C188.396 50.7627 187.202 51.9563 187.202 53.4034C187.202 54.8505 188.396 56.0442 189.925 56.0442ZM189.925 56.8127C187.971 56.8127 186.352 55.2838 186.352 53.4116C186.352 51.5394 187.971 50.0105 189.925 50.0105C191.879 50.0105 193.498 51.5394 193.498 53.4116C193.498 55.2838 191.879 56.8127 189.925 56.8127ZM198.354 50.5992C199.883 50.5992 201.077 49.4055 201.077 47.9584C201.077 46.5114 199.883 45.3177 198.354 45.3177C196.825 45.3177 195.632 46.5114 195.632 47.9584C195.632 49.4055 196.825 50.5992 198.354 50.5992ZM198.354 51.3677C196.4 51.3677 194.781 49.8388 194.781 47.9666C194.781 46.0944 196.4 44.5656 198.354 44.5656C200.308 44.5656 201.927 46.0944 201.927 47.9666C201.927 49.8388 200.308 51.3677 198.354 51.3677ZM207.118 47.4516C208.647 47.4516 209.841 46.2579 209.841 44.8108C209.841 43.3637 208.647 42.1701 207.118 42.1701C205.59 42.1701 204.396 43.3637 204.396 44.8108C204.396 46.2579 205.59 47.4516 207.118 47.4516ZM207.118 48.2201C205.164 48.2201 203.546 46.6912 203.546 44.819C203.546 42.9468 205.164 41.4179 207.118 41.4179C209.072 41.4179 210.691 42.9468 210.691 44.819C210.691 46.6912 209.072 48.2201 207.118 48.2201ZM224.811 73.4665C226.339 73.4665 227.533 72.2728 227.533 70.8258C227.533 69.3787 226.339 68.185 224.811 68.185C223.282 68.185 222.088 69.3787 222.088 70.8258C222.088 72.2728 223.282 73.4665 224.811 73.4665ZM224.811 74.235C222.857 74.235 221.238 72.7062 221.238 70.8339C221.238 68.9617 222.857 67.4329 224.811 67.4329C226.764 67.4329 228.383 68.9617 228.383 70.8339C228.383 72.7062 226.764 74.235 224.811 74.235ZM224.811 63.8519C226.339 63.8519 227.533 62.6583 227.533 61.2112C227.533 59.7641 226.339 58.5704 224.811 58.5704C223.282 58.5704 222.088 59.7641 222.088 61.2112C222.088 62.6583 223.282 63.8519 224.811 63.8519ZM224.811 64.6204C222.857 64.6204 221.238 63.0916 221.238 61.2194C221.238 59.3471 222.857 57.8183 224.811 57.8183C226.764 57.8183 228.383 59.3471 228.383 61.2194C228.383 63.0916 226.764 64.6204 224.811 64.6204ZM224.811 54.2374C226.339 54.2374 227.533 53.0437 227.533 51.5966C227.533 50.1495 226.339 48.9559 224.811 48.9559C223.282 48.9559 222.088 50.1495 222.088 51.5966C222.088 53.0437 223.282 54.2374 224.811 54.2374ZM224.811 54.9159C222.857 54.9159 221.238 53.3871 221.238 51.5149C221.238 49.6426 222.857 48.1138 224.811 48.1138C226.764 48.1138 228.383 49.6426 228.383 51.5149C228.383 53.4688 226.764 54.9159 224.811 54.9159ZM216.128 45.8982C217.657 45.8982 218.85 44.7045 218.85 43.2574C218.829 42.5497 218.533 41.878 218.025 41.385C217.516 40.892 216.836 40.6164 216.128 40.6167C214.599 40.6167 213.316 41.8104 213.316 43.2574C213.316 44.7863 214.591 45.8982 216.128 45.8982ZM216.128 46.7485C214.174 46.7485 212.555 45.2196 212.555 43.3474C212.555 41.4752 214.174 39.9463 216.128 39.9463C218.082 39.9463 219.701 41.4752 219.701 43.3474C219.619 45.2196 218.082 46.7485 216.128 46.7485ZM305.831 102.147C304.685 101.537 303.348 101.391 302.097 101.74C300.846 102.088 299.777 102.904 299.111 104.019C297.835 106.316 298.686 109.21 301.065 110.486C302.212 111.094 303.548 111.238 304.798 110.89C306.049 110.541 307.118 109.727 307.785 108.614C308.11 108.067 308.317 107.46 308.394 106.829C308.471 106.198 308.416 105.558 308.232 104.95C308.049 104.342 307.74 103.778 307.327 103.296C306.913 102.813 306.404 102.422 305.831 102.147ZM306.256 101.468C309.069 102.915 310.001 106.316 308.472 108.957C307.706 110.267 306.462 111.23 305.002 111.643C303.542 112.056 301.978 111.887 300.64 111.173C299.987 110.843 299.408 110.383 298.939 109.821C298.471 109.26 298.122 108.608 297.914 107.907C297.707 107.205 297.645 106.469 297.733 105.743C297.82 105.016 298.056 104.316 298.424 103.684C299.19 102.374 300.434 101.411 301.894 100.998C303.354 100.585 304.918 100.753 306.256 101.468ZM155.53 103.34C154.761 101.468 153.829 100.021 151.786 99.4242C153.151 82.9993 157.484 75.5104 172.895 68.0215C174.26 68.5284 174.17 68.7001 174.17 68.8718C174.17 71.0874 175.446 72.1911 177.065 73.3847C174.342 73.9816 171.873 75.1752 171.873 78.4046C171.873 81.0453 173.745 82.4924 176.124 83.171C175.356 84.6181 175.184 85.2149 175.356 86.9154C172.208 88.3625 171.53 90.3165 172.29 93.3824C173.484 97.7237 176.206 98.2306 180.548 97.1268C180.781 98.4784 180.548 99.8692 179.887 101.071C179.225 102.272 178.174 103.213 176.907 103.738C175.64 104.263 174.232 104.341 172.914 103.96C171.597 103.579 170.448 102.76 169.658 101.64C169.658 101.215 169.576 100.871 169.486 100.446C168.807 97.9771 166.085 96.4483 163.354 97.0451C160.713 97.7237 159.013 100.364 159.691 102.915C159.945 103.765 160.37 104.444 160.967 105.041C161.22 107.51 160.117 109.726 157.901 110.911C155.604 112.105 153.813 111.59 151.606 110.829C155.268 109.129 157.149 107.51 155.53 103.34ZM155.783 85.5501C154.255 89.2128 153.486 93.4641 152.971 98.6557C154.761 99.4242 155.947 101.206 156.634 102.997C157.737 105.719 157.737 108.532 154.68 110.658C155.602 110.758 156.531 110.548 157.32 110.061C159.021 109.121 159.961 107.42 159.871 105.638C159.284 104.943 158.849 104.133 158.596 103.259C157.746 100.021 159.79 96.7916 163.019 96.0231C164.585 95.6243 166.245 95.8433 167.654 96.6348C169.064 97.4262 170.115 98.7294 170.59 100.274C170.671 100.618 170.761 100.953 170.761 101.296C173.574 104.616 179.19 102.915 179.444 98.5739C174.252 99.5959 172.037 97.0451 171.186 93.6358C170.418 90.8234 170.761 87.9374 174.081 86.2287C174.051 85.4214 174.167 84.6155 174.424 83.8496C173.518 83.4746 172.718 82.8824 172.095 82.1253C171.472 81.3682 171.045 80.4695 170.851 79.5083C167.875 80.1051 164.556 80.9554 161.833 82.0591C159.193 82.9993 157.231 84.3565 155.783 85.5501ZM172.977 69.2152C164.384 73.5564 159.356 77.9795 156.38 84.1112C157.949 82.9714 159.669 82.0551 161.49 81.3887C164.302 80.285 167.704 79.4347 170.679 78.8379V78.4046C170.679 75.9355 172.298 73.7199 174.506 72.8697C173.593 71.8589 173.054 70.5747 172.977 69.2152ZM291.704 111.001C290.66 110.446 289.808 109.589 289.261 108.541C288.714 107.493 288.496 106.304 288.638 105.131C289.235 104.534 289.66 103.855 289.913 103.005C290.066 102.385 290.094 101.741 289.997 101.11C289.899 100.479 289.678 99.8732 289.347 99.3278C289.015 98.7823 288.578 98.3078 288.062 97.9315C287.546 97.5552 286.961 97.2846 286.34 97.135C285.612 96.9431 284.849 96.9177 284.109 97.061C283.368 97.2042 282.67 97.5122 282.065 97.9622C281.461 98.4123 280.965 98.9927 280.615 99.6605C280.266 100.328 280.071 101.066 280.045 101.82C276.219 106.668 268.469 104.117 269.155 97.3067C273.497 98.3287 276.219 97.9035 277.413 93.5623C278.263 90.4964 277.494 88.5424 274.437 87.0953C274.624 85.7958 274.352 84.4715 273.668 83.3509C276.047 82.6723 277.92 81.2252 277.92 78.5845C277.92 75.3469 275.451 74.1614 272.728 73.6464C274.347 72.371 275.704 71.349 275.704 69.1334C275.704 68.9617 275.704 68.7083 275.622 68.5366L276.726 68.1932C292.047 75.6003 296.724 83.3427 298.089 99.5959C295.963 100.193 295.023 101.64 294.344 103.512C292.726 107.682 294.598 109.3 298.261 111.083C295.792 111.68 294.009 112.186 291.704 111.001ZM278.852 79.5083C278.426 81.4623 277.061 83.0811 275.189 83.8496C275.481 84.6067 275.598 85.4199 275.532 86.2287C278.933 87.9292 279.195 90.8234 278.426 93.6358C277.486 97.0369 275.361 99.5959 270.169 98.5739C270.422 102.915 276.039 104.616 278.852 101.296C278.852 100.953 278.933 100.618 279.023 100.274C279.874 97.1268 283.275 95.1647 286.512 96.0231C289.832 96.8734 291.785 100.111 290.935 103.259C290.682 104.109 290.257 104.959 289.66 105.556C289.63 106.238 289.745 106.918 289.998 107.552C290.251 108.187 290.635 108.76 291.126 109.234C291.617 109.709 292.202 110.074 292.845 110.305C293.487 110.536 294.171 110.629 294.851 110.576C291.785 108.532 291.785 105.728 292.897 102.915C293.576 101.125 294.688 99.3425 296.56 98.5739C296.135 93.3824 295.285 89.1311 293.748 85.4684C291.943 83.9748 289.901 82.7947 287.706 81.9774C285.155 81.0372 281.746 80.1869 278.852 79.5083ZM276.636 69.0435C276.554 70.4906 275.957 71.8559 275.017 72.7879C276.161 73.1942 277.151 73.9441 277.852 74.9349C278.553 75.9258 278.931 77.1091 278.933 78.3228V78.748C281.999 79.4265 285.229 80.1951 288.123 81.2988C290.167 82.0673 291.867 82.9993 293.233 84.0213C290.257 77.9795 285.229 73.5564 276.636 69.0435ZM258.764 120.28L250.081 114.41L260.636 113.306L269.319 119.177L258.764 120.28ZM242.421 116.879C241.968 116.887 241.518 116.805 241.097 116.638C240.676 116.47 240.292 116.222 239.967 115.905C239.643 115.589 239.384 115.212 239.206 114.795C239.028 114.379 238.934 113.931 238.93 113.478C238.93 111.606 240.549 110.077 242.421 110.077C244.375 110.077 245.994 111.606 245.994 113.478C245.994 115.35 244.375 116.879 242.421 116.879ZM242.421 116.111C243.95 116.111 245.143 114.917 245.143 113.47C245.143 112.023 243.95 110.829 242.421 110.829C240.892 110.829 239.698 112.023 239.698 113.47C239.698 114.917 240.974 116.111 242.421 116.111ZM173.14 124.965C174.669 124.965 175.863 123.771 175.863 122.324C175.863 120.877 174.669 119.683 173.14 119.683C171.612 119.683 170.418 120.877 170.418 122.324C170.418 123.771 171.612 124.965 173.14 124.965ZM173.14 125.733C171.186 125.733 169.568 124.205 169.568 122.332C169.568 120.46 171.186 118.931 173.14 118.931C175.094 118.931 176.713 120.46 176.713 122.332C176.631 124.205 175.094 125.733 173.14 125.733ZM207.184 116.119C208.713 116.119 209.906 114.925 209.906 113.478C209.885 112.77 209.589 112.099 209.081 111.606C208.572 111.113 207.892 110.837 207.184 110.837C205.655 110.837 204.461 112.031 204.461 113.478C204.38 114.925 205.655 116.119 207.184 116.119ZM207.184 116.887C205.23 116.887 203.611 115.359 203.611 113.486C203.611 111.614 205.23 110.085 207.184 110.085C209.138 110.085 210.757 111.614 210.757 113.486C210.675 115.359 209.138 116.887 207.184 116.887ZM276.464 124.973C277.993 124.973 279.187 123.779 279.187 122.332C279.187 120.885 277.993 119.692 276.464 119.692C274.935 119.692 273.742 120.885 273.742 122.332C273.742 123.779 274.935 124.973 276.464 124.973ZM276.464 125.742C274.51 125.742 272.892 124.213 272.892 122.341C272.892 120.468 274.51 118.939 276.464 118.939C278.418 118.939 280.037 120.468 280.037 122.341C280.037 124.213 278.418 125.742 276.464 125.742ZM190.849 120.297L180.294 119.193L188.977 113.323L199.531 114.427L190.849 120.297ZM233.657 112.554L224.811 109.382L216.046 112.53L224.811 115.686L233.657 112.554ZM235.872 112.554L224.811 116.536L213.749 112.538L224.811 108.532L235.872 112.554Z" fill="#004996"/>
</g>
<defs>
<clipPath id="clip0_29_110">
<rect width="261.621" height="351.664" fill="white" transform="translate(94 23)"/>
</clipPath>
</defs>
</svg>
