<svg width="450" height="450" viewBox="0 0 450 450" fill="none" xmlns="http://www.w3.org/2000/svg">
<circle cx="225" cy="225" r="225" fill="white"/>
<g clip-path="url(#clip0_29_43)">
<path fill-rule="evenodd" clip-rule="evenodd" d="M225.478 408.358C166.823 388.617 122.456 350.995 101.779 299.664H165.674C161.582 293.849 158.136 287.674 155.48 281.069H95.5333C93.8819 275.04 92.5183 268.867 91.5124 262.548H149.952C148.875 256.589 148.229 250.416 148.157 243.953H89.4315C89.1436 239.789 89 235.481 89 231.175C89 229.235 89.0725 227.297 89.0725 225.431H148.875C149.234 221.195 149.808 217.104 150.526 213.083C150.886 211 151.317 208.917 151.747 206.836H89.7898C91.6573 178.191 97.1847 154.357 107.165 130.162C140.332 129.372 151.245 123.915 164.67 117.168C179.89 109.558 193.028 101.374 225.479 101.374C257.931 101.374 271.067 109.558 286.287 117.168C299.713 123.915 310.625 129.372 343.793 130.162C353.771 154.357 359.302 178.191 361.166 206.836H299.209C299.641 208.917 300.071 211 300.43 213.083C301.148 217.104 301.723 221.195 302.081 225.431H361.885C361.885 227.297 361.957 229.236 361.957 231.175C361.957 235.481 361.812 239.789 361.525 243.953H302.799C302.729 250.416 302.08 256.589 301.004 262.548H359.442C358.436 268.867 357.075 275.04 355.423 281.069H295.477C292.821 287.674 289.372 293.849 285.282 299.664H349.177C328.502 350.995 284.133 388.617 225.478 408.358Z" fill="#008057"/>
<path fill-rule="evenodd" clip-rule="evenodd" d="M355.423 281.069C353.628 287.458 351.545 293.635 349.178 299.664H285.283C289.374 293.849 292.821 287.674 295.477 281.069H355.423Z" fill="white"/>
<path fill-rule="evenodd" clip-rule="evenodd" d="M302.8 243.953C302.729 250.416 302.081 256.589 301.004 262.548H359.443C360.447 256.517 361.095 250.271 361.525 243.953H302.8Z" fill="white"/>
<path fill-rule="evenodd" clip-rule="evenodd" d="M299.208 206.835C299.641 208.917 300.071 210.999 300.43 213.082C301.148 217.103 301.723 221.195 302.081 225.43H361.885C361.812 218.969 361.596 212.795 361.166 206.835H299.208Z" fill="white"/>
<path fill-rule="evenodd" clip-rule="evenodd" d="M148.875 225.431C149.235 221.195 149.809 217.104 150.527 213.082C150.887 211 151.317 208.917 151.748 206.836H89.7899C89.3597 212.795 89.1437 218.97 89.0725 225.431H148.875Z" fill="white"/>
<path fill-rule="evenodd" clip-rule="evenodd" d="M149.952 262.548C148.875 256.589 148.229 250.416 148.157 243.953H89.4315C89.8617 250.271 90.5079 256.517 91.5131 262.548H149.952Z" fill="white"/>
<path fill-rule="evenodd" clip-rule="evenodd" d="M165.675 299.665C161.582 293.85 158.137 287.675 155.481 281.07H95.5333C97.3284 287.459 99.4093 293.636 101.779 299.665H165.675Z" fill="white"/>
<path fill-rule="evenodd" clip-rule="evenodd" d="M226.053 337.141H224.905C202.505 329.532 183.982 317.109 171.204 300.596C158.999 284.733 152.107 265.062 152.107 242.446C152.107 231.821 152.825 222.487 154.404 213.801C155.984 205.114 158.353 197.001 161.727 188.817L162.23 187.667C168.834 187.453 175.584 187.165 181.973 185.441C186.496 184.222 190.588 182.14 194.752 180.057C202.147 176.252 209.47 172.518 225.479 172.518C241.489 172.518 248.812 176.252 256.207 180.057C260.37 182.139 264.462 184.221 268.985 185.441C275.376 187.165 282.124 187.453 288.727 187.667L289.231 188.817C292.606 197.001 294.974 205.114 296.553 213.801C298.135 222.487 298.852 231.821 298.852 242.446C298.852 265.061 291.959 284.733 279.753 300.596C266.976 317.109 248.453 329.532 226.053 337.141Z" fill="white"/>
<path fill-rule="evenodd" clip-rule="evenodd" d="M225.478 333.192C246.8 325.869 264.461 313.949 276.593 298.156C288.297 283.008 294.904 264.197 294.904 242.445C294.904 232.035 294.257 222.917 292.676 214.446C291.242 206.477 289.088 199.082 286.071 191.544C277.96 191.257 272.357 190.466 267.98 189.246C263.171 187.954 258.862 185.8 254.41 183.575C247.447 179.985 240.555 176.467 225.479 176.467C210.402 176.467 203.51 179.985 196.546 183.575C192.095 185.8 187.787 187.954 182.977 189.246C178.597 190.466 172.998 191.257 164.885 191.544C161.87 199.082 159.716 206.477 158.28 214.446C156.702 222.918 156.055 232.035 156.055 242.445C156.055 264.196 162.66 283.008 174.362 298.156C186.494 313.949 204.156 325.869 225.478 333.192Z" fill="#008057"/>
<path fill-rule="evenodd" clip-rule="evenodd" d="M141.983 171.155C143.994 172.663 144.926 174.888 144.64 177.904C144.353 180.919 142.917 184.221 140.261 187.883C138.753 189.965 137.317 191.688 135.882 192.981C134.446 194.345 133.871 194.847 132.435 195.852L127.194 192.621C129.205 191.472 130.497 190.683 132.435 189.176C134.159 187.883 135.522 186.447 136.67 184.867C136.958 184.507 137.317 183.934 137.676 183.287C138.107 182.57 138.394 181.996 138.537 181.492C138.753 180.918 138.825 180.344 138.825 179.841C138.825 179.339 138.609 178.909 138.107 178.549C137.605 178.19 137.102 178.19 136.383 178.406C135.738 178.622 135.02 179.124 134.159 179.913C133.297 180.704 132.364 181.637 131.43 182.571C130.497 183.504 129.635 184.294 128.702 185.084C126.548 186.807 124.682 187.74 123.102 188.027C121.45 188.242 119.871 187.812 118.507 186.807C116.569 185.371 115.778 183.218 116.066 180.274C116.424 177.258 117.789 174.1 120.159 170.797C121.379 169.146 122.743 167.566 124.18 166.13C125.4 164.91 126.548 163.905 127.697 163.043L131.574 166.776C128.774 168.356 125.903 170.94 124.107 173.381C123.677 173.884 123.319 174.458 123.031 175.033C122.672 175.607 122.385 176.181 122.241 176.827C122.026 177.401 121.954 177.904 122.026 178.407C122.097 178.909 122.312 179.34 122.672 179.627C123.174 179.985 123.82 180.057 124.467 179.77C125.113 179.412 126.045 178.694 127.339 177.401C128.129 176.612 128.989 175.823 129.707 175.103C130.497 174.314 131.358 173.596 132.291 172.806C134.229 171.227 135.952 170.293 137.532 170.005C139.112 169.719 140.548 170.15 141.983 171.155Z" fill="white"/>
<path fill-rule="evenodd" clip-rule="evenodd" d="M155.983 144.161C154.762 143.802 153.542 143.73 152.107 144.017C150.958 144.233 149.737 144.735 148.517 145.381C147.297 146.028 145.933 147.033 144.424 148.325L134.302 156.797L150.599 176.253L156.486 171.299L151.173 164.982L155.266 161.536C157.061 160.028 158.353 158.665 159.143 157.229C160.003 155.864 160.578 154.429 160.866 152.849C161.152 151.701 161.082 150.552 160.723 149.403C160.435 148.255 159.86 147.25 159.143 146.388C158.208 145.238 157.131 144.52 155.983 144.161ZM153.973 153.35C154.117 153.853 154.117 154.428 153.973 155.073C153.757 155.791 153.399 156.438 152.753 157.155C152.178 157.802 151.388 158.592 150.311 159.453L148.086 161.32L143.204 155.505L144.713 154.212C145.718 153.351 146.579 152.704 147.154 152.203C147.8 151.699 148.518 151.341 149.379 150.981C149.954 150.767 150.599 150.695 151.319 150.767C152.036 150.838 152.61 151.197 153.041 151.699C153.542 152.274 153.83 152.847 153.973 153.35Z" fill="white"/>
<path fill-rule="evenodd" clip-rule="evenodd" d="M186.064 130.161C182.475 129.085 178.311 129.587 173.644 131.526C168.906 133.535 165.675 136.191 163.952 139.494C162.229 142.868 162.157 146.387 163.736 150.12C165.316 153.853 167.9 156.223 171.49 157.299C175.079 158.376 179.243 157.874 183.981 155.863C188.72 153.853 191.951 151.197 193.674 147.894C195.397 144.592 195.469 141.074 193.889 137.342C192.31 133.535 189.725 131.167 186.064 130.161ZM184.915 149.761C184.126 150.407 183.12 151.053 182.116 151.484C181.11 151.915 179.962 152.202 178.956 152.274C177.95 152.345 176.947 152.274 176.013 151.915C175.079 151.556 174.217 150.981 173.428 150.192C172.566 149.402 171.849 148.325 171.274 146.889C170.7 145.525 170.413 144.305 170.413 143.085C170.413 141.864 170.556 140.787 170.987 139.926C171.489 138.992 172.063 138.202 172.781 137.556C173.571 136.982 174.576 136.335 175.51 135.977C176.514 135.545 177.591 135.259 178.597 135.115C179.602 135.043 180.608 135.187 181.541 135.473C182.474 135.833 183.336 136.407 184.197 137.197C185.058 137.986 185.704 139.136 186.35 140.499C186.853 141.792 187.212 143.013 187.212 144.161C187.284 145.238 187.068 146.315 186.638 147.391C186.28 148.325 185.633 149.114 184.915 149.761Z" fill="white"/>
<path fill-rule="evenodd" clip-rule="evenodd" d="M220.238 137.7C222.176 136.766 223.612 135.618 224.545 134.326C225.479 133.106 225.837 131.526 225.693 129.66C225.55 128.296 225.191 127.219 224.473 126.357C223.684 125.495 222.678 124.849 221.458 124.419C220.238 123.915 219.016 123.7 217.653 123.629C216.289 123.557 214.71 123.629 212.915 123.772L199.633 124.921L201.858 150.265L209.325 149.547L208.535 140.285L212.484 139.927C216.146 142.727 218.946 145.599 220.526 148.613L229.284 148.111C226.985 144.161 224.689 140.499 220.238 137.7ZM217.295 132.889C217.079 133.321 216.72 133.751 216.217 134.182C215.642 134.612 214.925 134.9 214.063 135.043C213.274 135.259 212.197 135.402 210.904 135.473L208.176 135.761L207.53 128.94L210.761 128.654C211.695 128.582 212.556 128.51 213.274 128.51C213.992 128.438 214.638 128.51 215.212 128.654C216.002 128.869 216.576 129.157 216.936 129.587C217.295 130.018 217.51 130.521 217.582 131.167C217.653 131.885 217.509 132.459 217.295 132.889Z" fill="white"/>
<path fill-rule="evenodd" clip-rule="evenodd" d="M256.276 125.279L228.925 122.408L228.35 127.648L238.402 128.725L236.247 148.684L243.642 149.474L245.724 129.443L255.703 130.521L256.276 125.279Z" fill="white"/>
<path fill-rule="evenodd" clip-rule="evenodd" d="M270.133 129.659L262.955 127.577L255.917 151.987L263.171 153.997L270.133 129.659Z" fill="white"/>
<path fill-rule="evenodd" clip-rule="evenodd" d="M307.968 148.468L301.65 144.735L293.178 157.802L286.573 136.694L279.825 133.607L269.416 156.725L275.878 159.525L282.196 145.74L288.585 166.416L294.112 170.222L307.968 148.468Z" fill="white"/>
<path fill-rule="evenodd" clip-rule="evenodd" d="M325.269 186.59L318.593 176.18L314.86 178.909L317.3 182.785L313.638 185.37C311.412 182.857 307.968 177.688 308.111 174.242C308.182 171.873 309.402 169.863 311.628 168.211C312.705 167.351 313.854 166.847 315.004 166.633C316.151 166.417 317.227 166.417 318.305 166.705C320.676 167.351 322.902 169.361 324.336 171.227C325.055 172.233 325.628 173.238 326.132 174.243C327.137 176.541 327.855 180.13 328.285 183.145L333.094 179.556C332.379 177.188 331.587 174.243 330.727 172.591C329.793 170.941 328.786 169.218 327.495 167.638C324.265 163.259 320.748 160.601 317.013 159.669C313.28 158.736 309.833 159.381 306.675 161.751C303.372 164.264 301.65 167.423 301.577 171.227C301.577 175.033 303.086 179.052 306.316 183.289C307.679 185.155 309.259 186.808 310.981 188.387C312.705 189.966 315.217 192.407 316.439 193.269L325.269 186.59Z" fill="white"/>
<path fill-rule="evenodd" clip-rule="evenodd" d="M154.691 336.135C154.044 336.854 153.327 337.355 152.465 337.715C151.532 338.074 150.67 338.216 149.736 338.145C148.445 338.074 147.225 337.787 146.075 337.211C144.854 336.708 143.634 335.777 142.27 334.555L139.039 331.542L134.516 336.351L130.136 332.26L143.994 317.47L151.819 324.431C152.967 325.51 153.83 326.514 154.475 327.449C155.624 328.956 156.484 331.542 156.126 333.406C155.983 334.412 155.481 335.274 154.691 336.135ZM149.881 331.899C150.311 331.469 150.527 330.966 150.527 330.392C150.527 329.889 150.383 329.316 150.097 328.883C149.809 328.239 149.379 327.735 148.949 327.305C148.517 326.802 147.872 326.227 147.081 325.51L145.789 324.29L141.625 328.739L143.491 330.465C144.281 331.182 144.999 331.756 145.573 332.188C146.147 332.618 146.722 332.832 147.296 332.905C147.8 332.976 148.302 332.976 148.732 332.762C149.091 332.618 149.522 332.329 149.881 331.899Z" fill="white"/>
<path fill-rule="evenodd" clip-rule="evenodd" d="M176.947 351.715C175.295 354.512 173.069 356.164 170.126 356.668C167.183 357.171 163.952 356.453 160.506 354.444C157.06 352.432 154.762 349.992 153.757 347.19C152.752 344.463 153.039 341.664 154.691 338.864C156.27 335.992 158.568 334.341 161.511 333.839C164.383 333.334 167.614 334.125 171.06 336.062C174.505 338.074 176.803 340.514 177.808 343.243C178.885 346.041 178.597 348.842 176.947 351.715ZM167.11 351.929C167.901 351.715 168.691 351.282 169.408 350.709C170.054 350.135 170.701 349.416 171.276 348.412C171.85 347.335 172.209 346.329 172.352 345.467C172.496 344.533 172.424 343.673 172.208 342.953C171.992 342.236 171.634 341.519 171.132 340.946C170.558 340.37 169.84 339.796 169.193 339.436C168.475 339.006 167.685 338.717 166.967 338.576C166.178 338.36 165.46 338.36 164.67 338.576C163.88 338.718 163.162 339.079 162.372 339.724C161.654 340.297 161.009 341.089 160.361 342.166C159.787 343.17 159.428 344.175 159.285 345.036C159.142 345.971 159.213 346.831 159.428 347.551C159.644 348.268 160.002 348.985 160.505 349.561C161.08 350.134 161.725 350.708 162.443 351.068C163.161 351.498 164.023 351.856 164.813 352.001C165.531 352.145 166.321 352.145 167.11 351.929Z" fill="white"/>
<path fill-rule="evenodd" clip-rule="evenodd" d="M199.705 368.155L192.526 365.858C192.238 362.769 190.659 359.753 188.649 356.739L185.562 355.733L183.264 362.842L177.449 360.976L183.695 341.663L193.961 344.964C195.397 345.396 196.545 345.899 197.48 346.329C198.485 346.833 199.345 347.406 200.064 348.123C200.854 348.842 201.356 349.632 201.644 350.495C201.93 351.355 201.93 352.29 201.644 353.294C201.141 354.73 200.351 355.807 199.274 356.381C198.125 357.027 196.762 357.387 195.039 357.53C197.048 360.329 198.628 363.848 199.705 368.155ZM195.254 351.929C195.398 351.425 195.398 350.995 195.326 350.565C195.182 350.135 194.823 349.703 194.321 349.345C193.961 349.059 193.459 348.842 192.956 348.628C192.383 348.412 191.736 348.196 191.018 347.908L188.434 347.119L186.711 352.29L189.008 353.005C189.941 353.367 190.804 353.581 191.522 353.724C192.167 353.868 192.813 353.868 193.317 353.724C193.819 353.581 194.25 353.367 194.537 353.149C194.823 352.862 195.11 352.504 195.254 351.929Z" fill="white"/>
<path fill-rule="evenodd" clip-rule="evenodd" d="M225.478 349.273L203.582 347.406L203.223 351.571L211.335 352.29L209.972 368.298L215.571 368.801L216.935 352.791L225.12 353.508L225.478 349.273Z" fill="white"/>
<path fill-rule="evenodd" clip-rule="evenodd" d="M250.677 346.832L244.432 347.478L245.508 360.186C245.652 361.693 245.364 362.769 244.648 363.487C244.001 364.206 242.638 364.636 241.058 364.779C239.406 364.925 237.97 364.709 237.18 364.133C236.391 363.487 235.96 362.483 235.817 361.046L234.74 348.482L228.565 348.912L229.642 361.906C229.858 364.421 231.007 366.215 232.945 367.364C234.954 368.586 237.756 369.016 241.417 368.656C245.006 368.368 247.735 367.436 249.458 365.927C251.251 364.42 251.971 362.482 251.755 359.968L250.677 346.832Z" fill="white"/>
<path fill-rule="evenodd" clip-rule="evenodd" d="M279.682 347.62L270.78 350.349L271.856 354.011L275.302 352.935L276.451 356.74C273.795 357.816 269.774 358.893 267.045 357.816C265.251 357.097 264.103 355.661 263.385 353.508C263.098 352.431 263.025 351.498 263.171 350.564C263.456 348.627 264.605 347.189 266.184 346.113C266.976 345.609 268.122 345.109 269.2 344.749C270.133 344.463 271.066 344.319 272 344.246C273.939 344.175 276.522 344.462 278.534 344.822L277.096 340.224C275.159 340.083 273.436 340.156 271.927 340.37C270.493 340.586 268.913 340.873 267.406 341.374C263.241 342.668 260.298 344.533 258.504 347.119C256.781 349.632 256.349 352.431 257.282 355.447C258.216 358.606 260.152 360.762 263.025 361.836C265.827 362.912 269.27 362.842 273.363 361.622C275.086 361.119 276.811 360.4 278.462 359.54C280.114 358.677 281.621 357.816 282.627 357.17L279.682 347.62Z" fill="white"/>
<path fill-rule="evenodd" clip-rule="evenodd" d="M309.692 342.596L303.947 345.972L300.357 343.243L292.389 347.908L292.89 352.29L287.293 355.517L285.137 333.333L291.528 329.673L309.692 342.596ZM297.126 340.801L290.882 336.062L291.814 343.887L297.126 340.801Z" fill="white"/>
<path fill-rule="evenodd" clip-rule="evenodd" d="M323.333 323.931L314.861 331.826L303.804 319.982L299.425 324.074L313.209 338.936L326.132 326.946L323.333 323.931Z" fill="white"/>
<path fill-rule="evenodd" clip-rule="evenodd" d="M137.605 98.7161C140.044 98.7161 149.881 99.004 157.993 96.7781C163.88 95.1267 169.552 91.6091 168.187 88.3062C166.896 85.363 161.295 85.2905 154.69 86.7984C146.363 88.7364 137.963 88.0908 135.091 86.7984C131.86 85.363 129.204 82.7775 127.911 79.3316C126.619 75.7422 128.198 70.6456 131.716 66.7677C135.235 62.8923 140.475 59.7331 147.368 57.2207C153.972 54.7794 160.649 53.5594 167.542 52.8414L171.992 62.3897C168.187 62.3179 163.665 62.4615 158.854 63.3949C153.972 64.2553 148.732 65.908 145.716 68.7076C142.917 71.3649 144.28 75.0262 148.229 74.5947C150.454 74.3793 153.326 74.0927 155.911 73.8049C162.372 73.2305 169.193 72.2252 175.511 74.0927C188.145 77.8258 185.059 90.0301 177.377 96.9936C174.434 99.6496 170.915 101.732 167.828 103.167C160.075 106.757 151.029 108.121 142.773 108.768L137.605 98.7161Z" fill="#008057"/>
<path fill-rule="evenodd" clip-rule="evenodd" d="M253.263 46.4511C249.744 45.015 246.011 43.8668 242.064 43.1482C238.186 42.3584 234.02 42 229.785 42C224.402 42 219.233 42.6456 214.35 43.8662C206.31 45.9478 197.622 50.1116 192.956 57.3636C191.018 60.4511 190.084 63.6821 190.084 67.1985C190.084 71.2194 191.376 75.0249 193.96 78.3982C199.273 85.363 208.462 89.3826 216.791 91.1776C220.883 92.0399 225.191 92.3271 229.641 92.3271C233.876 92.3271 237.898 91.9674 241.774 91.2494C245.65 90.5321 250.533 88.6659 253.765 87.3016L253.692 75.5993C246.513 79.3323 238.688 81.5582 230.574 81.5582C221.745 81.5582 207.96 78.4713 207.96 67.0562C207.96 55.7135 221.673 52.6266 230.574 52.6266C238.113 52.6266 246.943 54.4217 253.262 58.3695L253.263 46.4511Z" fill="#008057"/>
<path fill-rule="evenodd" clip-rule="evenodd" d="M279.825 100.009L285.426 82.4191L298.275 86.5118C302.511 87.8036 309.332 88.8088 315.148 86.7984C323.405 83.8552 325.918 74.8088 320.891 67.7735C318.808 64.8297 315.649 62.4609 312.635 60.953C309.404 59.3734 303.087 57.5072 297.342 55.5686L279.108 49.5379L264.748 95.0549L279.825 100.009ZM308.039 74.4504C306.892 78.2553 299.569 77.3937 296.768 76.532L288.224 73.876L291.455 63.2513L301.147 66.3388C304.452 67.4152 309.332 70.4295 308.039 74.4504Z" fill="#008057"/>
<path fill-rule="evenodd" clip-rule="evenodd" d="M239.909 191.616C238.113 192.98 236.679 194.128 235.17 194.559C235.026 194.559 235.026 194.775 235.099 194.775C236.247 195.277 237.755 195.205 239.335 195.205C240.842 195.133 242.492 195.133 243.928 195.493C244.934 195.707 245.652 196.211 246.227 196.785C246.73 197.431 247.087 198.149 247.16 198.795C245.364 197.861 243.641 197.431 242.135 197.503C241.488 197.503 240.842 197.647 240.339 197.933C239.765 198.22 239.335 198.652 239.047 199.154C238.689 199.729 238.543 200.446 238.543 201.308C238.616 201.379 238.689 201.452 238.759 201.379C239.479 200.949 240.195 200.661 240.915 200.517C241.561 200.302 242.206 200.231 242.852 200.302C244.359 200.374 245.652 200.948 246.658 201.81C247.661 202.671 248.31 203.819 248.31 204.969C248.38 205.975 248.453 207.051 248.667 207.984C248.811 208.774 249.097 209.491 249.457 210.21C248.453 209.78 247.807 208.846 247.16 207.912C246.227 206.692 245.294 205.4 243.571 205.113C242.851 204.969 242.064 205.113 241.345 205.472C240.626 205.83 240.052 206.477 239.62 207.266C239.549 207.41 239.62 207.482 239.765 207.482C241.129 207.41 242.349 207.696 243.355 208.271C244.504 208.846 245.436 209.78 246.154 210.855C247.661 213.224 247.806 215.306 247.878 217.102C247.95 218.536 248.021 219.757 248.74 220.906C247.015 220.26 246.011 218.393 245.15 216.67C244.647 215.665 244.217 214.804 243.641 214.158C243.355 213.87 243.067 213.654 242.708 213.44C242.134 213.152 241.56 213.009 240.914 213.081C240.266 213.224 239.692 213.512 239.189 214.015C238.831 214.301 238.473 214.732 238.255 215.234C238.185 215.306 238.255 215.45 238.328 215.45C239.764 215.45 241.127 216.024 242.204 217.102C243.21 218.034 243.927 219.47 244.216 221.193C244.357 222.558 244.357 224.137 244.286 225.716C244.216 228.874 244.143 232.104 246.009 234.114C242.636 233.542 241.917 230.526 241.198 227.583C240.984 226.719 240.768 225.931 240.481 225.141C240.121 223.994 239.477 223.06 238.757 222.342C237.897 221.552 236.962 221.12 236.101 220.977C236.029 220.977 235.958 221.121 236.029 221.265C237.394 222.701 237.897 224.425 237.897 226.289C237.897 228.157 237.465 230.24 236.893 232.466C236.459 234.114 236.317 235.767 236.605 237.203C236.821 238.566 237.324 239.716 238.255 240.649C238.327 240.721 238.473 240.648 238.473 240.576C238.614 239.358 238.831 238.35 239.261 237.562C239.691 236.843 240.194 236.197 240.84 235.625C240.84 236.055 240.84 236.485 240.84 236.989C240.913 240.576 240.984 244.383 241.344 247.111C241.56 248.834 242.707 251.633 244.073 254.289C245.723 257.521 247.66 260.606 248.738 261.756C250.532 263.624 252.472 264.699 254.409 265.131C256.059 265.491 257.712 265.345 259.075 264.771C260.511 264.268 261.66 263.264 262.45 262.044C263.24 260.895 263.67 259.459 263.599 257.879C263.454 255.655 263.096 253.932 261.947 251.274C260.798 248.69 258.934 245.171 255.988 239.429C254.481 236.559 253.261 233.543 252.759 230.527C252.254 227.439 252.472 224.352 253.835 221.266C254.77 218.968 256.275 217.173 258.214 215.953C260.01 214.876 262.163 214.301 264.603 214.589C264.603 214.589 264.676 214.519 264.747 214.519C265.107 213.655 265.68 213.081 266.399 212.65C267.189 212.22 268.12 212.005 269.055 211.932C270.346 211.932 271.641 212.148 272.79 212.58C273.291 212.724 273.794 213.01 274.224 213.225C275.084 213.656 275.947 214.088 277.024 214.088C278.244 214.16 279.466 213.513 280.613 214.088C279.823 214.16 279.177 214.59 278.532 214.948C277.74 215.38 276.953 215.81 275.731 215.881C274.367 215.954 273.291 215.596 271.998 215.092C271.925 215.021 271.854 215.092 271.782 215.164C271.782 215.235 271.782 215.308 271.782 215.308C271.782 217.246 275.301 217.533 276.737 217.246C277.526 217.03 278.46 216.886 278.962 217.03C278.243 217.03 277.597 217.46 276.88 217.82C276.018 218.25 274.224 218.682 272.717 218.682C271.855 218.682 270.994 218.466 270.564 217.962C270.491 217.891 270.275 217.891 270.275 218.035C270.275 218.179 270.275 218.323 270.346 218.465C270.418 219.256 271.137 219.757 271.855 219.973C272.645 220.189 273.505 220.045 274.152 219.973C275.158 219.829 275.947 219.757 277.095 219.973C275.947 220.261 275.014 220.691 274.008 221.121C271.782 222.126 269.558 222.845 267.116 222.342C265.536 221.984 264.246 221.05 263.815 219.543C263.526 218.609 263.526 217.532 263.815 216.528C263.815 216.455 263.815 216.383 263.669 216.383C262.522 216.167 261.372 216.311 260.366 216.742C259.217 217.245 258.213 218.034 257.353 218.968C255.915 220.619 255.127 222.558 254.84 224.639C254.551 226.937 254.84 229.45 255.557 231.82C256.131 233.829 257.064 235.839 258.213 237.849C259.289 239.93 260.583 241.87 261.802 243.88C262.592 245.1 263.31 246.32 264.028 247.54C264.746 248.69 265.394 249.838 266.038 250.986C266.828 252.278 267.188 253.499 267.404 254.719C267.618 255.868 267.618 257.017 267.618 258.094C267.545 260.248 266.974 262.258 265.895 263.981C264.818 265.633 263.309 267.069 261.227 268.29C261.085 268.362 261.085 268.504 261.227 268.504C261.873 268.792 262.592 268.934 263.309 268.72C263.955 268.576 264.601 268.216 265.248 267.716C264.531 269.295 263.239 270.372 261.659 271.019C259.647 271.808 257.207 271.879 254.696 271.376C254.624 271.376 254.551 271.449 254.551 271.59C254.769 272.667 255.197 273.673 255.845 274.463C256.273 274.966 256.849 275.396 257.493 275.684C258.139 275.899 258.931 275.971 259.719 275.826C260.723 275.612 261.945 275.038 263.167 274.034C263.74 277.981 260.581 279.705 257.206 281.5C256.778 281.714 256.418 281.931 256.056 282.074C254.909 282.792 253.761 283.868 253.115 285.09C252.539 286.239 252.251 287.53 252.612 288.752C252.612 288.895 252.755 288.895 252.826 288.822C253.545 288.105 254.549 287.673 255.628 287.172C257.351 286.38 259.287 285.447 260.581 283.294C261.156 284.229 261.37 285.16 261.225 286.023C261.083 287.1 260.507 288.105 259.645 288.823C257.35 290.905 255.482 291.408 254.549 291.766C254.263 291.839 254.045 291.839 253.904 291.91C253.329 292.196 252.826 292.556 252.25 292.988C251.608 293.489 251.032 294.064 250.529 294.566L250.458 294.638C250.17 295.214 249.955 295.788 249.883 296.363C249.812 296.933 249.955 297.509 250.242 298.012C250.313 298.082 250.386 298.082 250.458 298.082C250.889 297.797 251.608 297.724 252.323 297.654C252.898 297.581 253.472 297.508 253.975 297.367C253.617 298.444 252.969 299.231 252.25 299.88C251.391 300.527 250.385 301.1 249.308 301.604C248.735 301.889 248.016 302.607 247.513 303.468C246.939 304.401 246.509 305.478 246.222 306.627C245.862 307.919 246.149 309.14 246.436 310.289C246.652 311.079 246.868 311.869 246.939 312.658C246.939 313.664 246.295 314.452 245.359 315.026C244.212 315.745 242.56 316.175 241.124 316.248C241.841 314.812 241.556 313.806 241.34 312.8C241.194 312.299 241.053 311.796 241.053 311.222C241.053 311.152 240.981 311.079 240.909 311.079C240.261 311.079 239.544 311.939 238.827 312.8C238.47 313.234 238.108 313.592 237.751 313.95C236.601 315.026 235.022 315.099 233.586 315.171C233.012 315.171 232.438 315.171 231.936 315.315C231.936 315.245 231.936 315.171 232.006 315.027C232.366 313.519 232.652 312.443 233.156 311.655C233.37 311.223 233.8 310.863 234.234 310.506C234.664 310.146 235.165 309.786 235.452 309.284C235.524 309.284 235.524 309.213 235.452 309.14C234.878 307.777 233.012 308.136 231.075 308.496C230.212 308.637 229.349 308.782 228.632 308.782C228.56 308.063 228.56 307.419 228.705 306.916C228.776 306.27 228.99 305.84 229.279 305.624C230.499 304.26 232.293 304.547 234.161 304.832C235.452 304.978 236.817 305.194 238.037 304.832C239.4 303.758 240.55 302.608 241.556 301.315C242.487 299.951 243.349 298.586 243.996 297.006C244.642 295.142 244.785 293.489 244.499 292.269C244.283 291.409 243.923 290.76 243.421 290.33V290.402C242.847 289.899 242.129 289.683 241.34 289.756C240.19 289.829 238.754 290.33 237.174 291.336C237.678 287.243 236.314 285.737 234.302 283.438C234.234 283.367 234.088 283.222 234.016 283.08C233.442 282.434 232.509 281.428 231.79 280.424C231.002 279.418 230.356 278.414 230.356 277.768C230.356 277.622 230.356 277.406 230.356 277.265C230.283 274.32 230.283 272.383 231.36 270.372C231.79 269.51 232.293 268.72 232.796 267.931C233.299 267.07 233.8 266.28 234.161 265.561C234.735 264.485 234.949 263.551 234.234 263.119C234.735 262.115 234.448 261.325 233.442 260.679C232.438 259.96 230.713 259.459 228.488 258.956C226.192 258.526 224.612 258.166 223.104 257.738C221.669 257.306 220.448 256.732 219.156 256.013C217.864 255.223 216.428 254.075 215.279 252.855C214.203 251.85 213.413 250.773 213.126 249.912C214.417 249.408 215.494 248.763 216.285 247.9C216.355 247.828 216.285 247.686 216.212 247.686C213.197 247.828 210.397 246.107 207.957 244.669C206.161 243.665 204.583 242.731 203.362 242.731C202.428 242.731 201.496 242.875 200.778 243.162C200.06 243.45 199.486 243.881 199.054 244.527C199.054 244.598 199.127 244.741 199.199 244.741C201.424 244.311 202.644 245.315 203.936 246.464C204.941 247.325 206.018 248.26 207.812 248.763C205.874 249.767 204.367 250.054 203.003 249.912C201.567 249.696 200.203 248.904 198.48 247.971C197.187 247.256 195.823 246.537 194.459 246.321C193.167 246.034 191.875 246.248 190.725 247.256C190.582 247.325 190.654 247.47 190.725 247.47C191.803 247.828 192.736 248.333 193.454 248.904C194.101 249.48 194.603 250.126 194.89 250.916C193.526 250.484 192.161 250.054 190.87 249.767C189.505 249.407 188.212 249.193 186.992 249.193C185.556 249.193 184.193 249.696 182.757 250.197C182.182 250.415 181.537 250.556 180.962 250.773C177.802 251.56 176.869 252.28 175.864 252.926C175.649 253.14 175.362 253.356 175.003 253.572C174.787 253.643 174.429 253.786 174.069 253.859C173.496 254.075 172.777 254.216 172.131 254.792C172.06 254.578 172.06 254.289 171.987 254.075C171.915 252.925 172.06 251.778 172.633 250.915C173.137 250.053 174.141 249.336 175.577 249.049C175.864 248.977 176.223 248.977 176.509 248.904C176.654 248.904 176.725 248.762 176.582 248.69C174.93 246.75 173.998 247.11 172.274 247.756C171.915 247.9 171.413 248.116 170.91 248.259C170.695 248.332 170.48 248.546 170.336 248.833C170.192 249.12 170.048 249.407 169.977 249.696C168.827 247.11 169.833 245.818 171.413 245.171C173.136 244.526 175.505 244.526 176.725 244.526C176.797 244.526 176.869 244.454 176.869 244.31C176.439 243.521 176.009 243.019 175.577 242.731C175.074 242.444 174.499 242.371 173.71 242.301C173.566 242.301 173.423 242.228 173.279 242.228C172.921 242.085 172.418 242.012 171.915 242.158C171.987 241.368 172.203 240.722 172.561 240.291C172.921 239.861 173.423 239.645 174.141 239.645C175.864 239.716 177.3 240.506 178.808 241.368C180.458 242.302 182.182 243.235 184.479 243.235C186.275 243.162 187.853 242.803 189.361 242.158C190.869 241.51 192.304 240.722 193.74 239.716C194.387 239.286 194.89 238.927 195.464 238.567C197.546 237.06 199.556 235.695 201.422 235.123C201.924 235.626 202.714 235.84 203.72 235.911C204.725 235.911 206.017 235.695 207.525 235.265C207.883 235.123 208.243 235.051 208.603 234.979C210.326 234.549 211.976 234.115 212.838 233.4C213.842 232.608 214.632 231.82 215.206 230.887C215.71 230.024 216.068 229.091 216.284 227.942C216.284 227.869 216.068 227.798 215.996 227.869C214.058 230.024 212.407 230.384 210.899 230.671C210.109 230.814 209.319 231.028 208.53 231.459C206.95 232.537 205.515 233.327 204.366 233.757C203.289 234.187 202.427 234.331 201.782 234.187C202.069 232.607 202.644 231.1 203.504 229.951C204.366 228.66 205.515 227.727 206.807 227.154C208.315 226.434 209.967 225.861 211.474 225.357C214.848 224.209 217.72 223.276 218.151 221.266C218.151 221.194 218.079 221.05 218.007 221.122C215.206 221.984 213.556 221.984 211.832 221.984C211.043 221.984 210.181 221.984 209.248 222.126C209.392 221.338 209.968 220.691 210.971 220.045C211.977 219.399 213.485 218.897 215.064 218.323C215.638 218.107 216.285 217.962 216.93 217.748C218.87 217.174 221.166 216.528 222.315 215.307C222.817 214.876 223.033 214.301 223.104 213.799C223.176 213.513 223.176 213.225 223.104 212.938C223.032 212.722 222.889 212.436 222.673 212.292C222.458 212.075 222.242 211.932 221.884 211.932C221.31 211.861 220.376 212.075 219.371 212.579C218.438 213.081 217.361 213.799 216.284 214.661C214.776 213.799 213.628 212.866 212.91 211.861C212.336 210.928 212.12 209.994 212.479 209.133C216.57 209.708 219.156 209.78 220.734 209.349C222.458 208.847 223.103 207.913 223.319 206.405C223.463 205.473 223.103 204.61 222.386 203.749C221.883 203.247 221.31 202.817 220.591 202.457C219.945 202.098 219.083 201.811 218.221 201.667C215.78 201.237 212.765 201.883 210.109 204.251C209.391 203.965 208.96 203.534 208.672 203.103C208.457 202.744 208.386 202.314 208.386 201.883C208.458 201.453 208.602 201.02 208.889 200.735C209.248 200.233 209.751 199.873 210.396 199.729C210.541 199.658 210.541 199.442 210.396 199.442C210.11 199.37 209.894 199.37 209.679 199.37C208.817 199.227 208.243 199.154 207.883 198.938C207.669 198.795 207.669 198.581 207.883 198.22L208.53 197C211.545 196.212 213.555 195.852 215.135 195.924C216.642 196.068 217.648 196.642 218.58 197.791C218.652 197.862 218.724 197.862 218.797 197.862C219.586 197.216 220.662 196.857 221.668 196.571C223.032 196.067 224.251 195.707 224.755 194.775C224.827 194.703 224.755 194.559 224.683 194.559C223.032 194.775 221.595 194.847 220.304 194.919C219.011 194.919 218.007 194.847 217.146 194.703C216.355 194.559 215.782 194.128 215.494 193.697C215.351 193.411 215.278 193.195 215.278 192.908C215.278 192.692 215.423 192.406 215.565 192.19C215.853 191.76 216.427 191.4 217.217 191.329C217.934 191.185 218.797 191.257 219.8 191.329C220.806 191.471 221.956 191.687 223.174 191.902C223.246 191.902 223.319 191.902 223.319 191.902C226.979 189.246 229.348 189.893 232.148 190.682C234.232 191.257 236.673 191.902 240.046 191.471C240.052 191.472 239.981 191.545 239.909 191.616Z" fill="#F3C242"/>
<path fill-rule="evenodd" clip-rule="evenodd" d="M172.782 206.333C173.285 206.405 173.572 206.621 173.86 206.835C174.003 206.979 174.146 207.051 174.218 207.124C174.864 207.338 175.511 207.696 176.014 208.2C176.444 208.63 176.802 209.205 177.09 209.85C177.09 209.994 177.018 210.066 176.947 210.066C176.227 210.138 175.654 209.78 175.007 209.348C174.074 208.774 173.068 208.127 171.274 208.774C173.428 213.369 175.007 213.655 178.883 214.301C179.746 214.519 180.821 214.661 182.043 214.947C183.479 215.234 184.628 215.738 185.488 216.455C186.063 216.885 186.494 217.387 186.71 217.962C186.925 218.537 186.996 219.184 186.853 219.83C186.71 220.547 186.35 221.194 185.777 221.984C186.925 221.984 188.29 221.624 189.51 221.266C191.233 220.836 192.741 220.476 193.674 220.906C193.746 220.978 193.746 221.122 193.674 221.194C192.74 221.481 192.238 221.912 191.52 222.558C190.586 223.42 189.295 224.568 186.28 226.076C187.355 226.579 188.361 226.72 189.438 226.651C190.586 226.579 191.735 226.148 192.955 225.502C193.099 225.43 193.315 225.286 193.601 225.142C194.966 224.28 197.407 222.701 199.13 223.994C199.202 224.065 199.13 224.28 198.986 224.28C197.12 224.209 196.186 225.357 195.11 226.72C194.32 227.798 193.386 228.945 191.807 229.879C194.966 230.313 197.334 229.81 199.13 228.731C200.996 227.584 202.36 225.861 203.581 223.994C204.657 222.271 205.663 221.409 206.451 220.691C206.811 220.404 207.097 220.116 207.314 219.901C206.164 219.615 204.8 219.615 203.508 219.543C202.216 219.543 200.995 219.47 199.847 219.327C198.483 219.04 197.191 218.754 196.042 218.323C194.821 217.891 193.744 217.317 192.739 216.671C190.801 215.379 189.436 214.087 188.432 212.866C187.354 211.645 186.708 210.425 186.278 209.348C186.062 208.916 185.919 208.487 185.775 208.127C184.769 205.614 183.764 203.173 180.103 203.604C180.678 204.537 181.109 205.4 181.468 206.188C181.898 207.122 182.114 207.912 182.185 208.701C182.185 208.846 181.969 208.915 181.898 208.773C180.965 206.978 179.672 205.472 178.381 204.752C177.735 204.394 177.089 204.178 176.513 204.107C175.868 204.107 175.222 204.178 174.648 204.537C174.003 204.898 173.357 205.401 172.782 206.333Z" fill="#F3C242"/>
<path fill-rule="evenodd" clip-rule="evenodd" d="M186.351 281.716C186.639 281.716 186.997 281.643 187.357 281.643C187.644 281.643 187.86 281.575 188.075 281.575C189.582 281.286 190.659 281.213 191.377 281.502C192.095 281.716 192.527 282.29 192.599 283.154C192.599 283.223 192.527 283.368 192.454 283.368C191.881 283.368 191.306 283.296 190.731 283.296C189.368 283.224 188.075 283.224 187.214 283.656C186.352 284.015 185.778 284.589 185.275 285.163C184.772 285.882 184.485 286.672 184.413 287.318C184.341 287.605 184.413 287.963 184.558 288.395C184.629 288.825 184.772 289.255 184.915 289.615C185.849 288.251 186.926 287.391 188.075 286.815C189.367 286.241 190.731 286.169 192.167 286.526C192.311 286.526 192.311 286.672 192.167 286.744C191.306 287.246 190.014 288.179 189.08 289.4C188.434 290.261 187.859 291.194 187.716 292.128C188.864 291.912 189.941 292.128 190.947 292.271C192.167 292.487 193.245 292.701 193.962 292.057C194.178 291.841 194.537 291.411 194.896 290.908C195.47 290.188 196.26 289.256 196.978 288.536C197.336 288.251 197.695 287.962 197.983 287.821C198.343 287.675 198.701 287.605 198.988 287.532C202.148 287.391 204.66 287.391 206.454 287.676C208.107 287.963 209.327 288.395 209.974 288.97C209.974 288.395 209.758 287.821 209.327 287.318C208.753 286.672 207.819 286.026 206.527 285.45C206.454 285.38 206.454 285.236 206.527 285.164C208.968 283.871 211.552 284.662 214.137 285.523C217.153 286.527 220.096 287.461 222.896 285.02C221.819 284.949 220.958 284.374 220.096 283.656C218.876 282.723 217.512 281.645 215.214 281.933C215.142 281.933 215.071 281.79 215.071 281.717C215.501 280.927 216.147 280.353 216.937 279.923C217.871 279.42 218.948 279.204 219.88 279.204C221.172 279.204 222.322 279.564 223.399 279.923C224.763 280.353 225.983 280.713 227.418 280.568C225.911 278.128 225.696 275.687 226.27 273.245C226.845 270.878 228.208 268.506 229.787 266.139C228.712 265.777 227.489 265.923 226.2 266.569C224.907 267.215 223.399 268.365 221.82 269.944C221.748 270.086 221.604 269.944 221.604 269.799C222.178 267.932 222.969 266.425 223.974 265.347C224.763 264.343 225.696 263.697 226.845 263.194C225.408 263.121 223.83 263.194 222.178 263.626C220.241 264.056 218.231 264.917 216.148 266.211C216.004 266.211 215.932 266.139 215.932 266.066C216.076 264.846 216.722 263.912 217.656 263.194C218.589 262.549 219.738 261.976 220.815 261.472C221.603 261.184 222.178 260.753 222.68 260.323C223.112 260.034 223.471 259.82 223.83 259.603C222.825 259.531 221.604 259.747 220.241 259.961C219.235 260.107 218.159 260.323 216.937 260.393C216.292 260.466 215.645 260.466 214.999 260.537C213.923 260.537 212.774 260.607 211.697 260.753C210.045 261.111 208.61 261.902 207.604 263.051C206.742 264.055 206.312 265.419 206.454 267.142C206.599 268.794 207.389 270.012 208.107 271.235C209.04 272.669 209.974 274.107 209.83 276.404C209.686 278.557 208.466 279.85 206.814 280.567C205.234 281.286 203.225 281.429 201.501 281.429C200.496 281.429 199.492 281.359 198.63 281.286C197.768 281.142 196.979 280.926 196.404 280.712C195.759 280.425 195.184 280.136 194.609 279.778C193.676 279.275 192.743 278.7 191.451 278.556C190.302 278.486 189.082 278.7 188.148 279.348C187.356 279.922 186.71 280.712 186.351 281.716Z" fill="#F3C242"/>
<path fill-rule="evenodd" clip-rule="evenodd" d="M197.91 205.545C198.269 206.621 198.987 207.483 199.992 208.056C201.213 208.847 202.791 209.276 204.299 209.276C205.807 209.206 207.458 208.559 209.325 207.769C211.981 206.621 214.925 205.328 218.586 205.472C214.35 204.467 210.904 205.4 208.033 206.19C206.597 206.621 205.305 206.979 204.156 206.979C202.577 207.051 201.284 206.908 200.28 206.621C199.274 206.333 198.556 205.975 197.91 205.545Z" fill="#F3C242"/>
<path fill-rule="evenodd" clip-rule="evenodd" d="M235.96 267.931C236.03 267.861 236.176 267.931 236.176 268.075C235.887 269.081 235.673 270.085 235.53 271.162C235.384 272.167 235.384 273.244 235.384 274.321C235.456 276.403 236.103 277.769 236.75 279.132C237.539 280.782 238.257 282.362 237.755 285.019C237.755 285.091 237.539 285.162 237.467 285.019C236.679 283.081 235.817 281.789 235.099 280.639C234.166 279.132 233.374 277.983 233.09 276.046C232.944 275.04 233.16 273.388 233.734 271.737C234.238 270.301 235.026 268.936 235.96 267.931Z" fill="#008057"/>
<path fill-rule="evenodd" clip-rule="evenodd" d="M222.607 254.721C223.325 255.583 224.473 256.23 225.623 256.66C226.913 257.164 228.423 257.378 229.785 257.306C232.944 257.163 234.524 255.943 236.03 254.793C236.319 254.579 236.606 254.363 236.894 254.218C236.963 254.145 236.894 253.932 236.749 253.932C234.238 254.579 231.794 254.936 229.354 255.009C226.985 255.081 224.831 254.936 222.749 254.506C222.607 254.507 222.464 254.652 222.607 254.721Z" fill="#008057"/>
<path fill-rule="evenodd" clip-rule="evenodd" d="M216.505 250.988C217.366 251.78 218.515 252.353 219.806 252.784C221.099 253.214 222.464 253.43 223.899 253.43C225.479 253.357 227.057 252.927 228.423 252.28C229.785 251.561 230.935 250.557 231.581 249.481C231.652 249.337 231.511 249.194 231.365 249.267C230.289 249.982 228.853 250.558 227.416 250.917C225.909 251.347 224.402 251.634 222.894 251.707C221.818 251.779 220.74 251.707 219.665 251.561C218.659 251.419 217.654 251.131 216.721 250.701C216.575 250.701 216.433 250.847 216.505 250.988Z" fill="#008057"/>
<path fill-rule="evenodd" clip-rule="evenodd" d="M210.546 242.373C211.551 242.373 212.484 243.09 213.489 243.882C215.284 245.173 217.295 246.752 220.74 245.532C220.812 245.462 220.812 245.316 220.74 245.246C219.736 244.886 218.802 244.24 217.87 243.666C215.787 242.23 213.634 240.723 210.475 242.086C210.402 242.159 210.402 242.373 210.546 242.373Z" fill="#008057"/>
<path fill-rule="evenodd" clip-rule="evenodd" d="M221.171 241.511C222.966 240.004 224.616 239.789 226.124 239.573C227.272 239.43 228.278 239.359 229.354 238.786C231.509 237.636 232.943 236.198 233.519 234.332C234.02 232.538 233.663 230.241 232.083 227.513C232.011 227.369 231.795 227.513 231.795 227.656C232.225 229.02 232.154 230.385 231.724 231.605C231.221 232.898 230.288 234.116 229.068 234.908C228.135 235.554 227.13 236.058 226.125 236.631C223.755 237.924 221.459 239.071 220.884 241.37C220.884 241.511 221.028 241.583 221.171 241.511Z" fill="#008057"/>
<path fill-rule="evenodd" clip-rule="evenodd" d="M210.69 239.143C212.556 238.21 214.135 238.067 215.715 237.851C217.151 237.709 218.658 237.491 220.381 236.774C222.105 235.985 223.684 234.692 224.473 232.898C225.12 231.391 225.191 229.523 224.33 227.297C224.33 227.225 224.114 227.225 224.114 227.297C222.464 231.246 220.238 232.252 217.295 233.472C216.505 233.759 215.715 234.116 214.853 234.551C213.489 235.195 212.124 236.058 211.263 236.918C210.546 237.637 210.187 238.352 210.475 239.071C210.474 239.143 210.618 239.216 210.69 239.143Z" fill="#008057"/>
</g>
<defs>
<clipPath id="clip0_29_43">
<rect width="272.957" height="366.358" fill="white" transform="translate(89 42)"/>
</clipPath>
</defs>
</svg>
