<svg width="150" height="150" viewBox="0 0 150 150" fill="none" xmlns="http://www.w3.org/2000/svg">
<path d="M149.978 73.2224C149.973 73.0359 149.966 72.8498 149.96 72.6637C149.948 72.2544 149.933 71.846 149.914 71.4383C149.904 71.2277 149.893 71.017 149.882 70.8067C149.86 70.4109 149.834 70.016 149.807 69.6217C149.792 69.4237 149.779 69.2256 149.763 69.0279C149.726 68.5534 149.684 68.0807 149.638 67.609C149.627 67.5003 149.618 67.391 149.607 67.2823C149.548 66.7071 149.482 66.1341 149.41 65.5626C149.39 65.3936 149.365 65.2255 149.343 65.0568C149.289 64.6497 149.233 64.2435 149.172 63.8385C149.141 63.6297 149.108 63.4215 149.075 63.2134C149.017 62.8411 148.955 62.4698 148.891 62.0994C148.855 61.8925 148.819 61.6852 148.782 61.4789C148.708 61.0751 148.63 60.6729 148.55 60.2712C148.518 60.109 148.488 59.9461 148.454 59.7845C148.341 59.2335 148.221 58.6846 148.096 58.1382C148.062 57.9903 148.025 57.8434 147.99 57.6961C147.894 57.2899 147.796 56.8849 147.694 56.4814C147.641 56.2736 147.586 56.0663 147.531 55.8591C147.44 55.5122 147.347 55.166 147.25 54.8213C147.191 54.6073 147.13 54.3937 147.069 54.1803C146.967 53.8264 146.862 53.4744 146.755 53.1227C146.696 52.9307 146.639 52.7382 146.579 52.5471C146.416 52.024 146.247 51.5027 146.072 50.9847C146.034 50.872 145.993 50.7606 145.955 50.6477C145.811 50.2307 145.666 49.8147 145.515 49.4008C145.441 49.1954 145.363 48.9912 145.287 48.7864C145.167 48.4644 145.045 48.1433 144.921 47.8234C144.836 47.6051 144.75 47.3875 144.663 47.1704C144.538 46.8572 144.41 46.5453 144.281 46.234C144.194 46.0258 144.108 45.8177 144.02 45.6104C143.862 45.2394 143.7 44.8708 143.536 44.5029C143.472 44.3599 143.41 44.2157 143.346 44.0734C143.127 43.5909 142.903 43.1115 142.674 42.6346C142.579 42.4356 142.481 42.2388 142.384 42.041C142.236 41.7401 142.088 41.4395 141.937 41.141C141.827 40.9255 141.717 40.7112 141.606 40.4969C141.459 40.2135 141.309 39.9315 141.159 39.6502C141.046 39.439 140.933 39.2271 140.818 39.0168C140.651 38.7122 140.48 38.4101 140.309 38.1083C140.208 37.9295 140.109 37.7495 140.007 37.5716C139.744 37.117 139.477 36.6658 139.206 36.2173C139.096 36.0352 138.982 35.8555 138.871 35.6746C138.693 35.3865 138.515 35.0991 138.333 34.8138C138.202 34.6084 138.07 34.4048 137.938 34.2009C137.768 33.9395 137.597 33.6793 137.424 33.4203C137.288 33.2161 137.151 33.0122 137.013 32.8096C136.829 32.5399 136.642 32.2724 136.455 32.0051C136.327 31.8217 136.2 31.6378 136.07 31.4559C135.767 31.0326 135.461 30.6116 135.15 30.1947C126.959 19.2165 115.832 10.5597 102.935 5.3798C102.934 5.37949 102.934 5.37949 102.933 5.37918C102.42 5.17316 101.904 4.97327 101.385 4.77827C101.348 4.76418 101.311 4.7498 101.274 4.73602C100.782 4.55204 100.288 4.37418 99.791 4.20031C99.7243 4.17704 99.6575 4.15316 99.5908 4.1299C99.1172 3.96551 98.6412 3.80663 98.1634 3.65173C98.0712 3.62173 97.9791 3.59143 97.8869 3.56174C97.4296 3.41541 96.9698 3.27398 96.5085 3.13592C96.3921 3.10133 96.2761 3.06643 96.1601 3.03245C95.7181 2.90265 95.2739 2.77714 94.8285 2.65531C94.6895 2.61704 94.5502 2.57939 94.4106 2.54204C93.9836 2.42816 93.5553 2.31735 93.1252 2.21082C92.9639 2.17071 92.8016 2.13153 92.6397 2.09235C92.227 1.99286 91.8138 1.89612 91.3984 1.80367C91.2156 1.76296 91.0325 1.72378 90.8495 1.68398C90.4506 1.59827 90.0517 1.51469 89.6507 1.4351C89.4462 1.39469 89.2411 1.35612 89.036 1.31724C88.6528 1.24469 88.2689 1.17337 87.8835 1.10663C87.6566 1.06714 87.4286 1.03071 87.2008 0.993367C86.8335 0.933061 86.4658 0.873674 86.0966 0.818878C85.8465 0.781531 85.5952 0.748469 85.3445 0.713571C84.9937 0.665204 84.6429 0.616225 84.2902 0.572755C84.0162 0.538776 83.7407 0.509388 83.4658 0.478469C83.1328 0.441122 82.8 0.402551 82.4654 0.36949C82.1639 0.33949 81.8608 0.315306 81.5581 0.28898C81.2467 0.262041 80.9363 0.232959 80.6238 0.209694C80.2861 0.184592 79.9463 0.165918 79.6075 0.145408C79.3267 0.128265 79.0469 0.108367 78.7653 0.0942857C78.3689 0.0746939 77.9703 0.062449 77.5727 0.0489796C77.3452 0.0413265 77.1184 0.0296939 76.89 0.0241837C76.2615 0.00826531 75.6318 0 75 0C74.3682 0 73.7385 0.00826531 73.1103 0.0238776C72.8816 0.0296939 72.6548 0.0410204 72.4267 0.0486735C72.0291 0.0621429 71.6311 0.0743878 71.235 0.0939796C70.9528 0.107755 70.6724 0.127959 70.3913 0.145102C70.0531 0.165612 69.7139 0.184592 69.3765 0.209388C69.0637 0.232653 68.7523 0.261735 68.4404 0.288673C68.1386 0.314694 67.8358 0.339184 67.5352 0.369184C67.1997 0.402245 66.866 0.441122 66.532 0.478469C66.2581 0.509388 65.9838 0.538469 65.7107 0.572449C65.3571 0.616225 65.0054 0.665204 64.6534 0.713571C64.4036 0.748163 64.1532 0.781531 63.9043 0.818265C63.5339 0.873367 63.1653 0.933061 62.7967 0.993367C62.5705 1.03041 62.3437 1.06653 62.1178 1.10571C61.7308 1.17276 61.346 1.24439 60.9612 1.31694C60.7577 1.35582 60.5541 1.39378 60.3511 1.43388C59.9489 1.51378 59.5479 1.59765 59.1478 1.68367C58.9662 1.72255 58.785 1.76173 58.6041 1.80214C58.1871 1.8952 57.7711 1.99225 57.3569 2.09204C57.1975 2.13061 57.0377 2.16949 56.8785 2.20898C56.4459 2.31643 56.0152 2.42755 55.5854 2.54235C55.4489 2.57878 55.312 2.61582 55.1758 2.65316C54.7277 2.77561 54.281 2.90204 53.8359 3.03276C53.723 3.06582 53.6103 3.0998 53.498 3.13347C53.0327 3.27214 52.5698 3.4151 52.1088 3.56265C52.0206 3.59082 51.9328 3.61959 51.8449 3.64837C51.3624 3.8048 50.8818 3.9652 50.404 4.13112C50.3428 4.15225 50.2818 4.17429 50.2203 4.19571C49.718 4.37143 49.2178 4.55173 48.7203 4.73786C48.6906 4.74888 48.6612 4.76051 48.6318 4.77153C35.0516 9.87337 23.3424 18.7965 14.8194 30.2366C14.5209 30.6374 14.2264 31.0408 13.9359 31.4477C13.7988 31.6399 13.6641 31.8346 13.5288 32.0281C13.3491 32.2849 13.1697 32.5417 12.9931 32.8007C12.8504 33.0098 12.7099 33.2198 12.5694 33.4301C12.4013 33.682 12.2348 33.9352 12.0695 34.1893C11.9333 34.3996 11.7967 34.6093 11.6623 34.8208C11.4872 35.096 11.3155 35.3734 11.1441 35.651C11.0262 35.8417 10.9071 36.0309 10.7911 36.2226C10.5217 36.668 10.2566 37.1158 9.99612 37.5673C9.88959 37.7519 9.78643 37.9387 9.68174 38.1242C9.51429 38.4196 9.34776 38.7153 9.18459 39.0132C9.06765 39.2268 8.95286 39.4417 8.83776 39.6566C8.68929 39.9337 8.54235 40.2119 8.39755 40.4914C8.28459 40.7085 8.17255 40.9261 8.06143 41.1447C7.91204 41.4395 7.76571 41.7361 7.62031 42.0331C7.52173 42.2342 7.42194 42.4344 7.3249 42.6367C7.09959 43.1069 6.87827 43.5793 6.66276 44.0547C6.59418 44.2059 6.52867 44.3587 6.46102 44.5102C6.29847 44.8754 6.13714 45.2412 5.98041 45.6095C5.89163 45.8177 5.80592 46.0267 5.71898 46.2355C5.5898 46.5459 5.46214 46.8573 5.33724 47.1695C5.25031 47.3871 5.16459 47.6051 5.07918 47.8237C4.9552 48.1433 4.83367 48.4638 4.71367 48.7855C4.63714 48.9906 4.55969 49.1951 4.48469 49.4014C4.335 49.8144 4.18959 50.2292 4.04663 50.6452C4.00776 50.7588 3.96643 50.8711 3.92816 50.9847C3.75306 51.503 3.58469 52.0243 3.42092 52.5475C3.36122 52.7385 3.30398 52.9304 3.24582 53.122C3.13867 53.4735 3.03337 53.8258 2.93143 54.1794C2.8699 54.3928 2.80959 54.6067 2.7499 54.8213C2.65378 55.1666 2.5601 55.5129 2.46888 55.86C2.41439 56.0666 2.35959 56.2727 2.30725 56.4799C2.20439 56.8849 2.10582 57.2914 2.00939 57.6989C1.9751 57.8455 1.93837 57.9909 1.90439 58.1376C1.77888 58.6846 1.65949 59.2338 1.54592 59.7851C1.51255 59.9461 1.48255 60.1084 1.4501 60.2697C1.3699 60.6719 1.29214 61.0745 1.21837 61.4792C1.18102 61.6855 1.1452 61.8924 1.10908 62.0991C1.0448 62.4701 0.983265 62.842 0.92449 63.2149C0.891735 63.4224 0.85898 63.6297 0.828061 63.8379C0.767449 64.2441 0.711122 64.6515 0.656939 65.0599C0.634898 65.2273 0.610714 65.3942 0.589592 65.5622C0.517959 66.1338 0.451837 66.7071 0.392755 67.2827C0.381735 67.3913 0.373163 67.5006 0.362449 67.6093C0.316225 68.081 0.273673 68.5537 0.236633 69.0282C0.220714 69.2256 0.207551 69.424 0.193469 69.622C0.165612 70.0163 0.140204 70.4112 0.118469 70.807C0.106837 71.0173 0.0961225 71.228 0.0860204 71.4386C0.0673469 71.846 0.0523469 72.2547 0.0397959 72.664C0.0339796 72.8501 0.0269388 73.0359 0.0223469 73.2227C0.00857143 73.8135 0 74.4058 0 75C0 75.5317 0.00826531 76.0616 0.019898 76.5906C0.025102 76.8288 0.0312245 77.0669 0.0385714 77.3045C0.045 77.5087 0.0535714 77.7119 0.0615306 77.9155C0.577041 91.3916 4.64694 103.955 11.362 114.697C11.363 114.699 11.3636 114.7 11.3642 114.701C12.6367 116.736 14.0036 118.705 15.4598 120.603C15.4674 120.614 15.4757 120.624 15.4837 120.635C16.9246 122.511 18.4515 124.317 20.0599 126.047C20.0972 126.087 20.1346 126.127 20.1719 126.167C20.4778 126.495 20.7857 126.82 21.097 127.142C21.1099 127.155 21.1231 127.168 21.1359 127.182C22.1036 128.181 23.0988 129.152 24.12 130.096C24.1524 130.126 24.1846 130.156 24.2174 130.186C24.5198 130.465 24.825 130.74 25.132 131.013C25.2162 131.089 25.301 131.164 25.3855 131.239C25.6858 131.503 25.987 131.766 26.2913 132.026C26.3614 132.087 26.4331 132.146 26.5035 132.206C27.4745 133.03 28.4669 133.83 29.4799 134.604C29.5809 134.682 29.6816 134.76 29.7833 134.837C30.0722 135.056 30.3637 135.272 30.6563 135.486C30.7944 135.588 30.9328 135.689 31.0714 135.789C31.358 135.997 31.6448 136.203 31.9341 136.406C32.0697 136.501 32.2068 136.595 32.3434 136.69C33.3055 137.356 34.2839 138.001 35.2775 138.623C35.445 138.727 35.6115 138.833 35.7796 138.936C36.0554 139.105 36.3331 139.272 36.611 139.438C36.7984 139.55 36.9866 139.661 37.1752 139.772C37.4492 139.932 37.7235 140.091 37.9993 140.248C38.1943 140.359 38.3899 140.467 38.5858 140.576C39.5467 141.111 40.5199 141.624 41.5059 142.118C41.7233 142.226 41.94 142.335 42.1586 142.442C42.4286 142.574 42.7004 142.703 42.9719 142.832C43.1951 142.937 43.4192 143.042 43.6436 143.145C43.9154 143.27 44.1866 143.395 44.4603 143.517C44.6908 143.62 44.9226 143.72 45.1543 143.82C45.4249 143.938 45.6946 144.057 45.9667 144.171C45.9674 144.171 45.968 144.172 45.9689 144.172C54.8991 147.925 64.7069 150 75 150C85.1547 150 94.8355 147.978 103.668 144.321C103.669 144.321 103.67 144.32 103.67 144.32C104.124 144.132 104.576 143.938 105.026 143.742C105.072 143.722 105.118 143.702 105.163 143.682C105.604 143.488 106.042 143.29 106.478 143.088C106.515 143.071 106.552 143.054 106.589 143.037C108.883 141.97 111.113 140.791 113.274 139.507C113.319 139.48 113.364 139.453 113.41 139.426C113.797 139.195 114.181 138.96 114.563 138.722C114.642 138.673 114.721 138.624 114.8 138.575C115.171 138.342 115.54 138.106 115.907 137.867C115.983 137.817 116.058 137.767 116.134 137.717C116.511 137.469 116.887 137.22 117.259 136.965C117.274 136.955 117.289 136.944 117.305 136.934C118.512 136.108 119.693 135.247 120.849 134.353C120.908 134.307 120.969 134.262 121.029 134.215C121.34 133.973 121.648 133.726 121.956 133.479C122.08 133.379 122.205 133.279 122.329 133.178C122.614 132.946 122.897 132.712 123.178 132.476C123.321 132.356 123.463 132.236 123.605 132.115C123.875 131.885 124.144 131.653 124.411 131.42C124.558 131.291 124.704 131.16 124.85 131.03C125.113 130.796 125.375 130.563 125.634 130.325C125.77 130.2 125.904 130.073 126.04 129.947C126.598 129.429 127.15 128.902 127.692 128.366C127.768 128.292 127.844 128.219 127.919 128.144C128.136 127.928 128.349 127.709 128.563 127.49C128.741 127.309 128.92 127.128 129.096 126.945C129.297 126.735 129.496 126.523 129.694 126.312C129.88 126.114 130.066 125.915 130.25 125.715C130.439 125.509 130.627 125.301 130.814 125.093C131.006 124.88 131.196 124.665 131.385 124.449C131.561 124.248 131.738 124.047 131.912 123.844C132.114 123.609 132.314 123.372 132.512 123.134C132.671 122.946 132.83 122.758 132.986 122.567C133.235 122.264 133.48 121.957 133.725 121.65C133.827 121.522 133.931 121.395 134.032 121.266C134.369 120.837 134.701 120.404 135.028 119.967C135.149 119.807 135.266 119.645 135.384 119.484C135.6 119.191 135.816 118.898 136.028 118.602C136.158 118.42 136.286 118.237 136.415 118.053C136.612 117.773 136.808 117.491 137.002 117.207C137.13 117.019 137.257 116.83 137.383 116.641C137.577 116.353 137.767 116.062 137.957 115.77C138.075 115.588 138.194 115.405 138.311 115.221C138.514 114.902 138.714 114.58 138.913 114.257C139.01 114.1 139.108 113.943 139.204 113.785C139.491 113.311 139.774 112.834 140.05 112.354C140.055 112.346 140.06 112.338 140.064 112.33L140.065 112.329C145.931 102.126 149.46 90.412 149.938 77.9158C149.946 77.7122 149.955 77.509 149.961 77.3048C149.968 77.0669 149.975 76.8291 149.98 76.5909C149.992 76.0619 150 75.532 150 75.0003C150 74.4058 149.991 73.8135 149.978 73.2224ZM78.0612 23.4508L96.9851 9.70194C98.6103 10.2499 100.219 10.86 101.808 11.5326C110.01 15.0015 117.377 19.9684 123.704 26.2959C127.156 29.7484 130.201 33.5121 132.82 37.5502L126.216 58.4039L106.531 64.8664L78.0612 44.1827V23.4508ZM26.2962 26.2959C32.6238 19.9684 39.9903 15.0015 48.1916 11.5326C49.781 10.8603 51.3894 10.2499 53.0152 9.70194L71.9388 23.4508V44.1827L43.3169 64.9776L23.8157 58.5024L17.1799 37.5505C19.8 33.5125 22.8441 29.7484 26.2962 26.2959ZM38.3339 118.97L19.6521 116.01C16.3956 111.627 13.6769 106.877 11.5332 101.808C8.02194 93.5069 6.20847 84.6964 6.13041 75.6122L21.9153 64.3221L41.4285 70.8012L52.4822 104.821L38.3339 118.97ZM104.81 137.113C103.822 137.587 102.822 138.038 101.808 138.467C93.3208 142.057 84.3012 143.878 75 143.878C65.6991 143.878 56.6792 142.057 48.1919 138.467C47.0519 137.985 45.9297 137.471 44.8224 136.931L42.6634 123.298L57.9205 108.041H94.2224L107.337 121.156L104.81 137.113ZM138.467 101.808C136.711 105.96 134.569 109.898 132.062 113.596L111.666 116.826L98.044 103.204L108.631 70.6203L128 64.2612L143.87 75.6119C143.792 84.6967 141.978 93.5072 138.467 101.808Z" fill="white"/>
</svg>
