<svg width="899" height="421" viewBox="0 0 899 421" fill="none" xmlns="http://www.w3.org/2000/svg">
<path d="M470.473 79.4316C479.897 56.5458 463.565 25.3987 454.673 4.38306" stroke="white" stroke-width="7" stroke-linecap="round"/>
<path d="M265.077 87.3313C257.931 68.0386 245.298 54.5062 233.478 37.9573" stroke="white" stroke-width="7" stroke-linecap="round"/>
<path d="M146.579 166.33C130.134 163.5 113.699 160.873 97.2053 158.43" stroke="white" stroke-width="7" stroke-linecap="round"/>
<path d="M628.47 101.156C631.498 80.8706 642.303 63.4761 652.17 45.8572" stroke="white" stroke-width="7" stroke-linecap="round"/>
<path d="M703.519 124.856C714.404 121.654 722.808 114.938 732.485 109.056C753.835 96.0787 775.965 88.1467 798.317 77.4565" stroke="white" stroke-width="7" stroke-linecap="round"/>
<path d="M843.741 164.355C855.229 162.587 862.961 158.939 873.365 154.48" stroke="white" stroke-width="7" stroke-linecap="round"/>
<path d="M71.5308 296.677C53.7206 309.63 25.8911 315.093 4.38208 318.402" stroke="white" stroke-width="7" stroke-linecap="round"/>
<path d="M107.08 346.052V377.651" stroke="white" stroke-width="7" stroke-linecap="round"/>
<path d="M239.403 363.826C241.672 381.605 243.603 399.331 245.327 417.15" stroke="white" stroke-width="7" stroke-linecap="round"/>
<path d="M379.625 379.626C379.399 392.829 377.808 404.352 375.675 417.15" stroke="white" stroke-width="7" stroke-linecap="round"/>
<path d="M517.872 375.676L598.846 405.3" stroke="white" stroke-width="7" stroke-linecap="round"/>
<path d="M654.145 344.076C671.337 350.786 685.77 367.626 699.569 379.626" stroke="white" stroke-width="7" stroke-linecap="round"/>
<path d="M764.742 302.602C770.262 319.724 774.467 336.528 778.567 353.951" stroke="white" stroke-width="7" stroke-linecap="round"/>
<path d="M812.142 261.128H895.09" stroke="white" stroke-width="7" stroke-linecap="round"/>
</svg>
