<svg width="40" height="40" viewBox="0 0 450 450" fill="none" xmlns="http://www.w3.org/2000/svg">
<circle cx="225" cy="225" r="225" fill="white"/>
<g clip-path="url(#clip0_29_147)">
<path d="M309.134 172.828C287.6 151.395 257.861 138.128 225 138.128C192.139 138.128 162.4 151.395 140.866 172.828C119.331 194.261 106 223.858 106 256.564C106 289.269 119.331 318.867 140.866 340.3C162.4 361.732 192.139 375 225 375C257.861 375 287.6 361.732 309.134 340.3C330.669 318.867 344 289.269 344 256.564C343.953 223.858 330.669 194.261 309.134 172.828Z" fill="#22558C"/>
<path d="M225 142.488C240.429 142.488 255.205 145.55 268.769 151.163C282.845 156.962 295.477 165.452 306.011 175.89C316.546 186.374 325.029 198.946 330.856 212.956C336.449 226.456 339.572 241.162 339.572 256.517C339.572 271.873 336.496 286.579 330.856 300.079C325.029 314.089 316.499 326.661 306.011 337.145C295.477 347.629 282.845 356.072 268.769 361.871C255.205 367.438 240.429 370.546 225 370.546C209.572 370.546 194.749 367.485 181.232 361.871C167.155 356.072 154.523 347.583 143.989 337.145C133.454 326.661 124.971 314.089 119.145 300.079C113.551 286.579 110.428 271.873 110.428 256.517C110.428 241.162 113.505 226.41 119.145 212.956C124.971 198.946 133.501 186.374 143.989 175.89C154.523 165.405 167.155 156.962 181.232 151.163C194.749 145.596 209.572 142.488 225 142.488Z" fill="#FED32C"/>
<path d="M321.067 216.992C315.8 204.327 308.062 192.915 298.507 183.405C288.951 173.895 277.485 166.194 264.76 160.952C252.501 155.895 239.077 153.112 225.047 153.112C210.97 153.112 197.546 155.895 185.333 160.952C172.608 166.194 161.142 173.895 151.586 183.405C141.984 192.915 134.293 204.327 129.026 216.992C123.852 229.193 121.056 242.554 121.056 256.564C121.056 270.574 123.852 283.934 128.933 296.089C134.2 308.754 141.938 320.166 151.493 329.676C161.095 339.186 172.515 346.887 185.24 352.129C197.499 357.186 210.923 359.969 224.953 359.969C239.03 359.969 252.454 357.186 264.667 352.129C277.392 346.887 288.858 339.186 298.414 329.676C307.969 320.119 315.707 308.754 320.974 296.089C326.055 283.888 328.851 270.527 328.851 256.564C328.944 242.554 326.148 229.193 321.067 216.992Z" fill="#22558C"/>
<path d="M274.775 306.093C302.262 278.737 302.262 234.384 274.775 207.028C247.289 179.671 202.725 179.671 175.238 207.028C147.752 234.384 147.752 278.737 175.238 306.093C202.725 333.449 247.289 333.449 274.775 306.093Z" fill="#FED32C"/>
<path fill-rule="evenodd" clip-rule="evenodd" d="M166.688 225.853L170.93 229.332L173.168 225.621C173.634 229.518 174.846 232.116 176.244 234.203C178.062 236.94 180.346 237.868 181.231 241.116C181.558 242.322 183.562 244.873 185.846 246.961C188.736 249.559 190.74 250.672 192.278 251.785V255.682C190.833 257.584 189.295 259.811 191.393 261.62C192.931 262.966 193.723 263.059 196.194 263.615V267.048C197.592 268.254 197.965 268.95 198.804 270.991C199.55 272.754 200.249 274.517 200.808 276.697C202.859 277.301 204.584 278.136 206.402 279.945V289.084L209.059 290.522C209.245 295.347 211.249 295.996 212.368 298.733C214.792 298.177 217.262 297.852 219.686 297.898V295.903C222.11 295.811 222.902 295.393 224.254 294.929C227.89 293.723 228.169 292.702 230.314 291.543C232.365 290.383 235.068 289.826 237.585 288.481C239.45 287.507 242.619 285.558 244.857 284.166C246.488 283.146 247.84 282.45 248.446 281.012C248.679 280.409 248.679 279.713 248.679 278.692C250.776 278.646 252.361 278.414 253.713 277.486C254.925 276.651 255.624 276.512 257.162 276.048V273.265H259.539C260.099 271.641 260.518 270.759 261.683 270.11C262.289 269.739 262.895 269.46 263.594 269.182C265.133 268.533 264.713 265.981 267.23 265.888L268.349 256.657L274.641 255.45V246.172C273.057 245.291 272.684 244.177 270.959 243.574C268.955 242.925 266.391 242.507 263.921 242.09C260.425 241.487 259.912 239.863 259.819 238.332C259.772 237.543 259.632 236.569 258.84 236.059C258.048 235.595 258.048 235.688 257.255 235.178C255.717 234.25 255.065 235.641 253.293 236.801C252.128 237.59 253.386 239.26 252.175 240.698C250.869 242.183 244.577 242.183 242.759 242.507C241.873 241.162 241.734 240.605 241.314 239.074C240.941 237.636 241.221 236.708 238.89 236.708C237.678 236.708 237.072 236.94 236.28 237.497C236.28 235.409 236.233 233.693 234.136 231.234C233.67 230.678 231.712 229.147 231.292 228.544C230.453 227.384 230.453 227.105 230.034 226.27C229.801 225.899 229.288 225.296 228.496 225.296C227.983 225.296 227.843 224.647 227.75 223.812C227.61 222.002 226.305 221.631 225.559 220.193L229.008 219.961L228.962 216.482L234.695 217.085C234.928 219.637 235.627 221.214 236.653 222.93C238.098 225.296 238.797 224.276 239.822 225.018C240.522 225.528 240.801 226.502 241.547 226.966C242.106 227.291 243.365 227.245 243.971 227.523C244.763 227.894 245.136 228.868 245.929 229.147C248.772 230.214 251.615 230.167 254.598 230.167C256.37 230.167 258.048 227.801 259.772 228.265C261.777 228.822 261.59 230.028 262.476 231.049C262.942 231.605 263.455 232.255 264.061 232.626C264.993 233.183 266.345 233.461 267.976 233.461C270.26 233.461 271.146 232.255 274.595 232.162C275.201 230.91 275.574 227.848 275.714 226.178C280.981 236.987 282.332 245.43 282.193 254.801C282.006 266.723 278.93 277.533 272.87 287.043C266.671 296.831 257.348 305.228 244.857 310.98V302.352C243.691 300.589 243.505 300.403 235.534 301.285C233.297 301.517 231.013 302.073 229.335 302.955C226.958 304.161 225.326 305.738 222.063 305.738C220.525 305.738 217.961 308.614 214.279 308.058V303.558C212.321 303.187 210.084 303.233 207.893 301.795L208.639 297.249C206.122 295.903 204.724 295.068 203.419 290.754H201.228C199.363 289.269 196.334 287.924 194.516 286.115C194.283 285.883 192.838 283.934 192.325 283.192L192.092 275.445C190.367 274.146 187.198 273.218 184.96 269.739C183.748 267.837 183.702 264.404 183.376 262.316C183.003 260.043 181.185 254.986 179.786 254.569C178.761 254.291 178.015 253.548 177.316 252.667C176.384 251.507 175.918 250.997 175.498 250.347L174.612 240.281L169.905 237.08L170.79 232.58L166.688 225.853Z" fill="#22558C"/>
<path fill-rule="evenodd" clip-rule="evenodd" d="M207.66 225.296C205.703 225.343 204.071 225.018 202.626 224.415L197.033 228.312C194.469 230.121 191.859 228.172 191.673 223.162C189.901 227.198 190.973 229.1 192.418 230.353C193.817 231.605 196.707 232.951 200.296 230.446L232.132 275.584L244.018 267.234C242.013 267.187 240.242 267.002 238.89 266.399L233.017 270.527L229.521 265.564C232.784 263.476 233.81 259.208 231.479 255.822L222.902 243.713L226.025 241.533C223.928 241.765 222.203 241.487 220.805 240.744L214.932 244.873L203.279 228.358L207.66 225.296ZM217.029 247.842L219.966 245.801L228.636 258.048C230.127 260.182 228.962 261.62 227.47 262.548L217.029 247.842Z" fill="#22558C"/>
<path fill-rule="evenodd" clip-rule="evenodd" d="M247.374 260.136C248.632 260.136 249.611 261.11 249.611 262.363C249.611 263.569 248.632 264.589 247.374 264.589C246.162 264.589 245.136 263.615 245.136 262.363C245.136 261.11 246.162 260.136 247.374 260.136Z" fill="#22558C"/>
<path d="M282.939 106.164C289.371 97.6745 286.714 88.9066 283.218 84.1748C279.443 79.0717 269.281 74.0615 260.984 76.7522C259.866 75.1749 257.861 75.4532 256.976 77.0769C253.946 71.9739 248.399 69.5616 241.92 69.6544C238.145 69.7008 233.903 70.6286 229.102 72.4378C228.403 70.9533 227.47 69.1441 226.165 66.8245L228.822 61.4896L229.102 60.9329L228.822 60.3762L226.072 55.134L225 53L223.881 55.134L221.131 60.3762L220.852 60.9329L221.131 61.4896L223.788 66.8245C222.483 69.1905 221.551 70.9533 220.852 72.4378C216.051 70.6286 211.809 69.7008 208.033 69.6544C201.554 69.608 196.007 72.0203 192.978 77.0769C192.092 75.4532 190.134 75.1749 188.969 76.7522C180.672 74.0615 170.511 79.0717 166.735 84.1748C163.286 88.9066 160.629 97.6745 167.062 106.118C167.062 106.118 167.062 106.118 167.015 106.118C165.523 107.138 165.057 108.298 164.078 109.69C166.036 109.504 167.854 109.272 169.625 110.386C170.557 110.989 171.024 111.777 171.769 112.984C170.371 114.051 170.511 118.829 174.706 117.715C176.058 119.432 177.456 120.638 178.901 121.566C180.253 122.447 181.744 122.865 183.003 122.958C182.723 123.097 182.49 123.282 182.304 123.561C182.117 123.885 182.024 124.303 182.117 124.721C182.21 125.138 182.49 125.463 182.816 125.695C183.143 125.88 183.562 125.973 183.982 125.88C184.261 125.834 184.541 125.741 184.774 125.695L185.333 126.947L182.49 130.055L187.291 131.447L187.617 132.189C187.524 132.236 187.431 132.282 187.384 132.375C187.151 132.561 186.965 132.746 186.778 132.932C186.499 133.303 186.359 133.767 186.452 134.184C186.452 134.277 186.499 134.416 186.545 134.509C186.592 134.602 186.639 134.648 186.685 134.741C187.291 135.53 188.223 135.39 189.528 135.158C189.808 135.112 190.088 135.066 190.414 135.019C191.673 134.834 193.071 134.648 194.19 134.463C195.495 134.277 196.66 134.091 197.033 134.045C200.389 133.488 204.91 133.071 209.572 132.793C214.839 132.468 220.432 132.282 224.953 132.282C229.475 132.282 235.022 132.468 240.335 132.793C245.043 133.071 249.518 133.535 252.874 134.045C253.247 134.091 254.412 134.277 255.717 134.463C256.836 134.648 258.234 134.834 259.493 135.019C259.819 135.066 260.099 135.112 260.378 135.158C261.684 135.39 262.616 135.53 263.222 134.741C263.268 134.648 263.315 134.602 263.362 134.509C263.408 134.416 263.455 134.277 263.455 134.184C263.548 133.767 263.408 133.303 263.129 132.932C262.989 132.746 262.756 132.561 262.523 132.375C262.429 132.329 262.383 132.282 262.29 132.189L262.616 131.447L267.417 130.055L264.574 126.947L265.133 125.695C265.412 125.741 265.646 125.834 265.925 125.88C266.345 125.973 266.764 125.927 267.091 125.695C267.417 125.509 267.696 125.138 267.79 124.721C267.883 124.303 267.836 123.885 267.603 123.561C267.463 123.282 267.23 123.097 266.904 122.958C268.163 122.865 269.654 122.447 271.006 121.566C272.404 120.684 273.849 119.478 275.201 117.715C279.396 118.829 279.536 114.051 278.138 112.984C278.883 111.731 279.349 110.942 280.282 110.386C282.053 109.272 283.871 109.504 285.828 109.69C284.943 108.344 284.43 107.185 282.939 106.164ZM277.019 82.9222C280.608 85.7984 283.778 92.3396 278.65 99.4374L280.235 105.793C279.769 105.979 279.349 106.257 279.023 106.535C278.883 105.793 278.604 105.097 278.277 104.587C276.599 105.7 275.807 106.582 274.735 109.18C274.455 108.855 274.176 108.576 273.849 108.344C273.15 107.881 272.125 107.788 271.332 107.834C270.214 107.881 269.887 106.767 269.608 105.886C268.629 106.257 268.582 107.417 269.048 108.623C267.93 109.087 266.531 109.736 265.459 110.293L266.485 111.267C267.23 112.149 268.302 112.937 269.281 113.726C268.302 114.143 268.163 113.819 267.137 113.679C266.904 115.118 269.002 116.602 271.612 116.092C271.192 116.648 270.866 117.205 270.307 117.623C268.955 118.736 267.557 119.478 266.391 119.432C265.366 119.432 264.667 118.411 264.154 117.53C264.713 117.391 265.226 117.112 265.599 116.695C266.112 116.138 266.391 115.396 266.391 114.561C266.391 113.726 266.065 112.984 265.599 112.473C265.086 111.917 264.34 111.545 263.501 111.545C262.662 111.545 261.963 111.917 261.404 112.473C260.891 113.03 260.611 113.772 260.611 114.561C260.611 115.164 260.798 115.767 261.078 116.231C260.006 116.973 258.7 117.808 257.489 117.808C256.37 117.808 255.251 116.788 254.645 115.906C253.993 114.978 253.62 113.633 253.666 112.241C253.666 112.056 253.666 111.87 253.713 111.685C253.899 112.241 255.158 112.195 255.904 112.195C257.582 112.195 258.048 112.612 258.794 114.607C259.679 113.308 259.586 111.731 258.98 110.432C261.357 110.618 262.196 109.875 263.595 108.901C261.45 108.298 261.031 106.906 259.679 105.793C260.239 105.004 260.565 104.216 260.705 103.473C259.539 103.566 258.374 103.705 257.209 103.798C257.488 101.757 258.561 101.015 260.239 99.9477C258.84 99.1591 257.675 98.8807 256.044 99.8085C255.904 98.3704 255.391 97.0715 254.738 95.8653C257.722 91.5973 259.353 87.3757 258.794 82.0872C267.324 78.7006 273.756 80.2779 277.019 82.9222ZM225 124.025H228.962C229.475 124.025 229.894 124.442 229.894 124.952C229.894 125.463 229.475 125.88 228.962 125.88H225H221.038C220.525 125.88 220.106 125.463 220.106 124.952C220.106 124.442 220.525 124.025 221.038 124.025H225ZM215.818 124.999C215.818 126.019 215.072 126.808 214.14 126.808C213.207 126.808 212.461 125.973 212.461 124.999C212.461 123.978 213.207 123.19 214.14 123.19C215.072 123.19 215.818 123.978 215.818 124.999ZM209.199 125.602C209.292 126.112 208.919 126.576 208.406 126.669L202.16 127.597C201.648 127.69 201.181 127.318 201.088 126.808C200.995 126.298 201.368 125.834 201.881 125.741L208.127 124.813C208.639 124.767 209.105 125.092 209.199 125.602ZM197.359 127.272C197.359 128.293 196.613 129.081 195.681 129.081C194.749 129.081 194.003 128.246 194.003 127.272C194.003 126.251 194.749 125.463 195.681 125.463C196.613 125.463 197.359 126.251 197.359 127.272ZM234.183 124.999C234.183 123.978 234.928 123.19 235.861 123.19C236.793 123.19 237.539 124.025 237.539 124.999C237.539 126.019 236.793 126.808 235.861 126.808C234.928 126.808 234.183 126.019 234.183 124.999ZM240.801 125.602C240.895 125.092 241.361 124.72 241.874 124.813L248.12 125.741C248.632 125.834 249.005 126.298 248.912 126.808C248.819 127.318 248.353 127.69 247.84 127.597L241.594 126.669C241.081 126.576 240.755 126.112 240.801 125.602ZM252.641 127.272C252.641 126.251 253.387 125.463 254.319 125.463C255.251 125.463 255.997 126.298 255.997 127.272C255.997 128.293 255.251 129.081 254.319 129.081C253.433 129.081 252.641 128.293 252.641 127.272ZM219.826 75.3141C219.313 77.1697 219.22 78.9326 219.267 81.4377V81.9016C219.313 84.5923 219.36 87.2366 217.915 89.0458L217.402 89.6489L217.822 90.2984L220.479 94.6591C219.826 94.5663 219.034 94.7519 218.055 95.2622C219.78 95.9117 218.428 97.2106 218.428 98.1385C216.33 98.1848 215.212 98.2776 213.673 97.5818C213.627 99.391 213.72 100.133 214.745 101.664C214.839 101.85 214.979 101.989 215.118 102.174C213.534 103.195 213.673 103.752 211.762 104.169C212.228 105.747 212.928 106.953 215.305 107.185C214.839 108.252 214.699 109.411 214.745 110.618C216.004 110.293 216.33 108.994 217.169 108.669C219.034 107.927 220.898 108.53 222.716 107.927C223.555 111.592 220.246 115.21 217.589 115.257C216.051 115.303 213.953 113.819 212.508 111.963C212.881 111.453 213.161 110.803 213.161 110.061C213.161 109.226 212.834 108.484 212.368 107.973C211.856 107.417 211.11 107.046 210.271 107.046C209.432 107.046 208.733 107.417 208.173 107.973C207.66 108.53 207.381 109.272 207.381 110.061C207.381 110.896 207.707 111.638 208.173 112.195C208.499 112.52 208.872 112.798 209.292 112.937C208.36 114.143 207.847 114.654 206.915 115.21C205.982 115.767 205.004 116.045 204.258 115.999C203.139 115.999 201.881 115.303 200.902 114.143C200.296 113.401 199.69 112.334 199.503 110.989C200.296 110.989 201.181 110.896 201.927 110.803C203.885 110.525 204.165 110.107 206.029 111.499C205.889 110.107 205.889 109.04 205.143 108.113C206.076 107.973 207.101 107.649 207.894 106.489L208.966 104.819C208.266 104.633 207.66 104.772 207.008 104.772C206.635 104.68 206.262 104.401 205.843 104.216C205.376 103.984 204.957 103.659 204.398 103.473C204.864 102.453 204.957 100.412 203.698 99.391C203.139 101.293 202.487 101.664 200.809 101.664C200.715 99.9941 201.088 98.6488 201.648 97.1179C200.063 96.9323 198.991 97.5818 198.245 98.9271C197.965 98.1848 197.639 97.5354 197.313 96.8859L199.364 93.3602C192.931 85.2418 196.101 78.2831 199.69 75.2677C203.139 72.4378 209.805 71.1853 219.826 75.3141ZM250.264 75.3141C253.853 78.2831 257.022 85.2881 250.59 93.4066L252.641 96.9323C252.315 97.5818 251.988 98.2312 251.709 98.9735C251.009 97.6282 249.891 96.9787 248.306 97.1642C248.865 98.6951 249.238 100.04 249.145 101.711C247.467 101.664 246.814 101.339 246.255 99.4374C244.997 100.458 245.09 102.499 245.556 103.52C244.997 103.705 244.577 104.03 244.111 104.262C243.691 104.448 243.318 104.772 242.946 104.819C242.293 104.772 241.687 104.68 240.988 104.865L242.06 106.535C242.852 107.695 243.878 108.02 244.81 108.159C244.111 109.04 244.111 110.107 243.924 111.545C245.789 110.154 246.069 110.571 248.026 110.85C248.772 110.942 249.658 111.035 250.45 111.035C250.264 112.427 249.658 113.447 249.052 114.19C248.073 115.396 246.814 116.045 245.696 116.045C244.95 116.045 243.971 115.813 243.039 115.257C242.107 114.7 241.594 114.19 240.662 112.984C241.081 112.844 241.501 112.566 241.78 112.241C242.293 111.685 242.573 110.942 242.573 110.107C242.573 109.272 242.246 108.53 241.78 108.02C241.268 107.463 240.522 107.092 239.683 107.092C238.844 107.092 238.145 107.463 237.585 108.02C237.073 108.576 236.793 109.319 236.793 110.107C236.793 110.803 237.026 111.453 237.445 112.009C236.047 113.865 233.903 115.35 232.365 115.303C229.708 115.21 226.398 111.592 227.237 107.973C229.102 108.623 230.966 107.973 232.784 108.716C233.577 109.04 233.903 110.339 235.208 110.664C235.301 109.458 235.161 108.298 234.695 107.231C237.073 106.953 237.772 105.793 238.238 104.216C236.327 103.798 236.513 103.241 234.882 102.221C235.022 102.082 235.115 101.896 235.255 101.711C236.28 100.18 236.373 99.4374 236.327 97.6282C234.742 98.324 233.67 98.2312 231.572 98.1848C231.572 97.257 230.221 95.9581 231.945 95.3086C230.92 94.7983 230.127 94.6591 229.521 94.7055L232.178 90.3448L232.598 89.6953L232.085 89.0922C230.64 87.3293 230.687 84.6851 230.733 81.948V81.4841C230.78 78.9326 230.687 77.2161 230.174 75.3605C240.196 71.1853 246.861 72.4378 250.264 75.3141ZM252.781 105.004C253.666 105.004 254.366 105.747 254.366 106.674C254.366 107.602 253.666 108.344 252.781 108.344C251.895 108.344 251.196 107.602 251.196 106.674C251.149 105.747 251.895 105.004 252.781 105.004ZM225 79.1645C224.161 79.1645 223.508 78.5151 223.508 77.68C223.508 76.8914 224.161 76.1955 225 76.1955C225.792 76.1955 226.492 76.845 226.492 77.68C226.492 78.5151 225.792 79.1645 225 79.1645ZM225 86.1696C225.792 86.1696 226.492 86.819 226.492 87.6541C226.492 88.4427 225.839 89.1386 225 89.1386C224.161 89.1386 223.508 88.4891 223.508 87.6541C223.508 86.819 224.161 86.1696 225 86.1696ZM225 101.525C225.886 101.525 226.585 102.267 226.585 103.195C226.585 104.123 225.886 104.865 225 104.865C224.114 104.865 223.415 104.123 223.415 103.195C223.415 102.267 224.114 101.525 225 101.525ZM198.851 106.674C198.851 107.602 198.152 108.344 197.266 108.344C196.38 108.344 195.681 107.602 195.681 106.674C195.681 105.747 196.38 105.004 197.266 105.004C198.105 105.004 198.851 105.747 198.851 106.674ZM208.36 118.272C209.338 117.762 210.271 117.066 211.156 116.185C211.949 116.88 212.834 117.437 213.627 117.855C214.233 118.179 214.839 118.411 215.445 118.55C214.885 118.55 214.326 118.597 213.767 118.643C211.156 118.782 208.593 118.968 206.029 119.2C206.821 119.014 207.567 118.69 208.36 118.272ZM222.017 117.159C223.089 116.463 224.114 115.489 225 114.375C225.886 115.489 226.958 116.463 227.983 117.159C228.822 117.762 229.661 118.179 230.547 118.458C228.682 118.411 226.865 118.411 225 118.411C223.182 118.411 221.318 118.411 219.453 118.458C220.292 118.133 221.131 117.715 222.017 117.159ZM236.373 117.855C237.166 117.437 238.051 116.88 238.844 116.185C239.729 117.066 240.662 117.762 241.64 118.272C242.433 118.69 243.179 118.968 243.924 119.154C241.361 118.922 238.751 118.736 236.187 118.597C235.628 118.55 235.068 118.551 234.509 118.504C235.161 118.411 235.767 118.179 236.373 117.855ZM188.55 120.313C189.622 120.777 190.554 121.056 191.44 121.195C189.855 121.473 188.27 121.798 186.732 122.169C187.338 121.659 188.037 121.009 188.55 120.313ZM198.291 117.205C198.851 117.762 199.27 118.226 199.876 118.597C200.855 119.2 202.16 119.432 203.372 119.478C203.232 119.478 203.139 119.525 202.999 119.525C200.249 119.803 197.592 120.174 194.935 120.592C196.241 119.942 197.313 118.782 198.291 117.205ZM250.124 118.597C250.73 118.226 251.149 117.762 251.709 117.205C252.687 118.782 253.806 119.942 255.111 120.592C252.454 120.174 249.751 119.803 247.047 119.525C246.908 119.525 246.814 119.478 246.675 119.478C247.793 119.386 249.145 119.154 250.124 118.597ZM261.451 120.313C261.963 121.009 262.662 121.659 263.268 122.123C261.73 121.798 260.145 121.473 258.561 121.148C259.446 121.056 260.378 120.777 261.451 120.313ZM191.113 82.1799C190.554 87.4685 192.185 91.6437 195.168 95.9581C194.516 97.2106 194.003 98.4632 193.863 99.9013C192.232 98.9735 191.067 99.2518 189.668 100.04C191.346 101.107 192.418 101.85 192.698 103.891C191.533 103.798 190.367 103.659 189.202 103.566C189.342 104.355 189.668 105.143 190.228 105.886C188.876 106.999 188.503 108.391 186.312 108.994C187.711 109.968 188.55 110.71 190.927 110.525C190.321 111.87 190.228 113.401 191.113 114.7C191.859 112.659 192.325 112.288 194.003 112.288C194.749 112.288 196.007 112.334 196.194 111.777C196.194 111.963 196.241 112.149 196.241 112.334C196.241 113.726 195.914 115.071 195.262 115.999C194.656 116.88 193.537 117.901 192.418 117.901C191.206 117.901 189.901 117.066 188.829 116.324C189.156 115.86 189.295 115.257 189.295 114.654C189.295 113.819 188.969 113.076 188.503 112.566C187.99 112.009 187.244 111.638 186.405 111.638C185.566 111.638 184.867 112.009 184.308 112.566C183.795 113.123 183.516 113.865 183.516 114.654C183.516 115.489 183.842 116.231 184.308 116.788C184.681 117.205 185.194 117.53 185.753 117.623C185.24 118.504 184.541 119.525 183.516 119.525C182.304 119.525 180.952 118.829 179.6 117.715C179.087 117.298 178.714 116.741 178.295 116.185C180.905 116.648 183.003 115.164 182.77 113.772C181.744 113.865 181.604 114.236 180.626 113.819C181.604 113.03 182.677 112.195 183.422 111.36L184.448 110.386C183.376 109.783 182.024 109.133 180.859 108.716C181.325 107.509 181.325 106.35 180.299 105.979C180.02 106.86 179.693 107.973 178.575 107.927C177.782 107.881 176.757 107.927 176.058 108.437C175.731 108.669 175.452 108.948 175.172 109.272C174.1 106.674 173.354 105.793 171.63 104.68C171.303 105.236 171.07 105.886 170.884 106.628C170.557 106.35 170.138 106.071 169.672 105.886L171.257 99.5302C166.129 92.4324 169.299 85.9376 172.888 83.015C176.244 80.2779 182.677 78.7006 191.113 82.1799ZM174.193 116.602C173.634 116.88 172.935 116.556 172.562 115.86C172.235 115.164 172.375 114.375 172.935 114.097C173.494 113.819 174.193 114.143 174.566 114.839C174.892 115.581 174.752 116.37 174.193 116.602ZM185.427 129.267L187.011 127.55L189.668 128.014L187.99 130.009L185.427 129.267ZM261.963 130.009L260.285 128.014L262.942 127.55L264.527 129.267L261.963 130.009ZM277.438 115.86C277.112 116.556 276.366 116.88 275.807 116.602C275.248 116.324 275.108 115.535 275.434 114.839C275.76 114.143 276.506 113.819 277.065 114.097C277.625 114.375 277.765 115.164 277.438 115.86Z" fill="#22558C"/>
<path d="M166.922 310.98C165.756 309.45 161.748 306.527 157.739 309.681C153.684 312.836 154.896 317.011 156.294 318.96C157.692 320.908 162.26 323.599 166.036 319.98C169.765 316.408 168.087 312.511 166.922 310.98ZM164.032 317.15C161.188 319.702 158.345 320.398 156.947 318.449C155.548 316.501 157.413 314.181 160.116 312.187C162.82 310.192 164.871 309.96 166.082 311.398C167.248 312.836 166.875 314.599 164.032 317.15Z" fill="#FED32C"/>
<path d="M193.211 335.568L194.935 332.506L184.448 326.753L182.723 329.815L183.562 330.279C184.448 329.49 185.66 328.377 186.732 328.98L187.944 329.676L183.049 338.537C182.77 339.001 182.397 338.954 181.138 338.258L180.672 339.093L186.592 342.341L187.058 341.506C185.706 340.763 185.566 340.485 185.893 339.882L190.74 331.161L191.999 331.856C193.024 332.413 192.838 333.851 192.558 335.197L193.211 335.568Z" fill="#FED32C"/>
<path d="M251.056 342.758C250.823 344.985 250.543 346.145 248.772 346.609L246.861 347.119C246.488 347.212 246.022 347.026 245.882 346.516L243.598 337.887C243.365 337.052 243.878 336.681 245.183 336.356L244.95 335.568L238.377 337.284L238.611 338.073C239.869 337.748 240.382 337.841 240.568 338.49L242.899 347.258C243.178 348.232 242.339 348.372 241.407 348.604L241.64 349.485L252.594 346.609L251.662 342.619L251.056 342.758Z" fill="#FED32C"/>
<path d="M283.265 323.181C284.01 325.269 284.337 326.429 282.892 327.681L281.4 328.98C281.12 329.212 280.608 329.305 280.235 328.841L274.362 322.068C273.802 321.418 274.129 320.862 275.108 320.027L274.548 319.424L269.421 323.831L269.98 324.434C270.959 323.599 271.472 323.46 271.891 323.97L277.858 330.836C278.51 331.624 277.858 332.042 277.112 332.691L277.718 333.387L286.294 326.011L283.684 322.857L283.265 323.181Z" fill="#FED32C"/>
<path d="M293.846 311.259L288.858 307.223C288.112 306.62 288.252 305.877 289.185 304.718L288.485 304.161L285.129 308.29L285.828 308.846C286.667 307.826 287.46 307.687 287.926 308.058L293.1 312.279C294.591 313.486 294.731 315.248 293.566 316.687C292.587 317.846 290.956 318.403 289.231 317.011L283.871 312.697C283.358 312.279 283.358 311.862 284.197 310.841L283.498 310.238L279.443 315.202L280.142 315.759C280.981 314.738 281.494 314.831 282.053 315.295L287.134 319.424C289.884 321.65 292.354 319.888 294.312 317.614C295.43 316.362 296.363 313.3 293.846 311.259Z" fill="#FED32C"/>
<path d="M220.432 348.418L217.589 337.98L215.678 337.748L210.317 347.722C209.898 348.511 209.478 348.743 208.126 348.557L208.033 349.485L213.067 350.042L213.161 349.114C211.296 348.882 210.97 348.603 211.296 347.954L212.461 345.774L216.703 346.238L217.356 348.511C217.775 349.856 216.75 349.531 215.724 349.439L215.631 350.366L222.343 351.109L222.436 350.181C220.991 350.042 220.665 349.299 220.432 348.418ZM212.974 344.939L215.165 340.856L216.47 345.31L212.974 344.939Z" fill="#FED32C"/>
<path d="M271.612 333.294C271.612 335.846 270.726 336.959 269.421 337.655C267.277 338.769 265.039 337.145 263.361 334.222C261.683 331.3 262.289 328.887 263.501 328.191C264.62 327.542 266.578 327.124 269.001 329.769L269.654 329.351L267.09 325.501L266.391 326.011L266.717 326.568C264.806 326.521 263.734 326.893 263.035 327.31C262.429 327.635 261.497 328.284 260.891 329.258C259.912 330.836 259.027 333.805 260.611 336.31C262.196 338.908 264.294 339.882 266.298 339.882C268.629 339.882 270.074 338.908 271.379 337.47C272.404 336.356 272.451 334.733 272.311 333.294H271.612Z" fill="#FED32C"/>
<path d="M236.653 346.191C236 348.325 235.534 349.439 233.67 349.578L231.666 349.717C231.293 349.763 230.873 349.485 230.827 348.928L230.174 340.021C230.127 339.14 230.687 338.908 231.992 338.815L231.945 337.98L225.187 338.444L225.233 339.279C226.538 339.186 227.004 339.372 227.051 340.021L227.704 349.067C227.797 350.088 226.958 350.042 225.979 350.088L226.026 350.969L237.352 350.181L237.166 346.098L236.653 346.191Z" fill="#FED32C"/>
<path d="M178.108 321.604C176.663 320.305 172.189 318.171 168.833 322.068C165.477 325.918 167.434 329.815 169.159 331.485C170.884 333.155 175.918 334.918 178.901 330.697C181.931 326.429 179.507 322.903 178.108 321.604ZM176.43 328.238C174.1 331.253 171.443 332.459 169.718 330.836C167.994 329.166 169.345 326.568 171.629 324.109C173.913 321.65 175.871 321.047 177.316 322.207C178.761 323.413 178.761 325.222 176.43 328.238Z" fill="#FED32C"/>
<path d="M203.652 335.382L196.847 333.155L196.567 333.99C197.825 334.408 198.105 334.779 197.872 335.475L195.075 343.918C194.889 344.521 194.423 344.66 193.164 344.243L192.885 345.078L199.69 347.305C202.254 348.14 204.864 347.305 205.376 345.449C206.029 343.269 204.864 342.248 202.953 341.135C205.143 341.088 206.449 340.3 206.682 339.233C207.055 337.516 206.495 336.356 203.652 335.382ZM202.207 343.964C201.881 345.356 200.669 346.702 199.037 346.145L197.779 345.727L199.457 340.624L200.436 340.949C201.881 341.413 202.487 342.758 202.207 343.964ZM203.372 338.212C203.046 339.464 201.508 340.392 200.622 340.068L199.736 339.789L201.181 335.475L201.927 335.707C202.813 336.032 203.652 337.099 203.372 338.212Z" fill="#FED32C"/>
<path d="M156.434 303.279C155.222 303.975 154.476 304.022 153.824 302.908L153.078 301.609L157.32 299.151L158.904 301.841C159.557 302.723 158.765 303.883 157.879 304.857L158.392 305.785L161.328 304.115L155.781 294.558L154.942 295.068C155.828 296.553 155.595 296.692 154.896 297.109L147.018 301.656C146.412 301.981 146.179 301.563 145.573 300.496L144.734 301.006L147.997 306.62L148.836 306.109C148.323 305.228 148.184 304.532 148.696 304.207L152.519 301.981L153.264 303.279C153.87 304.3 153.404 305.089 152.146 305.785L152.565 306.527L156.947 304.022L156.434 303.279Z" fill="#FED32C"/>
<path d="M303.168 296.46C301.164 295.439 299.905 296.367 298.46 298.037C298.833 295.903 298.274 294.465 297.248 294.048C295.663 293.352 294.405 293.677 292.913 296.321L289.464 302.537L290.21 302.955C290.862 301.795 291.282 301.609 291.935 301.934L299.765 306.249C300.325 306.573 300.371 306.991 299.719 308.197L300.465 308.614L303.96 302.398C305.219 300.032 304.893 297.295 303.168 296.46ZM297.015 300.125L296.549 300.96L292.541 298.733L292.913 298.037C293.38 297.202 294.591 296.599 295.663 297.063C296.829 297.573 297.435 299.29 297.015 300.125ZM302.655 302.769L302.003 303.929L297.295 301.331L297.808 300.45C298.553 299.104 299.952 298.733 301.117 299.243C302.422 299.847 303.494 301.285 302.655 302.769Z" fill="#FED32C"/>
<path d="M197.499 167.771L199.83 178.441C200.156 179.972 200.156 181.689 197.173 182.338L197.452 183.591L205.936 181.781L205.656 180.529C203.092 181.086 201.927 179.787 201.554 178.024L199.27 167.493L214.839 179.787L217.356 179.23L213.906 163.457C213.533 161.833 214 160.581 216.563 160.024L216.284 158.771L207.987 160.581L208.266 161.833C210.783 161.277 211.855 162.529 212.135 163.643L214.186 172.967L200.575 162.204L193.164 163.782L193.444 165.034C196.147 164.478 197.173 166.38 197.499 167.771Z" fill="#FED32C"/>
<path d="M228.822 177.977C225.793 177.653 225.187 177.235 225.793 176.075L227.657 172.503L234.602 173.199L235.721 176.864C236.42 179.091 234.789 178.534 233.064 178.395L232.924 179.879L243.971 180.993L244.111 179.508C241.687 179.276 241.128 178.024 240.755 176.632L235.907 159.514L232.784 159.189L224.208 175.658C223.509 177.003 222.856 177.328 220.619 177.096L220.479 178.58L228.776 179.415L228.822 177.977ZM231.899 164.338L234.136 171.622L228.403 171.065L231.899 164.338Z" fill="#FED32C"/>
<path d="M265.972 182.848L261.777 188.647L263.175 189.622L263.735 188.879C265.785 192.312 268.442 195.049 271.892 195.977C275.667 196.951 279.07 194.864 279.816 192.034C280.561 189.158 278.79 187.024 277.438 184.936C276.506 183.544 274.455 181.457 275.015 179.416C275.387 178.07 277.438 177.189 278.79 177.56C281.074 178.163 283.078 181.225 281.214 186.653L282.193 187.395L286.295 181.735L284.896 180.761L284.29 181.596C283.172 178.905 280.328 176.029 277.485 175.287C273.57 174.266 270.447 176.354 269.747 179.044C268.815 182.524 271.053 184.704 272.87 187.302C273.756 188.555 274.828 190.085 274.409 191.663C274.036 193.054 272.311 194.121 270.633 193.658C267.184 192.73 265.506 188.74 267.044 183.637L265.972 182.848Z" fill="#FED32C"/>
<path d="M158.438 215.74L159.604 216.667L164.778 210.173L163.566 209.245C161.655 211.611 160.955 211.889 160.303 210.776L158.299 207.296L162.633 201.822L166.362 202.843C168.6 203.492 167.295 204.559 166.223 205.905L167.434 206.833L174.333 198.204L173.121 197.276C171.583 199.178 170.278 198.992 168.833 198.529L151.726 193.379L149.769 195.838L159.091 211.936C159.883 213.235 159.837 213.977 158.438 215.74ZM153.731 199.317L161.095 201.358L157.506 205.858L153.731 199.317Z" fill="#FED32C"/>
<path d="M262.523 180.111C262.523 177.142 260.285 175.519 258.421 173.849C257.162 172.735 254.645 171.204 254.692 169.117C254.692 167.725 256.51 166.38 257.908 166.38C260.285 166.38 262.942 168.838 262.569 174.544L263.734 175.008L266.252 168.514L264.667 167.911L264.294 168.885C262.523 166.565 259.073 164.478 256.137 164.478C252.128 164.478 249.611 167.261 249.564 170.044C249.518 173.617 252.221 175.194 254.645 177.281C255.81 178.302 257.255 179.508 257.209 181.132C257.162 182.57 255.81 184.008 254.039 184.008C250.45 184.008 247.84 180.529 248.026 175.194L246.861 174.73L244.251 181.364L245.836 181.967L246.162 181.086C249.005 183.915 252.268 185.864 255.857 185.91C259.772 185.91 262.523 183.034 262.523 180.111Z" fill="#FED32C"/>
<path d="M292.634 191.941L280.421 200.987C279.582 201.498 279.256 201.126 277.858 199.178L276.926 199.874L283.451 208.595L284.383 207.9C283.311 206.461 282.799 205.58 283.684 204.977L289.184 200.941L289.418 201.266C289.651 201.544 289.651 202.008 289.511 202.333L286.388 212.492L290.909 218.569L291.841 217.874C290.769 216.018 290.956 215.693 291.235 214.441L293.613 205.394C296.596 207.575 299.765 207.25 301.537 205.394C303.028 203.817 303.215 201.08 300.977 198.065L293.286 187.812L292.074 188.694C293.286 190.364 293.706 191.152 292.634 191.941ZM298.367 197.183C299.439 198.621 298.74 200.338 297.342 201.544C295.663 203.029 292.867 203.632 291.748 202.101L290.257 200.059L296.875 195.142L298.367 197.183Z" fill="#FED32C"/>
<path d="M166.875 182.292L175.498 194.121C176.477 195.467 175.312 196.07 174.007 197.044L174.846 198.204L189.995 187.256L186.266 181.828L185.52 182.431C186.405 185.91 186.732 187.859 184.215 189.668L181.558 191.616C181.045 191.987 180.253 191.987 179.693 191.245L171.21 179.601C170.371 178.441 170.977 177.606 172.748 176.354L171.956 175.287L162.866 181.828L163.659 182.895C165.383 181.596 166.222 181.457 166.875 182.292Z" fill="#FED32C"/>
</g>
<defs>
<clipPath id="clip0_29_147">
<rect width="238" height="322" fill="white" transform="translate(106 53)"/>
</clipPath>
</defs>
</svg>
