<svg width="40" height="40" viewBox="0 0 450 450" fill="none" xmlns="http://www.w3.org/2000/svg">
<circle cx="225" cy="225" r="225" fill="white"/>
<path d="M239.624 359.885C238.452 363.332 234.717 371.785 225.675 371.785C215.391 371.785 211.824 360.658 211.651 360.189L211.347 359.136C211.347 359.136 220.204 359.872 225.082 359.872C229.949 359.872 238.287 359.391 239.637 359.136L239.624 359.885Z" fill="black"/>
<path d="M266.61 354.399L268.72 354.666C266.203 361.244 261.682 368.615 252.821 368.615C244.178 368.615 239.916 363.613 238.131 360.269L236.621 359.347C236.621 359.347 251.509 358.866 266.61 354.399Z" fill="black"/>
<path d="M185.052 354.399L182.942 354.666C185.447 361.244 189.989 368.615 198.878 368.615C207.472 368.615 212.104 363.35 214.013 360.269L215.037 359.347C215.037 359.347 200.174 358.866 185.052 354.399Z" fill="black"/>
<path d="M232.89 360.586C231.488 362.594 230.546 362.491 228.888 362.491C228.028 362.491 226.794 363.182 226.806 364.457C226.843 365.461 227.662 366.276 229.007 366.276C232.068 366.276 234.408 362.034 235.029 360.228C235.029 360.228 236.823 360.154 237.345 360.101C237.345 360.101 234.137 369.694 225.786 369.694C217.423 369.694 214.013 360.216 214.013 360.216C214.013 360.216 221.064 360.644 225.083 360.644C229.114 360.644 231.681 360.607 232.89 360.586Z" fill="url(#paint0_radial_29_107)"/>
<path d="M186.188 356.358C191.622 357.798 195.505 359.016 204.658 360.126C204.658 360.126 204.366 361.052 202.375 360.978C201.614 360.929 201.511 360.739 201.248 360.694C200.66 360.587 199.808 361.184 199.895 362.175C199.985 362.874 200.569 363.742 202.601 363.742C204.633 363.742 206.999 362.089 208.196 360.542C208.196 360.542 209.409 360.826 210.672 360.887C210.672 360.887 206.76 366.35 199.076 366.35C190.639 366.35 187.496 358.777 186.188 356.358Z" fill="url(#paint1_radial_29_107)"/>
<path d="M224.98 311.396C254.121 311.396 286.405 293.51 309.071 267.725C311.54 264.936 315.674 259.638 325.518 259.638C335.378 259.638 348.484 268.626 346.95 284.982C345.806 296.895 328.78 323.774 299.626 340.307C270.481 356.905 243.631 360.456 224.98 360.456C206.312 360.456 179.487 356.905 150.325 340.307C121.175 323.774 104.153 296.895 103.018 284.982C101.483 268.626 114.593 259.638 124.433 259.638C134.302 259.638 138.453 264.936 140.913 267.725C163.546 293.51 195.847 311.396 224.98 311.396Z" fill="#FFE500" stroke="black" stroke-width="2.09797" stroke-miterlimit="3.863"/>
<path d="M224.733 315.361C195.411 315.361 162.045 298.059 137.47 270.07C134.968 267.227 131.784 263.57 124.207 263.57C119.781 263.57 114.762 265.94 111.434 269.605C108.929 272.328 106.119 277.129 106.794 284.488C107.769 294.542 123.701 320.561 152.098 336.72C174.986 349.739 199.425 356.317 224.733 356.317C250.065 356.317 274.504 349.739 297.393 336.72C325.781 320.561 341.738 294.542 342.676 284.488C343.379 277.129 340.549 272.328 338.077 269.605C334.732 265.94 329.701 263.57 325.296 263.57C317.685 263.57 314.505 267.227 312.027 270.07C287.466 298.059 254.059 315.361 224.733 315.361Z" fill="#DA020E"/>
<path d="M350.87 169.398L350.973 162.602C353.067 164.202 357.004 164.227 359.307 161.771C360.356 160.652 360.953 158.92 360.866 157.139C360.768 155.127 359.854 153.038 358.353 151.565C349.846 143.251 342.289 134.95 342.289 134.95C341.508 133.716 340.286 132.823 339.578 132.519C338.537 132.021 334.835 130.33 332.013 134.617C329.467 138.5 329.845 143.975 330.335 145.975L338.311 156.847C341.043 160.311 348.739 167.678 350.87 169.398Z" fill="black"/>
<path d="M180.379 98.9261C190.421 95.5528 199.602 92.7638 211.976 91.6696L213.852 90.6165C206.945 85.1658 200.084 81.4471 193.251 81.4471C188.96 81.4471 180.231 84.3637 178.285 99.7653L180.379 98.9261Z" fill="black"/>
<path d="M269.601 98.9261C259.555 95.5528 250.381 92.7638 238.02 91.6696L236.119 90.6165C243.055 85.1658 249.9 81.4471 256.741 81.4471C261.036 81.4471 269.728 84.3637 271.715 99.7653L269.601 98.9261Z" fill="black"/>
<path d="M213.634 91.1595C218.686 81.4471 223.306 77.934 225.889 77.934C229.081 77.934 232.841 83.0103 235.795 89.5798L236.416 91.0689L233.82 90.8674C232.117 90.5465 227.267 90.4848 225.416 90.4848C223.515 90.4848 219.418 90.4848 216.95 90.7152L213.634 91.1595Z" fill="black"/>
<path d="M173.801 310.036L166.487 323.258C164.278 327.231 162.003 329.753 158.272 327.614C154.599 325.537 155.45 322.525 157.705 318.42L165.039 305.182L159.124 301.899L151.374 315.89C147.108 323.591 152.476 328.367 156.68 330.683C161.168 333.167 167.701 335.015 171.93 327.371L179.733 313.319L173.801 310.036ZM267.856 337.275L265.392 329.69L272.731 327.32L271.715 324.165L264.368 326.547L262.278 320.064L269.79 317.6L268.778 314.477L255.026 318.949L262.669 342.446L277.828 337.53L276.828 334.396L267.856 337.275ZM283.566 306.867L275.195 311.692L287.59 333.186L295.928 328.365C304.546 323.396 305.365 315.868 301.971 309.829C297.886 302.663 291.144 302.498 283.566 306.867ZM296.216 313.408C299.355 318.908 298.717 322.919 293.884 325.687L291.58 327.028L282.48 311.306L284.957 309.87C290.761 306.534 294.056 309.504 296.216 313.408ZM229.25 323.479L229.698 326.7L236.617 325.721L239.608 346.964L246.042 346.072L243.059 324.841L249.876 323.895L249.407 320.629L229.25 323.479ZM223.392 323.681L216.913 323.327L215.617 348.009L222.1 348.354L223.392 323.681ZM203.72 320.663L199.207 337.529L190.762 317.187L185.509 315.776L179.108 339.656L184.83 341.174L189.38 324.168L197.953 344.683L203.091 346.069L209.467 322.181L203.72 320.663Z" fill="#FFE500"/>
<path d="M169.626 164.827V280.594L224.98 316.161L280.329 280.594L280.411 165.004C278.638 163.441 274.957 160.014 272.073 158.22H177.631C175.241 159.899 170.453 163.939 169.626 164.827Z" fill="#FFE500"/>
<mask id="mask0_29_107" style="mask-type:luminance" maskUnits="userSpaceOnUse" x="169" y="158" width="112" height="159">
<path d="M169.626 164.827V280.594L224.98 316.161L280.329 280.594L280.411 165.004C278.638 163.441 274.957 160.014 272.073 158.22H177.631C175.241 159.899 170.453 163.939 169.626 164.827Z" fill="white"/>
</mask>
<g mask="url(#mask0_29_107)">
<g filter="url(#filter0_f_29_107)">
<path d="M169.626 117.804L169.626 164.827V280.594L224.98 316.161L280.329 280.594L280.411 117.981" stroke="#B54005" stroke-width="10" stroke-miterlimit="3.863"/>
</g>
</g>
<path d="M247.103 247.887V243.584C247.103 243.584 245.959 241.816 243.125 241.816C240.299 241.816 238.608 242.667 238.608 243.379C238.608 244.543 241.138 247.887 247.103 247.887ZM224.782 209.799L229.06 202.328L232.413 209.799H237.966C234.626 212.934 233.26 217.677 233.26 220.84V224.287C233.26 225.752 232.524 228.175 232.524 228.175C232.524 228.175 237.345 231.848 238.086 232.486C238.394 232.729 238.732 232.877 238.509 233.514C238.127 234.588 234.852 236.065 234.519 236.344C233.779 237.003 233.585 237.398 233.779 238.047C234.013 238.673 234.626 238.788 235.881 238.344C237.148 237.936 239.772 236.558 241.973 235.616C244.166 234.662 247.103 234.905 247.103 234.905V230.688H238.81V217.29L237.345 214.929L241.002 208.413L244.68 214.97L243.232 217.29V224.287H247.457V217.29L246 214.97L249.67 208.462L253.323 214.97L251.879 217.29V224.287H256.132V217.29L254.627 214.97L258.309 208.462L261.978 214.97L260.513 217.29L260.583 230.668H252.224V236.855C254.121 238.636 255.91 242.667 255.91 245.041C255.91 247.472 254.326 248.5 254.326 248.5C254.857 250.409 254.754 251.203 254.528 252.931C254.326 254.687 252.134 257.427 252.134 257.427V289.403C252.134 291.575 247.103 291.361 247.103 289.505V258.147C244.256 255.033 236.506 252.585 236.506 252.585C233.664 255.428 231.915 260.364 231.915 260.364C233.149 261.228 235.07 260.364 235.794 259.525C236.506 258.686 237.966 258.468 238.81 258.998C239.637 259.525 239.842 259.727 239.558 260.961C239.233 262.261 238.715 264.338 238.715 265.79C238.715 267.279 240.389 266.946 241.64 267.057C244.166 267.279 244.581 270.101 244.371 271.677C244.166 273.26 243.425 276.621 243.425 278.711C243.425 280.78 243.536 282.87 243.742 284.055C243.96 285.198 244.371 286.461 244.256 287.938C244.129 289.925 242.907 290.242 241.64 288.966C240.389 287.712 222.877 269.044 222.877 269.044C221.713 272.841 226.559 279.316 228.122 281.315C229.698 283.314 229.595 284.783 228.217 286.153C226.868 287.506 224.239 288.23 223.725 289.505C223.19 290.739 224.98 294.541 228.661 299.255C232.331 303.961 224.449 307.12 219.747 308.062C215.012 308.992 215.012 305.742 215.341 303.961C215.654 302.196 215.654 301.122 215.539 299.572C215.436 297.992 213.988 295.803 211.976 293.183C209.989 290.55 209.989 288.156 210.816 282.056C211.651 275.971 211.454 272.088 211.454 272.088C211.454 272.088 209.356 272.175 206.312 272.088C203.284 271.973 200.771 270.216 200.557 262.869C200.347 255.543 200.174 238.047 199.676 236.213C199.191 234.399 197.229 234.065 196.402 233.823C195.542 233.609 195.501 232.371 196.332 231.926C198.521 230.861 201.145 228.175 200.174 226.505C199.191 224.83 195.337 225.176 192.757 226.439C190.17 227.689 187.442 230.437 186.739 231.186C186.06 231.926 185.472 231.926 185.546 231.128C185.632 230.273 185.069 226.27 184.736 224.884C184.365 223.485 183.115 220.84 182.691 220.141C182.276 219.437 182.691 219.166 183.399 219.437C184.077 219.717 185.632 220.363 187.093 220.75C188.565 221.194 189.968 220.47 190.639 219.096C191.338 217.677 192.704 214.686 193.403 213.349C194.09 212.029 195.201 212.325 196.114 212.526C197.019 212.74 197.858 213.3 198.693 213.633C199.524 213.978 200.219 213.913 200.516 213.489C200.799 213.086 201.145 212.934 201.647 211.889C202.136 210.844 202.745 211.342 202.823 211.757C205.324 226.797 211.841 227.488 211.841 227.488C210.862 229.993 208.566 233.987 208.023 234.995C207.435 235.937 207.217 237.278 207.073 238.319C206.962 239.356 207.435 249.29 208.13 252.931C208.838 256.575 211.063 255.156 211.787 254.041C212.458 252.931 214.642 248.307 214.642 248.307C214.642 248.307 215.181 247.048 215.181 246.003C215.181 244.95 213.371 242.667 212.955 241.955C212.523 241.231 210.997 239.845 210.997 236.344C210.997 232.856 214.14 230.437 215.271 229.52C216.39 228.603 216.39 227.331 216.238 226.566C215.749 223.868 212.881 218.191 211.503 216.015C210.092 213.847 207.369 209.729 207.369 209.729H213.029L216.674 202.16L220.64 209.762L224.782 209.799ZM223.865 232.729C225.712 229.676 226.485 226.505 226.485 226.505H221.146C221.146 226.505 222.001 229.75 223.865 232.729ZM218.303 217.339C218.517 218.902 219.681 219.499 220.566 219.042C221.446 218.557 221.294 217.29 220.64 216.278C220.014 215.287 218.714 214.18 218.315 214.345C217.908 214.513 218.163 216.418 218.303 217.339ZM228.888 214.345C228.505 214.18 227.135 215.287 226.485 216.278C225.86 217.29 225.7 218.557 226.588 219.042C227.456 219.499 228.575 218.89 228.855 217.339C229.007 216.418 229.307 214.513 228.888 214.345Z" fill="url(#paint2_linear_29_107)"/>
<path d="M173.969 193.688V200.656H276.094V193.688H268.562V194.812H181.5V193.688H173.969Z" fill="#DA020E"/>
<path d="M173.974 162.371H276.08V190.138H173.974V162.371Z" fill="#DA020E"/>
<path d="M191.519 182.077L199.339 183.998L203.56 172.237V169.259L191.519 182.077ZM255.968 189.01V185.388H248.588V182.343H254.619V168.916H249.061L247.161 165.222L245.305 168.916H239.731V182.343H245.787V185.388H231.269V182.343H237.308V168.916H231.742L229.863 165.222L227.962 168.916H222.413V182.343H228.48V185.388H213.663V182.343H219.714V168.916H214.14L212.277 165.222L210.364 168.916H204.81V182.343H210.882V185.388L199.158 185.425L187.496 182.701L189.832 189.01L255.968 189.01Z" fill="#FFE500"/>
<path d="M180.959 97.8318C190.816 94.5327 198.265 91.9616 210.405 90.8838C204.81 87.0005 199.845 83.7137 194.135 83.7137C191.132 83.7137 188.565 84.8614 187.973 86.9594C187.422 88.8681 188.927 89.6991 189.462 89.5716C190.022 89.4276 190.421 89.2631 190.285 88.7447C190.141 88.1976 190.565 86.8072 192.473 86.8072C194.415 86.8072 195.147 88.6049 195.147 89.839C195.147 91.0731 193.189 93.134 189.59 93.134C186.06 93.134 184.25 90.781 184.386 88.6049C182.683 91.0977 181.691 93.6194 180.959 97.8318Z" fill="url(#paint3_radial_29_107)"/>
<path d="M112.277 156.845L120.283 145.973C120.743 143.974 121.109 138.502 118.551 134.619C115.753 130.329 112.068 132.023 110.986 132.521C110.303 132.826 109.061 133.714 108.295 134.952C108.295 134.952 100.599 143.426 92.1287 151.765C90.9316 152.954 89.6152 155.126 89.5042 157.137C89.4013 158.923 90.1212 160.716 91.1578 161.835C93.4738 164.303 97.5217 164.205 99.5909 162.6L99.7348 169.396C101.866 167.681 109.55 160.309 112.277 156.845Z" fill="black"/>
<path d="M224.98 141.023C270.559 141.023 296.492 183.805 302.152 191.317C312.206 204.735 324.514 215.628 338.776 212.029C359.727 206.669 358.637 175.635 358.637 175.635C353.581 171.995 344.967 167.412 329.261 145.149C313.88 123.326 279.074 90.9966 224.98 90.9966C170.872 90.9966 136.075 123.326 120.731 145.149C105.009 167.412 96.3657 171.995 91.3594 175.635C91.3594 175.635 90.2281 206.669 111.195 212.029C125.449 215.628 137.749 204.735 147.82 191.317C153.459 183.805 179.408 141.023 224.98 141.023Z" fill="#FFE500" stroke="black" stroke-width="2.09797" stroke-miterlimit="3.863"/>
<path d="M224.98 136.961C268.922 136.961 295.056 174.235 304.507 187.685C317.015 204.38 327.603 210.682 337.777 208.095C352.479 204.351 354.305 184.116 354.503 177.991V177.748L354.338 177.621C349.155 174.029 340.483 168.077 325.954 147.48C317.286 135.18 284.381 95.0181 224.98 95.0181C165.599 95.0181 132.665 135.18 124.001 147.48C109.591 167.945 100.529 174.186 95.6747 177.518L95.469 177.686L95.4937 177.9C95.6912 184.038 97.5218 204.38 112.187 208.095C122.372 210.682 132.982 204.38 145.456 187.685C154.899 174.235 181.058 136.961 224.98 136.961Z" fill="#DA020E"/>
<path d="M201.108 105.823C193.045 107.531 187.734 113.475 189.475 121.534C190.487 125.886 194.37 133.895 206.653 131.283C210.063 130.633 211.906 129.275 213.692 127.568L211.454 124.997C210.611 125.935 209.352 127.301 206.526 127.889C200.581 129.144 197.048 124.335 196.168 120.184C194.859 114.034 198.442 109.797 202.49 108.921C205.382 108.283 207.135 109.069 208.245 109.501H208.282L209.035 106.35C207.085 105.568 204.744 105.05 201.108 105.823ZM268.539 141.277C273.151 144.053 278.182 143.58 280.535 139.685C282.246 136.961 282.263 134.699 280.206 130.647C279.675 129.499 278.98 128.677 278.515 127.632C277.606 125.937 276.767 124.551 277.548 123.238C278.412 121.815 280.411 121.7 282.221 122.806C284.118 123.954 284.903 125.85 285.302 127.146L288.277 125.863C287.363 123.419 286.01 121.227 282.917 119.396C277.63 116.212 273.332 117.051 271.542 120.034C269.728 123.033 270.242 125.53 271.608 128.088C271.608 128.088 272.455 129.54 272.945 130.532C274.142 132.531 275.537 135.053 274.558 136.628C273.373 138.615 271.332 139.047 269.346 137.813C266.799 136.209 266.203 134.341 265.672 132.519L262.402 133.917C263.122 136.427 264.812 139.027 268.539 141.277ZM233.335 104.526L233.149 114.597L223.466 114.457L223.61 104.35L217.118 104.23L216.686 128.941L223.19 129.081L223.396 117.752L233.096 117.929L232.911 129.237L239.406 129.336L239.83 104.625L233.335 104.526ZM326.332 182.993C326.378 183.055 330.142 184.915 334.325 181.159C337.822 178.016 336.649 173.709 332.996 169.665L326.262 162.182L307.903 178.728L312.243 183.541L319.553 176.983L321.663 179.365L317.035 189.806L322.576 194.232L326.332 182.993ZM329.611 170.821C331.33 172.73 331.359 174.996 329.36 176.757C327.414 178.551 324.93 178.139 323.041 176.066L321.943 174.836L328.159 169.221L329.611 170.821ZM300.959 164.508L307.109 159.403L312.041 165.273L314.592 163.147L309.631 157.252L314.835 152.871L319.915 158.922L322.437 156.82L313.156 145.758L294.237 161.645L304.456 173.842L307.006 171.724L300.959 164.508ZM293.867 127.376L291.662 129.795L296.845 134.48L282.481 150.417L287.326 154.773L301.671 138.833L306.788 143.44L308.985 141.021L293.867 127.376ZM251.566 128.943L254.183 121.406L261.46 123.916L262.542 120.781L255.252 118.276L257.469 111.822L264.969 114.393L266.022 111.274L252.36 106.573L244.33 129.975L259.386 135.13L260.456 132.011L251.566 128.943ZM173.328 116.836L182.609 131.629L161.946 123.915L157.347 126.803L170.449 147.795L175.439 144.652L166.097 129.707L186.973 137.458L191.482 134.631L178.355 113.652L173.328 116.836ZM144.426 139.189L140.201 143.722L152.044 167.273L154.936 164.18L151.719 157.914L157.437 151.764L163.92 154.512L168.684 149.411L144.426 139.189ZM154.414 150.403L150.123 155.01L145.713 146.536L154.414 150.403ZM130.468 154.134L125.869 159.609L134.462 177.38L116.033 171.345L112.068 176.043L131.003 191.942L133.878 188.528L120.497 177.265L138.432 183.106L140.32 180.868L131.768 163.731L145.207 174.998L149.403 170.033L130.468 154.134Z" fill="#FFE500"/>
<path d="M101.541 166.726L101.52 161.275C110.821 152.735 115.206 144.154 115.206 144.154C115.206 144.154 111.788 142.866 110.258 140.92C109.501 139.839 109.209 138.362 109.336 137.37C109.632 135.511 111.08 134.569 111.574 134.355C112.644 133.894 114.631 132.849 116.844 135.894C119.201 139.189 118.58 145.441 118.255 146.881C118.255 146.881 113.919 154.43 101.541 166.726Z" fill="url(#paint4_radial_29_107)"/>
<path d="M111.833 145.148C110.579 147.337 107.415 152.618 99.414 160.118C98.0853 161.364 94.7697 162.421 92.8897 160.311C92.1863 159.492 91.7214 158.345 91.7914 157.012C91.8819 155.469 92.8074 153.676 93.7371 152.886C95.3497 151.524 102.224 144.584 107.111 139.126C107.246 140.121 108.102 141.787 108.102 141.787C108.777 142.717 109.599 144.054 111.833 145.148Z" fill="url(#paint5_linear_29_107)"/>
<path d="M224.733 315.361C195.411 315.361 162.045 298.059 137.47 270.07C134.968 267.227 131.784 263.57 124.207 263.57C119.781 263.57 114.762 265.94 111.434 269.605C108.929 272.328 106.119 277.129 106.794 284.488C107.769 294.542 123.701 320.561 152.098 336.72C174.986 349.739 199.425 356.317 224.733 356.317" fill="url(#paint6_linear_29_107)"/>
<path d="M224.733 315.361C254.055 315.361 287.421 298.059 311.996 270.07C314.497 267.227 317.681 263.57 325.259 263.57C329.685 263.57 334.704 265.94 338.032 269.605C340.537 272.328 343.346 277.129 342.672 284.488C341.697 294.542 325.765 320.561 297.368 336.72C274.479 349.739 250.04 356.317 224.733 356.317" fill="url(#paint7_linear_29_107)"/>
<path d="M304.507 187.685C317.015 204.38 327.603 210.682 337.776 208.095C352.479 204.351 354.305 184.116 354.503 177.991V177.748L354.338 177.621C349.155 174.029 340.483 168.077 325.954 147.48" fill="url(#paint8_linear_29_107)"/>
<path d="M145.493 187.685C132.985 204.38 122.397 210.682 112.223 208.095C97.5212 204.351 95.6948 184.116 95.4973 177.991V177.748L95.6618 177.621C100.845 174.029 109.517 168.077 124.046 147.48" fill="url(#paint9_linear_29_107)"/>
<path d="M269.041 97.8318C259.185 94.5327 251.735 91.9616 239.595 90.8838C245.19 87.0005 250.155 83.7137 255.865 83.7137C258.868 83.7137 261.435 84.8614 262.027 86.9594C262.578 88.8681 261.073 89.6991 260.538 89.5716C259.978 89.4276 259.579 89.2631 259.715 88.7447C259.859 88.1976 259.435 86.8072 257.527 86.8072C255.585 86.8072 254.853 88.6049 254.853 89.839C254.853 91.0731 256.811 93.134 260.41 93.134C263.94 93.134 265.75 90.781 265.614 88.6049C267.317 91.0977 268.309 93.6194 269.041 97.8318Z" fill="url(#paint10_radial_29_107)"/>
<path d="M225.442 84.8939C225.133 86.778 222.966 88.5839 220.773 88.5839C218.576 88.5839 217.918 88.2301 217.918 88.2301C217.585 88.7485 217.293 89.1475 216.947 89.7069C218.938 89.6287 223.558 89.5013 225.409 89.5013C227.256 89.5013 232.378 89.7686 233.48 89.8468C231.699 85.6714 228.264 79.8917 225.89 79.8917C225.808 79.8917 225.705 79.8837 225.578 79.8837C225.022 79.8837 223.099 81.5516 222.068 83.0162C220.714 84.9402 225.442 84.8939 225.442 84.8939Z" fill="url(#paint11_radial_29_107)"/>
<path d="M348.459 166.726L348.48 161.275C339.179 152.735 334.794 144.154 334.794 144.154C334.794 144.154 338.212 142.866 339.742 140.92C340.499 139.839 340.791 138.362 340.664 137.37C340.368 135.511 338.92 134.569 338.426 134.355C337.357 133.894 335.37 132.849 333.157 135.894C330.799 139.189 331.421 145.441 331.745 146.881C331.745 146.881 336.081 154.43 348.459 166.726Z" fill="url(#paint12_radial_29_107)"/>
<path d="M338.167 145.148C339.422 147.337 342.585 152.618 350.586 160.118C351.915 161.364 355.231 162.421 357.11 160.311C357.814 159.492 358.279 158.345 358.209 157.012C358.118 155.469 357.193 153.676 356.263 152.886C354.651 151.524 347.777 144.584 342.89 139.126C342.754 140.121 341.898 141.787 341.898 141.787C341.223 142.717 340.401 144.054 338.167 145.148Z" fill="url(#paint13_linear_29_107)"/>
<path d="M169.626 164.827V280.594L224.98 316.161L280.329 280.594L280.411 165.004C278.638 163.441 274.957 160.014 272.073 158.22H177.631C175.241 159.899 170.453 163.939 169.626 164.827Z" stroke="black" stroke-width="2.09797" stroke-miterlimit="3.863"/>
<path d="M265.562 356.358C260.128 357.798 256.245 359.016 247.092 360.126C247.092 360.126 247.384 361.052 249.375 360.978C250.136 360.929 250.239 360.739 250.502 360.694C251.09 360.587 251.942 361.184 251.855 362.175C251.765 362.874 251.181 363.742 249.149 363.742C247.116 363.742 244.751 362.089 243.554 360.542C243.554 360.542 242.341 360.826 241.078 360.887C241.078 360.887 244.99 366.35 252.674 366.35C261.111 366.35 264.254 358.777 265.562 356.358Z" fill="url(#paint14_radial_29_107)"/>
<path d="M81.248 237.527C81.248 223.561 92.5812 212.203 106.564 212.203C120.55 212.203 131.875 223.561 131.875 237.527C131.875 251.518 120.55 262.851 106.564 262.851C92.5812 262.851 81.248 251.518 81.248 237.527Z" fill="#FFE500" stroke="black" stroke-width="2.09797" stroke-miterlimit="3.863"/>
<path d="M87.0432 236.585C87.0432 225.997 95.7818 217.386 106.563 217.386C117.347 217.386 126.08 225.997 126.08 236.585C126.08 247.193 117.347 255.785 106.563 255.785C95.7818 255.785 87.0432 247.193 87.0432 236.585Z" fill="url(#paint15_radial_29_107)"/>
<path d="M111.94 254.932C110.83 255.285 110.348 254.508 109.842 253.948C107.872 251.682 107.366 245.647 107.366 244.849C107.366 244.047 107.662 243.167 108.226 243.146C112.977 243.055 116.371 241.677 119.485 239.09C122.595 236.548 123.944 233.631 124.22 233.113C124.491 232.537 125.137 232.64 125.256 233.438C125.388 234.104 125.639 235.301 125.639 236.597C125.639 245.293 119.777 252.398 111.94 254.932ZM106.926 255.717C106.79 255.717 106.638 255.734 106.51 255.734C103.009 255.734 99.1549 254.397 96.8719 253.097C94.5065 251.809 93.618 245.738 93.618 242.669C93.618 232.677 97.7152 226.728 98.3816 225.56C99.0315 224.375 100.496 224.252 101.57 224.54C102.68 224.861 103.075 225.054 104.355 225.433C105.021 225.651 106.374 225.926 107.391 226.107C108.407 226.35 109.501 226.564 108.843 228.46C108.193 230.361 105.98 234.927 105.757 240.34C105.543 245.24 106.193 250.106 107.3 253.097C108.028 255.03 108.028 255.754 106.926 255.717ZM92.462 232.907C91.5282 232.413 90.4052 230.003 90.0267 229.299C89.7717 228.793 89.7717 227.345 90.1378 226.728C91.701 223.993 93.9182 221.459 96.7731 220.138C97.1228 219.986 97.6123 219.957 97.6123 220.796C97.6123 221.245 97.855 221.944 97.8633 222.388C97.8633 222.837 98.0525 223.754 97.4848 224.478C96.8883 225.206 94.3337 229.735 93.6797 232.274C93.5727 232.841 93.3999 233.438 92.462 232.907ZM91.9355 248.942C89.2863 246.326 87.3981 241.587 87.3981 236.597C87.3981 234.66 87.686 232.804 88.2002 231.044C88.2002 231.044 88.6733 230.254 89.0847 230.924C89.4014 231.418 89.8375 231.916 90.1913 232.574C90.5862 233.232 92.6348 234.791 92.462 236.062C91.7462 240.731 92.388 246.935 92.6101 247.98C92.8075 249.012 92.5237 249.452 91.9355 248.942ZM100.299 218.509C102.261 217.859 104.355 217.493 106.51 217.493C109.789 217.493 112.973 218.09 115.63 219.784C116.313 220.229 116.506 220.747 116.506 221.516C116.506 224.022 112.59 224.861 109.999 224.861C107.39 224.861 104.182 223.828 101.911 223.108C99.6486 222.401 99.1549 221.093 99.1549 220.496C99.1549 219.924 99.5951 218.74 100.299 218.509ZM117.979 221.294C118.329 221.578 119.254 222.327 119.254 222.327C121.081 223.993 122.73 225.893 123.689 228.172C124.886 231.044 121.171 235.392 120.081 236.395C115.161 241.015 112.08 240.929 110.336 241.18C108.592 241.435 107.46 240.34 107.506 239.028C107.617 235.186 110.352 228.563 111.138 227.317C111.64 226.514 112.512 226.017 112.512 226.017C114.338 225.511 116.111 224.75 117.029 223.705C117.926 222.643 117.979 221.294 117.979 221.294ZM106.699 216.247C94.9384 216.247 85.4153 225.774 85.4153 237.527C85.4153 249.288 94.9384 258.811 106.699 258.811C118.452 258.811 127.996 249.288 127.996 237.527C127.996 225.774 118.452 216.247 106.699 216.247Z" fill="#DA020E"/>
<path d="M318.615 237.478C318.615 223.512 329.948 212.195 343.931 212.195C357.921 212.195 369.246 223.512 369.246 237.478C369.246 251.468 357.921 262.806 343.931 262.806C329.948 262.806 318.615 251.468 318.615 237.478Z" fill="#FFE500" stroke="black" stroke-width="2.09797" stroke-miterlimit="3.863"/>
<path d="M358.756 248.855C358.201 249.402 357.888 248.924 358.123 247.9C358.316 246.884 358.962 240.66 358.242 235.991C358.065 234.724 360.126 233.169 360.504 232.503C360.883 231.849 361.315 231.339 361.619 230.861C362.043 230.17 362.491 230.944 362.491 230.944C363.034 232.725 363.298 234.588 363.298 236.518C363.298 241.524 361.385 246.246 358.756 248.855ZM357.041 232.207C356.383 229.677 353.811 225.127 353.231 224.403C352.647 223.704 352.832 222.774 352.841 222.325C352.841 221.881 353.096 221.17 353.096 220.709C353.096 219.907 353.581 219.923 353.927 220.075C356.798 221.396 359.003 223.893 360.583 226.653C360.932 227.282 360.94 228.722 360.681 229.212C360.311 229.919 359.196 232.33 358.242 232.84C357.288 233.362 357.148 232.754 357.041 232.207ZM353.844 253.026C351.557 254.305 347.703 255.654 344.185 255.654H343.778C342.696 255.683 342.672 254.93 343.412 253.005C344.486 250.039 345.156 245.152 344.934 240.265C344.712 234.827 342.528 230.31 341.849 228.397C341.191 226.501 342.289 226.27 343.318 226.057C344.338 225.855 345.687 225.559 346.357 225.345C347.616 224.962 348.024 224.769 349.134 224.452C350.216 224.173 351.672 224.312 352.335 225.468C352.985 226.653 357.09 232.638 357.09 242.606C357.09 245.658 356.193 251.722 353.844 253.026ZM338.776 254.852C330.919 252.306 325.069 245.206 325.069 236.518C325.069 235.238 325.32 234.054 325.423 233.362C325.575 232.564 326.176 232.433 326.476 233.021C326.752 233.556 328.117 236.468 331.211 239.019C334.346 241.586 337.706 242.988 342.487 243.087C343.067 243.116 343.338 243.968 343.338 244.786C343.338 245.597 342.849 251.619 340.886 253.869C340.364 254.445 339.862 255.235 338.776 254.852ZM327.036 228.105C327.969 225.826 329.627 223.893 331.454 222.264C331.454 222.264 332.359 221.499 332.708 221.231C332.708 221.231 332.782 222.593 333.692 223.613C334.597 224.641 336.353 225.448 338.18 225.929C338.18 225.929 339.039 226.451 339.553 227.254C340.364 228.463 343.079 235.078 343.198 238.949C343.231 240.265 342.112 241.359 340.364 241.108C338.611 240.874 335.539 240.927 330.623 236.333C329.537 235.325 325.822 230.985 327.036 228.105ZM335.065 219.713C337.76 218.01 340.903 217.414 344.185 217.414C346.358 217.414 348.423 217.784 350.401 218.434C351.129 218.66 351.557 219.833 351.557 220.421C351.557 221.001 351.076 222.325 348.797 223.037C346.526 223.736 343.33 224.781 340.726 224.781C338.105 224.781 334.202 223.93 334.202 221.437C334.202 220.684 334.391 220.137 335.065 219.713ZM343.984 216.192C332.235 216.192 322.708 225.723 322.708 237.447C322.708 249.237 332.235 258.731 343.984 258.731C355.753 258.731 365.28 249.237 365.28 237.447C365.28 225.723 355.753 216.192 343.984 216.192Z" fill="#DA020E"/>
<path d="M324.699 236.492C324.699 225.903 333.438 217.292 344.219 217.292C355.004 217.292 363.736 225.903 363.736 236.492C363.736 247.099 355.004 255.692 344.219 255.692C333.438 255.692 324.699 247.099 324.699 236.492Z" fill="url(#paint16_radial_29_107)"/>
<defs>
<filter id="filter0_f_29_107" x="158.443" y="111.622" width="133.151" height="216.665" filterUnits="userSpaceOnUse" color-interpolation-filters="sRGB">
<feFlood flood-opacity="0" result="BackgroundImageFix"/>
<feBlend mode="normal" in="SourceGraphic" in2="BackgroundImageFix" result="shape"/>
<feGaussianBlur stdDeviation="3.09142" result="effect1_foregroundBlur_29_107"/>
</filter>
<radialGradient id="paint0_radial_29_107" cx="0" cy="0" r="1" gradientUnits="userSpaceOnUse" gradientTransform="translate(225.679 364.772) scale(9.91952 7.37389)">
<stop stop-color="#FFE500"/>
<stop offset="0.5" stop-color="#FFE500"/>
<stop offset="1" stop-color="#E15007"/>
</radialGradient>
<radialGradient id="paint1_radial_29_107" cx="0" cy="0" r="1" gradientUnits="userSpaceOnUse" gradientTransform="translate(198.43 361.354) scale(10.489 9.43105)">
<stop stop-color="#FFE500"/>
<stop offset="0.5" stop-color="#FFE500"/>
<stop offset="1" stop-color="#E15007"/>
</radialGradient>
<linearGradient id="paint2_linear_29_107" x1="222.124" y1="201.806" x2="222.124" y2="256.873" gradientUnits="userSpaceOnUse">
<stop stop-color="#8F0904"/>
<stop offset="0.249601" stop-color="#B40509"/>
<stop offset="1" stop-color="#DA020E"/>
</linearGradient>
<radialGradient id="paint3_radial_29_107" cx="0" cy="0" r="1" gradientUnits="userSpaceOnUse" gradientTransform="translate(193.472 91.3915) scale(11.9921 11.4182)">
<stop stop-color="#FFE500"/>
<stop offset="0.5" stop-color="#FFE500"/>
<stop offset="1" stop-color="#E15007"/>
</radialGradient>
<radialGradient id="paint4_radial_29_107" cx="0" cy="0" r="1" gradientUnits="userSpaceOnUse" gradientTransform="translate(106.299 152.264) rotate(-60.273) scale(18.7126 16.4611)">
<stop stop-color="#FFE500"/>
<stop offset="0.5" stop-color="#FFE500"/>
<stop offset="1" stop-color="#E15007"/>
</radialGradient>
<linearGradient id="paint5_linear_29_107" x1="103.784" y1="144.82" x2="108.333" y2="149.82" gradientUnits="userSpaceOnUse">
<stop stop-color="#FFE500"/>
<stop offset="0.5" stop-color="#FFE500"/>
<stop offset="1" stop-color="#E15007"/>
</linearGradient>
<linearGradient id="paint6_linear_29_107" x1="114.117" y1="268.932" x2="145.537" y2="304.994" gradientUnits="userSpaceOnUse">
<stop stop-color="#740703"/>
<stop offset="1" stop-color="#DA020E" stop-opacity="0"/>
</linearGradient>
<linearGradient id="paint7_linear_29_107" x1="335.349" y1="268.932" x2="303.929" y2="304.994" gradientUnits="userSpaceOnUse">
<stop stop-color="#740703"/>
<stop offset="1" stop-color="#DA020E" stop-opacity="0"/>
</linearGradient>
<linearGradient id="paint8_linear_29_107" x1="347.007" y1="202.567" x2="330.003" y2="186.567" gradientUnits="userSpaceOnUse">
<stop stop-color="#740703"/>
<stop offset="1" stop-color="#DA020E" stop-opacity="0"/>
</linearGradient>
<linearGradient id="paint9_linear_29_107" x1="102.993" y1="202.567" x2="120.997" y2="183.567" gradientUnits="userSpaceOnUse">
<stop stop-color="#740703"/>
<stop offset="1" stop-color="#DA020E" stop-opacity="0"/>
</linearGradient>
<radialGradient id="paint10_radial_29_107" cx="0" cy="0" r="1" gradientUnits="userSpaceOnUse" gradientTransform="translate(256.528 91.3915) rotate(180) scale(11.9921 11.4182)">
<stop stop-color="#FFE500"/>
<stop offset="0.5" stop-color="#FFE500"/>
<stop offset="1" stop-color="#E15007"/>
</radialGradient>
<radialGradient id="paint11_radial_29_107" cx="0" cy="0" r="1" gradientUnits="userSpaceOnUse" gradientTransform="translate(225 85.8375) scale(9.0599 8.65967)">
<stop stop-color="#FFE500"/>
<stop offset="0.5" stop-color="#FFE500"/>
<stop offset="1" stop-color="#E15007"/>
</radialGradient>
<radialGradient id="paint12_radial_29_107" cx="0" cy="0" r="1" gradientUnits="userSpaceOnUse" gradientTransform="translate(343.701 152.264) rotate(-119.727) scale(18.7126 16.4611)">
<stop stop-color="#FFE500"/>
<stop offset="0.5" stop-color="#FFE500"/>
<stop offset="1" stop-color="#E15007"/>
</radialGradient>
<linearGradient id="paint13_linear_29_107" x1="346.216" y1="144.82" x2="341.667" y2="149.82" gradientUnits="userSpaceOnUse">
<stop stop-color="#FFE500"/>
<stop offset="0.5" stop-color="#FFE500"/>
<stop offset="1" stop-color="#E15007"/>
</linearGradient>
<radialGradient id="paint14_radial_29_107" cx="0" cy="0" r="1" gradientUnits="userSpaceOnUse" gradientTransform="translate(253.32 361.354) rotate(180) scale(10.4891 9.43105)">
<stop stop-color="#FFE500"/>
<stop offset="0.5" stop-color="#FFE500"/>
<stop offset="1" stop-color="#E15007"/>
</radialGradient>
<radialGradient id="paint15_radial_29_107" cx="0" cy="0" r="1" gradientUnits="userSpaceOnUse" gradientTransform="translate(106.561 236.586) scale(19.5182 19.1999)">
<stop stop-color="#DA030E" stop-opacity="0"/>
<stop offset="0.875" stop-color="#DA020E" stop-opacity="0"/>
<stop offset="1" stop-color="#DA020E"/>
</radialGradient>
<radialGradient id="paint16_radial_29_107" cx="0" cy="0" r="1" gradientUnits="userSpaceOnUse" gradientTransform="translate(344.218 236.492) scale(19.5182 19.1999)">
<stop stop-color="#DA030E" stop-opacity="0"/>
<stop offset="0.875" stop-color="#DA020E" stop-opacity="0"/>
<stop offset="1" stop-color="#DA020E"/>
</radialGradient>
</defs>
</svg>
