<svg width="157" height="121" viewBox="0 0 157 121" fill="none" xmlns="http://www.w3.org/2000/svg">
<path d="M23.8431 120.28C18.9365 120.28 14.7498 119.187 11.2831 117C7.86979 114.76 5.25646 111.72 3.44313 107.88C1.68313 104.04 0.803125 99.6933 0.803125 94.84V25.56C0.803125 20.76 1.70979 16.44 3.52313 12.6C5.38979 8.76 8.05646 5.71999 11.5231 3.47999C14.9898 1.23999 19.0965 0.119995 23.8431 0.119995C27.4165 0.119995 30.6165 0.786661 33.4431 2.11999C36.2698 3.45333 38.6698 5.29333 40.6431 7.63999C42.6698 9.93333 44.2165 12.6267 45.2831 15.72C46.3498 18.76 46.8831 22.04 46.8831 25.56V41.72H30.7231V25.56C30.7231 23.1067 30.2165 21.0533 29.2031 19.4C28.1898 17.7467 26.5098 16.92 24.1631 16.92C22.0298 16.92 20.4831 17.7733 19.5231 19.48C18.5631 21.1867 18.0831 23.2133 18.0831 25.56V94.84C18.0831 97.1867 18.5898 99.2133 19.6031 100.92C20.6698 102.627 22.1898 103.48 24.1631 103.48C26.5631 103.48 28.2431 102.653 29.2031 101C30.2165 99.3467 30.7231 97.2933 30.7231 94.84V78.68H46.8831V94.84C46.8831 99.64 45.9498 103.96 44.0831 107.8C42.2165 111.64 39.5498 114.68 36.0831 116.92C32.6698 119.16 28.5898 120.28 23.8431 120.28ZM58.9469 119V1.4H76.2269C86.5735 1.4 94.2002 4.28 99.1069 10.04C104.014 15.7467 106.467 24.1733 106.467 35.32C106.467 41.9333 105.294 47.6667 102.947 52.52C100.654 57.32 97.8535 60.84 94.5469 63.08L106.307 119H89.0269L79.2669 69.4H76.2269V119H58.9469ZM76.2269 53.4C79.4269 53.4 81.9602 52.7067 83.8269 51.32C85.6935 49.88 87.0269 47.8533 87.8269 45.24C88.6269 42.6267 89.0269 39.5333 89.0269 35.96C89.0269 30.36 88.0935 26.0667 86.2269 23.08C84.4135 20.04 81.0802 18.52 76.2269 18.52V53.4ZM120.854 119L138.454 18.52H112.534V1.4H156.054V18.68L138.774 119H120.854Z" fill="white"/>
</svg>
