<svg width="220" height="220" viewBox="0 0 220 220" fill="none" xmlns="http://www.w3.org/2000/svg">
<rect width="220" height="220" rx="55" fill="#222222"/>
<path d="M56.8431 170.28C51.9365 170.28 47.7498 169.187 44.2831 167C40.8698 164.76 38.2565 161.72 36.4431 157.88C34.6831 154.04 33.8031 149.693 33.8031 144.84V75.56C33.8031 70.76 34.7098 66.44 36.5231 62.6C38.3898 58.76 41.0565 55.72 44.5231 53.48C47.9898 51.24 52.0965 50.12 56.8431 50.12C60.4165 50.12 63.6165 50.7867 66.4431 52.12C69.2698 53.4533 71.6698 55.2933 73.6431 57.64C75.6698 59.9333 77.2165 62.6267 78.2831 65.72C79.3498 68.76 79.8831 72.04 79.8831 75.56V91.72H63.7231V75.56C63.7231 73.1067 63.2165 71.0533 62.2031 69.4C61.1898 67.7467 59.5098 66.92 57.1631 66.92C55.0298 66.92 53.4831 67.7733 52.5231 69.48C51.5631 71.1867 51.0831 73.2133 51.0831 75.56V144.84C51.0831 147.187 51.5898 149.213 52.6031 150.92C53.6698 152.627 55.1898 153.48 57.1631 153.48C59.5631 153.48 61.2431 152.653 62.2031 151C63.2165 149.347 63.7231 147.293 63.7231 144.84V128.68H79.8831V144.84C79.8831 149.64 78.9498 153.96 77.0831 157.8C75.2165 161.64 72.5498 164.68 69.0831 166.92C65.6698 169.16 61.5898 170.28 56.8431 170.28ZM91.9469 169V51.4H109.227C119.574 51.4 127.2 54.28 132.107 60.04C137.014 65.7467 139.467 74.1733 139.467 85.32C139.467 91.9333 138.294 97.6667 135.947 102.52C133.654 107.32 130.854 110.84 127.547 113.08L139.307 169H122.027L112.267 119.4H109.227V169H91.9469ZM109.227 103.4C112.427 103.4 114.96 102.707 116.827 101.32C118.694 99.88 120.027 97.8533 120.827 95.24C121.627 92.6267 122.027 89.5333 122.027 85.96C122.027 80.36 121.094 76.0667 119.227 73.08C117.414 70.04 114.08 68.52 109.227 68.52V103.4ZM153.854 169L171.454 68.52H145.534V51.4H189.054V68.68L171.774 169H153.854Z" fill="white"/>
</svg>
