<svg width="238" height="322" viewBox="0 0 238 322" fill="none" xmlns="http://www.w3.org/2000/svg">
<g clip-path="url(#clip0_29_146)">
<path d="M203.133 119.828C181.598 98.3954 151.86 85.1276 118.999 85.1276C86.1374 85.1276 56.3991 98.3954 34.8644 119.828C13.3298 141.261 -0.0012207 170.858 -0.0012207 203.564C-0.0012207 236.27 13.3298 265.867 34.8644 287.3C56.3991 308.732 86.1374 322 118.999 322C151.86 322 181.598 308.732 203.133 287.3C224.668 265.867 237.999 236.27 237.999 203.564C237.952 170.858 224.668 141.261 203.133 119.828Z" fill="#22558C"/>
<path d="M118.999 89.4884C134.427 89.4884 149.203 92.5502 162.767 98.1635C176.844 103.962 189.476 112.452 200.01 122.89C210.544 133.374 219.028 145.946 224.854 159.956C230.448 173.456 233.571 188.162 233.571 203.517C233.571 218.873 230.494 233.579 224.854 247.079C219.028 261.089 210.498 273.661 200.01 284.145C189.476 294.629 176.844 303.073 162.767 308.871C149.203 314.438 134.427 317.547 118.999 317.547C103.57 317.547 88.7478 314.485 75.2304 308.871C61.1536 303.073 48.5218 294.583 37.9875 284.145C27.4533 273.661 18.9699 261.089 13.1434 247.079C7.54999 233.579 4.427 218.873 4.427 203.517C4.427 188.162 7.50338 173.41 13.1434 159.956C18.9699 145.946 27.4999 133.374 37.9875 122.89C48.5218 112.406 61.1536 103.962 75.2304 98.1635C88.7478 92.5966 103.57 89.4884 118.999 89.4884Z" fill="#FED32C"/>
<path d="M215.066 163.992C209.799 151.328 202.061 139.915 192.506 130.405C182.95 120.895 171.484 113.194 158.759 107.952C146.5 102.895 133.076 100.112 119.045 100.112C104.969 100.112 91.5445 102.895 79.3322 107.952C66.6071 113.194 55.1406 120.895 45.5852 130.405C35.9832 139.915 28.2922 151.328 23.0251 163.992C17.8512 176.193 15.0544 189.554 15.0544 203.564C15.0544 217.574 17.8512 230.935 22.9318 243.089C28.199 255.754 35.9365 267.166 45.492 276.676C55.094 286.186 66.5139 293.887 79.2389 299.129C91.4978 304.186 104.922 306.969 118.952 306.969C133.029 306.969 146.453 304.186 158.665 299.129C171.391 293.887 182.857 286.186 192.412 276.676C201.968 267.12 209.705 255.754 214.973 243.089C220.053 230.888 222.85 217.528 222.85 203.564C222.943 189.554 220.146 176.193 215.066 163.992Z" fill="#22558C"/>
<path d="M168.774 253.093C196.26 225.737 196.26 181.384 168.774 154.028C141.288 126.672 96.7235 126.672 69.2372 154.028C41.7508 181.384 41.7508 225.737 69.2372 253.093C96.7235 280.449 141.288 280.449 168.774 253.093Z" fill="#FED32C"/>
<path fill-rule="evenodd" clip-rule="evenodd" d="M60.6875 172.853L64.9292 176.332L67.1665 172.621C67.6327 176.518 68.8446 179.116 70.2429 181.203C72.0608 183.94 74.3448 184.868 75.2304 188.116C75.5567 189.322 77.561 191.873 79.845 193.961C82.7349 196.559 84.7392 197.672 86.2774 198.786V202.682C84.8324 204.585 83.2942 206.811 85.3918 208.621C86.93 209.966 87.7224 210.059 90.1928 210.615V214.048C91.5912 215.254 91.964 215.95 92.803 217.992C93.5488 219.754 94.248 221.517 94.8074 223.698C96.8583 224.301 98.5829 225.136 100.401 226.945V236.084L103.058 237.522C103.244 242.347 105.248 242.996 106.367 245.733C108.791 245.177 111.261 244.852 113.685 244.898V242.903C116.109 242.811 116.901 242.393 118.253 241.929C121.889 240.723 122.169 239.702 124.313 238.543C126.364 237.383 129.067 236.826 131.584 235.481C133.449 234.507 136.618 232.558 138.856 231.167C140.487 230.146 141.839 229.45 142.445 228.012C142.678 227.409 142.678 226.713 142.678 225.692C144.775 225.646 146.36 225.414 147.712 224.486C148.924 223.651 149.623 223.512 151.161 223.048V220.265H153.538C154.098 218.641 154.517 217.76 155.682 217.11C156.288 216.739 156.894 216.461 157.593 216.182C159.132 215.533 158.712 212.981 161.229 212.888L162.348 203.657L168.641 202.451V193.172C167.056 192.291 166.683 191.177 164.958 190.574C162.954 189.925 160.39 189.507 157.92 189.09C154.424 188.487 153.911 186.863 153.818 185.332C153.771 184.544 153.631 183.569 152.839 183.059C152.047 182.595 152.047 182.688 151.254 182.178C149.716 181.25 149.064 182.642 147.292 183.801C146.127 184.59 147.386 186.26 146.174 187.698C144.868 189.183 138.576 189.183 136.758 189.507C135.872 188.162 135.733 187.605 135.313 186.074C134.94 184.636 135.22 183.709 132.889 183.709C131.677 183.709 131.071 183.941 130.279 184.497C130.279 182.41 130.232 180.693 128.135 178.234C127.669 177.678 125.711 176.147 125.291 175.544C124.452 174.384 124.452 174.106 124.033 173.271C123.8 172.899 123.287 172.296 122.495 172.296C121.982 172.296 121.842 171.647 121.749 170.812C121.609 169.003 120.304 168.631 119.558 167.193L123.008 166.961L122.961 163.482L128.694 164.085C128.927 166.637 129.626 168.214 130.652 169.93C132.097 172.296 132.796 171.276 133.821 172.018C134.521 172.528 134.8 173.503 135.546 173.966C136.105 174.291 137.364 174.245 137.97 174.523C138.762 174.894 139.135 175.868 139.928 176.147C142.771 177.214 145.614 177.167 148.597 177.167C150.369 177.167 152.047 174.801 153.771 175.265C155.776 175.822 155.589 177.028 156.475 178.049C156.941 178.606 157.454 179.255 158.06 179.626C158.992 180.183 160.344 180.461 161.975 180.461C164.259 180.461 165.145 179.255 168.594 179.162C169.2 177.91 169.573 174.848 169.713 173.178C174.98 183.987 176.331 192.43 176.192 201.801C176.005 213.724 172.929 224.533 166.869 234.043C160.67 243.831 151.348 252.228 138.856 257.981V249.352C137.69 247.589 137.504 247.403 129.533 248.285C127.296 248.517 125.012 249.073 123.334 249.955C120.957 251.161 119.325 252.738 116.062 252.738C114.524 252.738 111.961 255.615 108.278 255.058V250.558C106.32 250.187 104.083 250.233 101.892 248.795L102.638 244.249C100.121 242.903 98.7228 242.068 97.4176 237.754H95.2269C93.3624 236.27 90.3326 234.924 88.5148 233.115C88.2817 232.883 86.8367 230.935 86.324 230.192L86.0909 222.445C84.3663 221.146 81.1967 220.218 78.9593 216.739C77.7474 214.837 77.7008 211.404 77.3745 209.316C77.0016 207.043 75.1838 201.987 73.7854 201.569C72.76 201.291 72.0142 200.548 71.315 199.667C70.3828 198.507 69.9166 197.997 69.4971 197.348L68.6115 187.281L63.9037 184.08L64.7893 179.58L60.6875 172.853Z" fill="#22558C"/>
<path fill-rule="evenodd" clip-rule="evenodd" d="M101.659 172.296C99.7014 172.343 98.07 172.018 96.6251 171.415L91.0316 175.312C88.468 177.121 85.8577 175.173 85.6713 170.162C83.9 174.198 84.9721 176.1 86.4171 177.353C87.8154 178.606 90.7054 179.951 94.2945 177.446L126.13 222.584L138.016 214.234C136.012 214.187 134.241 214.002 132.889 213.399L127.016 217.528L123.52 212.564C126.783 210.476 127.808 206.208 125.478 202.822L116.901 190.714L120.024 188.533C117.927 188.765 116.202 188.487 114.804 187.745L108.931 191.873L97.2776 175.358L101.659 172.296ZM111.028 194.842L113.965 192.801L122.634 205.048C124.126 207.182 122.961 208.621 121.469 209.548L111.028 194.842Z" fill="#22558C"/>
<path fill-rule="evenodd" clip-rule="evenodd" d="M141.372 207.136C142.631 207.136 143.61 208.11 143.61 209.363C143.61 210.569 142.631 211.59 141.372 211.59C140.16 211.59 139.135 210.615 139.135 209.363C139.135 208.11 140.16 207.136 141.372 207.136Z" fill="#22558C"/>
<path d="M176.937 53.1642C183.37 44.6747 180.713 35.9068 177.217 31.1749C173.441 26.0719 163.28 21.0616 154.983 23.7523C153.864 22.175 151.86 22.4534 150.975 24.0771C147.945 18.974 142.398 16.5617 135.919 16.6545C132.143 16.7009 127.902 17.6287 123.101 19.438C122.401 17.9534 121.469 16.1442 120.164 13.8246L122.821 8.48968L123.101 7.93299L122.821 7.37629L120.071 2.13411L118.999 0.00012207L117.88 2.13411L115.13 7.37629L114.85 7.93299L115.13 8.48968L117.787 13.8246C116.482 16.1906 115.55 17.9534 114.85 19.438C110.049 17.6287 105.808 16.7009 102.032 16.6545C95.5531 16.6081 90.0063 19.0204 86.9765 24.0771C86.0909 22.4534 84.1332 22.175 82.9679 23.7523C74.671 21.0616 64.5096 26.0719 60.734 31.1749C57.2848 35.9068 54.6279 44.6747 61.0603 53.1178C61.0603 53.1178 61.0603 53.1178 61.0137 53.1178C59.5221 54.1384 59.056 55.2982 58.0772 56.6899C60.0349 56.5044 61.8527 56.2724 63.624 57.3858C64.5562 57.9889 65.0223 58.7775 65.7681 59.9837C64.3698 61.0507 64.5096 65.829 68.7047 64.7156C70.0564 66.4321 71.4548 67.6382 72.8997 68.566C74.2515 69.4475 75.743 69.865 77.0016 69.9578C76.7219 70.0969 76.4888 70.2825 76.3024 70.5609C76.1159 70.8856 76.0227 71.3031 76.1159 71.7206C76.2092 72.1381 76.4888 72.4629 76.8151 72.6948C77.1414 72.8804 77.5609 72.9732 77.9804 72.8804C78.2601 72.834 78.5398 72.7412 78.7728 72.6948L79.3322 73.9474L76.4888 77.0556L81.2899 78.4473L81.6161 79.1896C81.5229 79.236 81.4297 79.2824 81.3831 79.3751C81.15 79.5607 80.9636 79.7463 80.7771 79.9318C80.4975 80.303 80.3576 80.7669 80.4508 81.1844C80.4508 81.2772 80.4975 81.4164 80.5441 81.5091C80.5907 81.6019 80.6373 81.6483 80.6839 81.7411C81.2899 82.5297 82.2221 82.3906 83.5272 82.1586C83.8069 82.1122 84.0866 82.0658 84.4128 82.0194C85.6714 81.8339 87.0697 81.6483 88.1884 81.4627C89.4935 81.2772 90.6588 81.0916 91.0317 81.0452C94.3878 80.4885 98.9091 80.071 103.57 79.7927C108.837 79.4679 114.431 79.2824 118.952 79.2824C123.474 79.2824 129.02 79.4679 134.334 79.7927C139.042 80.071 143.517 80.5349 146.873 81.0452C147.246 81.0916 148.411 81.2772 149.716 81.4627C150.835 81.6483 152.233 81.8339 153.492 82.0194C153.818 82.0658 154.098 82.1122 154.377 82.1586C155.682 82.3906 156.615 82.5297 157.221 81.7411C157.267 81.6483 157.314 81.6019 157.36 81.5091C157.407 81.4164 157.454 81.2772 157.454 81.1844C157.547 80.7669 157.407 80.303 157.127 79.9318C156.987 79.7463 156.754 79.5607 156.521 79.3751C156.428 79.3288 156.382 79.2824 156.288 79.1896L156.615 78.4473L161.416 77.0556L158.572 73.9474L159.132 72.6948C159.411 72.7412 159.644 72.834 159.924 72.8804C160.344 72.9732 160.763 72.9268 161.089 72.6948C161.416 72.5093 161.695 72.1381 161.788 71.7206C161.882 71.3031 161.835 70.8856 161.602 70.5609C161.462 70.2825 161.229 70.0969 160.903 69.9578C162.161 69.865 163.653 69.4475 165.005 68.566C166.403 67.6846 167.848 66.4784 169.2 64.7156C173.395 65.829 173.535 61.0507 172.136 59.9837C172.882 58.7311 173.348 57.9425 174.28 57.3858C176.052 56.2724 177.87 56.5044 179.827 56.6899C178.942 55.3446 178.429 54.1848 176.937 53.1642ZM171.018 29.9223C174.607 32.7986 177.776 39.3397 172.649 46.4375L174.234 52.7931C173.768 52.9786 173.348 53.257 173.022 53.5353C172.882 52.7931 172.602 52.0972 172.276 51.5869C170.598 52.7003 169.806 53.5817 168.734 56.1796C168.454 55.8549 168.174 55.5765 167.848 55.3446C167.149 54.8807 166.123 54.7879 165.331 54.8343C164.212 54.8807 163.886 53.7673 163.606 52.8859C162.628 53.257 162.581 54.4168 163.047 55.6229C161.928 56.0868 160.53 56.7363 159.458 57.293L160.483 58.2672C161.229 59.1487 162.301 59.9373 163.28 60.726C162.301 61.1435 162.161 60.8187 161.136 60.6796C160.903 62.1177 163 63.6022 165.611 63.0919C165.191 63.6486 164.865 64.2053 164.306 64.6228C162.954 65.7362 161.555 66.4784 160.39 66.4321C159.365 66.4321 158.665 65.4114 158.153 64.53C158.712 64.3908 159.225 64.1125 159.598 63.695C160.11 63.1383 160.39 62.396 160.39 61.561C160.39 60.726 160.064 59.9837 159.598 59.4734C159.085 58.9167 158.339 58.5456 157.5 58.5456C156.661 58.5456 155.962 58.9167 155.403 59.4734C154.89 60.0301 154.61 60.7724 154.61 61.561C154.61 62.1641 154.797 62.7672 155.076 63.2311C154.004 63.9733 152.699 64.8084 151.487 64.8084C150.369 64.8084 149.25 63.7878 148.644 62.9063C147.991 61.9785 147.618 60.6332 147.665 59.2414C147.665 59.0559 147.665 58.8703 147.712 58.6847C147.898 59.2414 149.157 59.1951 149.902 59.1951C151.58 59.1951 152.047 59.6126 152.792 61.6074C153.678 60.3084 153.585 58.7311 152.979 57.4322C155.356 57.6178 156.195 56.8755 157.593 55.9013C155.449 55.2982 155.03 53.9065 153.678 52.7931C154.237 52.0044 154.564 51.2158 154.703 50.4735C153.538 50.5663 152.373 50.7055 151.208 50.7983C151.487 48.7571 152.559 48.0148 154.237 46.9478C152.839 46.1592 151.674 45.8808 150.042 46.8086C149.902 45.3705 149.39 44.0716 148.737 42.8654C151.72 38.5974 153.352 34.3759 152.792 29.0873C161.322 25.7007 167.755 27.278 171.018 29.9223ZM118.999 71.0248H122.961C123.474 71.0248 123.893 71.4423 123.893 71.9526C123.893 72.4629 123.474 72.8804 122.961 72.8804H118.999H115.037C114.524 72.8804 114.105 72.4629 114.105 71.9526C114.105 71.4423 114.524 71.0248 115.037 71.0248H118.999ZM109.816 71.999C109.816 73.0196 109.071 73.8082 108.138 73.8082C107.206 73.8082 106.46 72.9732 106.46 71.999C106.46 70.9784 107.206 70.1897 108.138 70.1897C109.071 70.1897 109.816 70.9784 109.816 71.999ZM103.197 72.6021C103.291 73.1124 102.918 73.5763 102.405 73.669L96.159 74.5969C95.6463 74.6896 95.1802 74.3185 95.087 73.8082C94.9937 73.2979 95.3666 72.834 95.8794 72.7412L102.125 71.8134C102.638 71.767 103.104 72.0918 103.197 72.6021ZM91.358 74.2721C91.358 75.2927 90.6122 76.0814 89.68 76.0814C88.7478 76.0814 88.002 75.2463 88.002 74.2721C88.002 73.2515 88.7478 72.4629 89.68 72.4629C90.6122 72.4629 91.358 73.2515 91.358 74.2721ZM128.181 71.999C128.181 70.9784 128.927 70.1897 129.859 70.1897C130.792 70.1897 131.537 71.0248 131.537 71.999C131.537 73.0196 130.792 73.8082 129.859 73.8082C128.927 73.8082 128.181 73.0196 128.181 71.999ZM134.8 72.6021C134.893 72.0918 135.36 71.7206 135.872 71.8134L142.118 72.7412C142.631 72.834 143.004 73.2979 142.911 73.8082C142.817 74.3185 142.351 74.6896 141.839 74.5969L135.593 73.669C135.08 73.5763 134.754 73.1124 134.8 72.6021ZM146.64 74.2721C146.64 73.2515 147.385 72.4629 148.318 72.4629C149.25 72.4629 149.996 73.2979 149.996 74.2721C149.996 75.2927 149.25 76.0814 148.318 76.0814C147.432 76.0814 146.64 75.2927 146.64 74.2721ZM113.825 22.3142C113.312 24.1698 113.219 25.9327 113.266 28.4378V28.9017C113.312 31.5924 113.359 34.2367 111.914 36.0459L111.401 36.649L111.821 37.2985L114.477 41.6593C113.825 41.5665 113.033 41.752 112.054 42.2623C113.778 42.9118 112.427 44.2108 112.427 45.1386C110.329 45.185 109.21 45.2778 107.672 44.5819C107.626 46.3911 107.719 47.1334 108.744 48.6643C108.837 48.8499 108.977 48.989 109.117 49.1746C107.532 50.1952 107.672 50.7519 105.761 51.1694C106.227 52.7467 106.926 53.9529 109.304 54.1848C108.837 55.2518 108.698 56.4116 108.744 57.6178C110.003 57.293 110.329 55.9941 111.168 55.6693C113.033 54.9271 114.897 55.5302 116.715 54.9271C117.554 58.592 114.244 62.2105 111.588 62.2569C110.049 62.3033 107.952 60.8187 106.507 58.9631C106.88 58.4528 107.159 57.8033 107.159 57.0611C107.159 56.226 106.833 55.4838 106.367 54.9735C105.854 54.4168 105.109 54.0457 104.269 54.0457C103.43 54.0457 102.731 54.4168 102.172 54.9735C101.659 55.5302 101.38 56.2724 101.38 57.0611C101.38 57.8961 101.706 58.6384 102.172 59.1951C102.498 59.5198 102.871 59.7981 103.291 59.9373C102.358 61.1435 101.846 61.6538 100.913 62.2105C99.9812 62.7672 99.0024 63.0455 98.2566 62.9991C97.1379 62.9991 95.8794 62.3032 94.9005 61.1435C94.2946 60.4012 93.6886 59.3342 93.5022 57.9889C94.2946 57.9889 95.1802 57.8961 95.926 57.8033C97.8837 57.525 98.1633 57.1075 100.028 58.4992C99.888 57.1075 99.888 56.0405 99.1422 55.1126C100.074 54.9735 101.1 54.6487 101.892 53.489L102.964 51.8189C102.265 51.6333 101.659 51.7725 101.007 51.7725C100.634 51.6797 100.261 51.4014 99.8414 51.2158C99.3752 50.9838 98.9557 50.6591 98.3964 50.4735C98.8625 49.4529 98.9557 47.4117 97.6972 46.3911C97.1379 48.2932 96.4853 48.6643 94.8073 48.6643C94.7141 46.9942 95.087 45.6489 95.6463 44.118C94.0615 43.9324 92.9894 44.5819 92.2436 45.9272C91.964 45.185 91.6377 44.5355 91.3114 43.886L93.3623 40.3603C86.9299 32.2419 90.0995 25.2832 93.6886 22.2678C97.1379 19.438 103.803 18.1854 113.825 22.3142ZM144.262 22.3142C147.852 25.2832 151.021 32.2883 144.589 40.4067L146.64 43.9324C146.313 44.5819 145.987 45.2314 145.707 45.9736C145.008 44.6283 143.89 43.9788 142.305 44.1644C142.864 45.6953 143.237 47.0406 143.144 48.7107C141.466 48.6643 140.813 48.3396 140.254 46.4375C138.995 47.4581 139.089 49.4993 139.555 50.5199C138.995 50.7055 138.576 51.0302 138.11 51.2622C137.69 51.4478 137.317 51.7725 136.944 51.8189C136.292 51.7725 135.686 51.6797 134.987 51.8653L136.059 53.5353C136.851 54.6951 137.877 55.0199 138.809 55.159C138.11 56.0405 138.11 57.1075 137.923 58.5456C139.788 57.1539 140.067 57.5714 142.025 57.8497C142.771 57.9425 143.656 58.0353 144.449 58.0353C144.262 59.427 143.656 60.4476 143.051 61.1899C142.072 62.396 140.813 63.0455 139.694 63.0455C138.949 63.0455 137.97 62.8136 137.038 62.2569C136.105 61.7002 135.593 61.1899 134.66 59.9837C135.08 59.8445 135.499 59.5662 135.779 59.2414C136.292 58.6848 136.571 57.9425 136.571 57.1075C136.571 56.2724 136.245 55.5302 135.779 55.0199C135.266 54.4632 134.521 54.092 133.682 54.092C132.843 54.092 132.143 54.4632 131.584 55.0199C131.071 55.5766 130.792 56.3188 130.792 57.1075C130.792 57.8033 131.025 58.4528 131.444 59.0095C130.046 60.8651 127.902 62.3496 126.363 62.3032C123.707 62.2105 120.397 58.592 121.236 54.9735C123.101 55.6229 124.965 54.9735 126.783 55.7157C127.575 56.0405 127.902 57.3394 129.207 57.6641C129.3 56.458 129.16 55.2982 128.694 54.2312C131.071 53.9529 131.77 52.7931 132.237 51.2158C130.326 50.7983 130.512 50.2416 128.881 49.221C129.02 49.0818 129.114 48.8962 129.253 48.7107C130.279 47.1798 130.372 46.4375 130.326 44.6283C128.741 45.3241 127.669 45.2314 125.571 45.185C125.571 44.2571 124.219 42.9582 125.944 42.3087C124.919 41.7984 124.126 41.6592 123.52 41.7056L126.177 37.3449L126.597 36.6954L126.084 36.0923C124.639 34.3295 124.685 31.6852 124.732 28.9481V28.4842C124.779 25.9327 124.685 24.2162 124.173 22.3606C134.194 18.1854 140.86 19.438 144.262 22.3142ZM146.779 52.0044C147.665 52.0044 148.364 52.7467 148.364 53.6745C148.364 54.6023 147.665 55.3446 146.779 55.3446C145.894 55.3446 145.195 54.6023 145.195 53.6745C145.148 52.7467 145.894 52.0044 146.779 52.0044ZM118.999 26.1646C118.16 26.1646 117.507 25.5152 117.507 24.6801C117.507 23.8915 118.16 23.1956 118.999 23.1956C119.791 23.1956 120.49 23.8451 120.49 24.6801C120.49 25.5152 119.791 26.1646 118.999 26.1646ZM118.999 33.1697C119.791 33.1697 120.49 33.8192 120.49 34.6542C120.49 35.4429 119.838 36.1387 118.999 36.1387C118.16 36.1387 117.507 35.4892 117.507 34.6542C117.507 33.8192 118.16 33.1697 118.999 33.1697ZM118.999 48.5251C119.884 48.5251 120.584 49.2674 120.584 50.1952C120.584 51.123 119.884 51.8653 118.999 51.8653C118.113 51.8653 117.414 51.123 117.414 50.1952C117.414 49.2674 118.113 48.5251 118.999 48.5251ZM92.8496 53.6745C92.8496 54.6023 92.1504 55.3446 91.2648 55.3446C90.3792 55.3446 89.68 54.6023 89.68 53.6745C89.68 52.7467 90.3792 52.0044 91.2648 52.0044C92.1038 52.0044 92.8496 52.7467 92.8496 53.6745ZM102.358 65.2723C103.337 64.762 104.269 64.0661 105.155 63.1847C105.948 63.8806 106.833 64.4372 107.626 64.8548C108.232 65.1795 108.837 65.4114 109.443 65.5506C108.884 65.5506 108.325 65.597 107.765 65.6434C105.155 65.7826 102.591 65.9681 100.028 66.2001C100.82 66.0145 101.566 65.6898 102.358 65.2723ZM116.016 64.1589C117.088 63.463 118.113 62.4888 118.999 61.3754C119.884 62.4888 120.957 63.463 121.982 64.1589C122.821 64.762 123.66 65.1795 124.546 65.4578C122.681 65.4114 120.863 65.4114 118.999 65.4114C117.181 65.4114 115.317 65.4114 113.452 65.4578C114.291 65.1331 115.13 64.7156 116.016 64.1589ZM130.372 64.8548C131.165 64.4372 132.05 63.8806 132.843 63.1847C133.728 64.0661 134.66 64.762 135.639 65.2723C136.432 65.6898 137.177 65.9681 137.923 66.1537C135.36 65.9218 132.749 65.7362 130.186 65.597C129.626 65.5506 129.067 65.5506 128.508 65.5042C129.16 65.4115 129.766 65.1795 130.372 64.8548ZM82.5484 67.3135C83.6204 67.7774 84.5527 68.0557 85.4383 68.1949C83.8535 68.4733 82.2687 68.798 80.7305 69.1691C81.3365 68.6588 82.0356 68.0093 82.5484 67.3135ZM92.2903 64.2053C92.8496 64.762 93.2691 65.2259 93.8751 65.597C94.8539 66.2001 96.159 66.432 97.3709 66.4784C97.2311 66.4784 97.1379 66.5248 96.998 66.5248C94.2479 66.8032 91.5911 67.1743 88.9342 67.5918C90.2393 66.9424 91.3114 65.7826 92.2903 64.2053ZM144.123 65.597C144.729 65.2259 145.148 64.762 145.707 64.2053C146.686 65.7826 147.805 66.9424 149.11 67.5918C146.453 67.1743 143.75 66.8032 141.046 66.5248C140.906 66.5248 140.813 66.4784 140.673 66.4784C141.792 66.3857 143.144 66.1537 144.123 65.597ZM155.449 67.3135C155.962 68.0093 156.661 68.6588 157.267 69.1227C155.729 68.798 154.144 68.4733 152.559 68.1485C153.445 68.0557 154.377 67.7774 155.449 67.3135ZM85.112 29.1801C84.5527 34.4686 86.1841 38.6438 89.1673 42.9582C88.5147 44.2108 88.002 45.4633 87.8621 46.9014C86.2307 45.9736 85.0654 46.252 83.6671 47.0406C85.3451 48.1076 86.4172 48.8499 86.6968 50.8911C85.5315 50.7983 84.3662 50.6591 83.201 50.5663C83.3408 51.355 83.6671 52.1436 84.2264 52.8859C82.8747 53.9993 82.5018 55.391 80.311 55.9941C81.7094 56.9683 82.5484 57.7105 84.9256 57.525C84.3196 58.8703 84.2264 60.4012 85.112 61.7002C85.8578 59.659 86.3239 59.2878 88.002 59.2878C88.7478 59.2878 90.0063 59.3342 90.1927 58.7775C90.1927 58.9631 90.2393 59.1487 90.2393 59.3342C90.2393 60.726 89.9131 62.0713 89.2605 62.9991C88.6545 63.8805 87.5358 64.9011 86.4172 64.9011C85.2053 64.9011 83.9001 64.0661 82.828 63.3239C83.1543 62.8599 83.2942 62.2569 83.2942 61.6538C83.2942 60.8187 82.9679 60.0765 82.5018 59.5662C81.989 59.0095 81.2433 58.6384 80.4042 58.6384C79.5652 58.6384 78.8661 59.0095 78.3067 59.5662C77.794 60.1229 77.5143 60.8651 77.5143 61.6538C77.5143 62.4888 77.8406 63.2311 78.3067 63.7878C78.6796 64.2053 79.1923 64.53 79.7517 64.6228C79.2389 65.5042 78.5398 66.5248 77.5143 66.5248C76.3024 66.5248 74.9507 65.829 73.5989 64.7156C73.0862 64.2981 72.7133 63.7414 72.2938 63.1847C74.904 63.6486 77.0016 62.1641 76.7685 60.7723C75.743 60.8651 75.6032 61.2363 74.6244 60.8187C75.6032 60.0301 76.6753 59.195 77.4211 58.36L78.4465 57.3858C77.3745 56.7827 76.0227 56.1332 74.8574 55.7157C75.3235 54.5096 75.3235 53.3498 74.2981 52.9787C74.0184 53.8601 73.6921 54.9735 72.5734 54.9271C71.781 54.8807 70.7556 54.9271 70.0564 55.4374C69.7301 55.6693 69.4505 55.9477 69.1708 56.2724C68.0987 53.6745 67.3529 52.7931 65.6283 51.6797C65.302 52.2364 65.0689 52.8859 64.8825 53.6281C64.5562 53.3498 64.1367 53.0714 63.6706 52.8859L65.2554 46.5303C60.1281 39.4325 63.2977 32.9377 66.8868 30.0151C70.2429 27.278 76.6753 25.7007 85.112 29.1801ZM68.1919 63.6022C67.6326 63.8805 66.9334 63.5558 66.5605 62.8599C66.2342 62.1641 66.3741 61.3754 66.9334 61.0971C67.4928 60.8187 68.1919 61.1435 68.5648 61.8393C68.8911 62.5816 68.7513 63.3702 68.1919 63.6022ZM79.4254 76.2669L81.0102 74.5505L83.6671 75.0144L81.989 77.0092L79.4254 76.2669ZM155.962 77.0092L154.284 75.0144L156.941 74.5505L158.526 76.2669L155.962 77.0092ZM171.437 62.8599C171.111 63.5558 170.365 63.8805 169.806 63.6022C169.246 63.3239 169.107 62.5352 169.433 61.8393C169.759 61.1435 170.505 60.8187 171.064 61.0971C171.624 61.3754 171.763 62.1641 171.437 62.8599Z" fill="#22558C"/>
<path d="M60.9203 257.981C59.755 256.45 55.7464 253.527 51.7378 256.682C47.6825 259.836 48.8944 264.011 50.2928 265.96C51.6911 267.908 56.2591 270.599 60.0347 266.98C63.7636 263.408 62.0856 259.511 60.9203 257.981ZM58.0304 264.151C55.187 266.702 52.3437 267.398 50.9454 265.45C49.547 263.501 51.4115 261.182 54.1149 259.187C56.8184 257.192 58.8694 256.96 60.0813 258.398C61.2466 259.836 60.8737 261.599 58.0304 264.151Z" fill="#FED32C"/>
<path d="M87.2095 282.568L88.9341 279.506L78.4465 273.753L76.7218 276.815L77.5608 277.279C78.4465 276.491 79.6584 275.377 80.7304 275.98L81.9423 276.676L77.0481 285.537C76.7684 286.001 76.3955 285.954 75.137 285.258L74.6709 286.094L80.5906 289.341L81.0567 288.506C79.705 287.764 79.5651 287.485 79.8914 286.882L84.7391 278.161L85.9976 278.856C87.023 279.413 86.8366 280.851 86.5569 282.197L87.2095 282.568Z" fill="#FED32C"/>
<path d="M145.055 289.758C144.822 291.985 144.542 293.145 142.771 293.609L140.86 294.119C140.487 294.212 140.021 294.026 139.881 293.516L137.597 284.887C137.364 284.052 137.876 283.681 139.182 283.356L138.948 282.568L132.376 284.284L132.609 285.073C133.868 284.748 134.381 284.841 134.567 285.49L136.898 294.258C137.177 295.233 136.338 295.372 135.406 295.604L135.639 296.485L146.593 293.609L145.661 289.619L145.055 289.758Z" fill="#FED32C"/>
<path d="M177.263 270.181C178.009 272.269 178.335 273.429 176.891 274.681L175.399 275.98C175.119 276.212 174.607 276.305 174.234 275.841L168.361 269.068C167.801 268.419 168.127 267.862 169.106 267.027L168.547 266.424L163.42 270.831L163.979 271.434C164.958 270.599 165.471 270.46 165.89 270.97L171.856 277.836C172.509 278.625 171.856 279.042 171.111 279.692L171.717 280.387L180.293 273.011L177.683 269.857L177.263 270.181Z" fill="#FED32C"/>
<path d="M187.844 258.259L182.857 254.223C182.111 253.62 182.251 252.878 183.183 251.718L182.484 251.161L179.128 255.29L179.827 255.847C180.666 254.826 181.459 254.687 181.925 255.058L187.099 259.279C188.59 260.486 188.73 262.249 187.565 263.687C186.586 264.846 184.955 265.403 183.23 264.011L177.87 259.697C177.357 259.279 177.357 258.862 178.196 257.841L177.497 257.238L173.441 262.202L174.141 262.759C174.98 261.738 175.492 261.831 176.052 262.295L181.132 266.424C183.882 268.65 186.353 266.888 188.311 264.614C189.429 263.362 190.362 260.3 187.844 258.259Z" fill="#FED32C"/>
<path d="M114.431 295.418L111.587 284.98L109.676 284.748L104.316 294.722C103.896 295.511 103.477 295.743 102.125 295.557L102.032 296.485L107.066 297.042L107.159 296.114C105.295 295.882 104.969 295.604 105.295 294.954L106.46 292.774L110.702 293.238L111.354 295.511C111.774 296.856 110.748 296.531 109.723 296.439L109.63 297.366L116.342 298.109L116.435 297.181C114.99 297.042 114.664 296.299 114.431 295.418ZM106.973 291.939L109.164 287.856L110.469 292.31L106.973 291.939Z" fill="#FED32C"/>
<path d="M165.61 280.295C165.61 282.846 164.725 283.959 163.42 284.655C161.276 285.769 159.038 284.145 157.36 281.222C155.682 278.3 156.288 275.887 157.5 275.192C158.619 274.542 160.576 274.125 163 276.769L163.653 276.351L161.089 272.501L160.39 273.011L160.716 273.568C158.805 273.522 157.733 273.893 157.034 274.31C156.428 274.635 155.496 275.284 154.89 276.259C153.911 277.836 153.025 280.805 154.61 283.31C156.195 285.908 158.292 286.882 160.297 286.882C162.627 286.882 164.072 285.908 165.377 284.47C166.403 283.356 166.45 281.733 166.31 280.295H165.61Z" fill="#FED32C"/>
<path d="M130.652 293.191C129.999 295.325 129.533 296.439 127.668 296.578L125.664 296.717C125.291 296.763 124.872 296.485 124.825 295.928L124.173 287.021C124.126 286.14 124.685 285.908 125.99 285.815L125.944 284.98L119.185 285.444L119.232 286.279C120.537 286.186 121.003 286.372 121.05 287.021L121.702 296.068C121.795 297.088 120.956 297.042 119.977 297.088L120.024 297.97L131.351 297.181L131.164 293.099L130.652 293.191Z" fill="#FED32C"/>
<path d="M72.1072 268.604C70.6622 267.305 66.1875 265.171 62.8314 269.068C59.4754 272.918 61.4331 276.815 63.1577 278.485C64.8824 280.155 69.9164 281.918 72.8996 277.697C75.9294 273.429 73.5055 269.903 72.1072 268.604ZM70.4291 275.238C68.0986 278.253 65.4417 279.46 63.717 277.836C61.9924 276.166 63.3442 273.568 65.6281 271.109C67.9121 268.65 69.8698 268.047 71.3148 269.207C72.7598 270.413 72.7597 272.223 70.4291 275.238Z" fill="#FED32C"/>
<path d="M97.6506 282.382L90.8453 280.155L90.5656 280.99C91.8242 281.408 92.1038 281.779 91.8708 282.475L89.074 290.918C88.8876 291.521 88.4215 291.66 87.163 291.243L86.8833 292.078L93.6886 294.305C96.2523 295.14 98.8625 294.305 99.3753 292.449C100.028 290.269 98.8625 289.248 96.9515 288.135C99.1422 288.088 100.447 287.3 100.68 286.233C101.053 284.516 100.494 283.356 97.6506 282.382ZM96.2057 290.965C95.8794 292.356 94.6675 293.702 93.0361 293.145L91.7775 292.727L93.4556 287.624L94.4344 287.949C95.8794 288.413 96.4853 289.758 96.2057 290.965ZM97.371 285.212C97.0447 286.465 95.5065 287.392 94.6209 287.068L93.7352 286.789L95.1802 282.475L95.926 282.707C96.8116 283.032 97.6506 284.099 97.371 285.212Z" fill="#FED32C"/>
<path d="M50.4327 250.28C49.2208 250.975 48.475 251.022 47.8225 249.908L47.0767 248.61L51.3183 246.151L52.9032 248.841C53.5557 249.723 52.7633 250.883 51.8777 251.857L52.3904 252.785L55.327 251.115L49.7802 241.558L48.9412 242.068C49.8268 243.553 49.5937 243.692 48.8945 244.11L41.0171 248.656C40.4112 248.981 40.1781 248.563 39.5722 247.496L38.7332 248.006L41.996 253.62L42.835 253.109C42.3223 252.228 42.1824 251.532 42.6952 251.207L46.5173 248.981L47.2631 250.28C47.8691 251.3 47.403 252.089 46.1444 252.785L46.5639 253.527L50.9455 251.022L50.4327 250.28Z" fill="#FED32C"/>
<path d="M197.167 243.46C195.162 242.44 193.904 243.367 192.459 245.037C192.832 242.903 192.273 241.465 191.247 241.048C189.662 240.352 188.404 240.677 186.912 243.321L183.463 249.537L184.209 249.955C184.861 248.795 185.281 248.61 185.933 248.934L193.764 253.249C194.323 253.573 194.37 253.991 193.717 255.197L194.463 255.615L197.959 249.398C199.218 247.032 198.891 244.295 197.167 243.46ZM191.014 247.125L190.548 247.96L186.539 245.733L186.912 245.037C187.378 244.202 188.59 243.599 189.662 244.063C190.828 244.574 191.434 246.29 191.014 247.125ZM196.654 249.769L196.001 250.929L191.294 248.331L191.806 247.45C192.552 246.104 193.951 245.733 195.116 246.244C196.421 246.847 197.493 248.285 196.654 249.769Z" fill="#FED32C"/>
<path d="M91.4977 114.771L93.8283 125.441C94.1546 126.972 94.1546 128.689 91.1714 129.338L91.4511 130.591L99.9345 128.782L99.6548 127.529C97.0912 128.086 95.9259 126.787 95.553 125.024L93.269 114.493L108.837 126.787L111.354 126.23L107.905 110.457C107.532 108.833 107.998 107.581 110.562 107.024L110.282 105.772L101.985 107.581L102.265 108.833C104.782 108.277 105.854 109.529 106.134 110.643L108.185 119.967L94.5741 109.205L87.1628 110.782L87.4425 112.034C90.146 111.478 91.1715 113.38 91.4977 114.771Z" fill="#FED32C"/>
<path d="M122.821 124.978C119.791 124.653 119.185 124.235 119.791 123.075L121.656 119.503L128.601 120.199L129.72 123.864C130.419 126.091 128.787 125.534 127.063 125.395L126.923 126.88L137.97 127.993L138.11 126.508C135.686 126.276 135.127 125.024 134.754 123.632L129.906 106.514L126.783 106.189L118.206 122.658C117.507 124.003 116.855 124.328 114.617 124.096L114.478 125.581L122.774 126.416L122.821 124.978ZM125.897 111.339L128.135 118.622L122.402 118.065L125.897 111.339Z" fill="#FED32C"/>
<path d="M159.971 129.849L155.776 135.647L157.174 136.622L157.733 135.879C159.784 139.312 162.441 142.049 165.89 142.977C169.666 143.951 173.069 141.864 173.814 139.034C174.56 136.158 172.789 134.024 171.437 131.936C170.505 130.544 168.454 128.457 169.013 126.416C169.386 125.07 171.437 124.189 172.789 124.56C175.073 125.163 177.077 128.225 175.213 133.653L176.192 134.395L180.293 128.735L178.895 127.761L178.289 128.596C177.17 125.905 174.327 123.029 171.484 122.287C167.568 121.266 164.445 123.354 163.746 126.045C162.814 129.524 165.051 131.704 166.869 134.302C167.755 135.555 168.827 137.086 168.407 138.663C168.035 140.055 166.31 141.122 164.632 140.658C161.183 139.73 159.505 135.74 161.043 130.637L159.971 129.849Z" fill="#FED32C"/>
<path d="M52.4371 162.74L53.6024 163.668L58.7763 157.173L57.5644 156.245C55.6534 158.611 54.9542 158.889 54.3016 157.776L52.2973 154.297L56.6322 148.822L60.3611 149.843C62.5985 150.493 61.2934 151.56 60.2213 152.905L61.4332 153.833L68.3318 145.204L67.1199 144.276C65.5817 146.178 64.2765 145.993 62.8316 145.529L45.725 140.379L43.7673 142.838L53.0897 158.936C53.8821 160.235 53.8355 160.977 52.4371 162.74ZM47.7293 146.317L55.094 148.359L51.5049 152.859L47.7293 146.317Z" fill="#FED32C"/>
<path d="M156.521 127.111C156.521 124.142 154.284 122.519 152.42 120.849C151.161 119.735 148.644 118.204 148.691 116.117C148.691 114.725 150.508 113.38 151.907 113.38C154.284 113.38 156.941 115.838 156.568 121.545L157.733 122.008L160.25 115.514L158.665 114.911L158.293 115.885C156.521 113.565 153.072 111.478 150.136 111.478C146.127 111.478 143.61 114.261 143.563 117.045C143.517 120.617 146.22 122.194 148.644 124.282C149.809 125.302 151.254 126.508 151.208 128.132C151.161 129.57 149.809 131.008 148.038 131.008C144.449 131.008 141.839 127.529 142.025 122.194L140.86 121.73L138.25 128.364L139.834 128.967L140.161 128.086C143.004 130.916 146.267 132.864 149.856 132.91C153.771 132.91 156.521 130.034 156.521 127.111Z" fill="#FED32C"/>
<path d="M186.632 138.941L174.42 147.987C173.581 148.498 173.255 148.127 171.857 146.178L170.924 146.874L177.45 155.596L178.382 154.9C177.31 153.462 176.797 152.58 177.683 151.977L183.183 147.941L183.416 148.266C183.649 148.544 183.649 149.008 183.51 149.333L180.387 159.492L184.908 165.57L185.84 164.874C184.768 163.018 184.954 162.693 185.234 161.441L187.611 152.395C190.595 154.575 193.764 154.25 195.535 152.395C197.027 150.817 197.213 148.08 194.976 145.065L187.285 134.812L186.073 135.694C187.285 137.364 187.705 138.153 186.632 138.941ZM192.366 144.183C193.438 145.622 192.739 147.338 191.34 148.544C189.662 150.029 186.866 150.632 185.747 149.101L184.255 147.06L190.874 142.142L192.366 144.183Z" fill="#FED32C"/>
<path d="M60.8738 129.292L69.497 141.122C70.4759 142.467 69.3106 143.07 68.0055 144.044L68.8445 145.204L83.9933 134.256L80.2644 128.828L79.5186 129.431C80.4042 132.91 80.7305 134.859 78.2134 136.668L75.5566 138.616C75.0438 138.988 74.2514 138.988 73.6921 138.245L65.2087 126.601C64.3697 125.441 64.9757 124.606 66.7469 123.354L65.9545 122.287L56.8652 128.828L57.6576 129.895C59.3823 128.596 60.2213 128.457 60.8738 129.292Z" fill="#FED32C"/>
</g>
<defs>
<clipPath id="clip0_29_146">
<rect width="238" height="322" fill="white" transform="translate(-0.0012207 0.00012207)"/>
</clipPath>
</defs>
</svg>
