<svg width="667" height="665" viewBox="0 0 667 665" fill="none" xmlns="http://www.w3.org/2000/svg">
<path d="M666.667 333.332C666.667 149.238 517.428 -0.000996358 333.333 -0.000996358C149.239 -0.000996358 0 149.238 0 333.332C0 489.659 107.62 620.828 252.808 656.85V435.194H184.072V333.332H252.808V289.44C252.808 175.984 304.152 123.398 415.539 123.398C436.656 123.398 473.095 127.538 488.001 131.679V224.018C480.133 223.19 466.469 222.775 449.492 222.775C394.835 222.775 373.716 243.479 373.716 297.308V333.332H482.595L463.891 435.194H373.716V664.224C538.764 644.29 666.667 503.756 666.667 333.332Z" fill="#343434"/>
</svg>
