<svg width="744" height="744" viewBox="0 0 744 744" fill="none" xmlns="http://www.w3.org/2000/svg">
<path d="M372.203 0.401855C271.226 0.401855 258.554 0.842922 218.894 2.64651C179.312 4.45766 152.294 10.7196 128.653 19.9076C104.199 29.3969 83.4553 42.0908 62.7892 62.7493C42.1076 83.4007 29.4039 104.129 19.8764 128.557C10.6585 152.188 4.38417 179.194 2.60287 218.731C0.829141 258.361 0.364258 271.032 0.364258 371.933C0.364258 472.835 0.813641 485.459 2.61043 525.089C4.43103 564.642 10.6975 591.64 19.884 615.263C29.3884 639.699 42.0918 660.427 62.7658 681.078C83.4247 701.745 104.168 714.47 128.607 723.959C152.263 733.147 179.289 739.409 218.863 741.22C258.523 743.023 271.187 743.465 372.156 743.465C473.141 743.465 485.774 743.024 525.434 741.22C565.016 739.409 592.065 733.147 615.721 723.959C640.167 714.47 660.88 701.745 681.539 681.078C702.22 660.427 714.924 639.699 724.452 615.271C733.592 591.64 739.866 564.634 741.725 525.097C743.506 485.467 743.971 472.835 743.971 371.933C743.971 271.031 743.506 258.369 741.725 218.738C739.866 179.186 733.592 152.188 724.452 128.565C714.924 104.129 702.22 83.4003 681.539 62.7493C660.857 42.0829 640.175 29.3889 615.698 19.9072C591.995 10.7196 564.962 4.45766 525.38 2.64651C485.72 0.842922 473.094 0.401855 372.087 0.401855H372.203ZM338.848 67.3551C348.748 67.3396 359.794 67.3551 372.203 67.3551C471.475 67.3551 483.241 67.7111 522.444 69.4913C558.695 71.1478 578.37 77.2004 591.476 82.2857C608.827 89.0197 621.198 97.0697 634.203 110.073C647.216 123.077 655.272 135.461 662.027 152.799C667.116 165.88 673.181 185.541 674.831 221.765C676.612 260.93 677 272.696 677 371.848C677 471 676.612 482.766 674.831 521.931C673.173 558.156 667.116 577.816 662.027 590.897C655.288 608.235 647.216 620.581 634.203 633.576C621.19 646.58 608.835 654.63 591.476 661.364C578.385 666.473 558.695 672.51 522.444 674.166C483.249 675.946 471.475 676.333 372.203 676.333C272.922 676.333 261.156 675.946 221.961 674.166C185.71 672.495 166.036 666.442 152.922 661.356C135.57 654.622 123.177 646.572 110.164 633.569C97.1504 620.565 89.0947 608.212 82.34 590.866C77.2508 577.785 71.1858 558.125 69.5361 521.9C67.7544 482.735 67.398 470.97 67.398 371.755C67.398 272.541 67.7544 260.837 69.5361 221.672C71.1938 185.448 77.2508 165.788 82.34 152.691C89.0789 135.353 97.1504 122.969 110.164 109.965C123.177 96.9612 135.57 88.9116 152.922 82.1621C166.028 77.0533 185.71 71.0163 221.961 69.3518C256.261 67.8037 269.553 67.3396 338.849 67.2617L338.848 67.3551ZM570.671 129.045C546.038 129.045 526.053 148.991 526.053 173.613C526.053 198.227 546.038 218.197 570.671 218.197C595.302 218.197 615.287 198.227 615.287 173.613C615.287 148.999 595.302 129.029 570.67 129.029L570.671 129.045ZM372.203 181.136C266.756 181.136 181.264 266.565 181.264 371.933C181.264 477.301 266.756 562.691 372.203 562.691C477.649 562.691 563.11 477.301 563.11 371.933C563.11 266.565 477.641 181.136 372.195 181.136H372.203ZM372.203 248.089C440.646 248.089 496.139 303.533 496.139 371.933C496.139 440.326 440.646 495.777 372.203 495.777C303.752 495.777 248.267 440.326 248.267 371.933C248.267 303.533 303.752 248.089 372.203 248.089Z" fill="#343434"/>
</svg>
