<svg width="262" height="352" viewBox="0 0 262 352" fill="none" xmlns="http://www.w3.org/2000/svg">
<g clip-path="url(#clip0_29_106)">
<path d="M182.471 101.957C180.943 101.957 179.749 100.763 179.749 99.3159C179.749 97.8688 180.943 96.6752 182.471 96.6752C184 96.6752 185.194 97.8688 185.194 99.3159C185.276 100.763 184 101.957 182.471 101.957ZM19.9966 225.368C19.9966 166.389 69.8681 118.471 130.809 118.471C191.751 118.471 241.622 166.471 241.622 225.368C241.622 284.176 191.751 332.347 130.809 332.347C69.8763 332.265 19.9966 284.176 19.9966 225.368ZM174.296 62.1249C176.936 62.8034 178.547 65.3624 177.869 67.9132C177.19 70.464 174.467 72.001 171.827 71.3143C169.186 70.6275 167.575 68.0767 168.254 65.5259C168.933 62.9751 171.655 61.4381 174.296 62.1249ZM178.809 52.7637C180.338 52.7637 181.531 53.9574 181.531 55.4045C181.531 56.8516 180.338 58.0452 178.809 58.0452C177.28 58.0452 176.086 56.8516 176.086 55.4045C176.004 53.8756 177.28 52.7637 178.809 52.7637ZM176.511 43.2309C178.04 43.2309 179.234 44.4246 179.234 45.8716C179.234 47.3187 178.04 48.5124 176.511 48.5124C174.983 48.5124 173.789 47.3187 173.789 45.8716C173.707 44.4246 174.983 43.2309 176.511 43.2309ZM210.555 68.2566C212.084 68.2566 213.277 69.4502 213.277 70.8973C213.277 72.3444 212.084 73.5381 210.555 73.5381C209.026 73.5381 207.832 72.3444 207.832 70.8973C207.832 69.4502 209.026 68.2566 210.555 68.2566ZM208.257 58.8137C209.786 58.8137 210.98 60.0074 210.98 61.4544C210.98 62.9015 209.786 64.0952 208.257 64.0952C206.729 64.0952 205.535 62.9015 205.535 61.4544C205.535 60.0074 206.729 58.8137 208.257 58.8137ZM204.17 50.4745C205.698 50.4745 206.892 51.6682 206.892 53.1153C206.892 54.5624 205.617 55.756 204.17 55.756C202.641 55.756 201.447 54.5624 201.447 53.1153C201.365 51.6682 202.641 50.4745 204.17 50.4745ZM197.613 43.0674C199.142 43.0674 200.335 44.261 200.335 45.7081C200.335 47.1552 199.142 48.3489 197.613 48.3489C196.084 48.3489 194.89 47.1552 194.89 45.7081C194.89 44.261 196.084 43.0674 197.613 43.0674ZM189.609 37.4507C191.138 37.4507 192.331 38.6444 192.331 40.0915C192.331 41.5385 191.138 42.7322 189.609 42.7322C188.08 42.7322 186.886 41.5385 186.886 40.0915C186.886 38.6444 188.08 37.4507 189.609 37.4507ZM180.926 34.1314C182.455 34.1314 183.649 35.3251 183.649 36.7721C183.649 38.2192 182.455 39.4129 180.926 39.4129C179.397 39.4129 178.204 38.2192 178.204 36.7721C178.204 35.3251 179.479 34.1314 180.926 34.1314ZM172.162 34.8999C173.691 34.8999 174.884 36.0936 174.884 37.5407C174.884 38.9877 173.691 40.1814 172.162 40.1814C170.633 40.1814 169.439 38.9877 169.439 37.5407C169.439 36.0936 170.633 34.8999 172.162 34.8999ZM165.695 27.6645C167.224 27.6645 168.417 28.8581 168.417 30.3052C168.417 31.7523 167.142 32.9459 165.695 32.9459C164.166 32.9459 162.972 31.7523 162.972 30.3052C162.972 28.8581 164.166 27.6645 165.695 27.6645ZM157.266 22.3012C158.795 22.3012 159.988 23.4949 159.988 24.942C159.988 26.3891 158.795 27.5827 157.266 27.5827C155.737 27.5827 154.543 26.3891 154.543 24.942C154.543 23.4949 155.737 22.3012 157.266 22.3012ZM148.502 19.1536C150.03 19.1536 151.224 20.3472 151.224 21.7943C151.224 23.2414 150.03 24.4351 148.502 24.4351C146.973 24.4351 145.779 23.2414 145.779 21.7943C145.779 20.3472 146.973 19.1536 148.502 19.1536ZM139.566 17.6248C141.094 17.6248 142.288 18.8184 142.288 20.2655C142.288 21.7126 141.094 22.9062 139.566 22.9062C138.037 22.9062 136.843 21.7126 136.843 20.2655C136.761 18.8184 138.037 17.6248 139.566 17.6248ZM54.5551 87.4939C53.4082 88.1016 52.0719 88.2461 50.8216 87.8978C49.5713 87.5495 48.5022 86.7348 47.8347 85.6217C47.5198 85.0731 47.3203 84.4659 47.2484 83.8374C47.1766 83.2089 47.2339 82.5723 47.4168 81.9668C47.5998 81.3612 47.9046 80.7994 48.3124 80.3159C48.7203 79.8323 49.2226 79.4372 49.7887 79.1547C50.9356 78.5471 52.2719 78.4025 53.5222 78.7508C54.7725 79.0992 55.8416 79.9138 56.5091 81.027C57.7845 83.3243 56.9342 86.2185 54.5551 87.4939ZM89.7922 71.3225C87.1514 72.001 84.4289 70.4722 83.7504 67.9214C83.0718 65.3706 84.6905 62.7298 87.3231 62.133C89.9638 61.4544 92.6863 62.9833 93.3649 65.5341C94.0435 68.0849 92.4247 70.7256 89.7922 71.3225ZM130.809 66.3026C130.172 66.3145 129.539 66.2006 128.945 65.9674C128.352 65.7342 127.81 65.3863 127.352 64.9436C126.893 64.5008 126.526 63.972 126.272 63.3873C126.018 62.8026 125.882 62.1736 125.871 61.5362C125.871 58.8955 128.087 56.7698 130.809 56.7698C133.532 56.7698 135.748 58.8955 135.748 61.5362C135.748 64.1769 133.532 66.3026 130.809 66.3026ZM82.8919 58.0452C81.3631 58.0452 80.1694 56.8516 80.1694 55.4045C80.1694 53.9574 81.3631 52.7637 82.8919 52.7637C84.4208 52.7637 85.6144 53.9574 85.6144 55.4045C85.6144 56.8516 84.339 58.0452 82.8919 58.0452ZM85.1893 48.5124C83.6604 48.5124 82.4668 47.3187 82.4668 45.8716C82.4668 44.4246 83.6604 43.2309 85.1893 43.2309C86.7181 43.2309 87.9118 44.4246 87.9118 45.8716C87.9118 47.3187 86.6364 48.5124 85.1893 48.5124ZM51.0641 73.6198C49.5352 73.6198 48.3416 72.4262 48.3416 70.9791C48.3416 69.532 49.5352 68.3384 51.0641 68.3384C52.5929 68.3384 53.7866 69.532 53.7866 70.9791C53.8683 72.4262 52.5929 73.6198 51.0641 73.6198ZM53.3614 64.087C51.8326 64.087 50.6389 62.8934 50.6389 61.4463C50.6389 59.9992 51.9143 58.8055 53.3614 58.8055C54.8903 58.8055 56.0839 59.9992 56.0839 61.4463C56.1657 62.8934 54.8903 64.087 53.3614 64.087ZM57.4493 55.7478C55.9204 55.7478 54.7268 54.5542 54.7268 53.1071C54.7268 51.66 55.9204 50.4664 57.4493 50.4664C58.9781 50.4664 60.1718 51.66 60.1718 53.1071C60.2535 54.5542 58.9781 55.7478 57.4493 55.7478ZM64.0061 48.3407C62.4773 48.3407 61.2836 47.147 61.2836 45.7C61.2836 44.2529 62.4773 43.0592 64.0061 43.0592C65.535 43.0592 66.7286 44.2529 66.7286 45.7C66.7286 47.147 65.535 48.3407 64.0061 48.3407ZM72.0101 42.724C70.4813 42.724 69.2876 41.5304 69.2876 40.0833C69.2876 38.6362 70.4813 37.4425 72.0101 37.4425C73.539 37.4425 74.7326 38.6362 74.7326 40.0833C74.8144 41.5304 73.539 42.724 72.0101 42.724ZM80.6927 39.4865C79.1638 39.4865 77.9702 38.2928 77.9702 36.8457C77.9702 35.3986 79.1638 34.205 80.6927 34.205C82.2215 34.205 83.4151 35.3986 83.4151 36.8457C83.4151 38.2928 82.2215 39.4865 80.6927 39.4865ZM89.457 40.165C87.9281 40.165 86.7345 38.9714 86.7345 37.5243C86.7345 36.0772 87.9281 34.8836 89.457 34.8836C90.9858 34.8836 92.1795 36.0772 92.1795 37.5243C92.2612 38.9714 90.9858 40.165 89.457 40.165ZM95.9239 33.0195C94.3951 33.0195 93.2014 31.8259 93.2014 30.3788C93.2014 28.9317 94.4768 27.738 95.9239 27.738C97.4528 27.738 98.6464 28.9317 98.6464 30.3788C98.6464 31.8259 97.4528 33.0195 95.9239 33.0195ZM104.353 27.5745C102.824 27.5745 101.631 26.3809 101.631 24.9338C101.631 23.4867 102.824 22.2931 104.353 22.2931C105.882 22.2931 107.076 23.4867 107.076 24.9338C107.076 26.3809 105.882 27.5745 104.353 27.5745ZM113.117 24.4269C111.588 24.4269 110.395 23.2333 110.395 21.7862C110.395 20.3391 111.67 19.1454 113.117 19.1454C114.646 19.1454 115.84 20.3391 115.84 21.7862C115.84 23.2333 114.646 24.4269 113.117 24.4269ZM130.809 50.4664C129.281 50.4664 128.087 49.2727 128.087 47.8256C128.087 46.3785 129.362 45.1849 130.809 45.1849C132.338 45.1849 133.532 46.3785 133.532 47.8256C133.532 49.2727 132.338 50.4664 130.809 50.4664ZM130.809 40.8518C129.281 40.8518 128.087 39.6581 128.087 38.2111C128.087 36.764 129.362 35.5703 130.809 35.5703C132.338 35.5703 133.532 36.764 133.532 38.2111C133.532 39.6581 132.338 40.8518 130.809 40.8518ZM130.809 31.2372C129.281 31.2372 128.087 30.0436 128.087 28.5965C128.087 27.1494 129.362 25.9557 130.809 25.9557C132.338 25.9557 133.532 27.1494 133.532 28.5965C133.532 30.0436 132.338 31.2372 130.809 31.2372ZM122.127 22.8981C120.598 22.8981 119.314 21.7044 119.314 20.2573C119.314 18.8102 120.59 17.6166 122.127 17.6166C123.664 17.6166 124.849 18.8102 124.849 20.2573C124.849 21.7862 123.574 22.8981 122.127 22.8981ZM211.83 79.1466C214.209 80.422 215.068 83.3162 213.784 85.6135C212.501 87.9109 209.443 88.7611 207.064 87.4857C206.506 87.1946 206.012 86.7949 205.61 86.3103C205.209 85.8256 204.909 85.2656 204.727 84.6632C204.545 84.0609 204.485 83.4282 204.551 82.8024C204.616 82.1765 204.806 81.5701 205.11 81.0188C205.777 79.9057 206.846 79.091 208.097 78.7427C209.347 78.3943 210.683 78.5389 211.83 79.1466ZM148.428 93.1024C146.899 93.1024 145.705 91.9088 145.705 90.4617C145.705 89.0146 146.899 87.8209 148.428 87.8209C149.957 87.8209 151.15 89.0146 151.15 90.4617C151.232 91.9088 149.957 93.1024 148.428 93.1024ZM79.1475 101.957C77.6186 101.957 76.425 100.763 76.425 99.3159C76.425 97.8688 77.7004 96.6752 79.1475 96.6752C80.6763 96.6752 81.8699 97.8688 81.8699 99.3159C81.8699 100.763 80.6763 101.957 79.1475 101.957ZM113.191 93.1024C111.662 93.1024 110.468 91.9088 110.468 90.4617C110.468 89.0146 111.744 87.8209 113.191 87.8209C114.72 87.8209 115.913 89.0146 115.913 90.4617C115.913 91.9088 114.72 93.1024 113.191 93.1024Z" fill="white"/>
<path d="M151.232 73.955C152.001 75.5738 152.851 76.7675 153.955 77.7812L146.384 76.841C147.804 76.084 149.052 75.0399 150.047 73.7752C150.437 73.8782 150.837 73.9358 151.241 73.9469L151.232 73.955ZM110.379 73.955C110.809 73.9421 111.236 73.8846 111.654 73.7833C112.594 75.0587 113.87 76.0807 115.227 76.8492L107.656 77.7894C108.85 76.6857 109.782 75.4103 110.379 73.9632V73.955ZM95.6543 79.9968L89.0156 81.6156C90.2093 80.1685 90.9696 78.3781 91.1413 76.5058C92.3243 78.0344 93.8775 79.2359 95.6543 79.9968ZM70.3751 88.0008C71.011 86.9678 71.4981 85.8504 71.8222 84.6815L72.1656 84.5997C72.802 84.4478 73.4076 84.1879 73.9561 83.8312C75.0052 84.5112 76.1521 85.0268 77.3571 85.3601L70.3751 88.0008ZM130.81 71.6577C131.488 73.4481 132.764 74.977 134.301 76.1706C133.107 76.1706 132.003 76.0889 130.81 76.0889L127.319 76.1706C128.937 74.977 130.131 73.4481 130.81 71.6577ZM187.663 83.7413C188.17 84.0847 188.857 84.3381 189.454 84.5098L189.797 84.5916C190.05 85.7852 190.565 86.8889 191.244 87.9109L184.18 85.1884C185.427 84.9368 186.604 84.4453 187.663 83.7413ZM172.595 81.6156L165.957 79.9968C167.72 79.2558 169.249 78.0491 170.38 76.5058C170.631 78.3814 171.398 80.1503 172.595 81.6156ZM181.188 60.8494C183.06 60.0809 184.426 58.4703 184.851 56.5082C187.827 57.1868 191.146 57.9553 193.868 59.059C196.064 59.8764 198.106 61.0564 199.91 62.55C201.357 66.2127 202.208 70.464 202.723 75.6556C200.932 76.4241 199.747 78.2064 199.06 79.9968C197.956 82.7193 197.956 85.5318 201.014 87.6574C200.333 87.7101 199.649 87.6178 199.007 87.3866C198.365 87.1553 197.779 86.7904 197.288 86.3159C196.798 85.8414 196.413 85.2682 196.161 84.6341C195.908 84 195.793 83.3195 195.822 82.6376C196.409 81.9729 196.844 81.1892 197.098 80.3402C197.948 77.1027 195.994 73.8733 192.675 73.1048C189.355 72.2545 186.036 74.2085 185.186 77.3561C185.104 77.6995 185.014 78.0347 185.014 78.3781C182.202 81.6974 176.585 79.9968 176.332 75.6556C181.523 76.6775 183.739 74.1267 184.589 70.7175C185.358 67.905 185.014 65.019 181.695 63.3103C181.523 62.3701 181.441 61.528 181.188 60.8494ZM93.4468 49.1092C103.323 43.8359 116.167 42.8957 126.125 44.3428V45.0214C125.402 46.1042 125.123 47.4231 125.346 48.7058C125.568 49.9884 126.274 51.1367 127.319 51.9135C125.446 52.5103 123.999 53.8674 123.492 56.2547C119.748 57.105 118.726 59.8275 118.726 62.7217C118.726 66.2127 120.173 69.1886 125.446 69.4421C124.85 71.3961 122.977 72.7614 120.762 72.7614C119.754 72.7696 118.768 72.4617 117.944 71.881C117.12 71.3003 116.498 70.4759 116.167 69.5238C116.339 69.0169 116.339 68.5019 116.339 67.995C116.339 64.6757 113.526 62.0349 110.125 62.0349C106.724 62.0349 103.912 64.6757 103.912 67.995C103.892 68.9869 104.158 69.9635 104.68 70.8074C104.604 71.8243 104.209 72.7912 103.551 73.5706C102.894 74.35 102.007 74.9022 101.017 75.1487C100.014 75.4064 98.9539 75.3395 97.9904 74.9576C97.0268 74.5757 96.209 73.8985 95.6543 73.023C100.674 71.4942 101.353 68.2566 100.421 64.8555C99.6522 62.0431 97.9516 59.664 94.1254 59.7457C93.5664 58.5462 92.6024 57.5822 91.4029 57.0232C91.9098 54.3007 92.5066 51.5783 93.4468 49.1092ZM135.404 44.261C145.362 42.814 158.296 43.7541 168.082 49.0274C169.042 51.6105 169.698 54.2966 170.036 57.0314C168.838 57.5916 167.874 58.5552 167.314 59.7539C163.488 59.6722 161.779 62.0513 161.1 64.8637C160.16 68.2648 160.847 71.5023 165.867 73.0312C164.763 74.7317 162.629 75.6719 160.504 75.1568C159.51 74.9184 158.618 74.3686 157.959 73.5875C157.301 72.8065 156.909 71.8352 156.841 70.8156C157.35 69.9664 157.616 68.9934 157.609 68.0031C157.609 64.6838 154.887 62.0431 151.396 62.0431C147.995 62.0431 145.182 64.6838 145.182 68.0031C145.195 68.5168 145.252 69.0283 145.354 69.532C145.012 70.4774 144.388 71.295 143.566 71.8741C142.745 72.4532 141.765 72.7658 140.759 72.7696C139.729 72.7785 138.722 72.4627 137.881 71.8669C137.04 71.271 136.408 70.4255 136.075 69.4502C141.348 69.1968 142.795 66.2127 142.795 62.7298C142.795 59.7539 141.773 57.1132 138.029 56.2629C137.819 55.271 137.356 54.3502 136.686 53.5896C136.016 52.8291 135.16 52.2545 134.202 51.9216C135.396 50.9814 136.246 49.4526 136.246 47.8338C136.246 46.8118 135.903 45.7899 135.396 45.0214L135.404 44.261ZM67.8325 59.0672C70.555 58.0452 73.8743 57.1949 76.8503 56.5164C77.2754 58.4703 78.6407 60.0891 80.5129 60.8576C80.2211 61.6148 80.1037 62.428 80.1696 63.2367C76.7685 64.9373 76.5069 67.8315 77.2754 70.6439C78.2156 74.045 80.3413 76.6039 85.5328 75.582C85.3611 79.9233 79.6627 81.6238 76.8503 78.3045C76.8503 77.9611 76.7685 77.6259 76.6786 77.2825C75.8283 74.045 72.4272 72.1727 69.1079 73.0312C65.7886 73.8896 63.8346 77.119 64.6849 80.2666C64.9383 81.1169 65.3635 81.9672 65.9603 82.564C66.042 84.3545 65.11 86.055 63.4095 86.987C62.5866 87.3856 61.6831 87.5898 60.7687 87.5839C63.8346 85.5399 63.8346 82.7357 62.7227 79.9233C61.9542 78.2227 60.8505 76.4322 58.9783 75.6719C59.4034 70.4804 60.2537 66.229 61.7008 62.5663C63.2296 61.3727 65.1918 60.0074 67.8325 59.0672ZM139.664 89.5378L130.81 92.6855L122.045 89.5378L130.81 86.382L139.664 89.5378ZM73.3592 101.106L72.5907 104.082L72.3373 105.186L71.7405 104.843L68.7645 103.224L69.533 100.411L69.7047 99.8146L70.7267 100.158L73.3592 101.106ZM188.252 101.106L191.914 99.7411L192.086 100.338L192.855 103.232L189.96 104.761L189.364 105.104L189.11 104.001L188.252 101.106Z" fill="#E62644"/>
<path d="M172.595 81.6156C171.402 80.1685 170.641 78.3781 170.47 76.5058C169.366 78.0347 167.747 79.2283 166.047 79.9968L172.595 81.6156ZM187.663 83.7413C186.641 84.4199 185.447 84.9349 184.262 85.2701L191.326 87.9926C190.653 86.9795 190.163 85.856 189.879 84.6733L189.535 84.5916C188.857 84.4199 188.26 84.0847 187.663 83.7413ZM130.809 71.6577C130.131 73.4481 128.937 74.977 127.318 76.1706L130.809 76.0889L134.3 76.1706C132.748 75.0123 131.54 73.4518 130.809 71.6577ZM70.3832 88.0008L77.4469 85.2783C76.2533 84.9349 75.0678 84.428 74.0459 83.7495C73.539 84.0928 72.8522 84.3463 72.2554 84.518L71.912 84.5997C71.4869 85.7934 71.0618 86.9788 70.3832 88.0008ZM95.6623 79.9968C93.8986 79.2558 92.3697 78.0491 91.2393 76.5058C90.9858 78.3781 90.2991 80.1685 89.1136 81.6156L95.6623 79.9968ZM110.387 73.955C109.79 75.4021 108.858 76.6775 107.664 77.7812L115.235 76.841C113.825 76.1061 112.603 75.0572 111.662 73.7752C111.237 73.8569 110.812 73.955 110.387 73.955ZM151.24 73.955C150.837 73.946 150.436 73.8883 150.047 73.7833C149.107 75.0587 147.831 76.0807 146.384 76.8492L153.955 77.7894C152.863 76.7704 151.968 75.5594 151.314 74.2166L151.24 73.955ZM211.838 79.1466C210.692 78.5369 209.355 78.3912 208.104 78.7397C206.853 79.0882 205.784 79.9041 205.118 81.0188C203.843 83.3161 204.693 86.2103 207.072 87.4857C208.219 88.0934 209.555 88.238 210.805 87.8896C212.056 87.5413 213.125 86.7266 213.792 85.6135C214.117 85.0673 214.325 84.4594 214.402 83.8287C214.479 83.1979 214.423 82.558 214.24 81.9497C214.056 81.3414 213.747 80.778 213.334 80.2954C212.921 79.8128 212.411 79.4216 211.838 79.1466ZM174.304 62.1248C171.663 61.4463 168.941 62.9751 168.262 65.5259C167.584 68.0767 169.202 70.7175 171.835 71.3143C174.476 71.9929 177.198 70.464 177.877 67.9132C178.555 65.3624 176.937 62.7217 174.304 62.1248ZM178.817 52.7637C177.288 52.7637 176.094 53.9574 176.094 55.4045C176.094 56.8515 177.37 58.0452 178.817 58.0452C180.346 58.0452 181.539 56.8515 181.539 55.4045C181.543 55.0497 181.474 54.6979 181.338 54.3705C181.201 54.0431 181 53.7468 180.745 53.4998C180.49 53.2528 180.188 53.0602 179.857 52.9337C179.525 52.8071 179.171 52.7493 178.817 52.7637ZM176.52 43.2309C174.991 43.2309 173.797 44.4245 173.797 45.8716C173.797 47.3187 175.072 48.5124 176.52 48.5124C178.048 48.5124 179.242 47.3187 179.242 45.8716C179.242 44.4245 178.048 43.2309 176.52 43.2309ZM210.563 68.2566C209.034 68.2566 207.84 69.4502 207.84 70.8973C207.84 72.3444 209.034 73.5381 210.563 73.5381C212.092 73.5381 213.285 72.3444 213.285 70.8973C213.285 69.4502 212.092 68.2566 210.563 68.2566ZM208.266 58.8137C206.737 58.8137 205.543 60.0074 205.543 61.4544C205.543 62.9015 206.737 64.0952 208.266 64.0952C209.794 64.0952 210.988 62.9015 210.988 61.4544C210.988 60.0074 209.794 58.8137 208.266 58.8137ZM204.178 50.4745C202.649 50.4745 201.455 51.6682 201.455 53.1153C201.455 54.5624 202.731 55.756 204.178 55.756C205.707 55.756 206.9 54.5624 206.9 53.1153C206.9 51.6682 205.707 50.4745 204.178 50.4745ZM197.621 43.0674C196.092 43.0674 194.898 44.261 194.898 45.7081C194.898 47.1552 196.092 48.3489 197.621 48.3489C199.15 48.3489 200.343 47.1552 200.343 45.7081C200.343 44.261 199.15 43.0674 197.621 43.0674ZM189.617 37.4507C188.088 37.4507 186.894 38.6444 186.894 40.0914C186.894 41.5385 188.088 42.7322 189.617 42.7322C191.146 42.7322 192.339 41.5385 192.339 40.0914C192.339 38.6444 191.146 37.4507 189.617 37.4507ZM180.934 34.1314C179.406 34.1314 178.212 35.325 178.212 36.7721C178.212 38.2192 179.406 39.4129 180.934 39.4129C182.463 39.4129 183.657 38.2192 183.657 36.7721C183.739 35.325 182.463 34.1314 180.934 34.1314ZM172.17 34.8999C170.641 34.8999 169.448 36.0936 169.448 37.5406C169.448 38.9877 170.641 40.1814 172.17 40.1814C173.699 40.1814 174.893 38.9877 174.893 37.5406C174.893 36.0936 173.699 34.8999 172.17 34.8999ZM165.703 27.6645C164.174 27.6645 162.981 28.8581 162.981 30.3052C162.981 31.7523 164.174 32.9459 165.703 32.9459C167.232 32.9459 168.426 31.7523 168.426 30.3052C168.507 28.8581 167.232 27.6645 165.703 27.6645ZM157.274 22.3012C155.745 22.3012 154.552 23.4949 154.552 24.942C154.552 26.3891 155.745 27.5827 157.274 27.5827C158.803 27.5827 159.997 26.3891 159.997 24.942C159.997 23.4949 158.803 22.3012 157.274 22.3012ZM148.51 19.1536C146.981 19.1536 145.787 20.3472 145.787 21.7943C145.787 23.2414 146.981 24.4351 148.51 24.4351C150.039 24.4351 151.232 23.2414 151.232 21.7943C151.314 20.3472 150.039 19.1536 148.51 19.1536ZM139.574 17.6248C138.045 17.6248 136.851 18.8184 136.851 20.2655C136.851 21.7126 138.045 22.9062 139.574 22.9062C141.103 22.9062 142.296 21.7126 142.296 20.2655C142.296 18.8184 141.103 17.6248 139.574 17.6248ZM54.5551 87.4939C56.9342 86.2185 57.7927 83.3243 56.5091 81.027C55.8473 79.9077 54.7782 79.0878 53.5256 78.7388C52.273 78.3898 50.9339 78.5389 49.7887 79.1547C47.4096 80.4301 46.5511 83.3243 47.8347 85.6217C49.1183 87.919 52.176 88.7693 54.5551 87.4939ZM89.7922 71.3225C92.4329 70.6439 94.0435 68.0849 93.365 65.5341C92.6864 62.9833 89.9639 61.4463 87.3231 62.133C84.6824 62.8198 83.0718 65.3706 83.7504 67.9214C84.1197 69.1612 84.9563 70.209 86.0836 70.8436C87.2109 71.4781 88.5407 71.6499 89.7922 71.3225ZM130.809 66.3026C133.532 66.3026 135.748 64.1769 135.748 61.5362C135.737 60.8988 135.601 60.2698 135.347 59.6851C135.093 59.1004 134.726 58.5716 134.267 58.1288C133.808 57.6861 133.267 57.3382 132.674 57.105C132.08 56.8718 131.447 56.7579 130.809 56.7698C130.172 56.7579 129.539 56.8718 128.945 57.105C128.352 57.3382 127.811 57.6861 127.352 58.1288C126.893 58.5716 126.526 59.1004 126.272 59.6851C126.018 60.2698 125.882 60.8988 125.871 61.5362C125.871 64.1769 128.087 66.3026 130.809 66.3026ZM82.8919 58.0452C84.4208 58.0452 85.6144 56.8515 85.6144 55.4045C85.6144 53.9574 84.4208 52.7637 82.8919 52.7637C81.3631 52.7637 80.1694 53.9574 80.1694 55.4045C80.0877 56.8515 81.3631 58.0452 82.8919 58.0452ZM85.1893 48.5124C86.7181 48.5124 87.9118 47.3187 87.9118 45.8716C87.9118 44.4245 86.7181 43.2309 85.1893 43.2309C83.6604 43.2309 82.4668 44.4245 82.4668 45.8716C82.385 47.3187 83.6604 48.5124 85.1893 48.5124ZM51.0641 73.6198C52.593 73.6198 53.7866 72.4262 53.7866 70.9791C53.7866 69.532 52.593 68.3383 51.0641 68.3383C49.5353 68.3383 48.3416 69.532 48.3416 70.9791C48.3416 72.4262 49.5353 73.6198 51.0641 73.6198ZM53.3615 64.087C54.8903 64.087 56.084 62.8934 56.084 61.4463C56.0627 60.7385 55.7665 60.0668 55.2582 59.5738C54.7499 59.0808 54.0696 58.8052 53.3615 58.8055C51.8326 58.8055 50.639 59.9992 50.639 61.4463C50.639 62.8934 51.8326 64.087 53.3615 64.087ZM57.4493 55.7478C58.9781 55.7478 60.1718 54.5542 60.1718 53.1071C60.1718 51.66 58.9781 50.4664 57.4493 50.4664C55.9204 50.4664 54.7268 51.66 54.7268 53.1071C54.7268 54.5542 56.0022 55.7478 57.4493 55.7478ZM64.0062 48.3407C65.535 48.3407 66.7287 47.147 66.7287 45.7C66.7287 44.2529 65.535 43.0592 64.0062 43.0592C62.4773 43.0592 61.2837 44.2529 61.2837 45.7C61.2837 47.147 62.4773 48.3407 64.0062 48.3407ZM72.0101 42.724C73.539 42.724 74.7326 41.5304 74.7326 40.0833C74.7326 38.6362 73.539 37.4425 72.0101 37.4425C70.4813 37.4425 69.2876 38.6362 69.2876 40.0833C69.2876 41.5304 70.563 42.724 72.0101 42.724ZM80.6927 39.4865C82.2215 39.4865 83.4152 38.2928 83.4152 36.8457C83.4152 35.3986 82.2215 34.205 80.6927 34.205C79.1638 34.205 77.9702 35.3986 77.9702 36.8457C77.9702 38.2928 79.1638 39.4865 80.6927 39.4865ZM89.457 40.165C90.9858 40.165 92.1795 38.9714 92.1795 37.5243C92.1795 36.0772 90.9858 34.8836 89.457 34.8836C87.9281 34.8836 86.7345 36.0772 86.7345 37.5243C86.7345 38.9714 87.9281 40.165 89.457 40.165ZM95.9239 33.0195C97.4528 33.0195 98.6464 31.8259 98.6464 30.3788C98.6464 28.9317 97.4528 27.738 95.9239 27.738C94.3951 27.738 93.2014 28.9317 93.2014 30.3788C93.2014 31.8259 94.3951 33.0195 95.9239 33.0195ZM104.353 27.5745C105.882 27.5745 107.076 26.3809 107.076 24.9338C107.076 23.4867 105.882 22.2931 104.353 22.2931C102.824 22.2931 101.631 23.4867 101.631 24.9338C101.631 26.3809 102.824 27.5745 104.353 27.5745ZM113.117 24.4269C114.646 24.4269 115.84 23.2333 115.84 21.7862C115.84 20.3391 114.646 19.1454 113.117 19.1454C111.588 19.1454 110.395 20.3391 110.395 21.7862C110.395 23.2333 111.588 24.4269 113.117 24.4269ZM130.809 50.4664C132.338 50.4664 133.532 49.2727 133.532 47.8256C133.532 46.3785 132.338 45.1849 130.809 45.1849C129.281 45.1849 128.087 46.3785 128.087 47.8256C128.087 49.2727 129.281 50.4664 130.809 50.4664ZM130.809 40.8518C132.338 40.8518 133.532 39.6581 133.532 38.211C133.532 36.764 132.338 35.5703 130.809 35.5703C129.281 35.5703 128.087 36.764 128.087 38.211C128.087 39.6581 129.281 40.8518 130.809 40.8518ZM130.809 31.2372C132.338 31.2372 133.532 30.0436 133.532 28.5965C133.532 27.1494 132.338 25.9557 130.809 25.9557C129.281 25.9557 128.087 27.1494 128.087 28.5965C128.087 30.0436 129.281 31.2372 130.809 31.2372ZM122.127 22.898C123.656 22.898 124.849 21.7044 124.849 20.2573C124.828 19.5495 124.532 18.8779 124.024 18.3849C123.515 17.8918 122.835 17.6163 122.127 17.6166C120.598 17.6166 119.314 18.8102 119.314 20.2573C119.314 21.7862 120.59 22.898 122.127 22.898ZM197.703 88.009C200 89.2026 201.79 88.6876 203.998 87.9272C200.335 86.1368 198.381 84.5261 200.082 80.3566C200.85 78.4843 201.782 77.0372 203.826 76.4404C202.551 60.1872 197.866 52.4367 182.553 45.0377L181.449 45.3811C181.449 45.5528 181.531 45.7245 181.531 45.9779C181.531 48.1935 180.256 49.2972 178.555 50.4909C181.278 50.9978 183.747 52.2814 183.747 55.429C183.747 58.0697 181.875 59.5168 179.495 60.1954C180.264 61.6425 180.436 62.2393 180.264 63.9398C183.412 65.3869 184.09 67.2592 183.24 70.4068C182.046 74.8298 179.324 75.255 174.983 74.1512C174.749 75.5028 174.982 76.8936 175.644 78.0951C176.305 79.2966 177.356 80.2372 178.623 80.7623C179.89 81.2874 181.298 81.3657 182.616 80.9844C183.933 80.6031 185.082 79.7849 185.873 78.6642C185.873 78.2391 185.954 77.8957 186.044 77.4706C186.723 74.9198 189.445 73.301 192.176 73.9796C194.907 74.6581 196.517 77.2989 195.749 79.8497C195.495 80.6999 195.07 81.3785 194.473 81.9753C194.392 84.5262 195.495 86.8235 197.711 88.0172L197.703 88.009ZM126.55 28.5147C126.55 28.1713 126.632 27.8361 126.632 27.411C106.634 25.9639 92.2449 39.1594 90.2909 57.71C92.0814 58.3886 92.7599 59.1571 93.5285 60.8576C97.0195 60.6859 98.5483 62.0513 99.3986 65.109C100.592 69.4502 98.3766 71.1508 94.0354 72.2545C95.3108 75.0669 97.9515 77.0209 101.353 76.1706C102.641 75.8765 103.791 75.1514 104.611 74.1153C105.432 73.0791 105.874 71.7939 105.866 70.4722C105.359 69.7186 105.091 68.8296 105.097 67.9214C105.097 65.2806 107.313 63.0732 110.117 63.0732C112.839 63.0732 115.137 65.1989 115.137 67.9214C115.135 68.4413 115.05 68.9576 114.883 69.4502C115.243 70.7216 116.015 71.8375 117.077 72.6232C118.139 73.4088 119.432 73.8197 120.753 73.7915C124.244 73.7915 126.288 71.3225 126.795 68.2566C122.372 68.2566 119.813 67.1529 119.813 62.6399C119.813 59.4024 121.007 57.7917 124.408 57.105C125.176 53.1071 127.302 52.8537 130.703 52.3386C134.194 52.9354 136.238 53.1071 136.998 57.105C140.4 57.7836 141.593 59.4024 141.593 62.6399C141.593 67.1529 139.042 68.2566 134.611 68.2566C135.118 71.3225 137.162 73.7915 140.653 73.7915C141.967 73.7927 143.248 73.3714 144.305 72.5898C145.361 71.8081 146.139 70.7075 146.523 69.4502C146.357 68.9576 146.271 68.4413 146.27 67.9214C146.27 65.2806 148.485 63.0732 151.289 63.0732C154.094 63.0732 156.309 65.1989 156.309 67.9214C156.317 68.8298 156.049 69.7191 155.541 70.4722C155.623 73.1947 157.331 75.4921 160.054 76.1706C163.455 77.0209 166.096 75.0669 167.371 72.2545C163.03 71.1508 160.904 69.4421 162.008 65.109C162.858 62.0431 164.387 60.6859 167.878 60.8576C168.728 59.1571 169.325 58.3886 171.115 57.71C169.161 39.1594 154.862 25.9639 134.775 27.411C134.847 27.7741 134.875 28.1449 134.856 28.5147C134.856 29.4549 134.513 30.2153 134.006 30.9838V35.6684C134.513 36.4369 134.856 37.1973 134.856 38.1375C134.856 39.0777 134.513 39.838 134.006 40.6065L134.088 45.4547C134.513 46.1333 134.856 46.9018 134.856 47.752C134.856 50.5645 132.731 51.3248 130.605 52.265C128.479 51.3248 126.354 50.4745 126.354 47.752C126.354 46.8118 126.697 46.0515 127.204 45.283V40.6883C126.673 39.9725 126.376 39.1102 126.354 38.2192C126.354 37.279 126.697 36.5187 127.204 35.7502V30.9838C126.762 30.2357 126.528 29.3834 126.525 28.5147H126.55ZM61.5289 80.3402C63.1477 84.5098 61.2755 86.1286 57.6128 87.9109C59.8284 88.6794 61.6107 89.1863 63.9081 87.9926C64.9645 87.4527 65.8271 86.5977 66.3763 85.5461C66.9256 84.4944 67.1344 83.298 66.9739 82.1225C66.3747 81.5341 65.9357 80.8025 65.6985 79.9968C65.4137 78.7221 65.6369 77.3866 66.3207 76.2737C67.0046 75.1609 68.0953 74.3585 69.3612 74.0368C70.0902 73.8448 70.853 73.8195 71.5931 73.9627C72.3332 74.1059 73.0316 74.414 73.6363 74.864C74.2411 75.314 74.7367 75.8945 75.0864 76.5623C75.4362 77.2301 75.631 77.968 75.6565 78.7214C79.4827 83.5696 87.2332 81.0188 86.5465 74.2085C82.2052 75.2304 79.4827 74.8053 78.289 70.464C77.4388 67.3982 78.1173 65.4442 81.265 63.9971C81.0776 62.6975 81.3494 61.3733 82.0335 60.2526C79.6544 59.574 77.7822 58.127 77.7822 55.4862C77.7822 52.2487 80.2512 51.0632 82.9737 50.5481C81.3549 49.2727 80.0795 48.2508 80.0795 46.0352C80.0795 45.8635 80.0795 45.61 78.9758 45.2666C63.4012 52.6738 59.0599 60.1627 57.7027 76.5876C59.8284 77.0945 60.7686 78.468 61.5289 80.3402ZM193.958 95.7431C174.811 87.0606 153.358 82.1225 130.809 82.1225C108.261 82.1225 86.898 86.9707 67.7424 95.6532C66.467 96.25 65.02 95.6532 64.4231 94.4596C63.8263 93.1842 64.4231 92.244 65.02 91.222C61.1038 92.4157 58.2096 92.4157 54.8086 89.8567C48.5133 93.9445 41.2778 85.5154 46.0443 81.6892C43.8286 78.8768 43.8286 75.8191 47.0662 73.7752C46.4534 72.9348 46.1241 71.9211 46.126 70.881C46.126 67.7334 48.5951 66.4579 51.3176 65.9429C49.6988 64.7492 48.4234 63.6455 48.4234 61.4299C48.4234 58.1924 51.0641 56.8352 53.8684 56.5818C53.0998 55.3881 52.503 54.5378 52.503 53.0907C52.503 50.45 54.7186 48.3243 57.5229 48.3243C58.3731 48.3243 59.2234 48.5778 59.9919 48.8312C59.485 47.7275 59.0517 46.8772 59.0517 45.6836C59.0517 43.0429 61.2673 40.9172 64.0716 40.9172C65.4369 40.9172 66.1972 41.4241 67.3909 41.9392C67.1945 41.3329 67.079 40.7034 67.0475 40.0669C67.0475 37.4262 69.2631 35.2188 72.0674 35.2188C73.5962 35.2188 74.4465 35.8156 75.6401 36.5841C76.237 34.0333 77.684 31.9894 80.66 31.9894C82.8756 31.9894 84.151 33.183 85.2547 34.8018C86.4483 33.5264 87.5521 32.6761 89.4243 32.6761C90.1928 32.6761 90.8714 32.8478 91.6399 33.0195C91.1789 32.1827 90.916 31.2513 90.8714 30.297C90.8714 27.6563 93.087 25.5306 95.8095 25.5306C97.4283 25.5306 98.2785 26.2092 99.5539 26.9777C99.4722 26.3809 99.2105 25.6124 99.2105 24.9338C99.2105 22.2931 101.426 20.1674 104.23 20.1674C105.849 20.1674 106.699 20.7642 107.893 21.6145C108.49 19.0637 109.937 17.0198 113.003 17.0198C114.875 17.0198 115.897 17.7883 117.091 18.9737C118.031 16.9298 119.388 15.4827 121.939 15.4827C122.611 15.5015 123.274 15.6456 123.893 15.9079C125.199 14.3528 127.006 13.3007 129.003 12.9319V7.83031H124.833V4.76444H129.003V1.10992H132.322V4.77262H136.492V7.74856H132.322V12.8583C134.312 13.246 136.113 14.2947 137.432 15.8343C138.051 15.5721 138.714 15.4279 139.386 15.4091C141.937 15.4091 143.302 16.938 144.234 18.9002C145.428 17.7065 146.531 16.9462 148.322 16.9462C151.388 16.9462 152.835 19.0718 153.342 21.5409C154.535 20.6906 155.467 20.0938 157.086 20.0938C159.809 20.0938 162.106 22.2195 162.106 24.8602C162.106 25.5388 161.934 26.3073 161.852 26.9041C163.128 26.1356 163.978 25.5388 165.597 25.5388C168.319 25.5388 170.617 27.6645 170.617 30.3052C170.617 31.3272 170.273 32.0957 169.848 33.0277C170.57 32.8237 171.314 32.7084 172.064 32.6843C173.936 32.6843 175.04 33.5346 176.233 34.81C177.337 33.1094 178.613 31.9976 180.828 31.9976C183.894 31.9976 185.341 34.1232 185.938 36.5923C187.132 35.8238 187.982 35.2269 189.511 35.2269C192.233 35.2269 194.531 37.3526 194.531 40.0751C194.531 40.6719 194.359 41.3505 194.277 41.9473C195.381 41.3505 196.231 40.9254 197.515 40.9254C200.237 40.9254 202.535 43.051 202.535 45.6918C202.535 46.8854 202.109 47.7357 201.594 48.7576C202.445 48.5042 203.213 48.2508 204.145 48.2508C206.868 48.2508 209.165 50.3764 209.165 53.0172C209.165 54.4643 208.568 55.3145 207.8 56.5082C210.694 56.7616 213.335 58.1269 213.335 61.3563C213.335 63.5719 212.059 64.6757 210.44 65.8693C213.163 66.4661 215.632 67.6598 215.632 70.8074C215.632 72.001 215.289 72.7614 214.692 73.7016C218.011 75.7455 217.929 78.7214 215.714 81.5339C218.608 83.8312 217.079 87.404 214.692 89.2762C212.223 91.1484 209.672 91.4918 206.949 89.7013C203.548 92.2521 200.654 92.2521 196.738 91.0667L197.335 92.2603C198.103 94.386 196.141 96.5117 193.934 95.7513L193.958 95.7431ZM74.2993 100.591L70.2115 99.1442L69.8681 98.5474C69.5247 98.7191 69.2713 98.7191 69.0179 98.8008C67.9141 98.8826 67.9959 97.6971 68.511 97.4355C87.4049 88.8429 108.425 84.0765 130.728 84.0765C153.031 84.0765 174.051 88.8429 192.944 97.4355C193.451 97.689 193.541 98.8826 192.438 98.8008C192.184 98.8008 191.931 98.7191 191.587 98.5474L191.244 99.1442L187.156 100.591L188.35 105.104L188.006 105.873C190.132 106.813 188.685 108.342 187.753 107.917C170.388 100.003 151.069 95.6614 130.646 95.6614C110.223 95.6614 90.9041 100.003 73.539 107.917C73.1138 108.088 72.5988 107.917 72.3453 107.41C72.0919 106.903 72.3453 106.56 72.6887 106.216C72.8604 106.044 73.1139 105.963 73.3673 105.873L73.0239 105.104L74.2993 100.591ZM96.856 97.272L105.539 91.4019L94.9837 90.2982L86.3012 96.1683L96.856 97.272ZM182.471 102.717C184.425 102.717 186.044 101.188 186.044 99.3159C186.044 97.4437 184.425 95.9148 182.471 95.9148C180.517 95.9148 178.899 97.4437 178.899 99.3159C178.98 101.188 180.517 102.717 182.471 102.717ZM113.191 93.8627C115.145 93.8627 116.764 92.3339 116.764 90.4617C116.764 88.5894 115.145 87.0606 113.191 87.0606C111.237 87.0606 109.618 88.5894 109.618 90.4617C109.618 92.3339 111.237 93.8627 113.191 93.8627ZM79.1475 102.717C81.1015 102.717 82.7202 101.188 82.7202 99.3159C82.7202 97.4437 81.1914 95.9148 79.1475 95.9148C77.1935 95.9148 75.5747 97.4437 75.5747 99.3159C75.5747 101.188 77.1935 102.717 79.1475 102.717ZM148.428 93.8627C150.382 93.8627 152.001 92.3339 152.001 90.4617C152.001 88.5894 150.382 87.0606 148.428 87.0606C147.975 87.053 147.525 87.1352 147.104 87.3023C146.683 87.4694 146.299 87.7182 145.974 88.0344C145.65 88.3505 145.391 88.7278 145.213 89.1443C145.035 89.5609 144.941 90.0086 144.937 90.4617C144.937 92.3339 146.556 93.8627 148.428 93.8627ZM164.771 97.2638L175.326 96.1601L166.643 90.29L156.089 91.3937L164.771 97.2638ZM141.879 89.5215L130.809 85.5318L119.748 89.5297L130.809 93.5275L141.879 89.5215ZM16.2522 225.368C16.2522 286.22 67.8242 336.009 130.809 336.009C193.876 336.009 245.449 286.22 245.449 225.368C245.449 164.345 193.876 114.727 130.809 114.727C67.7424 114.727 16.2522 164.345 16.2522 225.368ZM257.876 225.368C257.876 292.858 200.85 348.011 130.809 348.011C60.7686 348.011 3.74341 292.858 3.74341 225.368C3.74341 157.796 60.7686 102.643 130.809 102.643C200.85 102.562 257.876 157.706 257.876 225.368ZM114.131 173.191L130.728 189.534L146.221 173.706C140.776 172.341 135.584 171.327 129.877 171.155C124.604 170.902 119.241 172.087 114.131 173.191ZM157.789 161.786L182.128 137.529C213.621 154.976 234.812 187.654 234.812 225.017C234.812 249.356 225.876 271.659 210.808 289.106L199.485 278.126C212.247 263.058 220.595 248.08 220.595 224.085C220.595 198.47 206.72 169.872 184.597 155.066L169.963 169.537C177.452 174.982 183.412 180.427 188.431 188.087L177.28 197.367C172.857 189.878 167.15 184.604 159.833 179.748L130.728 209.368L100.51 179.323C84.8541 189.878 75.6565 204.937 75.2313 223.668C74.7244 248.603 91.4028 265.879 114.81 273.457V223.414H150.554V233.716H128.684V247.075H150.3V258.823H128.684V275.673C144.684 276.441 161.787 267.505 172.17 256.436L182.897 266.901C169.194 282.222 149.45 289.964 128.766 290.136V305.539H114.891V288.517C83.3171 280.946 60.4252 254.22 60.8504 222.302C61.1038 200.432 73.1874 182.471 90.7242 169.708L75.9181 154.902C52.9363 173.028 40.5993 195.159 39.5773 223.921C38.8088 249.372 52.4294 269.795 61.0221 278.387L51.0641 288.174C35.6612 270.808 26.5535 249.364 26.5535 224.935C26.5535 187.826 47.7448 155.147 78.9758 137.701L103.658 162.555C112.422 159.317 121.53 157.617 130.891 157.617C139.82 157.75 148.659 159.42 157.021 162.555L157.789 161.786Z" fill="#FCBF00"/>
<path d="M261.62 225.368C261.62 294.902 202.894 351.666 130.81 351.666C58.6348 351.666 -0.000976562 294.902 -0.000976562 225.368C-0.000976562 155.744 58.7248 98.899 130.81 98.899C202.984 98.899 261.62 155.752 261.62 225.368ZM257.876 225.368C257.876 157.796 200.85 102.643 130.81 102.643C60.7687 102.643 3.74347 157.788 3.74347 225.368C3.74347 292.858 60.7687 348.011 130.81 348.011C200.85 348.011 257.876 292.858 257.876 225.368ZM19.9967 225.368C19.9967 284.176 69.8682 332.347 130.81 332.347C191.751 332.347 241.622 284.257 241.622 225.368C241.622 166.389 191.751 118.471 130.81 118.471C69.8764 118.39 19.9967 166.389 19.9967 225.368ZM16.2522 225.368C16.2522 164.345 67.8243 114.727 130.81 114.727C193.877 114.727 245.449 164.345 245.449 225.368C245.449 286.22 193.877 336.009 130.81 336.009C67.7425 335.928 16.2522 286.22 16.2522 225.368ZM144.25 200.939L206.205 262.641C213.269 251.408 216.842 239.921 216.842 224.003C216.842 196.255 200.671 170.984 185.096 159.75L175.735 169.03C182.795 174.447 188.772 181.145 193.353 188.774L176.16 203.155C172.072 195.323 167.731 189.796 160.332 184.604L144.25 200.939ZM222.802 279.156C211.65 297.453 194.629 311.924 174.459 320.606L164.428 310.73L145.706 292.261C141.368 293.204 136.948 293.717 132.51 293.79V309.283H111.065V291.411C78.8941 282.982 56.6808 253.877 57.0242 222.302C57.106 217.029 57.8745 211.919 59.1499 206.981L48.5951 196.598C45.4475 205.109 43.657 214.298 43.3218 224.085C42.725 243.657 51.5792 264.848 66.3036 278.379L50.8107 293.61C32.5954 273.866 22.6374 251.653 22.6374 224.927C22.6374 185.945 44.7689 151.902 79.5727 133.179L104.508 158.369C112.766 155.475 122.127 154.027 130.72 154.027C139.999 154.109 148.42 155.728 155.999 158.369L181.36 132.918C216.425 151.73 238.548 185.773 238.548 225C238.63 244.916 233.103 262.96 222.802 279.131V279.156ZM110.967 258.136L78.9759 226.644C79.7444 244.262 90.8878 260.94 110.975 268.348L110.967 258.136ZM157.789 161.786L156.939 162.636C148.6 159.424 139.746 157.754 130.81 157.706C121.448 157.706 112.341 159.407 103.576 162.645L78.8941 137.791C47.6631 155.156 26.4718 187.834 26.4718 224.943C26.4718 249.454 35.5795 270.817 50.9824 288.182L60.9404 278.395C52.3478 269.803 38.7271 249.372 39.4956 223.929C40.5176 195.159 52.8546 173.036 75.8364 154.91L90.6425 169.717C73.1139 182.479 61.0221 200.441 60.7687 222.31C60.3435 254.228 83.1536 280.946 114.81 288.525V305.547H128.684V290.128C149.45 289.956 169.194 282.214 182.815 266.892L172.088 256.427C161.705 267.489 144.684 276.515 128.602 275.665V258.815H150.219V247.066H128.602V233.707H150.472V223.406H114.728V273.449C91.3211 265.879 74.561 248.595 75.1497 223.659C75.5748 204.937 84.7642 189.869 100.429 179.315L130.646 209.36L159.751 179.74C167.158 184.588 172.775 189.869 177.198 197.358L188.35 188.079C183.33 180.418 177.37 174.973 169.881 169.528L184.515 155.058C206.647 169.864 220.513 198.462 220.513 224.076C220.513 247.99 212.174 263.058 199.403 278.118L210.727 289.097C226.219 271.343 234.747 248.572 234.73 225.008C234.73 187.646 213.539 154.968 182.046 137.521L157.789 161.786ZM114.131 173.191C119.241 172.087 124.596 170.894 129.878 171.065C135.576 171.237 140.767 172.259 146.221 173.616L130.728 189.444L114.131 173.191ZM121.702 175.407L130.638 184.261L138.977 175.75C136.001 175.153 132.935 174.9 129.698 174.81C127.744 174.728 124.768 174.982 121.702 175.407ZM188.26 101.106L189.028 104.082L189.372 105.104L189.969 104.761L192.863 103.232L192.094 100.338L191.923 99.7411L188.26 101.106ZM193.958 95.7432C196.174 96.5117 198.128 94.2961 197.106 92.4238L196.509 91.2302C200.425 92.4238 203.319 92.4238 206.72 89.8649C209.443 91.6553 211.912 91.312 214.463 89.4397C216.932 87.5675 218.379 83.9947 215.485 81.6974C217.7 78.885 217.782 75.8273 214.463 73.8651C215.06 72.9249 215.403 72.1646 215.403 70.9709C215.403 67.8233 212.934 66.5479 210.212 66.0328C211.83 64.7574 213.106 63.7355 213.106 61.5199C213.106 58.2823 210.465 56.9251 207.571 56.6717C208.339 55.4781 208.936 54.7177 208.936 53.1807C208.936 50.54 206.72 48.4143 203.916 48.4143C203.066 48.4143 202.216 48.6677 201.365 48.9212C201.872 47.8175 202.306 47.049 202.306 45.8553C202.306 43.2146 200.09 41.0889 197.286 41.0889C195.92 41.0889 195.16 41.514 194.048 42.1109C194.13 41.514 194.302 40.8354 194.302 40.2386C194.278 38.9303 193.736 37.6849 192.795 36.7759C191.854 35.8669 190.59 35.3686 189.282 35.3905C187.753 35.3905 186.903 35.9873 185.709 36.7558C185.112 34.205 183.665 32.1611 180.599 32.1611C178.384 32.1611 177.108 33.3547 176.005 34.9735C174.811 33.6981 173.707 32.8478 171.835 32.8478C171.066 32.8478 170.306 33.0195 169.619 33.1912C170.044 32.251 170.388 31.4907 170.388 30.4687C170.388 27.828 168.172 25.7023 165.368 25.7023C163.749 25.7023 162.899 26.2991 161.624 27.0676C161.705 26.4708 161.877 25.7023 161.877 25.0237C161.877 22.383 159.661 20.2573 156.857 20.2573C155.238 20.2573 154.388 20.8541 153.113 21.7044C152.516 19.1536 151.069 17.1097 148.093 17.1097C146.221 17.1097 145.199 17.8782 144.005 19.0637C142.983 17.0198 141.708 15.5727 139.157 15.5727C138.388 15.5727 137.881 15.7444 137.203 15.9978C135.897 14.4428 134.09 13.3907 132.093 13.0219V7.91208H136.263V4.76445H132.093V1.10994H128.774V4.77263H124.604V7.74857H128.774V12.8584C126.648 13.3652 125.283 14.1338 123.664 15.8343C123.045 15.5723 122.382 15.4281 121.71 15.4092C119.159 15.4092 117.794 16.938 116.862 18.9002C115.668 17.7065 114.564 16.9462 112.774 16.9462C109.708 16.9462 108.261 19.0719 107.664 21.5409C106.471 20.6906 105.539 20.0938 104.002 20.0938C101.279 20.0938 98.9817 22.2195 98.9817 24.8602C98.9817 25.5388 99.1534 26.3073 99.3251 26.9041C98.0497 26.1356 97.1095 25.457 95.5806 25.457C94.9432 25.4451 94.3098 25.559 93.7165 25.7922C93.1232 26.0254 92.5817 26.3734 92.123 26.8161C91.6643 27.2588 91.2975 27.7876 91.0434 28.3723C90.7894 28.957 90.6532 29.5861 90.6425 30.2234C90.6425 31.2454 90.9859 32.0139 91.411 32.9459C90.6425 32.7743 89.9639 32.6026 89.1954 32.6026C87.3232 32.6026 86.2195 33.4528 85.0258 34.7282C83.9221 33.0277 82.6467 31.9158 80.4311 31.9158C77.3653 31.9158 75.9182 34.0415 75.4113 36.5105C74.4711 35.8319 73.539 35.2351 72.0102 35.2351C70.7019 35.2132 69.4384 35.7115 68.4972 36.6206C67.5559 37.5296 67.014 38.775 66.9904 40.0833C66.9904 40.6801 67.162 41.3587 67.2438 41.9555C66.2874 41.3001 65.1575 40.9443 63.9981 40.9336C61.2756 40.9336 58.9782 43.0592 58.9782 45.7C58.9782 46.8936 59.4033 47.7439 59.9184 48.7658C59.1499 48.5942 58.3896 48.3407 57.4494 48.3407C54.7269 48.3407 52.4295 50.4664 52.4295 53.1071C52.4295 54.5542 53.0263 55.4045 53.7948 56.5981C50.9824 56.8516 48.4316 58.2169 48.4316 61.4463C48.4316 63.6619 49.707 64.7656 51.3258 65.9592C48.6033 66.5561 46.1343 67.7497 46.1343 70.8973C46.1343 72.091 46.4776 72.8513 47.0745 73.7915C43.8369 75.8354 43.8369 78.9013 46.0525 81.7056C41.2861 85.5318 48.5215 94.0426 54.8168 89.873C58.2179 92.4238 61.1121 92.4238 65.0282 91.2384C64.5213 92.3421 63.8345 93.2823 64.4314 94.4759C64.5665 94.7761 64.7607 95.0459 65.0023 95.2694C65.2439 95.4929 65.5281 95.6655 65.8378 95.7769C66.1476 95.8883 66.4765 95.9362 66.8052 95.9177C67.1338 95.8993 67.4554 95.8149 67.7507 95.6696C86.8981 86.987 108.261 82.1389 130.818 82.1389C153.456 82.2206 174.819 87.077 193.966 95.7595L193.958 95.7432ZM73.3592 101.106L70.7184 100.166L69.6965 99.8228L69.5248 100.42L68.7563 103.232L71.6505 104.761L72.2473 105.104L72.5007 104.001L73.3592 101.106ZM71.6587 105.701L67.8324 103.657L68.7726 99.9945C67.3256 99.8228 66.647 98.204 67.3256 97.1003C66.5408 97.215 65.7398 97.0792 65.0367 96.7122C64.3335 96.3452 63.7641 95.7658 63.4094 95.0564C63.066 94.3778 62.9843 93.6911 63.066 93.0125C61.646 93.2977 60.183 93.2941 58.7644 93.0019C57.3458 92.7098 56.0004 92.135 54.8086 91.312C48.0882 95.2281 40.1742 85.867 44.5073 81.5257C42.5533 78.7133 43.0602 75.3122 45.5293 73.44C45.1134 72.6555 44.9078 71.7767 44.9324 70.8892C44.9324 68.4201 46.5512 66.2944 48.7586 65.3542C47.7742 64.2879 47.2282 62.8894 47.2298 61.4381C47.2298 58.6257 49.2737 56.3283 51.9144 55.6497C51.4986 54.8653 51.293 53.9865 51.3176 53.0989C51.3176 49.7796 54.0401 47.1389 57.4494 47.1389H58.0462C57.8341 46.2463 57.829 45.3171 58.0311 44.4223C58.2333 43.5274 58.6373 42.6906 59.2124 41.9759C59.7876 41.2611 60.5185 40.6874 61.3493 40.2984C62.1802 39.9095 63.089 39.7156 64.0062 39.7317C64.6392 39.7263 65.2697 39.8117 65.8785 39.9852C65.8785 36.7476 68.6909 34.1151 72.0102 34.1151C72.988 34.1168 73.9516 34.3493 74.8226 34.7936C75.6729 32.4963 77.9703 30.8775 80.611 30.8775C81.5191 30.8761 82.4165 31.0737 83.24 31.4565C84.0635 31.8393 84.7931 32.3979 85.3774 33.0931C86.5183 32.1289 87.9718 31.6144 89.4652 31.646H89.8904C89.8086 31.2209 89.7187 30.7957 89.7187 30.3706C89.7187 27.0513 92.4412 24.4106 95.8504 24.4106C96.7007 24.4106 97.4692 24.5822 98.1478 24.8357C98.2295 21.5981 100.96 18.9656 104.28 18.9656C105.383 18.9656 106.405 19.219 107.255 19.7341C108.106 17.4367 110.403 15.8179 113.044 15.8179C114.491 15.8179 115.766 16.2431 116.788 17.0933C117.892 15.4746 119.764 14.3709 121.98 14.3709C122.577 14.3709 123.084 14.4526 123.599 14.6243C124.621 13.6023 125.814 12.8338 127.261 12.2452L127.858 11.9917V8.92586H123.689V3.66074H127.858V-0.00195312H133.557V3.66074H137.726V8.93404H133.557V11.9999L134.153 12.2534C135.544 12.7479 136.799 13.5629 137.816 14.6325C138.323 14.4608 138.838 14.379 139.435 14.379C141.65 14.379 143.523 15.4827 144.626 17.1015C145.648 16.333 147.006 15.8261 148.371 15.8261C151.012 15.8261 153.309 17.4449 154.159 19.7423C155.009 19.2354 156.031 18.9737 157.135 18.9737C160.536 18.9737 163.267 21.6145 163.267 24.8439C163.945 24.5904 164.714 24.4187 165.564 24.4187C168.965 24.4187 171.696 27.0595 171.696 30.3788C171.696 30.8039 171.696 31.2291 171.524 31.6542H171.949C173.433 31.6783 174.869 32.1864 176.037 33.1013C177.141 31.7359 178.85 30.8857 180.804 30.8857C183.444 30.8857 185.742 32.5045 186.592 34.8018C187.463 34.3575 188.427 34.125 189.404 34.1232C192.806 34.1232 195.536 36.764 195.536 39.9934C196.145 39.8201 196.775 39.7347 197.408 39.7399C200.809 39.7399 203.54 42.3806 203.54 45.7C203.54 46.2069 203.458 46.7219 203.368 47.2288H203.965C207.366 47.2288 210.097 49.8696 210.097 53.1889C210.097 54.1291 209.844 54.9793 209.5 55.7397C212.223 56.3365 214.185 58.7156 214.185 61.528C214.179 63.0191 213.599 64.4507 212.566 65.5259C213.71 65.9322 214.7 66.6821 215.401 67.6729C216.102 68.6638 216.48 69.8471 216.482 71.0609C216.482 72.0011 216.229 72.8513 215.885 73.6117C218.354 75.4839 218.861 78.885 216.907 81.6974C219.63 84.4199 217.251 88.7611 214.953 90.5516C212.738 92.2522 209.59 93.2741 206.524 91.4918C204.145 93.1106 201.161 93.7892 198.267 93.1924C198.61 95.5715 196.395 97.6154 194.016 97.2802C194.694 98.3839 194.016 100.003 192.568 100.174L193.509 103.837L189.682 105.881C190.189 106.478 190.279 107.328 189.936 108.097C189.429 109.119 188.235 109.715 187.123 109.2C169.93 101.368 150.783 97.0267 130.442 97.0267C110.92 96.9792 91.6171 101.131 73.8415 109.2C72.7378 109.707 71.5442 109.119 71.0291 108.097C71.1109 107.156 71.2008 106.306 71.7077 105.717L71.6587 105.701ZM74.2994 100.591L73.1057 105.104L73.4491 105.873C73.2774 105.955 73.024 106.044 72.7705 106.216C72.4272 106.47 72.1737 106.813 72.4272 107.41C72.6806 107.917 73.1957 108.088 73.6208 107.917C90.9859 100.003 110.305 95.6614 130.728 95.6614C151.24 95.6614 170.47 100.003 187.835 107.917C188.685 108.342 190.214 106.813 188.088 105.873L188.432 105.104L187.238 100.591L191.326 99.1442L191.669 98.5474C192.012 98.7191 192.266 98.7191 192.519 98.8009C193.623 98.8826 193.541 97.6971 193.026 97.4355C173.484 88.5771 152.266 84.024 130.81 84.0847C108.515 84.0847 87.4867 88.8511 68.5928 97.4437C68.0859 97.6971 67.996 98.8908 69.0997 98.809C69.3531 98.809 69.6066 98.7273 69.9499 98.5556L70.2034 99.1524L74.2994 100.591ZM167.747 47.9973C162.899 36.1671 151.494 27.738 136.344 28.5066C136.344 29.5285 136.001 30.4605 135.494 31.319V35.3169C136.001 36.1672 136.344 37.1073 136.344 38.1293C136.344 39.1513 136.001 40.1732 135.494 40.9417V43.4925C145.877 42.1272 158.133 43.141 167.747 47.9973ZM135.404 45.0214C136.127 46.1042 136.406 47.4231 136.184 48.7058C135.961 49.9884 135.255 51.1367 134.211 51.9135C136.083 52.5103 137.53 53.8674 138.037 56.2547C141.781 57.105 142.803 59.8275 142.803 62.7217C142.803 66.2127 141.356 69.1886 136.083 69.4421C136.68 71.3961 138.552 72.7614 140.767 72.7614C141.776 72.7696 142.761 72.4617 143.585 71.881C144.409 71.3003 145.031 70.476 145.362 69.5238C145.191 69.0169 145.191 68.5019 145.191 67.995C145.191 64.6757 148.003 62.0349 151.404 62.0349C154.805 62.0349 157.617 64.6757 157.617 67.995C157.617 69.0169 157.364 69.949 156.849 70.8074C156.931 72.8513 158.378 74.5519 160.512 75.1487C162.637 75.6556 164.763 74.8053 165.875 73.023C160.855 71.4942 160.176 68.2566 161.109 64.8555C161.877 62.0431 163.578 59.664 167.322 59.7457C168.001 58.3804 168.941 57.5301 170.044 57.0233C169.701 54.2108 169.104 51.5783 168.091 49.0193C158.214 43.746 145.37 42.8058 135.412 44.2529L135.404 45.0214ZM126.55 28.5066C126.55 29.4468 126.893 30.2071 127.4 30.9756V35.6603C126.893 36.4288 126.55 37.1891 126.55 38.1293C126.55 39.0695 126.893 39.8298 127.4 40.5984V45.3648C126.893 46.1333 126.55 46.8936 126.55 47.8338C126.55 50.6462 128.676 51.4066 130.801 52.3468C132.927 51.4066 135.053 50.5563 135.053 47.8338C135.053 46.9835 134.799 46.1333 134.284 45.5365L134.202 40.6883C134.709 39.9198 135.053 39.1594 135.053 38.2192C135.053 37.279 134.709 36.5187 134.202 35.7502V30.9838C134.709 30.2153 135.053 29.4549 135.053 28.5147C135.053 28.1714 134.971 27.8362 134.971 27.411C154.969 25.9639 169.358 39.1594 171.312 57.71C169.521 58.3886 168.843 59.1571 168.074 60.8576C164.583 60.6859 163.054 62.0513 162.204 65.109C161.01 69.4502 163.226 71.1508 167.567 72.2545C166.292 75.0669 163.651 77.0209 160.25 76.1706C158.962 75.8752 157.813 75.1497 156.993 74.1139C156.173 73.078 155.73 71.7935 155.737 70.4722C156.244 69.7186 156.512 68.8296 156.506 67.9214C156.482 66.6131 155.94 65.3677 154.999 64.4587C154.058 63.5496 152.794 63.0514 151.486 63.0732C150.177 63.0514 148.914 63.5496 147.973 64.4587C147.031 65.3677 146.49 66.6131 146.466 67.9214C146.467 68.4413 146.553 68.9576 146.719 69.4502C146.347 70.7144 145.573 71.8226 144.513 72.6062C143.453 73.3898 142.167 73.806 140.849 73.7915C137.358 73.7915 135.314 71.3225 134.807 68.2566C139.23 68.2566 141.789 67.1529 141.789 62.6399C141.789 59.4024 140.596 57.7918 137.195 57.105C136.426 53.1071 134.301 52.8537 130.899 52.3386C127.408 52.9354 125.365 53.1071 124.604 57.105C121.203 57.7836 120.009 59.4024 120.009 62.6399C120.009 67.1529 122.56 68.2566 126.991 68.2566C126.485 71.3225 124.441 73.7915 120.95 73.7915C119.635 73.7927 118.355 73.3714 117.298 72.5898C116.241 71.8081 115.463 70.7075 115.08 69.4502C115.246 68.9576 115.331 68.4413 115.333 67.9214C115.309 66.6131 114.767 65.3677 113.826 64.4587C112.885 63.5496 111.621 63.0514 110.313 63.0732C107.501 63.0732 105.293 65.1989 105.293 67.9214C105.286 68.8298 105.554 69.7191 106.062 70.4722C105.98 73.1947 104.271 75.4921 101.549 76.1706C98.1478 77.0209 95.507 75.0669 94.2316 72.2545C98.5729 71.1508 100.699 69.4421 99.5949 65.109C98.7446 62.0431 97.2158 60.6859 93.7247 60.8576C92.8745 59.1571 92.2777 58.3886 90.4872 57.71C92.4412 39.1594 106.74 25.9639 126.828 27.411C126.673 27.7591 126.587 28.1339 126.575 28.5147L126.55 28.5066ZM93.4468 49.1092C92.5066 51.66 91.828 54.3008 91.5746 57.1132C92.6783 57.6201 93.6185 58.4785 94.297 59.8357C98.1233 59.7539 99.832 62.133 100.592 64.9455C101.533 68.3465 100.846 71.5841 95.8259 73.1129C96.9296 74.8135 99.0635 75.7537 101.189 75.2386C103.315 74.7235 104.762 72.9413 104.852 70.8973C104.341 70.0488 104.075 69.0754 104.083 68.0849C104.083 64.7656 106.896 62.1249 110.297 62.1249C113.698 62.1249 116.51 64.7656 116.51 68.0849C116.51 68.5918 116.429 69.1069 116.339 69.6138C116.68 70.5592 117.304 71.3768 118.126 71.9559C118.948 72.535 119.928 72.8475 120.933 72.8513C123.149 72.8513 124.931 71.486 125.618 69.532C120.345 69.2786 118.898 66.2944 118.898 62.8116C118.898 59.8357 119.92 57.1949 123.664 56.3447C123.874 55.3528 124.336 54.432 125.007 53.6714C125.677 52.9108 126.533 52.3363 127.49 52.0034C126.868 51.5162 126.361 50.8967 126.008 50.1896C125.654 49.4826 125.463 48.7059 125.446 47.9156C125.446 46.8936 125.79 45.8717 126.297 45.1031V44.2529C116.167 42.8875 103.315 43.8359 93.4468 49.1092ZM125.365 28.5147C110.133 27.6645 98.81 36.1753 93.8719 48.0055C103.405 43.2391 115.742 42.0454 126.125 43.4925V40.9336C125.618 40.0833 125.275 39.1431 125.275 38.1211C125.275 37.0992 125.618 36.0772 126.125 35.3087V31.3108C125.641 30.4508 125.377 29.4848 125.356 28.4984L125.365 28.5147ZM187.32 82.6458L187.663 82.3923C188.342 82.8992 188.938 83.2426 189.789 83.496C190.132 83.5778 190.557 83.5778 190.892 83.6677C191.318 85.7934 192.086 87.4939 193.615 89.0309L192.936 89.9711C189.274 88.4147 185.554 86.9966 181.785 85.7198L181.956 84.6161C183.829 84.4444 185.783 83.7658 187.32 82.6621V82.6458ZM187.663 83.7495C186.641 84.4281 185.447 84.9431 184.262 85.2783C186.636 86.1344 188.991 87.0421 191.326 88.0008C190.653 86.9877 190.163 85.8642 189.879 84.6815L189.535 84.5997C188.857 84.428 188.26 84.0928 187.663 83.7495ZM130.213 69.3685H131.406C131.831 72.4344 133.875 75.0669 136.68 76.3505L136.426 77.4542C134.554 77.3725 132.682 77.3725 130.81 77.3725C128.937 77.3725 127.065 77.3725 125.193 77.4542L124.939 76.3505C127.752 74.9852 129.788 72.4344 130.213 69.3685ZM130.81 71.6658C130.131 73.4563 128.937 74.9852 127.319 76.1788C128.512 76.1788 129.616 76.0971 130.81 76.0971C131.974 76.0817 133.138 76.109 134.301 76.1788C132.746 75.0183 131.539 73.463 130.81 71.6658ZM68.7645 89.8812L68.0859 88.941C69.6147 87.3222 70.3832 85.7034 70.8084 83.5778C71.9592 83.5315 73.0639 83.1126 73.956 82.3841C75.7465 83.6595 77.5288 84.428 79.7444 84.5098L79.9161 85.6135C76.1469 86.8903 72.427 88.3084 68.7645 89.8649V89.8812ZM70.3832 88.009C72.7178 87.0503 75.0729 86.1426 77.447 85.2865C76.2534 84.9431 75.0679 84.4362 74.0459 83.7576C73.5391 84.101 72.8523 84.3545 72.2555 84.5262L71.9121 84.6079C71.487 85.8016 71.0618 86.987 70.3832 88.009ZM98.0415 79.5799V80.6836C94.4351 81.4332 90.8572 82.3141 87.315 83.3243L86.8081 82.3024C89.1055 80.3484 90.4708 77.3643 90.0457 74.2984L91.1494 74.045C92.3431 76.9391 94.9756 78.9831 98.0415 79.5799ZM95.6624 80.005C93.8987 79.264 92.3698 78.0573 91.2393 76.514C90.9859 78.3862 90.2991 80.1767 89.1137 81.6238C91.2393 81.027 93.4468 80.5201 95.6624 80.005ZM105.62 79.2365L105.195 78.2146C107.321 76.8492 108.686 75.0669 109.536 72.7696H110.215C110.894 72.7696 111.409 72.5979 112.087 72.4262C113.534 74.4701 115.235 75.9172 117.704 76.5958L117.622 77.6995C113.61 78.1146 109.608 78.6243 105.62 79.2283V79.2365ZM110.387 73.9632C109.79 75.4103 108.858 76.6857 107.664 77.7894L115.235 76.8492C113.825 76.1143 112.603 75.0654 111.662 73.7833C111.237 73.8651 110.812 73.955 110.387 73.955V73.9632ZM144.005 77.7894L143.923 76.6857C146.209 75.9637 148.187 74.4954 149.54 72.5161C150.219 72.6878 150.734 72.8595 151.412 72.8595H152.091C152.941 75.1569 154.306 76.9473 156.432 78.3045L156.007 79.3264C152.091 78.6479 148.093 78.1246 144.005 77.7894ZM151.24 73.9632C150.837 73.9542 150.436 73.8965 150.047 73.7915C149.107 75.0669 147.831 76.0889 146.384 76.8574C148.935 77.1108 151.494 77.3643 153.955 77.7976C152.863 76.7786 151.968 75.5676 151.314 74.2248L151.24 73.9632ZM174.901 82.3024L174.394 83.3243C170.903 82.3024 167.33 81.4521 163.667 80.6836V79.5799C166.643 78.9831 169.284 76.9391 170.478 74.1349L171.582 74.3883C171.416 75.8809 171.634 77.3909 172.215 78.7757C172.796 80.1606 173.72 81.3744 174.901 82.3024ZM172.603 81.6238C171.41 80.1767 170.649 78.3862 170.478 76.514C169.374 78.0429 167.755 79.2365 166.055 80.005L172.612 81.6238H172.603ZM174.304 62.133C171.663 61.4545 168.941 62.9833 168.262 65.5341C167.584 68.0849 169.202 70.7256 171.835 71.3225C174.476 72.0011 177.198 70.4722 177.877 67.9214C178.555 65.3706 176.937 62.7299 174.304 62.133ZM174.476 61.3645C177.542 62.133 179.414 65.109 178.645 68.0849C177.877 71.0609 174.729 72.8513 171.663 72.0828C170.945 71.9203 170.267 71.6167 169.668 71.1896C169.068 70.7626 168.56 70.2206 168.172 69.5953C167.784 68.9699 167.524 68.2736 167.408 67.547C167.291 66.8203 167.321 66.0777 167.494 65.3624C168.262 62.3865 171.41 60.596 174.476 61.3645ZM178.817 52.7719C177.288 52.7719 176.094 53.9656 176.094 55.4126C176.094 56.8597 177.37 58.0534 178.817 58.0534C180.346 58.0534 181.539 56.8597 181.539 55.4126C181.543 55.0579 181.475 54.7061 181.338 54.3787C181.201 54.0513 181 53.755 180.745 53.508C180.49 53.261 180.188 53.0684 179.857 52.9418C179.525 52.8153 179.171 52.7575 178.817 52.7719ZM178.817 52.0034C180.771 52.0034 182.39 53.5322 182.39 55.4045C182.39 57.2767 180.771 58.8055 178.817 58.8055C176.863 58.8055 175.244 57.2767 175.244 55.4045C175.244 53.5322 176.863 52.0034 178.817 52.0034ZM176.52 43.2391C174.991 43.2391 173.797 44.4327 173.797 45.8798C173.797 47.3269 175.073 48.5206 176.52 48.5206C178.048 48.5206 179.242 47.3269 179.242 45.8798C179.242 44.4327 178.048 43.2391 176.52 43.2391ZM176.52 42.4706C178.474 42.4706 180.092 43.9994 180.092 45.8717C180.092 47.7439 178.474 49.2727 176.52 49.2727C174.566 49.2727 172.947 47.7439 172.947 45.8717C172.947 43.9994 174.566 42.4706 176.52 42.4706ZM210.563 68.2566C209.034 68.2566 207.841 69.4502 207.841 70.8973C207.841 72.3444 209.034 73.5381 210.563 73.5381C212.092 73.5381 213.286 72.3444 213.286 70.8973C213.286 69.4502 212.092 68.2566 210.563 68.2566ZM210.563 67.4881C212.517 67.4881 214.136 69.0169 214.136 70.8892C214.136 72.7614 212.517 74.2902 210.563 74.2902C208.609 74.2902 206.99 72.7614 206.99 70.8892C206.99 69.0169 208.609 67.4881 210.563 67.4881ZM208.266 58.8055C206.737 58.8055 205.543 59.9992 205.543 61.4463C205.543 62.8934 206.737 64.087 208.266 64.087C209.795 64.087 210.988 62.8934 210.988 61.4463C210.988 59.9992 209.795 58.8055 208.266 58.8055ZM208.266 58.037C210.22 58.037 211.838 59.5659 211.838 61.4381C211.838 63.3103 210.22 64.8392 208.266 64.8392C206.312 64.8392 204.693 63.3103 204.693 61.4381C204.775 59.5659 206.312 58.037 208.266 58.037ZM204.178 50.4664C202.649 50.4664 201.455 51.66 201.455 53.1071C201.455 54.5542 202.731 55.7478 204.178 55.7478C205.707 55.7478 206.9 54.5542 206.9 53.1071C206.9 51.66 205.707 50.4664 204.178 50.4664ZM204.178 49.6979C206.132 49.6979 207.751 51.2267 207.751 53.0989C207.751 54.9712 206.132 56.5 204.178 56.5C202.224 56.5 200.605 54.9712 200.605 53.0989C200.605 51.2267 202.224 49.6979 204.178 49.6979ZM197.621 43.0592C196.092 43.0592 194.898 44.2529 194.898 45.7C194.898 47.1471 196.092 48.3407 197.621 48.3407C199.15 48.3407 200.343 47.1471 200.343 45.7C200.343 44.2529 199.15 43.0592 197.621 43.0592ZM197.621 42.2907C199.575 42.2907 201.194 43.8196 201.194 45.6918C201.194 47.564 199.665 49.1092 197.621 49.1092C195.667 49.1092 194.048 47.5804 194.048 45.7081C194.13 43.8359 195.667 42.3071 197.621 42.3071V42.2907ZM189.617 37.4426C188.088 37.4426 186.895 38.6362 186.895 40.0833C186.895 41.5304 188.088 42.724 189.617 42.724C191.146 42.724 192.34 41.5304 192.34 40.0833C192.34 38.6362 191.146 37.4426 189.617 37.4426ZM189.617 36.674C191.571 36.674 193.19 38.2029 193.19 40.0751C193.19 41.9473 191.571 43.4762 189.617 43.4762C187.663 43.4762 186.044 41.9473 186.044 40.0751C186.044 38.2029 187.663 36.674 189.617 36.674ZM180.934 34.1232C179.406 34.1232 178.212 35.3169 178.212 36.764C178.212 38.2111 179.406 39.4047 180.934 39.4047C182.463 39.4047 183.657 38.2111 183.657 36.764C183.739 35.3169 182.463 34.1232 180.934 34.1232ZM180.934 33.3547C182.888 33.3547 184.507 34.8836 184.507 36.7558C184.507 38.628 182.888 40.1569 180.934 40.1569C178.98 40.1569 177.362 38.628 177.362 36.7558C177.443 34.8836 178.98 33.3547 180.934 33.3547ZM172.17 34.8836C170.641 34.8836 169.448 36.0772 169.448 37.5243C169.448 38.9714 170.641 40.165 172.17 40.165C173.699 40.165 174.893 38.9714 174.893 37.5243C174.893 36.0772 173.699 34.8836 172.17 34.8836ZM172.17 34.1151C174.124 34.1151 175.743 35.6439 175.743 37.5161C175.743 39.3884 174.132 40.9336 172.17 40.9336C170.208 40.9336 168.597 39.4047 168.597 37.5325C168.597 35.6603 170.216 34.1314 172.17 34.1314V34.1151ZM165.703 27.6481C164.174 27.6481 162.981 28.8418 162.981 30.2889C162.981 31.7359 164.174 32.9296 165.703 32.9296C167.232 32.9296 168.426 31.7359 168.426 30.2889C168.507 28.8418 167.232 27.6481 165.703 27.6481ZM165.703 26.9695C167.657 26.9695 169.276 28.4984 169.276 30.3706C169.276 32.2428 167.657 33.7717 165.703 33.7717C163.749 33.7717 162.13 32.2428 162.13 30.3706C162.212 28.4984 163.749 26.9695 165.703 26.9695ZM157.274 22.2849C155.745 22.2849 154.552 23.4785 154.552 24.9256C154.552 26.3727 155.745 27.5664 157.274 27.5664C158.803 27.5664 159.997 26.3727 159.997 24.9256C159.997 23.4785 158.803 22.2849 157.274 22.2849ZM157.274 21.5164C159.228 21.5164 160.847 23.0452 160.847 24.9174C160.847 26.7897 159.228 28.3185 157.274 28.3185C155.32 28.3185 153.701 26.7897 153.701 24.9174C153.783 23.0452 155.32 21.5164 157.274 21.5164ZM148.51 19.1373C146.981 19.1373 145.787 20.3309 145.787 21.778C145.787 23.2251 146.981 24.4187 148.51 24.4187C150.039 24.4187 151.232 23.2251 151.232 21.778C151.314 20.3309 150.039 19.1373 148.51 19.1373ZM148.51 18.3687C150.464 18.3687 152.083 19.8976 152.083 21.7698C152.083 23.642 150.464 25.1709 148.51 25.1709C146.556 25.1709 144.937 23.642 144.937 21.7698C145.019 19.8976 146.556 18.3687 148.51 18.3687ZM139.574 17.6002C138.045 17.6002 136.851 18.7939 136.851 20.241C136.851 21.6881 138.045 22.8817 139.574 22.8817C141.103 22.8817 142.296 21.6881 142.296 20.241C142.296 18.7939 141.103 17.6002 139.574 17.6002ZM139.574 16.8317C141.528 16.8317 143.147 18.3606 143.147 20.2328C143.147 22.105 141.528 23.6339 139.574 23.6339C139.121 23.6414 138.671 23.5593 138.25 23.3922C137.829 23.225 137.445 22.9762 137.12 22.6601C136.796 22.3439 136.537 21.9667 136.359 21.5501C136.181 21.1335 136.087 20.6858 136.083 20.2328C136.001 18.3606 137.612 16.8317 139.574 16.8317ZM54.5552 87.4694C56.9343 86.194 57.7927 83.2998 56.5092 81.0024C55.8473 79.8832 54.7782 79.0632 53.5256 78.7143C52.273 78.3653 50.934 78.5144 49.7888 79.1302C47.4097 80.4056 46.5512 83.2998 47.8348 85.5972C49.1184 87.8945 52.1761 88.7448 54.5552 87.4694ZM54.8986 88.148C52.0861 89.5951 48.6851 88.6549 47.1562 85.9324C46.7942 85.2946 46.5662 84.5896 46.4863 83.8606C46.4063 83.1316 46.4759 82.394 46.691 81.6928C46.9061 80.9917 47.2621 80.3419 47.7371 79.7832C48.2121 79.2244 48.7962 78.7686 49.4536 78.4435C52.266 76.9964 55.7488 77.9366 57.1959 80.6591C57.5567 81.2971 57.7837 82.0021 57.8631 82.7308C57.9425 83.4595 57.8725 84.1967 57.6575 84.8975C57.4426 85.5983 57.087 86.2479 56.6127 86.8068C56.1383 87.3656 55.5551 87.822 54.8986 88.148ZM89.7923 71.2979C92.433 70.6194 94.0436 68.0604 93.365 65.5096C92.6864 62.9588 89.9639 61.4218 87.3232 62.1085C84.6825 62.7953 83.0719 65.3461 83.7505 67.8969C84.1198 69.1367 84.9564 70.1845 86.0837 70.8191C87.211 71.4536 88.5407 71.6254 89.7923 71.2979ZM90.0457 72.0665C88.5901 72.4485 87.0428 72.2435 85.7369 71.4958C84.431 70.748 83.471 69.5172 83.0637 68.0686C82.88 67.3529 82.843 66.6075 82.9549 65.8772C83.0668 65.1468 83.3253 64.4467 83.7148 63.8189C84.1043 63.191 84.6169 62.6485 85.2215 62.2239C85.8262 61.7993 86.5105 61.5014 87.2333 61.3482C90.2991 60.5797 93.4468 62.3701 94.2153 65.3461C94.9838 68.322 93.1116 71.3061 90.0457 72.0665ZM130.81 66.3026C133.532 66.3026 135.748 64.1769 135.748 61.5362C135.737 60.8988 135.601 60.2698 135.347 59.6851C135.093 59.1004 134.726 58.5716 134.267 58.1288C133.808 57.6861 133.267 57.3382 132.674 57.105C132.08 56.8718 131.447 56.7579 130.81 56.7698C130.172 56.7579 129.539 56.8718 128.945 57.105C128.352 57.3382 127.811 57.6861 127.352 58.1288C126.893 58.5716 126.526 59.1004 126.272 59.6851C126.018 60.2698 125.882 60.8988 125.871 61.5362C125.871 64.1769 128.087 66.3026 130.81 66.3026ZM130.81 67.0711C130.072 67.0819 129.339 66.9474 128.654 66.675C127.968 66.4027 127.343 65.998 126.814 65.484C126.285 64.9701 125.862 64.3569 125.57 63.6795C125.278 63.0021 125.122 62.2738 125.111 61.5362C125.111 58.4703 127.662 56.0013 130.81 56.0013C133.957 56.0013 136.508 58.4703 136.508 61.5362C136.59 64.6021 133.957 67.0711 130.81 67.0711ZM82.892 58.0534C84.4209 58.0534 85.6145 56.8597 85.6145 55.4126C85.6145 53.9656 84.4209 52.7719 82.892 52.7719C81.3632 52.7719 80.1695 53.9656 80.1695 55.4126C80.0878 56.8597 81.3632 58.0534 82.892 58.0534ZM82.892 58.8219C82.439 58.8295 81.989 58.7473 81.5679 58.5802C81.1468 58.4131 80.763 58.1643 80.4385 57.8481C80.114 57.532 79.8552 57.1547 79.6772 56.7381C79.4991 56.3216 79.4053 55.8738 79.401 55.4208C79.401 53.5486 81.0198 52.0197 82.892 52.0197C84.846 52.0197 86.4648 53.5486 86.4648 55.4208C86.383 57.293 84.846 58.8219 82.892 58.8219ZM85.1894 48.5206C86.7182 48.5206 87.9119 47.3269 87.9119 45.8798C87.9119 44.4327 86.7182 43.2391 85.1894 43.2391C83.6605 43.2391 82.4669 44.4327 82.4669 45.8798C82.3851 47.3269 83.6605 48.5206 85.1894 48.5206ZM85.1894 49.2891C83.2354 49.2891 81.6166 47.7602 81.6166 45.888C81.6166 44.0158 83.2354 42.4869 85.1894 42.4869C87.1433 42.4869 88.7621 44.0158 88.7621 45.888C88.6804 47.7602 87.0616 49.2891 85.1894 49.2891ZM51.0642 73.6198C52.593 73.6198 53.7867 72.4262 53.7867 70.9791C53.7867 69.532 52.593 68.3384 51.0642 68.3384C49.5353 68.3384 48.3417 69.532 48.3417 70.9791C48.3417 72.4262 49.5353 73.6198 51.0642 73.6198ZM51.0642 74.3883C49.1102 74.3883 47.4914 72.8595 47.4914 70.9873C47.4914 69.115 49.1102 67.5862 51.0642 67.5862C51.5172 67.5786 51.9672 67.6608 52.3883 67.8279C52.8093 67.995 53.1932 68.2438 53.5177 68.56C53.8422 68.8761 54.101 69.2534 54.279 69.6699C54.4571 70.0865 54.5509 70.5342 54.5552 70.9873C54.6369 72.8595 53.0263 74.3883 51.0642 74.3883ZM53.3615 64.087C54.8904 64.087 56.084 62.8934 56.084 61.4463C56.0628 60.7385 55.7666 60.0668 55.2583 59.5738C54.75 59.0808 54.0696 58.8052 53.3615 58.8055C51.8327 58.8055 50.639 59.9992 50.639 61.4463C50.639 62.8934 51.8327 64.087 53.3615 64.087ZM53.3615 64.8555C51.4076 64.8555 49.7888 63.3267 49.7888 61.4545C49.7888 59.5822 51.4076 58.0534 53.3615 58.0534C55.3155 58.0534 56.9343 59.5822 56.9343 61.4545C56.9343 63.3267 55.3155 64.8555 53.3615 64.8555ZM57.4494 55.7478C58.9782 55.7478 60.1719 54.5542 60.1719 53.1071C60.1719 51.66 58.9782 50.4664 57.4494 50.4664C55.9205 50.4664 54.7269 51.66 54.7269 53.1071C54.7269 54.5542 56.0023 55.7478 57.4494 55.7478ZM57.4494 56.5164C55.4954 56.5164 53.8766 54.9875 53.8766 53.1153C53.8766 51.2431 55.4954 49.7142 57.4494 49.7142C59.4033 49.7142 61.0221 51.2431 61.0221 53.1153C61.0221 54.9875 59.4033 56.5164 57.4494 56.5164ZM64.0062 48.3489C65.5351 48.3489 66.7287 47.1552 66.7287 45.7081C66.7287 44.2611 65.5351 43.0674 64.0062 43.0674C62.4774 43.0674 61.2837 44.2611 61.2837 45.7081C61.2837 47.1552 62.4774 48.3489 64.0062 48.3489ZM64.0062 49.1174C62.0523 49.1174 60.4335 47.5885 60.4335 45.7163C60.4335 43.8441 62.0523 42.3152 64.0062 42.3152C65.9602 42.3152 67.579 43.8441 67.579 45.7163C67.579 47.5885 65.9602 49.1092 63.9981 49.1092L64.0062 49.1174ZM72.0102 42.7322C73.539 42.7322 74.7327 41.5386 74.7327 40.0915C74.7327 38.6444 73.539 37.4507 72.0102 37.4507C70.4814 37.4507 69.2877 38.6444 69.2877 40.0915C69.2877 41.5386 70.5631 42.7322 72.0102 42.7322ZM72.0102 43.5007C70.0562 43.5007 68.4374 41.9719 68.4374 40.0996C68.4374 38.2274 70.0562 36.6986 72.0102 36.6986C73.9642 36.6986 75.583 38.2274 75.583 40.0996C75.583 41.9719 73.9642 43.5007 72.0102 43.5007ZM80.6927 39.5028C82.2216 39.5028 83.4152 38.3092 83.4152 36.8621C83.4152 35.415 82.2216 34.2213 80.6927 34.2213C79.1639 34.2213 77.9703 35.415 77.9703 36.8621C77.9703 38.3092 79.1639 39.5028 80.6927 39.5028ZM80.6927 40.2713C78.7388 40.2713 77.12 38.7425 77.12 36.8703C77.12 34.998 78.7388 33.4692 80.6927 33.4692C82.6467 33.4692 84.2655 34.998 84.2655 36.8703C84.1838 38.7425 82.6467 40.2713 80.6927 40.2713ZM89.4571 40.1896C90.9859 40.1896 92.1795 38.9959 92.1795 37.5488C92.1795 36.1017 90.9859 34.9081 89.4571 34.9081C87.9282 34.9081 86.7346 36.1017 86.7346 37.5488C86.7346 38.9959 87.9282 40.1896 89.4571 40.1896ZM89.4571 40.9581C87.5031 40.9581 85.8843 39.4292 85.8843 37.557C85.8843 35.6848 87.5031 34.1559 89.4571 34.1559C91.411 34.1559 93.0298 35.6848 93.0298 37.557C93.0298 39.4292 91.4029 40.9336 89.4489 40.9336L89.4571 40.9581ZM95.924 33.044C97.4528 33.044 98.6465 31.8504 98.6465 30.4033C98.6465 28.9562 97.4528 27.7626 95.924 27.7626C94.3951 27.7626 93.2015 28.9562 93.2015 30.4033C93.2015 31.8504 94.3951 33.044 95.924 33.044ZM95.924 33.8126C93.97 33.8126 92.3512 32.2837 92.3512 30.4115C92.3512 28.5393 93.97 27.0104 95.924 27.0104C97.878 27.0104 99.4968 28.5393 99.4968 30.4115C99.4968 32.2837 97.878 33.8126 95.924 33.8126ZM104.353 27.5991C105.882 27.5991 107.076 26.4054 107.076 24.9583C107.076 23.5112 105.882 22.3176 104.353 22.3176C102.824 22.3176 101.631 23.5112 101.631 24.9583C101.631 26.4054 102.824 27.5991 104.353 27.5991ZM104.353 28.3676C102.399 28.3676 100.78 26.8387 100.78 24.9665C100.78 23.0943 102.399 21.5654 104.353 21.5654C106.307 21.5654 107.926 23.0943 107.926 24.9665C107.926 26.8387 106.307 28.3676 104.353 28.3676ZM113.117 24.4514C114.646 24.4514 115.84 23.2578 115.84 21.8107C115.84 20.3636 114.646 19.17 113.117 19.17C111.589 19.17 110.395 20.3636 110.395 21.8107C110.395 23.2578 111.589 24.4514 113.117 24.4514ZM113.117 25.2199C111.163 25.2199 109.545 23.6911 109.545 21.8189C109.545 19.9466 111.163 18.4178 113.117 18.4178C115.071 18.4178 116.69 19.9466 116.69 21.8189C116.69 23.6911 115.071 25.2199 113.117 25.2199ZM130.81 50.4664C132.338 50.4664 133.532 49.2727 133.532 47.8256C133.532 46.3785 132.338 45.1849 130.81 45.1849C129.281 45.1849 128.087 46.3785 128.087 47.8256C128.087 49.2727 129.281 50.4664 130.81 50.4664ZM130.81 51.2349C128.856 51.2349 127.237 49.706 127.237 47.8338C127.237 45.9616 128.856 44.4327 130.81 44.4327C132.764 44.4327 134.382 45.9616 134.382 47.8338C134.382 49.706 132.764 51.2349 130.81 51.2349ZM130.81 40.8518C132.338 40.8518 133.532 39.6582 133.532 38.2111C133.532 36.764 132.338 35.5703 130.81 35.5703C129.281 35.5703 128.087 36.764 128.087 38.2111C128.087 39.6582 129.281 40.8518 130.81 40.8518ZM130.81 41.6203C128.856 41.6203 127.237 40.0915 127.237 38.2192C127.237 36.347 128.856 34.8182 130.81 34.8182C132.764 34.8182 134.382 36.347 134.382 38.2192C134.382 40.0915 132.764 41.6203 130.81 41.6203ZM130.81 31.2372C132.338 31.2372 133.532 30.0436 133.532 28.5965C133.532 27.1494 132.338 25.9558 130.81 25.9558C129.281 25.9558 128.087 27.1494 128.087 28.5965C128.087 30.0436 129.281 31.2372 130.81 31.2372ZM130.81 31.9158C128.856 31.9158 127.237 30.387 127.237 28.5147C127.237 26.6425 128.856 25.1137 130.81 25.1137C132.764 25.1137 134.382 26.6425 134.382 28.5147C134.382 30.4687 132.764 31.9158 130.81 31.9158ZM122.127 22.8981C123.656 22.8981 124.849 21.7044 124.849 20.2573C124.828 19.5495 124.532 18.8779 124.024 18.3849C123.515 17.8918 122.835 17.6163 122.127 17.6166C120.598 17.6166 119.315 18.8102 119.315 20.2573C119.315 21.7862 120.59 22.8981 122.127 22.8981ZM122.127 23.7483C120.173 23.7483 118.554 22.2195 118.554 20.3473C118.554 18.475 120.173 16.9462 122.127 16.9462C124.081 16.9462 125.7 18.475 125.7 20.3473C125.618 22.2195 124.081 23.7483 122.127 23.7483ZM211.83 79.1466C210.684 78.5369 209.347 78.3912 208.096 78.7397C206.845 79.0882 205.776 79.9041 205.11 81.0188C203.834 83.3162 204.685 86.2103 207.064 87.4857C208.211 88.0934 209.547 88.238 210.797 87.8897C212.048 87.5413 213.117 86.7267 213.784 85.6135C214.109 85.0673 214.316 84.4595 214.393 83.8287C214.47 83.1979 214.415 82.558 214.231 81.9497C214.048 81.3414 213.739 80.7781 213.326 80.2955C212.912 79.8129 212.403 79.4216 211.83 79.1466ZM212.255 78.468C215.068 79.9151 216 83.3162 214.471 85.9569C213.705 87.267 212.462 88.2296 211.001 88.6427C209.541 89.0557 207.977 88.8872 206.639 88.1725C205.986 87.8428 205.407 87.3829 204.938 86.8213C204.47 86.2596 204.121 85.608 203.913 84.9066C203.706 84.2051 203.644 83.4686 203.732 82.7424C203.819 82.0162 204.055 81.3155 204.423 80.6836C205.189 79.3735 206.433 78.4109 207.893 77.9978C209.353 77.5848 210.917 77.7533 212.255 78.468ZM61.529 80.3402C60.7605 78.468 59.8285 77.0209 57.7846 76.4241C59.1499 59.9992 63.483 52.5103 78.8941 45.0214C80.2594 45.5283 80.1695 45.7 80.1695 45.8717C80.1695 48.0873 81.4449 49.191 83.0637 50.3846C80.3412 50.9814 77.8721 52.1751 77.8721 55.4045C77.8721 58.0452 79.7444 59.4923 82.1235 60.1709C81.355 61.618 81.1833 62.2148 81.355 63.9153C78.2074 65.3624 77.5288 67.3164 78.2891 70.3823C79.4828 74.7235 82.2053 75.2304 86.5465 74.1267C86.7803 75.4783 86.5472 76.8691 85.8856 78.0706C85.224 79.2721 84.1732 80.2127 82.9061 80.7378C81.639 81.2629 80.231 81.3412 78.9134 80.9599C77.5959 80.5786 76.4473 79.7604 75.6565 78.6397C75.6565 78.2146 75.5748 77.8712 75.4849 77.446C74.8063 74.977 72.0838 73.4481 69.3531 74.045C66.7124 74.7235 65.0118 77.3643 65.6904 79.9151C65.9439 80.7654 66.369 81.4439 66.9658 82.0408C67.2193 84.5098 66.1156 86.7254 63.9 87.9109C61.6026 89.1045 59.8121 88.5895 57.6047 87.8291C61.2674 86.1286 63.1478 84.5098 61.529 80.3402ZM61.7825 62.55C60.2536 66.2127 59.4851 70.464 58.97 75.6556C60.7605 76.4241 61.946 78.2064 62.6327 79.9968C63.7364 82.7193 63.7364 85.5318 60.6787 87.6574C61.6009 87.7578 62.5301 87.5477 63.3195 87.0606C65.02 86.1204 65.9602 84.4199 65.8703 82.6376C65.2825 81.9431 64.8479 81.1324 64.5949 80.2585C63.7446 77.0209 65.7885 73.7915 69.0179 73.023C70.5843 72.6242 72.2441 72.8432 73.6535 73.6347C75.0628 74.4261 76.1137 75.7293 76.5886 77.2743C76.6703 77.6177 76.7603 77.9529 76.7603 78.2963C79.5727 81.6156 85.1894 79.9151 85.4428 75.5738C80.2513 76.5958 78.0357 74.045 77.1854 70.6357C76.4169 67.8233 76.7603 64.9373 80.0796 63.2286C80.0498 62.4213 80.1661 61.6153 80.423 60.8495C79.517 60.4744 78.7172 59.8823 78.0942 59.1252C77.4711 58.3681 77.0439 57.4694 76.8502 56.5082C73.8743 57.105 70.5549 57.9553 67.8324 59.059C65.1917 59.9992 63.2295 61.3563 61.7825 62.55ZM78.9759 46.215C70.3832 50.5563 65.3552 54.9793 62.3793 61.1111C63.9482 59.9712 65.6679 59.055 67.4891 58.3886C70.3015 57.2849 73.7026 56.4346 76.6785 55.8378V55.4045C76.6785 52.9354 78.2973 50.7198 80.5047 49.8695C79.5922 48.8588 79.0527 47.5746 78.9759 46.215ZM197.703 88.0008C196.659 87.4463 195.807 86.5888 195.26 85.541C194.713 84.4932 194.495 83.3043 194.637 82.1307C195.234 81.5339 195.659 80.8553 195.912 80.005C196.065 79.3849 196.093 78.7409 195.996 78.1098C195.898 77.4787 195.678 76.8731 195.346 76.3276C195.014 75.7822 194.577 75.3077 194.061 74.9314C193.545 74.5551 192.96 74.2844 192.34 74.1349C191.611 73.9429 190.848 73.9176 190.108 74.0608C189.367 74.204 188.669 74.5121 188.064 74.9621C187.46 75.4121 186.964 75.9926 186.614 76.6604C186.265 77.3282 186.07 78.0662 186.044 78.8195C182.218 83.6677 174.468 81.1169 175.154 74.3066C179.496 75.3285 182.218 74.9034 183.412 70.5621C184.262 67.4963 183.493 65.5423 180.436 64.0952C180.623 62.7956 180.351 61.4714 179.667 60.3507C182.046 59.6722 183.919 58.2251 183.919 55.5843C183.919 52.3468 181.45 51.1613 178.727 50.6462C180.346 49.3708 181.703 48.3489 181.703 46.1333C181.703 45.9616 181.703 45.7081 181.621 45.5365L182.725 45.1931C198.046 52.6002 202.723 60.3426 204.088 76.5958C201.962 77.1926 201.022 78.6397 200.343 80.5119C198.725 84.6815 200.597 86.3003 204.26 88.0826C201.791 88.6794 200.008 89.1863 197.703 88.0008ZM184.851 56.5082C184.425 58.4622 183.06 60.0809 181.188 60.8495C181.48 61.6066 181.597 62.4198 181.531 63.2286C184.932 64.9291 185.194 67.8233 184.425 70.6357C183.485 74.0368 181.36 76.5958 176.168 75.5738C176.422 79.9151 182.038 81.6156 184.851 78.2963C184.851 77.9529 184.932 77.6177 185.022 77.2743C185.873 74.1267 189.274 72.1646 192.511 73.023C195.831 73.8733 197.785 77.1108 196.934 80.2585C196.681 81.1087 196.256 81.959 195.659 82.5558C195.629 83.2378 195.744 83.9183 195.997 84.5523C196.25 85.1864 196.634 85.7597 197.125 86.2341C197.616 86.7086 198.201 87.0735 198.844 87.3048C199.486 87.5361 200.17 87.6284 200.85 87.5757C197.785 85.5318 197.785 82.7275 198.896 79.9151C199.575 78.1246 200.687 76.3423 202.559 75.5738C202.134 70.3823 201.284 66.1309 199.747 62.4682C197.942 60.9747 195.9 59.7946 193.705 58.9772C191.154 58.037 187.745 57.1868 184.851 56.5082ZM182.635 46.0433C182.553 47.4904 181.956 48.8558 181.016 49.7878C182.16 50.1941 183.15 50.944 183.851 51.9348C184.552 52.9256 184.93 54.109 184.932 55.3227V55.7478C187.998 56.4264 191.228 57.1949 194.122 58.2987C196.166 59.0672 197.866 59.9992 199.232 61.0211C196.256 54.9793 191.228 50.5563 182.635 46.0433ZM164.763 97.2802L156.08 91.4101L166.635 90.3063L175.318 96.1765L164.763 97.2802ZM148.42 93.8791C147.967 93.8867 147.517 93.8045 147.096 93.6374C146.675 93.4703 146.291 93.2215 145.966 92.9053C145.642 92.5892 145.383 92.2119 145.205 91.7954C145.027 91.3788 144.933 90.9311 144.929 90.478C144.929 88.6058 146.548 87.077 148.42 87.077C150.374 87.077 151.993 88.6058 151.993 90.478C151.993 92.3503 150.374 93.8791 148.42 93.8791ZM148.42 93.1106C149.949 93.1106 151.142 91.917 151.142 90.4699C151.142 89.0228 149.949 87.8291 148.42 87.8291C146.891 87.8291 145.697 89.0228 145.697 90.4699C145.697 91.917 146.973 93.1106 148.42 93.1106ZM79.1394 101.965C80.6682 101.965 81.8619 100.771 81.8619 99.3241C81.8619 97.877 80.6682 96.6834 79.1394 96.6834C77.6105 96.6834 76.4169 97.877 76.4169 99.3241C76.4169 100.771 77.6105 101.965 79.1394 101.965ZM79.1394 102.733C77.1854 102.733 75.5666 101.204 75.5666 99.3323C75.5666 97.46 77.1854 95.9312 79.1394 95.9312C81.0934 95.9312 82.7121 97.46 82.7121 99.3323C82.6304 101.204 81.0934 102.733 79.1394 102.733ZM113.183 93.1188C114.712 93.1188 115.905 91.9251 115.905 90.478C115.884 89.7702 115.588 89.0986 115.08 88.6056C114.571 88.1126 113.891 87.837 113.183 87.8373C111.654 87.8373 110.46 89.0309 110.46 90.478C110.379 91.9251 111.654 93.1188 113.183 93.1188ZM113.183 93.8873C111.229 93.8873 109.61 92.3584 109.61 90.4862C109.61 88.614 111.229 87.0851 113.183 87.0851C115.137 87.0851 116.756 88.614 116.756 90.4862C116.674 92.3584 115.137 93.8873 113.183 93.8873ZM182.463 101.973C183.992 101.973 185.186 100.779 185.186 99.3323C185.186 97.8852 183.992 96.6915 182.463 96.6915C180.934 96.6915 179.741 97.8852 179.741 99.3323C179.741 100.779 180.934 101.973 182.463 101.973ZM182.463 102.742C180.509 102.742 178.891 101.213 178.891 99.3404C178.891 97.4682 180.509 95.9394 182.463 95.9394C184.417 95.9394 186.036 97.4682 186.036 99.3404C186.036 101.213 184.417 102.742 182.463 102.742ZM96.8478 97.2965L86.2931 96.1928L94.9756 90.3227L105.53 91.4264L96.8478 97.2965ZM139.656 89.5542L130.81 86.382L122.045 89.5297L130.81 92.6855L139.656 89.5542ZM141.871 89.5542L130.81 93.5357L119.748 89.5378L130.81 85.5318L141.871 89.5542Z" fill="#004996"/>
</g>
<defs>
<clipPath id="clip0_29_106">
<rect width="261.621" height="351.664" fill="white" transform="translate(-0.000976562 -0.00012207)"/>
</clipPath>
</defs>
</svg>
