<svg width="297" height="300" viewBox="0 0 297 300" fill="none" xmlns="http://www.w3.org/2000/svg">
<path d="M162.625 284.884C161.452 288.332 157.717 296.785 148.675 296.785C138.391 296.785 134.825 285.658 134.652 285.189L134.347 284.136C134.347 284.136 143.204 284.872 148.083 284.872C152.949 284.872 161.288 284.391 162.637 284.136L162.625 284.884Z" fill="black"/>
<path d="M189.61 279.398L191.721 279.666C189.203 286.244 184.682 293.615 175.821 293.615C167.179 293.615 162.917 288.613 161.132 285.269L159.622 284.347C159.622 284.347 174.509 283.866 189.61 279.398Z" fill="black"/>
<path d="M108.053 279.398L105.943 279.666C108.448 286.244 112.989 293.615 121.879 293.615C130.472 293.615 135.104 288.35 137.013 285.269L138.037 284.347C138.037 284.347 123.175 283.866 108.053 279.398Z" fill="black"/>
<path d="M155.891 285.586C154.488 287.594 153.546 287.491 151.888 287.491C151.028 287.491 149.794 288.182 149.807 289.457C149.844 290.461 150.662 291.275 152.008 291.275C155.068 291.275 157.409 287.034 158.03 285.228C158.03 285.228 159.823 285.154 160.346 285.101C160.346 285.101 157.137 294.694 148.786 294.694C140.423 294.694 137.013 285.216 137.013 285.216C137.013 285.216 144.064 285.644 148.083 285.644C152.114 285.644 154.681 285.607 155.891 285.586Z" fill="url(#paint0_radial_29_100)"/>
<path d="M109.188 281.358C114.622 282.798 118.506 284.016 127.659 285.126C127.659 285.126 127.367 286.052 125.376 285.978C124.614 285.928 124.512 285.739 124.248 285.694C123.66 285.587 122.809 286.183 122.895 287.175C122.985 287.874 123.57 288.742 125.602 288.742C127.634 288.742 129.999 287.088 131.196 285.542C131.196 285.542 132.41 285.826 133.673 285.887C133.673 285.887 129.761 291.35 122.076 291.35C113.639 291.35 110.496 283.777 109.188 281.358Z" fill="url(#paint1_radial_29_100)"/>
<path d="M147.98 236.396C177.121 236.396 209.405 218.51 232.072 192.725C234.54 189.936 238.674 184.638 248.518 184.638C258.379 184.638 271.485 193.626 269.95 209.982C268.807 221.895 251.78 248.774 222.627 265.307C193.481 281.905 166.632 285.455 147.98 285.455C129.312 285.455 102.487 281.905 73.3253 265.307C44.1758 248.774 27.1534 221.895 26.0181 209.982C24.4837 193.626 37.5939 184.638 47.4338 184.638C57.3025 184.638 61.4532 189.936 63.9132 192.725C86.5466 218.51 118.847 236.396 147.98 236.396Z" fill="#FFE500" stroke="black" stroke-width="2.09797" stroke-miterlimit="3.863"/>
<path d="M147.733 240.361C118.411 240.361 85.0451 223.059 60.47 195.07C57.9689 192.227 54.7849 188.57 47.2075 188.57C42.7812 188.57 37.7625 190.94 34.4346 194.605C31.9293 197.328 29.1197 202.129 29.7943 209.488C30.7693 219.542 46.7015 245.561 75.0982 261.719C97.9867 274.739 122.426 281.317 147.733 281.317C173.065 281.317 197.505 274.739 220.393 261.719C248.781 245.561 264.738 219.542 265.676 209.488C266.38 202.129 263.55 197.328 261.077 194.605C257.733 190.94 252.702 188.57 248.296 188.57C240.686 188.57 237.506 192.227 235.027 195.07C210.467 223.059 177.06 240.361 147.733 240.361Z" fill="#DA020E"/>
<path d="M273.871 94.3976L273.974 87.6018C276.067 89.202 280.004 89.2267 282.308 86.7709C283.357 85.652 283.953 83.9201 283.867 82.1389C283.768 80.1273 282.855 78.0375 281.353 76.5649C272.846 68.2511 265.29 59.9497 265.29 59.9497C264.508 58.7156 263.286 57.823 262.579 57.5186C261.538 57.0208 257.836 55.3301 255.014 59.6166C252.467 63.4999 252.846 68.9752 253.335 70.9744L261.312 81.8468C264.043 85.3105 271.74 92.6781 273.871 94.3976Z" fill="black"/>
<path d="M103.38 23.9259C113.421 20.5527 122.603 17.7637 134.977 16.6694L136.853 15.6163C129.946 10.1657 123.084 6.44696 116.251 6.44696C111.961 6.44696 103.232 9.36356 101.286 24.7651L103.38 23.9259Z" fill="black"/>
<path d="M192.601 23.9259C182.555 20.5527 173.382 17.7637 161.02 16.6694L159.12 15.6163C166.056 10.1657 172.901 6.44696 179.742 6.44696C184.036 6.44696 192.729 9.36356 194.715 24.7651L192.601 23.9259Z" fill="black"/>
<path d="M136.635 16.1593C141.686 6.44696 146.306 2.93387 148.889 2.93387C152.082 2.93387 155.841 8.01015 158.795 14.5797L159.416 16.0688L156.821 15.8672C155.117 15.5464 150.267 15.4847 148.416 15.4847C146.516 15.4847 142.419 15.4847 139.95 15.7151L136.635 16.1593Z" fill="black"/>
<path d="M96.8019 235.036L89.4878 248.258C87.2787 252.231 85.0039 254.753 81.2728 252.614C77.5993 250.536 78.4508 247.525 80.7051 243.42L88.0398 230.182L82.1243 226.899L74.3742 240.89C70.1083 248.591 75.4766 253.367 79.6808 255.683C84.1688 258.167 90.7013 260.014 94.9302 252.371L102.734 238.319L96.8019 235.036ZM190.857 262.275L188.393 254.69L195.732 252.32L194.715 249.165L187.368 251.547L185.279 245.064L192.79 242.6L191.778 239.477L178.026 243.949L185.669 267.446L200.828 262.53L199.829 259.396L190.857 262.275ZM206.567 231.867L198.196 236.692L210.59 258.186L218.929 253.365C227.547 248.396 228.365 240.868 224.971 234.829C220.887 227.663 214.144 227.498 206.567 231.867ZM219.216 238.408C222.355 243.908 221.718 247.919 216.884 250.687L214.58 252.028L205.481 236.306L207.957 234.87C213.762 231.534 217.057 234.504 219.216 238.408ZM152.25 248.479L152.698 251.7L159.618 250.721L162.608 271.964L169.042 271.072L166.06 249.841L172.876 248.895L172.407 245.628L152.25 248.479ZM146.392 248.68L139.913 248.327L138.617 273.009L145.1 273.354L146.392 248.68ZM126.721 245.663L122.208 262.529L113.763 242.187L108.509 240.776L102.109 264.656L107.831 266.174L112.38 249.168L120.953 269.683L126.091 271.069L132.467 247.181L126.721 245.663Z" fill="#FFE500"/>
<path d="M92.6267 89.8269V205.594L147.98 241.161L203.33 205.594L203.412 90.0038C201.639 88.4406 197.957 85.0139 195.074 83.2204H100.632C98.2419 84.8987 93.4536 88.9384 92.6267 89.8269Z" fill="#FFE500"/>
<mask id="mask0_29_100" style="mask-type:luminance" maskUnits="userSpaceOnUse" x="92" y="83" width="112" height="159">
<path d="M92.6267 89.8269V205.594L147.98 241.161L203.33 205.594L203.412 90.0038C201.639 88.4406 197.957 85.0139 195.074 83.2204H100.632C98.2419 84.8987 93.4536 88.9384 92.6267 89.8269Z" fill="white"/>
</mask>
<g mask="url(#mask0_29_100)">
<g filter="url(#filter0_f_29_100)">
<path d="M92.6267 42.8043L92.6267 89.8269V205.594L147.98 241.161L203.33 205.594L203.412 42.9812" stroke="#B54005" stroke-width="10" stroke-miterlimit="3.863"/>
</g>
</g>
<path d="M170.103 172.887V168.584C170.103 168.584 168.96 166.815 166.126 166.815C163.299 166.815 161.609 167.667 161.609 168.379C161.609 169.543 164.139 172.887 170.103 172.887ZM147.783 134.799L152.061 127.328L155.414 134.799H160.967C157.627 137.933 156.261 142.676 156.261 145.84V149.287C156.261 150.752 155.525 153.175 155.525 153.175C155.525 153.175 160.346 156.848 161.086 157.486C161.395 157.728 161.732 157.876 161.51 158.514C161.127 159.588 157.853 161.065 157.52 161.344C156.779 162.002 156.586 162.397 156.779 163.047C157.014 163.673 157.627 163.788 158.881 163.344C160.148 162.936 162.773 161.558 164.974 160.616C167.166 159.662 170.103 159.905 170.103 159.905V155.688H161.81V142.29L160.346 139.929L164.003 133.412L167.68 139.97L166.232 142.29V149.287H170.457V142.29L169.001 139.97L172.67 133.462L176.323 139.97L174.879 142.29V149.287H179.133V142.29L177.627 139.97L181.309 133.462L184.978 139.97L183.514 142.29L183.584 155.667H175.225V161.854C177.121 163.636 178.911 167.667 178.911 170.041C178.911 172.472 177.327 173.5 177.327 173.5C177.858 175.409 177.755 176.203 177.529 177.931C177.327 179.687 175.134 182.427 175.134 182.427V214.402C175.134 216.574 170.103 216.361 170.103 214.505V183.147C167.257 180.033 159.507 177.585 159.507 177.585C156.664 180.428 154.916 185.364 154.916 185.364C156.15 186.228 158.071 185.364 158.795 184.525C159.507 183.686 160.967 183.468 161.81 183.998C162.637 184.525 162.843 184.726 162.559 185.961C162.234 187.26 161.716 189.338 161.716 190.79C161.716 192.279 163.39 191.946 164.64 192.057C167.166 192.279 167.582 195.101 167.372 196.677C167.166 198.26 166.426 201.621 166.426 203.711C166.426 205.78 166.537 207.87 166.743 209.055C166.961 210.198 167.372 211.461 167.257 212.938C167.129 214.925 165.907 215.242 164.64 213.966C163.39 212.712 145.878 194.044 145.878 194.044C144.714 197.841 149.56 204.316 151.123 206.315C152.698 208.314 152.596 209.783 151.218 211.153C149.868 212.506 147.24 213.23 146.725 214.505C146.191 215.739 147.98 219.54 151.662 224.255C155.331 228.961 147.449 232.12 142.747 233.062C138.013 233.992 138.013 230.742 138.342 228.961C138.654 227.196 138.654 226.122 138.539 224.571C138.436 222.992 136.988 220.803 134.977 218.183C132.99 215.55 132.99 213.156 133.817 207.055C134.652 200.971 134.454 197.088 134.454 197.088C134.454 197.088 132.356 197.174 129.312 197.088C126.285 196.973 123.771 195.216 123.557 187.869C123.347 180.543 123.175 163.047 122.677 161.213C122.191 159.399 120.229 159.065 119.402 158.823C118.543 158.609 118.502 157.37 119.333 156.926C121.521 155.861 124.146 153.175 123.175 151.504C122.192 149.83 118.337 150.176 115.758 151.439C113.17 152.689 110.443 155.437 109.739 156.186C109.061 156.926 108.472 156.926 108.546 156.128C108.633 155.273 108.069 151.27 107.736 149.884C107.366 148.485 106.115 145.84 105.692 145.141C105.276 144.437 105.692 144.166 106.399 144.437C107.078 144.717 108.633 145.363 110.093 145.749C111.566 146.194 112.969 145.47 113.639 144.096C114.339 142.676 115.704 139.686 116.404 138.349C117.091 137.028 118.201 137.325 119.114 137.526C120.02 137.74 120.859 138.3 121.694 138.633C122.525 138.978 123.22 138.912 123.516 138.489C123.8 138.086 124.145 137.933 124.647 136.889C125.137 135.844 125.746 136.341 125.824 136.757C128.325 151.796 134.841 152.488 134.841 152.488C133.862 154.993 131.567 158.987 131.024 159.995C130.435 160.937 130.217 162.278 130.073 163.319C129.962 164.356 130.435 174.29 131.131 177.931C131.838 181.575 134.064 180.156 134.788 179.041C135.458 177.931 137.642 173.307 137.642 173.307C137.642 173.307 138.181 172.048 138.181 171.003C138.181 169.95 136.371 167.667 135.956 166.955C135.524 166.231 133.998 164.845 133.998 161.344C133.998 157.856 137.141 155.437 138.272 154.52C139.391 153.602 139.391 152.331 139.239 151.566C138.749 148.868 135.882 143.191 134.504 141.015C133.093 138.847 130.369 134.729 130.369 134.729H136.03L139.675 127.16L143.64 134.762L147.783 134.799ZM146.865 157.728C148.712 154.676 149.486 151.504 149.486 151.504H144.146C144.146 151.504 145.002 154.75 146.865 157.728ZM141.304 142.339C141.518 143.902 142.682 144.499 143.566 144.042C144.446 143.557 144.294 142.29 143.64 141.278C143.015 140.286 141.715 139.18 141.316 139.344C140.909 139.513 141.164 141.418 141.304 142.339ZM151.888 139.344C151.506 139.18 150.136 140.286 149.486 141.278C148.86 142.29 148.7 143.557 149.589 144.042C150.457 144.499 151.575 143.89 151.855 142.339C152.007 141.418 152.308 139.513 151.888 139.344Z" fill="url(#paint2_linear_29_100)"/>
<path d="M96.9692 118.687V125.656H199.094V118.687H191.563V119.812H104.5V118.687H96.9692Z" fill="#DA020E"/>
<path d="M96.9749 87.3711H199.08V115.138H96.9749V87.3711Z" fill="#DA020E"/>
<path d="M114.52 107.077L122.34 108.998L126.56 97.2369V94.2586L114.52 107.077ZM178.968 114.01V110.387H171.588V107.343H177.619V93.9163H172.062L170.161 90.2222L168.306 93.9163H162.732V107.343H168.787V110.387H154.27V107.343H160.309V93.9163H154.743L152.863 90.2222L150.962 93.9163H145.413V107.343H151.481V110.387H136.663V107.343H142.715V93.9163H137.141L135.277 90.2222L133.364 93.9163H127.811V107.343H133.883V110.387L122.159 110.424L110.496 107.701L112.833 114.01L178.968 114.01Z" fill="#FFE500"/>
<path d="M103.96 22.8317C113.816 19.5325 121.266 16.9615 133.405 15.8837C127.811 12.0004 122.846 8.71356 117.136 8.71356C114.133 8.71356 111.566 9.86129 110.974 11.9593C110.422 13.868 111.928 14.699 112.463 14.5714C113.022 14.4275 113.421 14.2629 113.285 13.7446C113.141 13.1975 113.565 11.807 115.474 11.807C117.416 11.807 118.148 13.6047 118.148 14.8388C118.148 16.0729 116.19 18.1339 112.59 18.1339C109.061 18.1339 107.251 15.7809 107.386 13.6047C105.683 16.0976 104.692 18.6193 103.96 22.8317Z" fill="url(#paint3_radial_29_100)"/>
<path d="M35.2779 81.8452L43.2831 70.9727C43.7438 68.9735 44.11 63.5023 41.5513 59.619C38.754 55.3284 35.0681 57.0233 33.9862 57.521C33.3034 57.8254 32.061 58.714 31.2959 59.9522C31.2959 59.9522 23.5992 68.4264 15.1292 76.7648C13.9321 77.9536 12.6157 80.1257 12.5046 82.1372C12.4018 83.9226 13.1217 85.7161 14.1583 86.8351C16.4743 89.3033 20.5222 89.2045 22.5914 87.6002L22.7353 94.396C24.8662 92.6806 32.5506 85.3089 35.2779 81.8452Z" fill="black"/>
<path d="M147.98 66.0228C193.56 66.0228 219.492 108.805 225.153 116.316C235.206 129.735 247.514 140.628 261.777 137.029C282.727 131.669 281.637 100.635 281.637 100.635C276.582 96.9946 267.968 92.412 252.262 70.1488C236.881 48.3258 202.075 15.9964 147.98 15.9964C93.873 15.9964 59.0755 48.3258 43.7315 70.1488C28.009 92.412 19.3662 96.9946 14.3599 100.635C14.3599 100.635 13.2286 131.669 34.196 137.029C48.4498 140.628 60.7497 129.735 70.82 116.316C76.4598 108.805 102.409 66.0228 147.98 66.0228Z" fill="#FFE500" stroke="black" stroke-width="2.09797" stroke-miterlimit="3.863"/>
<path d="M147.98 61.9609C191.922 61.9609 218.057 99.2349 227.508 112.685C240.015 129.38 250.604 135.682 260.777 133.095C275.479 129.351 277.306 109.116 277.503 102.991V102.748L277.339 102.62C272.155 99.0292 263.484 93.0767 248.954 72.4796C240.287 60.1797 207.382 20.0179 147.98 20.0179C88.5993 20.0179 55.6653 60.1797 47.0019 72.4796C32.5917 92.9451 23.5293 99.1855 18.6752 102.518L18.4695 102.686L18.4942 102.9C18.6917 109.038 20.5222 129.38 35.1875 133.095C45.3729 135.682 55.9821 129.38 68.4568 112.685C77.8997 99.2349 104.059 61.9609 147.98 61.9609Z" fill="#DA020E"/>
<path d="M124.108 30.8233C116.046 32.5305 110.735 38.4748 112.475 46.5334C113.487 50.8857 117.37 58.895 129.654 56.2828C133.064 55.6329 134.907 54.2753 136.692 52.5682L134.454 49.9971C133.611 50.935 132.352 52.3008 129.526 52.889C123.582 54.1437 120.048 49.3348 119.168 45.1841C117.86 39.0342 121.443 34.7971 125.491 33.9209C128.383 33.2833 130.135 34.069 131.246 34.5009H131.283L132.036 31.3499C130.086 30.5683 127.745 30.05 124.108 30.8233ZM191.54 66.2766C196.151 69.0533 201.182 68.5802 203.535 64.6846C205.247 61.9613 205.263 59.6988 203.206 55.6469C202.676 54.4991 201.98 53.6764 201.515 52.6315C200.606 50.9367 199.767 49.5504 200.549 48.2381C201.413 46.8148 203.412 46.6996 205.222 47.8062C207.118 48.9539 207.904 50.8503 208.303 52.1461L211.277 50.8626C210.364 48.4191 209.011 46.2265 205.917 44.396C200.631 41.212 196.332 42.0512 194.543 45.0336C192.729 48.0324 193.243 50.5294 194.609 53.0881C194.609 53.0881 195.456 54.5403 195.946 55.5317C197.143 57.5309 198.537 60.0526 197.558 61.6281C196.373 63.615 194.333 64.047 192.346 62.8129C189.8 61.2085 189.203 59.3409 188.673 57.5186L185.402 58.9172C186.122 61.4265 187.813 64.0264 191.54 66.2766ZM156.335 29.5263L156.15 39.5965L146.466 39.4567L146.61 29.3494L140.119 29.2301L139.687 53.9409L146.191 54.0808L146.396 42.7517L156.096 42.9286L155.911 54.2371L162.407 54.3358L162.83 29.625L156.335 29.5263ZM249.333 107.993C249.378 108.055 253.142 109.914 257.326 106.159C260.822 103.016 259.65 98.7087 255.997 94.665L249.263 87.1823L230.904 103.727L235.243 108.54L242.553 101.983L244.664 104.365L240.036 114.806L245.577 119.232L249.333 107.993ZM252.611 95.821C254.331 97.7297 254.36 99.9963 252.36 101.757C250.415 103.551 247.93 103.139 246.042 101.066L244.943 99.8359L251.159 94.2207L252.611 95.821ZM223.96 89.5081L230.11 84.403L235.042 90.2733L237.592 88.1465L232.631 82.2516L237.835 77.8705L242.915 83.9218L245.437 81.8197L236.157 70.758L217.238 86.645L227.456 98.842L230.007 96.7235L223.96 89.5081ZM216.868 52.3761L214.663 54.7949L219.846 59.4804L205.481 75.4167L210.327 79.7731L224.671 63.8326L229.789 68.4399L231.985 66.0211L216.868 52.3761ZM174.567 53.9426L177.183 46.4063L184.46 48.9156L185.542 45.781L178.253 43.2758L180.47 36.8215L187.969 39.3925L189.022 36.2744L175.361 31.5724L167.331 54.9751L182.387 60.1295L183.456 57.0114L174.567 53.9426ZM96.3289 41.8356L105.609 56.6284L84.9464 48.9153L80.3473 51.803L93.4493 72.7951L98.4392 69.6523L89.0971 54.7073L109.974 62.4574L114.483 59.6313L101.356 38.6516L96.3289 41.8356ZM67.4262 64.1889L63.2015 68.7221L75.0448 92.2729L77.9367 89.1794L74.7198 82.9143L80.4378 76.7644L86.9209 79.5123L91.6845 74.4113L67.4262 64.1889ZM77.4142 75.4027L73.1237 80.01L68.7138 71.5359L77.4142 75.4027ZM53.4686 79.1334L48.8695 84.6087L57.4629 102.38L39.0337 96.345L35.0681 101.043L54.0034 116.942L56.8788 113.528L43.497 102.265L61.4327 108.106L63.3208 105.868L54.7685 88.7306L68.2079 99.998L72.4038 95.0328L53.4686 79.1334Z" fill="#FFE500"/>
<path d="M24.5414 91.7254L24.5208 86.2748C33.8218 77.7348 38.2069 69.1537 38.2069 69.1537C38.2069 69.1537 34.7885 67.8661 33.2582 65.9203C32.5013 64.8384 32.2092 63.3616 32.3367 62.3702C32.6329 60.5109 34.0809 59.5688 34.5746 59.3549C35.6441 58.8942 37.631 57.8493 39.8442 60.8934C42.2013 64.1885 41.5801 70.4413 41.2552 71.8811C41.2552 71.8811 36.9194 79.4296 24.5414 91.7254Z" fill="url(#paint4_radial_29_100)"/>
<path d="M34.8337 70.1479C33.579 72.3364 30.4156 77.6184 22.4145 85.1176C21.0858 86.364 17.7702 87.4213 15.8902 85.3109C15.1868 84.4923 14.7219 83.3446 14.7919 82.0117C14.8824 80.4691 15.8079 78.6756 16.7376 77.8857C18.3502 76.5241 25.2241 69.5844 30.1112 64.1255C30.2469 65.121 31.1026 66.7871 31.1026 66.7871C31.7772 67.7168 32.5999 69.0537 34.8337 70.1479Z" fill="url(#paint5_linear_29_100)"/>
<path d="M147.733 240.361C118.411 240.361 85.0451 223.059 60.47 195.07C57.9689 192.227 54.7849 188.57 47.2075 188.57C42.7812 188.57 37.7625 190.94 34.4346 194.605C31.9293 197.328 29.1197 202.129 29.7943 209.488C30.7693 219.542 46.7015 245.561 75.0982 261.719C97.9867 274.739 122.426 281.317 147.733 281.317" fill="url(#paint6_linear_29_100)"/>
<path d="M147.733 240.361C177.056 240.361 210.422 223.059 234.997 195.07C237.498 192.227 240.682 188.57 248.259 188.57C252.685 188.57 257.704 190.94 261.032 194.605C263.537 197.328 266.347 202.129 265.672 209.488C264.697 219.542 248.765 245.561 220.368 261.719C197.48 274.739 173.041 281.317 147.733 281.317" fill="url(#paint7_linear_29_100)"/>
<path d="M227.508 112.685C240.015 129.38 250.604 135.682 260.777 133.095C275.479 129.351 277.306 109.116 277.503 102.991V102.748L277.339 102.62C272.155 99.0292 263.484 93.0767 248.954 72.4796" fill="url(#paint8_linear_29_100)"/>
<path d="M68.4933 112.685C55.9857 129.38 45.3971 135.682 35.224 133.095C20.5217 129.351 18.6953 109.116 18.4978 102.991V102.748L18.6623 102.62C23.8456 99.0292 32.5172 93.0767 47.0467 72.4796" fill="url(#paint9_linear_29_100)"/>
<path d="M192.041 22.8317C182.185 19.5325 174.735 16.9615 162.596 15.8837C168.19 12.0004 173.155 8.71356 178.865 8.71356C181.868 8.71356 184.435 9.86129 185.028 11.9593C185.579 13.868 184.073 14.699 183.538 14.5714C182.979 14.4275 182.58 14.2629 182.716 13.7446C182.86 13.1975 182.436 11.807 180.527 11.807C178.586 11.807 177.853 13.6047 177.853 14.8388C177.853 16.0729 179.811 18.1339 183.411 18.1339C186.94 18.1339 188.75 15.7809 188.615 13.6047C190.318 16.0976 191.309 18.6193 192.041 22.8317Z" fill="url(#paint10_radial_29_100)"/>
<path d="M148.442 9.8938C148.134 11.7779 145.966 13.5838 143.773 13.5838C141.577 13.5838 140.919 13.23 140.919 13.23C140.585 13.7483 140.293 14.1474 139.948 14.7068C141.939 14.6286 146.558 14.5011 148.41 14.5011C150.257 14.5011 155.378 14.7685 156.481 14.8467C154.699 10.6713 151.264 4.8916 148.891 4.8916C148.809 4.8916 148.706 4.88361 148.578 4.88361C148.023 4.88361 146.099 6.55151 145.069 8.01605C143.715 9.9401 148.442 9.8938 148.442 9.8938Z" fill="url(#paint11_radial_29_100)"/>
<path d="M271.46 91.7254L271.48 86.2748C262.179 77.7348 257.794 69.1537 257.794 69.1537C257.794 69.1537 261.213 67.8661 262.743 65.9203C263.5 64.8384 263.792 63.3616 263.664 62.3702C263.368 60.5109 261.92 59.5688 261.427 59.3549C260.357 58.8942 258.37 57.8493 256.157 60.8934C253.8 64.1885 254.421 70.4413 254.746 71.8811C254.746 71.8811 259.082 79.4296 271.46 91.7254Z" fill="url(#paint12_radial_29_100)"/>
<path d="M261.167 70.1479C262.422 72.3364 265.586 77.6184 273.587 85.1176C274.915 86.364 278.231 87.4213 280.111 85.3109C280.814 84.4923 281.279 83.3446 281.209 82.0117C281.119 80.4691 280.193 78.6756 279.264 77.8857C277.651 76.5241 270.777 69.5844 265.89 64.1255C265.754 65.121 264.899 66.7871 264.899 66.7871C264.224 67.7168 263.401 69.0537 261.167 70.1479Z" fill="url(#paint13_linear_29_100)"/>
<path d="M92.6267 89.8269V205.594L147.98 241.161L203.33 205.594L203.412 90.0038C201.639 88.4406 197.957 85.0139 195.074 83.2204H100.632C98.2419 84.8987 93.4536 88.9384 92.6267 89.8269Z" stroke="black" stroke-width="2.09797" stroke-miterlimit="3.863"/>
<path d="M188.563 281.358C183.129 282.798 179.245 284.016 170.092 285.126C170.092 285.126 170.384 286.052 172.375 285.978C173.136 285.928 173.239 285.739 173.503 285.694C174.091 285.587 174.942 286.183 174.856 287.175C174.765 287.874 174.181 288.742 172.149 288.742C170.117 288.742 167.752 287.088 166.555 285.542C166.555 285.542 165.341 285.826 164.078 285.887C164.078 285.887 167.99 291.35 175.675 291.35C184.112 291.35 187.255 283.777 188.563 281.358Z" fill="url(#paint14_radial_29_100)"/>
<path d="M4.24854 162.527C4.24854 148.561 15.5817 137.203 29.5641 137.203C43.5505 137.203 54.8755 148.561 54.8755 162.527C54.8755 176.518 43.5505 187.851 29.5641 187.851C15.5817 187.851 4.24854 176.518 4.24854 162.527Z" fill="#FFE500" stroke="black" stroke-width="2.09797" stroke-miterlimit="3.863"/>
<path d="M10.0437 161.585C10.0437 150.997 18.7823 142.385 29.5635 142.385C40.3479 142.385 49.0801 150.997 49.0801 161.585C49.0801 172.193 40.3479 180.785 29.5635 180.785C18.7823 180.785 10.0437 172.193 10.0437 161.585Z" fill="url(#paint15_radial_29_100)"/>
<path d="M34.9407 179.932C33.83 180.285 33.3487 179.508 32.8427 178.948C30.8723 176.682 30.3663 170.647 30.3663 169.849C30.3663 169.047 30.6625 168.166 31.2261 168.146C35.9774 168.055 39.3711 166.677 42.4852 164.09C45.5951 161.548 46.9444 158.631 47.22 158.113C47.4915 157.537 48.1374 157.64 48.2567 158.438C48.3883 159.104 48.6393 160.301 48.6393 161.597C48.6393 170.293 42.7772 177.397 34.9407 179.932ZM29.9261 180.717C29.7904 180.717 29.6382 180.734 29.5107 180.734C26.0099 180.734 22.1554 179.397 19.8723 178.097C17.507 176.809 16.6184 170.738 16.6184 167.669C16.6184 157.677 20.7156 151.728 21.382 150.56C22.032 149.375 23.4965 149.252 24.5702 149.54C25.6808 149.861 26.0758 150.054 27.3551 150.432C28.0215 150.65 29.3749 150.926 30.391 151.107C31.4071 151.35 32.5013 151.564 31.8431 153.46C31.1932 155.361 28.98 159.927 28.7579 165.34C28.544 170.24 29.1939 175.106 30.3005 178.097C31.0286 180.03 31.0286 180.754 29.9261 180.717ZM15.4625 157.907C14.5287 157.413 13.4057 155.003 13.0272 154.299C12.7721 153.793 12.7722 152.345 13.1383 151.728C14.7015 148.993 16.9187 146.459 19.7736 145.138C20.1233 144.986 20.6128 144.957 20.6128 145.796C20.6128 146.245 20.8555 146.944 20.8637 147.388C20.8637 147.837 21.053 148.754 20.4853 149.478C19.8888 150.206 17.3342 154.735 16.6801 157.273C16.5732 157.841 16.4004 158.438 15.4625 157.907ZM14.9359 173.942C12.2867 171.326 10.3986 166.587 10.3986 161.597C10.3986 159.659 10.6865 157.804 11.2007 156.043C11.2007 156.043 11.6738 155.254 12.0852 155.924C12.4019 156.418 12.838 156.916 13.1917 157.574C13.5867 158.232 15.6353 159.791 15.4625 161.062C14.7467 165.731 15.3885 171.935 15.6106 172.979C15.808 174.012 15.5242 174.452 14.9359 173.942ZM23.299 143.509C25.2612 142.859 27.3551 142.493 29.5107 142.493C32.7893 142.493 35.9732 143.09 38.6307 144.784C39.3135 145.229 39.5069 145.747 39.5069 146.516C39.5069 149.021 35.5907 149.861 32.9991 149.861C30.391 149.861 27.1823 148.828 24.9116 148.108C22.6491 147.401 22.1554 146.093 22.1554 145.496C22.1554 144.924 22.5956 143.739 23.299 143.509ZM40.9796 146.294C41.3292 146.578 42.2548 147.327 42.2548 147.327C44.0813 148.993 45.7309 150.893 46.6894 153.172C47.8864 156.043 44.1718 160.392 43.0817 161.395C38.1617 166.015 35.0806 165.929 33.3364 166.18C31.5922 166.435 30.4609 165.34 30.5062 164.028C30.6172 160.186 33.3528 153.563 34.1385 152.316C34.6404 151.514 35.5125 151.017 35.5125 151.017C37.339 150.511 39.112 149.75 40.0293 148.705C40.9261 147.643 40.9796 146.294 40.9796 146.294ZM29.6999 141.247C17.9389 141.247 8.41577 150.774 8.41577 162.527C8.41577 174.288 17.9389 183.811 29.6999 183.811C41.4527 183.811 50.9964 174.288 50.9964 162.527C50.9964 150.774 41.4527 141.247 29.6999 141.247Z" fill="#DA020E"/>
<path d="M241.615 162.478C241.615 148.512 252.949 137.195 266.931 137.195C280.922 137.195 292.247 148.512 292.247 162.478C292.247 176.468 280.922 187.805 266.931 187.805C252.949 187.805 241.615 176.468 241.615 162.478Z" fill="#FFE500" stroke="black" stroke-width="2.09797" stroke-miterlimit="3.863"/>
<path d="M281.757 173.854C281.201 174.402 280.889 173.924 281.123 172.9C281.316 171.884 281.962 165.66 281.242 160.991C281.066 159.724 283.126 158.169 283.505 157.503C283.883 156.848 284.315 156.338 284.62 155.861C285.043 155.17 285.492 155.944 285.492 155.944C286.035 157.725 286.298 159.588 286.298 161.518C286.298 166.524 284.385 171.246 281.757 173.854ZM280.041 157.206C279.383 154.676 276.812 150.127 276.232 149.403C275.648 148.703 275.833 147.774 275.841 147.325C275.841 146.881 276.096 146.169 276.096 145.709C276.096 144.907 276.582 144.923 276.927 145.075C279.799 146.396 282.003 148.893 283.583 151.653C283.933 152.282 283.941 153.722 283.682 154.212C283.312 154.919 282.197 157.33 281.242 157.84C280.288 158.362 280.148 157.753 280.041 157.206ZM276.845 178.026C274.558 179.305 270.703 180.654 267.186 180.654H266.779C265.697 180.683 265.672 179.93 266.413 178.005C267.486 175.039 268.157 170.152 267.935 165.265C267.712 159.827 265.528 155.31 264.849 153.397C264.191 151.501 265.29 151.27 266.318 151.056C267.338 150.855 268.687 150.559 269.358 150.345C270.617 149.962 271.024 149.769 272.135 149.452C273.217 149.172 274.673 149.312 275.335 150.468C275.985 151.653 280.091 157.638 280.091 167.606C280.091 170.658 279.194 176.722 276.845 178.026ZM261.776 179.852C253.919 177.306 248.07 170.206 248.07 161.518C248.07 160.238 248.321 159.053 248.424 158.362C248.576 157.564 249.176 157.433 249.477 158.021C249.752 158.556 251.118 161.468 254.211 164.019C257.346 166.586 260.707 167.988 265.487 168.087C266.067 168.116 266.339 168.967 266.339 169.786C266.339 170.596 265.849 176.619 263.887 178.869C263.364 179.445 262.862 180.235 261.776 179.852ZM250.036 153.105C250.97 150.826 252.628 148.893 254.454 147.264C254.454 147.264 255.359 146.499 255.709 146.231C255.709 146.231 255.783 147.593 256.692 148.613C257.597 149.641 259.354 150.448 261.18 150.929C261.18 150.929 262.04 151.451 262.554 152.254C263.364 153.463 266.079 160.078 266.199 163.949C266.232 165.265 265.113 166.359 263.364 166.108C261.612 165.874 258.539 165.927 253.623 161.332C252.537 160.325 248.823 155.985 250.036 153.105ZM258.066 144.713C260.76 143.01 263.903 142.414 267.186 142.414C269.358 142.414 271.423 142.784 273.402 143.434C274.13 143.66 274.558 144.832 274.558 145.421C274.558 146.001 274.076 147.325 271.797 148.037C269.527 148.736 266.33 149.781 263.726 149.781C261.106 149.781 257.202 148.93 257.202 146.437C257.202 145.684 257.391 145.137 258.066 144.713ZM266.984 141.192C255.236 141.192 245.708 150.723 245.708 162.447C245.708 174.237 255.236 183.731 266.984 183.731C278.754 183.731 288.281 174.237 288.281 162.447C288.281 150.723 278.754 141.192 266.984 141.192Z" fill="#DA020E"/>
<path d="M247.7 161.492C247.7 150.903 256.438 142.292 267.22 142.292C278.004 142.292 286.736 150.903 286.736 161.492C286.736 172.099 278.004 180.692 267.22 180.692C256.438 180.692 247.7 172.099 247.7 161.492Z" fill="url(#paint16_radial_29_100)"/>
<defs>
<filter id="filter0_f_29_100" x="81.4439" y="36.6215" width="133.151" height="216.665" filterUnits="userSpaceOnUse" color-interpolation-filters="sRGB">
<feFlood flood-opacity="0" result="BackgroundImageFix"/>
<feBlend mode="normal" in="SourceGraphic" in2="BackgroundImageFix" result="shape"/>
<feGaussianBlur stdDeviation="3.09142" result="effect1_foregroundBlur_29_100"/>
</filter>
<radialGradient id="paint0_radial_29_100" cx="0" cy="0" r="1" gradientUnits="userSpaceOnUse" gradientTransform="translate(148.68 289.772) scale(9.91952 7.37389)">
<stop stop-color="#FFE500"/>
<stop offset="0.5" stop-color="#FFE500"/>
<stop offset="1" stop-color="#E15007"/>
</radialGradient>
<radialGradient id="paint1_radial_29_100" cx="0" cy="0" r="1" gradientUnits="userSpaceOnUse" gradientTransform="translate(121.431 286.354) scale(10.489 9.43105)">
<stop stop-color="#FFE500"/>
<stop offset="0.5" stop-color="#FFE500"/>
<stop offset="1" stop-color="#E15007"/>
</radialGradient>
<linearGradient id="paint2_linear_29_100" x1="145.124" y1="126.806" x2="145.124" y2="181.873" gradientUnits="userSpaceOnUse">
<stop stop-color="#8F0904"/>
<stop offset="0.249601" stop-color="#B40509"/>
<stop offset="1" stop-color="#DA020E"/>
</linearGradient>
<radialGradient id="paint3_radial_29_100" cx="0" cy="0" r="1" gradientUnits="userSpaceOnUse" gradientTransform="translate(116.473 16.3913) scale(11.9921 11.4182)">
<stop stop-color="#FFE500"/>
<stop offset="0.5" stop-color="#FFE500"/>
<stop offset="1" stop-color="#E15007"/>
</radialGradient>
<radialGradient id="paint4_radial_29_100" cx="0" cy="0" r="1" gradientUnits="userSpaceOnUse" gradientTransform="translate(29.2998 77.2643) rotate(-60.273) scale(18.7126 16.4611)">
<stop stop-color="#FFE500"/>
<stop offset="0.5" stop-color="#FFE500"/>
<stop offset="1" stop-color="#E15007"/>
</radialGradient>
<linearGradient id="paint5_linear_29_100" x1="26.7849" y1="69.82" x2="31.3337" y2="74.82" gradientUnits="userSpaceOnUse">
<stop stop-color="#FFE500"/>
<stop offset="0.5" stop-color="#FFE500"/>
<stop offset="1" stop-color="#E15007"/>
</linearGradient>
<linearGradient id="paint6_linear_29_100" x1="37.1173" y1="193.931" x2="68.5373" y2="229.994" gradientUnits="userSpaceOnUse">
<stop stop-color="#740703"/>
<stop offset="1" stop-color="#DA020E" stop-opacity="0"/>
</linearGradient>
<linearGradient id="paint7_linear_29_100" x1="258.349" y1="193.931" x2="226.929" y2="229.994" gradientUnits="userSpaceOnUse">
<stop stop-color="#740703"/>
<stop offset="1" stop-color="#DA020E" stop-opacity="0"/>
</linearGradient>
<linearGradient id="paint8_linear_29_100" x1="270.008" y1="127.567" x2="253.003" y2="111.567" gradientUnits="userSpaceOnUse">
<stop stop-color="#740703"/>
<stop offset="1" stop-color="#DA020E" stop-opacity="0"/>
</linearGradient>
<linearGradient id="paint9_linear_29_100" x1="25.9933" y1="127.567" x2="43.9978" y2="108.567" gradientUnits="userSpaceOnUse">
<stop stop-color="#740703"/>
<stop offset="1" stop-color="#DA020E" stop-opacity="0"/>
</linearGradient>
<radialGradient id="paint10_radial_29_100" cx="0" cy="0" r="1" gradientUnits="userSpaceOnUse" gradientTransform="translate(179.528 16.3913) rotate(180) scale(11.9921 11.4182)">
<stop stop-color="#FFE500"/>
<stop offset="0.5" stop-color="#FFE500"/>
<stop offset="1" stop-color="#E15007"/>
</radialGradient>
<radialGradient id="paint11_radial_29_100" cx="0" cy="0" r="1" gradientUnits="userSpaceOnUse" gradientTransform="translate(148.001 10.8374) scale(9.0599 8.65967)">
<stop stop-color="#FFE500"/>
<stop offset="0.5" stop-color="#FFE500"/>
<stop offset="1" stop-color="#E15007"/>
</radialGradient>
<radialGradient id="paint12_radial_29_100" cx="0" cy="0" r="1" gradientUnits="userSpaceOnUse" gradientTransform="translate(266.701 77.2643) rotate(-119.727) scale(18.7126 16.4611)">
<stop stop-color="#FFE500"/>
<stop offset="0.5" stop-color="#FFE500"/>
<stop offset="1" stop-color="#E15007"/>
</radialGradient>
<linearGradient id="paint13_linear_29_100" x1="269.216" y1="69.82" x2="264.667" y2="74.82" gradientUnits="userSpaceOnUse">
<stop stop-color="#FFE500"/>
<stop offset="0.5" stop-color="#FFE500"/>
<stop offset="1" stop-color="#E15007"/>
</linearGradient>
<radialGradient id="paint14_radial_29_100" cx="0" cy="0" r="1" gradientUnits="userSpaceOnUse" gradientTransform="translate(176.32 286.354) rotate(180) scale(10.4891 9.43105)">
<stop stop-color="#FFE500"/>
<stop offset="0.5" stop-color="#FFE500"/>
<stop offset="1" stop-color="#E15007"/>
</radialGradient>
<radialGradient id="paint15_radial_29_100" cx="0" cy="0" r="1" gradientUnits="userSpaceOnUse" gradientTransform="translate(29.5619 161.585) scale(19.5182 19.1999)">
<stop stop-color="#DA030E" stop-opacity="0"/>
<stop offset="0.875" stop-color="#DA020E" stop-opacity="0"/>
<stop offset="1" stop-color="#DA020E"/>
</radialGradient>
<radialGradient id="paint16_radial_29_100" cx="0" cy="0" r="1" gradientUnits="userSpaceOnUse" gradientTransform="translate(267.218 161.492) scale(19.5182 19.1999)">
<stop stop-color="#DA030E" stop-opacity="0"/>
<stop offset="0.875" stop-color="#DA020E" stop-opacity="0"/>
<stop offset="1" stop-color="#DA020E"/>
</radialGradient>
</defs>
</svg>
