<svg width="273" height="367" viewBox="0 0 273 367" fill="none" xmlns="http://www.w3.org/2000/svg">
<g clip-path="url(#clip0_29_42)">
<path fill-rule="evenodd" clip-rule="evenodd" d="M136.478 366.358C77.8235 346.617 33.4559 308.995 12.779 257.664H76.6746C72.5819 251.849 69.1361 245.674 66.4801 239.069H6.53354C4.88211 233.04 3.51853 226.867 2.51265 220.548H60.9527C59.875 214.589 59.2294 208.416 59.1576 201.953H0.431707C0.143847 197.79 0.000244141 193.481 0.000244141 189.175C0.000244141 187.235 0.0726986 185.297 0.0726986 183.431H59.875C60.2347 179.196 60.8084 175.104 61.5265 171.083C61.8861 169 62.3169 166.917 62.7477 164.836H0.790063C2.65756 136.191 8.18498 112.357 18.1648 88.1621C51.3326 87.3723 62.2451 81.9153 75.6707 75.1679C90.8907 67.5576 104.028 59.3742 136.479 59.3742C168.931 59.3742 182.067 67.5583 197.287 75.1679C210.713 81.9153 221.625 87.3723 254.793 88.1621C264.772 112.357 270.302 136.192 272.166 164.836H210.209C210.641 166.917 211.071 169 211.431 171.083C212.148 175.104 212.723 179.196 213.081 183.431H272.885C272.885 185.297 272.958 187.236 272.958 189.175C272.958 193.481 272.812 197.79 272.525 201.953H213.8C213.729 208.416 213.08 214.589 212.004 220.548H270.443C269.437 226.867 268.075 233.04 266.423 239.069H206.477C203.821 245.674 200.373 251.849 196.283 257.664H260.178C239.502 308.995 195.134 346.617 136.478 366.358Z" fill="#008057"/>
<path fill-rule="evenodd" clip-rule="evenodd" d="M266.424 239.069C264.628 245.458 262.546 251.635 260.178 257.664H196.283C200.374 251.849 203.822 245.674 206.478 239.069H266.424Z" fill="white"/>
<path fill-rule="evenodd" clip-rule="evenodd" d="M213.8 201.953C213.73 208.416 213.081 214.589 212.005 220.548H270.443C271.447 214.517 272.095 208.271 272.525 201.953H213.8Z" fill="white"/>
<path fill-rule="evenodd" clip-rule="evenodd" d="M210.209 164.835C210.641 166.917 211.071 168.999 211.431 171.082C212.148 175.103 212.723 179.195 213.081 183.431H272.885C272.813 176.969 272.597 170.795 272.166 164.835H210.209Z" fill="white"/>
<path fill-rule="evenodd" clip-rule="evenodd" d="M59.8757 183.431C60.2354 179.195 60.8091 175.104 61.5272 171.083C61.8868 169 62.3176 166.917 62.7484 164.836H0.790118C0.359961 170.795 0.143903 176.97 0.0727539 183.431H59.8757Z" fill="white"/>
<path fill-rule="evenodd" clip-rule="evenodd" d="M60.9527 220.548C59.8751 214.589 59.2295 208.416 59.1577 201.953H0.431763C0.86192 208.271 1.50814 214.517 2.51336 220.548H60.9527Z" fill="white"/>
<path fill-rule="evenodd" clip-rule="evenodd" d="M76.6753 257.665C72.5826 251.85 69.1368 245.675 66.4808 239.07H6.53357C8.32861 245.459 10.4096 251.636 12.779 257.665H76.6753Z" fill="white"/>
<path fill-rule="evenodd" clip-rule="evenodd" d="M137.053 295.141H135.905C113.505 287.532 94.9821 275.11 82.2041 258.596C69.9997 242.733 63.1074 223.062 63.1074 200.446C63.1074 189.822 63.8248 180.487 65.4044 171.801C66.9841 163.114 69.3535 155.001 72.7269 146.817L73.2302 145.667C79.8346 145.453 86.584 145.165 92.973 143.442C97.4959 142.222 101.588 140.14 105.752 138.057C113.147 134.252 120.47 130.519 136.48 130.519C152.489 130.519 159.812 134.252 167.207 138.057C171.37 140.139 175.462 142.221 179.985 143.442C186.376 145.165 193.125 145.453 199.728 145.667L200.231 146.817C203.606 155.001 205.974 163.114 207.553 171.801C209.135 180.487 209.852 189.822 209.852 200.446C209.852 223.061 202.959 242.733 190.753 258.596C177.976 275.109 159.454 287.532 137.053 295.141Z" fill="white"/>
<path fill-rule="evenodd" clip-rule="evenodd" d="M136.478 291.192C157.801 283.869 175.461 271.95 187.593 256.156C199.297 241.008 205.904 222.197 205.904 200.446C205.904 190.035 205.258 180.917 203.676 172.446C202.242 164.477 200.089 157.083 197.071 149.544C188.961 149.257 183.358 148.466 178.98 147.246C174.171 145.954 169.862 143.801 165.41 141.575C158.448 137.985 151.555 134.467 136.479 134.467C121.403 134.467 114.51 137.985 107.546 141.575C103.095 143.801 98.7876 145.954 93.9769 147.246C89.5976 148.466 83.9984 149.257 75.8855 149.544C72.8705 157.083 70.7164 164.477 69.2804 172.446C67.702 180.918 67.0552 190.035 67.0552 200.446C67.0552 222.196 73.6603 241.008 85.362 256.156C97.4945 271.95 115.156 283.869 136.478 291.192Z" fill="#008057"/>
<path fill-rule="evenodd" clip-rule="evenodd" d="M52.9834 129.155C54.9945 130.663 55.9266 132.888 55.6407 135.904C55.3528 138.919 53.9174 142.221 51.2608 145.883C49.7536 147.965 48.3176 149.688 46.8822 150.981C45.4461 152.345 44.8711 152.847 43.4351 153.852L38.1942 150.621C40.2053 149.472 41.4971 148.683 43.4351 147.176C45.1589 145.883 46.5225 144.447 47.6707 142.867C47.9586 142.507 48.3169 141.934 48.6759 141.287C49.1074 140.57 49.3939 139.996 49.5375 139.492C49.7536 138.918 49.8254 138.344 49.8254 137.841C49.8254 137.339 49.6093 136.909 49.1074 136.549C48.6054 136.19 48.1022 136.19 47.3835 136.406C46.7379 136.622 46.0199 137.124 45.1596 137.913C44.2973 138.704 43.3646 139.637 42.4305 140.571C41.4971 141.504 40.6354 142.294 39.7027 143.084C37.5486 144.807 35.6818 145.74 34.1021 146.027C32.4507 146.242 30.8711 145.812 29.5075 144.807C27.5695 143.371 26.7784 141.218 27.0662 138.274C27.4246 135.258 28.7895 132.1 31.1589 128.797C32.3789 127.146 33.7431 125.566 35.1798 124.13C36.3998 122.91 37.548 121.905 38.6974 121.043L42.5747 124.776C39.7738 126.356 36.9031 128.94 35.1074 131.381C34.6772 131.884 34.3188 132.458 34.031 133.033C33.6726 133.607 33.3848 134.181 33.2412 134.827C33.0258 135.401 32.9546 135.904 33.0258 136.407C33.0969 136.91 33.3123 137.34 33.672 137.627C34.1739 137.985 34.8202 138.057 35.467 137.771C36.1132 137.412 37.0454 136.694 38.3391 135.401C39.1289 134.613 39.9892 133.823 40.7072 133.103C41.4971 132.314 42.3587 131.596 43.2914 130.806C45.2294 129.227 46.9527 128.293 48.5323 128.005C50.112 127.719 51.548 128.15 52.9834 129.155Z" fill="white"/>
<path fill-rule="evenodd" clip-rule="evenodd" d="M66.9834 102.161C65.7621 101.802 64.5421 101.73 63.1074 102.017C61.9579 102.233 60.7373 102.735 59.5173 103.381C58.2973 104.028 56.9331 105.033 55.4246 106.325L45.3019 114.797L61.5989 134.253L67.486 129.299L62.1733 122.982L66.266 119.536C68.0611 118.028 69.3535 116.665 70.1433 115.229C71.0036 113.864 71.5787 112.429 71.8665 110.849C72.1524 109.701 72.0819 108.552 71.7229 107.403C71.4351 106.255 70.8607 105.25 70.1433 104.388C69.2086 103.238 68.1315 102.52 66.9834 102.161ZM64.9729 111.35C65.1172 111.853 65.1172 112.428 64.9729 113.073C64.7575 113.791 64.3992 114.438 63.753 115.155C63.1785 115.802 62.3887 116.592 61.3117 117.453L59.0858 119.32L54.204 113.505L55.7131 112.212C56.7183 111.351 57.5793 110.705 58.1544 110.203C58.8006 109.699 59.518 109.341 60.3796 108.981C60.954 108.767 61.5996 108.695 62.3189 108.767C63.0362 108.838 63.6107 109.197 64.0408 109.699C64.5421 110.274 64.83 110.848 64.9729 111.35Z" fill="white"/>
<path fill-rule="evenodd" clip-rule="evenodd" d="M97.0643 88.1614C93.4749 87.085 89.311 87.587 84.6439 89.5257C79.9063 91.5354 76.6753 94.1914 74.952 97.4943C73.2288 100.868 73.157 104.387 74.7366 108.12C76.3163 111.853 78.9005 114.223 82.4899 115.299C86.0793 116.376 90.2432 115.874 94.9814 113.863C99.7203 111.853 102.951 109.197 104.674 105.894C106.397 102.592 106.469 99.074 104.889 95.3416C103.31 91.5354 100.726 89.1666 97.0643 88.1614ZM95.9148 107.761C95.1263 108.407 94.1198 109.053 93.1159 109.484C92.11 109.915 90.9618 110.202 89.9566 110.274C88.9507 110.346 87.9468 110.274 87.0134 109.915C86.0793 109.556 85.2177 108.981 84.4279 108.192C83.5663 107.402 82.8495 106.325 82.2745 104.889C81.7001 103.525 81.4129 102.305 81.4129 101.085C81.4129 99.8638 81.5565 98.7874 81.9873 97.9258C82.4892 96.9924 83.0637 96.2026 83.781 95.5563C84.5708 94.9819 85.5767 94.3351 86.5101 93.9767C87.514 93.5452 88.5917 93.2587 89.5969 93.1151C90.6022 93.0433 91.608 93.1869 92.5408 93.4734C93.4742 93.8331 94.3359 94.4075 95.1968 95.1967C96.0584 95.9865 96.704 97.136 97.3502 98.4996C97.8535 99.792 98.2125 101.013 98.2125 102.161C98.2843 103.238 98.0682 104.315 97.6381 105.391C97.2804 106.325 96.6335 107.114 95.9148 107.761Z" fill="white"/>
<path fill-rule="evenodd" clip-rule="evenodd" d="M131.239 95.6999C133.176 94.7665 134.612 93.6183 135.545 92.3259C136.479 91.1059 136.837 89.5263 136.694 87.6601C136.55 86.2959 136.192 85.2189 135.474 84.3566C134.684 83.495 133.678 82.8494 132.459 82.4192C131.239 81.9153 130.017 81.6999 128.653 81.6294C127.29 81.557 125.71 81.6294 123.916 81.7717L110.634 82.9212L112.859 108.265L120.325 107.547L119.536 98.2855L123.485 97.9271C127.146 100.727 129.946 103.599 131.526 106.613L140.284 106.111C137.985 102.161 135.689 98.4996 131.239 95.6999ZM128.295 90.8892C128.079 91.3207 127.72 91.7509 127.217 92.1817C126.643 92.6118 125.925 92.8997 125.064 93.0433C124.274 93.2587 123.198 93.4016 121.904 93.4734L119.177 93.7613L118.53 86.9401L121.761 86.6536C122.695 86.5818 123.557 86.51 124.275 86.51C124.993 86.4382 125.638 86.51 126.213 86.6536C127.002 86.869 127.576 87.1568 127.936 87.587C128.295 88.0185 128.51 88.5211 128.582 89.1666C128.653 89.8847 128.51 90.4591 128.295 90.8892Z" fill="white"/>
<path fill-rule="evenodd" clip-rule="evenodd" d="M167.277 83.2789L139.925 80.4081L139.35 85.6484L149.402 86.7254L147.247 106.684L154.642 107.474L156.724 87.4434L166.703 88.5211L167.277 83.2789Z" fill="white"/>
<path fill-rule="evenodd" clip-rule="evenodd" d="M181.134 87.6595L173.955 85.5772L166.917 109.987L174.171 111.997L181.134 87.6595Z" fill="white"/>
<path fill-rule="evenodd" clip-rule="evenodd" d="M218.969 106.468L212.651 102.735L204.179 115.802L197.574 94.6941L190.825 91.6072L180.416 114.725L186.878 117.525L193.196 103.74L199.585 124.416L205.112 128.222L218.969 106.468Z" fill="white"/>
<path fill-rule="evenodd" clip-rule="evenodd" d="M236.269 144.59L229.593 134.18L225.86 136.91L228.3 140.785L224.638 143.37C222.412 140.857 218.968 135.688 219.112 132.242C219.182 129.873 220.403 127.863 222.628 126.211C223.705 125.351 224.854 124.848 226.004 124.633C227.151 124.417 228.228 124.417 229.305 124.705C231.676 125.351 233.902 127.361 235.336 129.227C236.055 130.233 236.629 131.239 237.132 132.243C238.138 134.541 238.855 138.13 239.285 141.145L244.095 137.556C243.379 135.188 242.587 132.243 241.727 130.591C240.794 128.941 239.786 127.218 238.495 125.638C235.266 121.259 231.749 118.601 228.014 117.669C224.281 116.736 220.833 117.381 217.675 119.751C214.373 122.264 212.65 125.423 212.577 129.227C212.577 133.033 214.086 137.052 217.316 141.289C218.679 143.155 220.259 144.808 221.982 146.387C223.705 147.966 226.217 150.407 227.439 151.269L236.269 144.59Z" fill="white"/>
<path fill-rule="evenodd" clip-rule="evenodd" d="M65.6909 294.135C65.0447 294.854 64.3274 295.355 63.4657 295.715C62.5323 296.074 61.6707 296.216 60.7366 296.145C59.4448 296.074 58.2249 295.787 57.0754 295.211C55.8541 294.708 54.6341 293.777 53.2706 292.555L50.0395 289.542L45.5166 294.351L41.1367 290.26L54.9938 275.47L62.8189 282.431C63.967 283.51 64.83 284.514 65.4749 285.449C66.6244 286.956 67.4847 289.542 67.1263 291.406C66.9834 292.412 66.4808 293.274 65.6909 294.135ZM60.8815 289.899C61.3117 289.469 61.5271 288.966 61.5271 288.392C61.5271 287.889 61.3835 287.316 61.0969 286.883C60.8091 286.239 60.3789 285.735 59.9488 285.305C59.5173 284.802 58.8724 284.227 58.0813 283.51L56.7888 282.29L52.625 286.739L54.4912 288.465C55.281 289.182 55.999 289.756 56.5728 290.188C57.1472 290.618 57.7223 290.832 58.2967 290.905C58.7999 290.976 59.3019 290.976 59.7327 290.762C60.0917 290.618 60.5225 290.329 60.8815 289.899Z" fill="white"/>
<path fill-rule="evenodd" clip-rule="evenodd" d="M87.9475 309.715C86.2954 312.512 84.0696 314.164 81.1263 314.668C78.1831 315.171 74.9527 314.454 71.5062 312.444C68.0604 310.432 65.7627 307.992 64.7575 305.191C63.7523 302.463 64.0395 299.664 65.6909 296.864C67.2706 293.992 69.5682 292.341 72.5114 291.839C75.3835 291.334 78.6139 292.125 82.0598 294.063C85.5056 296.074 87.8032 298.514 88.8085 301.243C89.8848 304.041 89.5976 306.843 87.9475 309.715ZM78.1107 309.929C78.9011 309.715 79.691 309.283 80.4083 308.709C81.0545 308.135 81.7008 307.416 82.2758 306.412C82.8502 305.335 83.2092 304.33 83.3522 303.467C83.4958 302.533 83.424 301.673 83.2086 300.954C82.9925 300.236 82.6342 299.519 82.1322 298.946C81.5578 298.37 80.8398 297.796 80.1929 297.437C79.4756 297.006 78.6851 296.717 77.9677 296.576C77.1779 296.36 76.4599 296.36 75.6701 296.576C74.8802 296.718 74.1622 297.08 73.3724 297.724C72.6544 298.298 72.0088 299.089 71.3613 300.166C70.7875 301.17 70.4279 302.175 70.2856 303.036C70.142 303.971 70.2131 304.832 70.4279 305.551C70.6439 306.268 71.0023 306.985 71.5056 307.561C72.08 308.134 72.7255 308.708 73.4436 309.068C74.1616 309.498 75.0232 309.856 75.813 310.001C76.5317 310.145 77.3215 310.145 78.1107 309.929Z" fill="white"/>
<path fill-rule="evenodd" clip-rule="evenodd" d="M110.705 326.155L103.527 323.858C103.239 320.77 101.659 317.753 99.6492 314.739L96.5618 313.734L94.2647 320.842L88.4495 318.976L94.6949 299.663L104.961 302.964C106.397 303.396 107.545 303.899 108.48 304.33C109.485 304.833 110.346 305.406 111.064 306.123C111.854 306.843 112.356 307.632 112.644 308.495C112.93 309.355 112.93 310.29 112.644 311.294C112.141 312.73 111.352 313.807 110.274 314.381C109.126 315.027 107.762 315.387 106.039 315.531C108.049 318.33 109.628 321.848 110.705 326.155ZM106.254 309.929C106.398 309.425 106.398 308.995 106.326 308.565C106.183 308.135 105.823 307.703 105.321 307.345C104.961 307.059 104.459 306.842 103.957 306.628C103.383 306.412 102.737 306.196 102.019 305.909L99.4345 305.119L97.7112 310.29L100.008 311.005C100.942 311.367 101.804 311.581 102.522 311.724C103.168 311.868 103.814 311.868 104.317 311.724C104.819 311.581 105.25 311.367 105.537 311.149C105.823 310.862 106.111 310.504 106.254 309.929Z" fill="white"/>
<path fill-rule="evenodd" clip-rule="evenodd" d="M136.478 307.273L114.583 305.406L114.223 309.571L122.335 310.29L120.972 326.298L126.571 326.801L127.935 310.791L136.12 311.508L136.478 307.273Z" fill="white"/>
<path fill-rule="evenodd" clip-rule="evenodd" d="M161.677 304.832L155.432 305.478L156.508 318.186C156.652 319.693 156.365 320.77 155.648 321.487C155.002 322.206 153.638 322.636 152.059 322.779C150.406 322.925 148.97 322.709 148.181 322.133C147.391 321.487 146.961 320.483 146.817 319.046L145.741 306.482L139.566 306.912L140.642 319.907C140.858 322.422 142.008 324.215 143.945 325.364C145.955 326.586 148.756 327.016 152.417 326.657C156.006 326.368 158.735 325.437 160.458 323.927C162.252 322.42 162.971 320.482 162.755 317.969L161.677 304.832Z" fill="white"/>
<path fill-rule="evenodd" clip-rule="evenodd" d="M190.682 305.62L181.78 308.349L182.856 312.011L186.302 310.935L187.452 314.74C184.796 315.816 180.774 316.893 178.045 315.816C176.251 315.097 175.104 313.661 174.385 311.508C174.098 310.431 174.025 309.498 174.171 308.564C174.456 306.627 175.605 305.189 177.185 304.113C177.976 303.61 179.122 303.109 180.2 302.749C181.134 302.463 182.066 302.319 183 302.246C184.939 302.175 187.523 302.462 189.534 302.822L188.096 298.224C186.159 298.083 184.437 298.156 182.927 298.37C181.493 298.586 179.914 298.873 178.406 299.374C174.241 300.668 171.298 302.533 169.504 305.119C167.781 307.632 167.349 310.431 168.282 313.447C169.216 316.606 171.153 318.762 174.025 319.836C176.827 320.912 180.271 320.842 184.363 319.622C186.087 319.119 187.811 318.4 189.462 317.54C191.114 316.677 192.621 315.816 193.627 315.17L190.682 305.62Z" fill="white"/>
<path fill-rule="evenodd" clip-rule="evenodd" d="M220.692 300.597L214.947 303.972L211.358 301.243L203.389 305.909L203.89 310.29L198.293 313.518L196.138 291.333L202.529 287.673L220.692 300.597ZM208.126 298.801L201.882 294.062L202.814 301.887L208.126 298.801Z" fill="white"/>
<path fill-rule="evenodd" clip-rule="evenodd" d="M234.333 281.931L225.861 289.826L214.804 277.982L210.425 282.074L224.209 296.937L237.132 284.946L234.333 281.931Z" fill="white"/>
<path fill-rule="evenodd" clip-rule="evenodd" d="M48.6048 56.7162C51.0447 56.7162 60.8809 57.0041 68.9932 54.7782C74.8803 53.1268 80.5519 49.6091 79.1877 46.3063C77.8959 43.3631 72.2954 43.2906 65.6903 44.7984C57.3633 46.7364 48.9631 46.0909 46.0917 44.7984C42.86 43.363 40.2046 40.7775 38.9115 37.3317C37.6191 33.7423 39.1981 28.6457 42.7164 24.7677C46.2353 20.8924 51.4755 17.7331 58.3678 15.2207C64.9723 12.7795 71.6492 11.5595 78.5421 10.8415L82.9919 20.3898C79.1871 20.318 74.6649 20.4616 69.8541 21.395C64.9723 22.2553 59.7321 23.9081 56.7164 26.7077C53.9168 29.365 55.2804 33.0262 59.2295 32.5948C61.4547 32.3794 64.3267 32.0928 66.9116 31.8049C73.3724 31.2305 80.1929 30.2253 86.5108 32.0928C99.1453 35.8258 96.0592 48.0302 88.377 54.9936C85.4338 57.6496 81.9155 59.7325 78.8287 61.1673C71.0754 64.7567 62.0291 66.1209 53.7732 66.7678L48.6048 56.7162Z" fill="#008057"/>
<path fill-rule="evenodd" clip-rule="evenodd" d="M164.263 4.45111C160.744 3.01508 157.012 1.8669 153.064 1.14824C149.186 0.358417 145.021 6.10352e-05 140.785 6.10352e-05C135.402 6.10352e-05 130.233 0.645623 125.35 1.86625C117.31 3.94785 108.622 8.11169 103.956 15.3637C102.018 18.4511 101.085 21.6822 101.085 25.1985C101.085 29.2194 102.376 33.0249 104.961 36.3983C110.273 43.3631 119.463 47.3826 127.791 49.1777C131.884 50.04 136.191 50.3272 140.641 50.3272C144.876 50.3272 148.898 49.9675 152.775 49.2495C156.651 48.5321 161.533 46.6659 164.765 45.3017L164.692 33.5993C157.514 37.3324 149.688 39.5582 141.574 39.5582C132.745 39.5582 118.961 36.4714 118.961 25.0562C118.961 13.7135 132.673 10.6267 141.574 10.6267C149.113 10.6267 157.944 12.4218 164.262 16.3695L164.263 4.45111Z" fill="#008057"/>
<path fill-rule="evenodd" clip-rule="evenodd" d="M190.825 58.0086L196.426 40.4192L209.275 44.5119C213.511 45.8037 220.332 46.8089 226.148 44.7984C234.405 41.8552 236.918 32.8089 231.891 25.7736C229.809 22.8297 226.649 20.4609 223.636 18.9531C220.404 17.3735 214.087 15.5073 208.343 13.5686L190.108 7.53793L175.749 53.055L190.825 58.0086ZM219.04 32.4505C217.892 36.2553 210.57 35.3937 207.768 34.5321L199.224 31.8761L202.455 21.2514L212.147 24.3389C215.452 25.4152 220.332 28.4296 219.04 32.4505Z" fill="#008057"/>
<path fill-rule="evenodd" clip-rule="evenodd" d="M150.909 149.616C149.113 150.98 147.679 152.128 146.17 152.559C146.027 152.559 146.027 152.775 146.1 152.775C147.247 153.277 148.756 153.205 150.335 153.205C151.842 153.133 153.493 153.133 154.929 153.493C155.935 153.707 156.652 154.211 157.227 154.785C157.73 155.431 158.087 156.149 158.16 156.795C156.365 155.861 154.641 155.431 153.135 155.503C152.489 155.503 151.842 155.647 151.339 155.933C150.765 156.22 150.335 156.652 150.047 157.154C149.689 157.729 149.544 158.446 149.544 159.308C149.616 159.379 149.689 159.452 149.76 159.379C150.479 158.949 151.196 158.662 151.915 158.517C152.561 158.302 153.206 158.231 153.852 158.302C155.359 158.374 156.652 158.948 157.658 159.81C158.662 160.671 159.31 161.82 159.31 162.969C159.38 163.975 159.453 165.051 159.668 165.984C159.811 166.774 160.098 167.491 160.457 168.21C159.453 167.78 158.807 166.846 158.16 165.912C157.227 164.692 156.294 163.4 154.571 163.113C153.852 162.969 153.064 163.113 152.345 163.472C151.626 163.83 151.053 164.477 150.62 165.266C150.549 165.41 150.62 165.482 150.765 165.482C152.129 165.41 153.349 165.696 154.355 166.271C155.504 166.846 156.436 167.78 157.155 168.855C158.662 171.224 158.807 173.306 158.878 175.102C158.95 176.536 159.021 177.758 159.74 178.906C158.015 178.26 157.011 176.393 156.151 174.67C155.647 173.665 155.217 172.804 154.641 172.158C154.355 171.87 154.068 171.654 153.708 171.44C153.134 171.152 152.561 171.009 151.914 171.081C151.266 171.224 150.692 171.512 150.189 172.015C149.831 172.301 149.474 172.732 149.256 173.234C149.185 173.306 149.256 173.45 149.328 173.45C150.764 173.45 152.128 174.025 153.204 175.102C154.21 176.034 154.927 177.47 155.216 179.194C155.358 180.558 155.358 182.137 155.286 183.716C155.216 186.874 155.143 190.104 157.01 192.114C153.636 191.542 152.917 188.526 152.198 185.583C151.984 184.719 151.768 183.931 151.481 183.141C151.121 181.994 150.477 181.06 149.758 180.342C148.897 179.552 147.962 179.12 147.102 178.978C147.029 178.978 146.958 179.121 147.029 179.265C148.395 180.701 148.897 182.425 148.897 184.29C148.897 186.157 148.465 188.24 147.893 190.466C147.459 192.114 147.318 193.767 147.605 195.203C147.821 196.566 148.324 197.716 149.255 198.649C149.327 198.721 149.473 198.649 149.473 198.576C149.615 197.358 149.831 196.35 150.261 195.562C150.691 194.843 151.194 194.197 151.841 193.625C151.841 194.055 151.841 194.485 151.841 194.989C151.913 198.576 151.984 202.384 152.344 205.111C152.56 206.834 153.707 209.634 155.073 212.29C156.723 215.521 158.66 218.606 159.739 219.756C161.532 221.624 163.472 222.699 165.409 223.131C167.059 223.491 168.712 223.345 170.075 222.771C171.511 222.268 172.66 221.264 173.45 220.044C174.24 218.895 174.67 217.459 174.6 215.879C174.454 213.655 174.096 211.932 172.948 209.274C171.798 206.69 169.934 203.171 166.989 197.429C165.482 194.559 164.262 191.543 163.759 188.527C163.254 185.439 163.472 182.352 164.835 179.266C165.771 176.968 167.275 175.173 169.215 173.953C171.01 172.876 173.164 172.301 175.604 172.589C175.604 172.589 175.676 172.519 175.747 172.519C176.107 171.655 176.681 171.081 177.399 170.65C178.189 170.22 179.121 170.005 180.055 169.932C181.346 169.932 182.641 170.149 183.79 170.58C184.292 170.724 184.794 171.01 185.224 171.226C186.085 171.656 186.948 172.088 188.024 172.088C189.244 172.16 190.466 171.513 191.613 172.088C190.824 172.16 190.177 172.59 189.533 172.948C188.741 173.38 187.953 173.81 186.731 173.882C185.367 173.954 184.291 173.596 182.998 173.092C182.925 173.021 182.854 173.092 182.782 173.164C182.782 173.235 182.782 173.308 182.782 173.308C182.782 175.246 186.301 175.533 187.737 175.246C188.527 175.03 189.46 174.886 189.963 175.03C189.243 175.03 188.597 175.461 187.88 175.82C187.018 176.25 185.224 176.682 183.717 176.682C182.855 176.682 181.994 176.466 181.564 175.962C181.491 175.891 181.275 175.891 181.275 176.035C181.275 176.179 181.275 176.323 181.346 176.465C181.418 177.256 182.138 177.758 182.855 177.973C183.645 178.189 184.505 178.045 185.152 177.973C186.158 177.829 186.948 177.758 188.095 177.973C186.948 178.261 186.014 178.691 185.008 179.121C182.783 180.126 180.559 180.845 178.116 180.342C176.536 179.984 175.246 179.05 174.815 177.543C174.527 176.609 174.527 175.532 174.815 174.528C174.815 174.455 174.815 174.384 174.67 174.384C173.522 174.167 172.373 174.311 171.367 174.742C170.217 175.245 169.213 176.034 168.353 176.968C166.915 178.619 166.127 180.558 165.84 182.639C165.551 184.937 165.84 187.45 166.557 189.82C167.131 191.829 168.064 193.839 169.213 195.849C170.29 197.93 171.583 199.87 172.803 201.88C173.593 203.1 174.31 204.32 175.029 205.54C175.746 206.69 176.394 207.839 177.038 208.986C177.828 210.278 178.188 211.499 178.404 212.719C178.618 213.869 178.618 215.017 178.618 216.094C178.546 218.248 177.974 220.258 176.895 221.981C175.818 223.633 174.309 225.069 172.227 226.29C172.085 226.362 172.085 226.504 172.227 226.504C172.873 226.792 173.593 226.934 174.309 226.72C174.955 226.576 175.602 226.216 176.249 225.716C175.531 227.295 174.239 228.372 172.659 229.019C170.647 229.809 168.207 229.879 165.696 229.376C165.624 229.376 165.551 229.449 165.551 229.591C165.769 230.667 166.197 231.673 166.845 232.463C167.273 232.966 167.849 233.396 168.493 233.685C169.14 233.899 169.931 233.971 170.719 233.826C171.723 233.612 172.945 233.038 174.167 232.034C174.741 235.982 171.581 237.705 168.206 239.5C167.778 239.715 167.418 239.931 167.057 240.074C165.909 240.792 164.762 241.868 164.115 243.09C163.54 244.239 163.251 245.53 163.612 246.752C163.612 246.895 163.756 246.895 163.826 246.822C164.546 246.105 165.549 245.673 166.628 245.172C168.351 244.38 170.288 243.447 171.581 241.294C172.157 242.23 172.371 243.16 172.225 244.023C172.083 245.1 171.508 246.106 170.645 246.823C168.35 248.905 166.482 249.408 165.549 249.766C165.264 249.839 165.046 249.839 164.905 249.91C164.329 250.196 163.826 250.556 163.25 250.988C162.608 251.489 162.032 252.064 161.529 252.566L161.459 252.638C161.17 253.214 160.955 253.788 160.883 254.363C160.812 254.933 160.955 255.509 161.243 256.012C161.313 256.082 161.386 256.082 161.459 256.082C161.889 255.797 162.608 255.724 163.323 255.654C163.899 255.581 164.472 255.508 164.975 255.367C164.617 256.444 163.969 257.232 163.25 257.88C162.391 258.527 161.386 259.1 160.309 259.604C159.735 259.889 159.016 260.608 158.513 261.468C157.939 262.401 157.509 263.478 157.222 264.627C156.862 265.92 157.149 267.14 157.436 268.289C157.652 269.079 157.868 269.869 157.939 270.658C157.939 271.664 157.295 272.452 156.359 273.026C155.212 273.745 153.56 274.175 152.124 274.248C152.841 272.812 152.556 271.806 152.34 270.8C152.194 270.299 152.053 269.796 152.053 269.222C152.053 269.152 151.981 269.079 151.91 269.079C151.262 269.079 150.544 269.939 149.827 270.8C149.47 271.234 149.108 271.592 148.751 271.95C147.602 273.026 146.022 273.099 144.586 273.172C144.012 273.172 143.438 273.172 142.936 273.315C142.936 273.245 142.936 273.172 143.006 273.027C143.366 271.519 143.653 270.443 144.156 269.655C144.37 269.223 144.8 268.863 145.234 268.506C145.664 268.146 146.166 267.786 146.452 267.284C146.525 267.284 146.525 267.213 146.452 267.14C145.878 265.777 144.012 266.136 142.075 266.496C141.213 266.638 140.35 266.782 139.632 266.782C139.56 266.063 139.56 265.419 139.705 264.916C139.776 264.27 139.991 263.84 140.279 263.624C141.499 262.26 143.293 262.547 145.161 262.832C146.452 262.978 147.817 263.194 149.037 262.832C150.401 261.758 151.55 260.608 152.556 259.315C153.487 257.952 154.35 256.586 154.996 255.006C155.642 253.142 155.786 251.489 155.499 250.269C155.283 249.409 154.923 248.76 154.421 248.33V248.403C153.847 247.899 153.13 247.683 152.34 247.756C151.19 247.829 149.754 248.33 148.175 249.336C148.678 245.243 147.314 243.737 145.303 241.438C145.234 241.367 145.089 241.222 145.016 241.08C144.442 240.434 143.509 239.428 142.79 238.424C142.002 237.418 141.356 236.414 141.356 235.768C141.356 235.623 141.356 235.406 141.356 235.265C141.284 232.32 141.284 230.383 142.36 228.372C142.79 227.51 143.294 226.72 143.796 225.931C144.299 225.07 144.8 224.28 145.162 223.561C145.735 222.485 145.95 221.551 145.234 221.119C145.735 220.115 145.448 219.325 144.442 218.679C143.438 217.96 141.713 217.459 139.488 216.956C137.192 216.526 135.612 216.166 134.104 215.738C132.669 215.306 131.448 214.732 130.156 214.013C128.865 213.223 127.429 212.075 126.279 210.855C125.203 209.85 124.413 208.773 124.126 207.912C125.418 207.408 126.494 206.763 127.285 205.901C127.356 205.828 127.285 205.686 127.213 205.686C124.198 205.828 121.397 204.107 118.957 202.669C117.162 201.665 115.583 200.731 114.362 200.731C113.429 200.731 112.496 200.875 111.778 201.162C111.06 201.45 110.486 201.881 110.055 202.527C110.055 202.598 110.127 202.741 110.199 202.741C112.424 202.311 113.645 203.315 114.936 204.465C115.942 205.325 117.018 206.26 118.812 206.763C116.874 207.767 115.367 208.054 114.003 207.912C112.567 207.696 111.203 206.904 109.48 205.971C108.188 205.256 106.823 204.537 105.459 204.321C104.167 204.034 102.875 204.248 101.726 205.256C101.582 205.325 101.654 205.47 101.726 205.47C102.803 205.828 103.737 206.333 104.455 206.904C105.101 207.48 105.603 208.126 105.891 208.916C104.527 208.484 103.162 208.054 101.87 207.767C100.506 207.407 99.2125 207.193 97.9925 207.193C96.5565 207.193 95.1929 207.696 93.7569 208.197C93.1825 208.415 92.5369 208.557 91.9619 208.773C88.8026 209.56 87.8692 210.28 86.8646 210.926C86.6492 211.14 86.3626 211.356 86.003 211.572C85.7876 211.643 85.4292 211.786 85.0696 211.859C84.4958 212.075 83.7771 212.216 83.1316 212.792C83.0598 212.578 83.0598 212.289 82.9873 212.075C82.9155 210.925 83.0598 209.778 83.6335 208.916C84.1368 208.053 85.1414 207.336 86.5774 207.049C86.8639 206.977 87.2229 206.977 87.5095 206.904C87.6538 206.904 87.7256 206.762 87.582 206.69C85.9305 204.75 84.9977 205.11 83.2745 205.756C82.9148 205.9 82.4129 206.116 81.9103 206.26C81.6949 206.332 81.4801 206.546 81.3365 206.833C81.1923 207.12 81.0487 207.407 80.9769 207.696C79.8274 205.11 80.8333 203.818 82.4129 203.171C84.1361 202.526 86.5056 202.526 87.7256 202.526C87.7974 202.526 87.8692 202.454 87.8692 202.31C87.439 201.521 87.0089 201.019 86.5774 200.731C86.0741 200.444 85.4997 200.371 84.7099 200.301C84.5663 200.301 84.4233 200.228 84.2797 200.228C83.9214 200.085 83.4181 200.012 82.9155 200.158C82.9873 199.368 83.2034 198.722 83.5617 198.292C83.9214 197.861 84.4233 197.645 85.1414 197.645C86.8646 197.716 88.3006 198.506 89.8085 199.369C91.4586 200.302 93.1818 201.235 95.4795 201.235C97.2752 201.162 98.8535 200.803 100.361 200.158C101.869 199.51 103.305 198.722 104.741 197.716C105.387 197.286 105.89 196.927 106.464 196.567C108.546 195.06 110.557 193.695 112.423 193.123C112.925 193.626 113.715 193.84 114.72 193.911C115.726 193.911 117.017 193.695 118.525 193.265C118.884 193.123 119.243 193.051 119.603 192.979C121.326 192.549 122.976 192.115 123.839 191.4C124.842 190.608 125.632 189.82 126.207 188.887C126.71 188.025 127.068 187.091 127.284 185.942C127.284 185.869 127.068 185.798 126.997 185.869C125.059 188.025 123.407 188.384 121.899 188.671C121.109 188.814 120.32 189.028 119.53 189.459C117.95 190.537 116.515 191.327 115.367 191.757C114.289 192.187 113.427 192.331 112.782 192.187C113.069 190.607 113.644 189.1 114.504 187.951C115.367 186.66 116.515 185.728 117.807 185.154C119.315 184.434 120.967 183.861 122.474 183.357C125.848 182.209 128.72 181.276 129.151 179.266C129.151 179.194 129.079 179.05 129.008 179.122C126.207 179.984 124.556 179.984 122.833 179.984C122.043 179.984 121.181 179.984 120.248 180.126C120.393 179.338 120.968 178.691 121.972 178.045C122.977 177.399 124.485 176.897 126.064 176.323C126.638 176.107 127.286 175.962 127.931 175.748C129.87 175.174 132.166 174.528 133.316 173.307C133.818 172.876 134.033 172.301 134.104 171.799C134.176 171.513 134.176 171.225 134.104 170.938C134.032 170.722 133.889 170.436 133.673 170.292C133.459 170.075 133.243 169.932 132.884 169.932C132.31 169.861 131.376 170.075 130.371 170.579C129.438 171.081 128.361 171.799 127.284 172.661C125.777 171.799 124.628 170.866 123.91 169.861C123.336 168.928 123.12 167.994 123.479 167.133C127.57 167.708 130.156 167.78 131.734 167.349C133.458 166.847 134.104 165.913 134.32 164.405C134.463 163.473 134.104 162.61 133.386 161.749C132.883 161.247 132.31 160.817 131.591 160.457C130.945 160.098 130.083 159.811 129.222 159.667C126.78 159.237 123.765 159.883 121.109 162.251C120.391 161.965 119.961 161.534 119.673 161.103C119.457 160.744 119.386 160.314 119.386 159.883C119.458 159.453 119.602 159.021 119.889 158.735C120.248 158.233 120.751 157.873 121.397 157.729C121.541 157.658 121.541 157.442 121.397 157.442C121.11 157.37 120.895 157.37 120.679 157.37C119.818 157.227 119.243 157.154 118.884 156.938C118.669 156.795 118.669 156.581 118.884 156.22L119.53 155C122.545 154.212 124.555 153.852 126.135 153.924C127.643 154.068 128.648 154.642 129.581 155.791C129.653 155.862 129.724 155.862 129.797 155.862C130.587 155.216 131.662 154.857 132.668 154.571C134.032 154.068 135.252 153.707 135.755 152.775C135.827 152.703 135.755 152.559 135.683 152.559C134.032 152.775 132.596 152.847 131.304 152.919C130.012 152.919 129.007 152.847 128.146 152.703C127.356 152.559 126.782 152.128 126.494 151.697C126.352 151.412 126.278 151.195 126.278 150.908C126.278 150.692 126.423 150.406 126.565 150.19C126.853 149.76 127.427 149.4 128.217 149.329C128.934 149.185 129.797 149.257 130.801 149.329C131.807 149.471 132.956 149.687 134.175 149.902C134.247 149.902 134.319 149.902 134.319 149.902C137.979 147.246 140.348 147.893 143.148 148.682C145.232 149.257 147.673 149.902 151.046 149.471C151.053 149.472 150.982 149.545 150.909 149.616Z" fill="#F3C242"/>
<path fill-rule="evenodd" clip-rule="evenodd" d="M83.7824 164.333C84.2856 164.405 84.5722 164.621 84.8601 164.835C85.0037 164.979 85.1466 165.051 85.2184 165.124C85.8646 165.338 86.5108 165.696 87.0141 166.2C87.4443 166.63 87.8026 167.205 88.0905 167.85C88.0905 167.994 88.018 168.066 87.9469 168.066C87.2275 168.138 86.6544 167.78 86.0076 167.348C85.0741 166.774 84.0683 166.127 82.2745 166.774C84.4279 171.369 86.0076 171.655 89.8836 172.301C90.7458 172.519 91.8215 172.661 93.0428 172.947C94.4789 173.234 95.6283 173.738 96.4887 174.455C97.0631 174.885 97.4939 175.387 97.7099 175.962C97.9253 176.537 97.9965 177.184 97.8535 177.83C97.7099 178.547 97.3503 179.194 96.7772 179.984C97.9253 179.984 99.2902 179.624 100.51 179.266C102.233 178.836 103.741 178.476 104.674 178.906C104.746 178.978 104.746 179.122 104.674 179.194C103.741 179.481 103.238 179.912 102.521 180.558C101.587 181.42 100.295 182.568 97.2798 184.076C98.3555 184.579 99.3614 184.72 100.438 184.651C101.586 184.579 102.735 184.148 103.955 183.502C104.099 183.43 104.315 183.286 104.602 183.142C105.966 182.28 108.407 180.701 110.13 181.994C110.202 182.065 110.13 182.28 109.986 182.28C108.12 182.209 107.186 183.357 106.11 184.72C105.32 185.798 104.386 186.946 102.807 187.879C105.966 188.313 108.335 187.81 110.13 186.731C111.996 185.584 113.36 183.861 114.581 181.994C115.658 180.271 116.663 179.409 117.451 178.691C117.811 178.404 118.098 178.117 118.314 177.901C117.164 177.615 115.801 177.615 114.508 177.543C113.216 177.543 111.995 177.47 110.847 177.327C109.483 177.04 108.191 176.754 107.042 176.323C105.821 175.891 104.745 175.317 103.739 174.671C101.801 173.379 100.436 172.087 99.4319 170.866C98.3542 169.645 97.7086 168.425 97.2785 167.348C97.0624 166.916 96.9188 166.487 96.7752 166.127C95.7693 163.614 94.7641 161.173 91.1035 161.604C91.6779 162.538 92.1088 163.4 92.4678 164.188C92.8979 165.122 93.114 165.912 93.1851 166.701C93.1851 166.846 92.9697 166.915 92.8986 166.773C91.9652 164.978 90.6727 163.472 89.3809 162.752C88.7354 162.394 88.0892 162.179 87.5135 162.107C86.8679 162.107 86.2223 162.179 85.6479 162.537C85.0037 162.898 84.3568 163.401 83.7824 164.333Z" fill="#F3C242"/>
<path fill-rule="evenodd" clip-rule="evenodd" d="M97.3515 239.716C97.6394 239.716 97.9977 239.643 98.3568 239.643C98.6446 239.643 98.86 239.575 99.0748 239.575C100.583 239.286 101.659 239.213 102.378 239.502C103.096 239.716 103.527 240.29 103.599 241.154C103.599 241.223 103.527 241.369 103.455 241.369C102.881 241.369 102.306 241.296 101.731 241.296C100.368 241.224 99.0754 241.224 98.2145 241.656C97.3522 242.015 96.7784 242.589 96.2751 243.163C95.7719 243.882 95.4853 244.672 95.4135 245.318C95.3417 245.605 95.4135 245.963 95.5578 246.395C95.6296 246.825 95.7719 247.255 95.9155 247.615C96.8496 246.251 97.9266 245.391 99.0748 244.815C100.367 244.241 101.731 244.169 103.167 244.527C103.311 244.527 103.311 244.672 103.167 244.745C102.306 245.246 101.014 246.179 100.081 247.401C99.4344 248.261 98.8594 249.194 98.7164 250.128C99.8646 249.912 100.942 250.128 101.947 250.271C103.167 250.487 104.245 250.701 104.963 250.057C105.178 249.841 105.537 249.411 105.897 248.908C106.47 248.188 107.26 247.256 107.978 246.536C108.337 246.251 108.696 245.963 108.983 245.821C109.343 245.675 109.701 245.605 109.989 245.532C113.148 245.391 115.66 245.391 117.455 245.676C119.107 245.963 120.327 246.395 120.974 246.97C120.974 246.395 120.758 245.821 120.327 245.318C119.753 244.672 118.819 244.026 117.527 243.45C117.455 243.38 117.455 243.236 117.527 243.164C119.968 241.871 122.553 242.662 125.137 243.523C128.153 244.527 131.096 245.461 133.896 243.02C132.82 242.95 131.958 242.374 131.096 241.656C129.876 240.723 128.512 239.645 126.214 239.933C126.143 239.933 126.071 239.79 126.071 239.717C126.501 238.927 127.147 238.354 127.937 237.923C128.871 237.42 129.948 237.204 130.88 237.204C132.173 237.204 133.322 237.564 134.399 237.923C135.763 238.354 136.983 238.713 138.418 238.568C136.911 236.128 136.696 233.687 137.271 231.245C137.845 228.878 139.209 226.506 140.788 224.139C139.713 223.777 138.489 223.923 137.2 224.569C135.908 225.215 134.399 226.365 132.82 227.944C132.748 228.086 132.604 227.944 132.604 227.799C133.179 225.933 133.97 224.425 134.974 223.347C135.763 222.343 136.696 221.697 137.846 221.194C136.408 221.121 134.83 221.194 133.179 221.626C131.241 222.056 129.231 222.917 127.148 224.211C127.004 224.211 126.933 224.139 126.933 224.066C127.076 222.846 127.722 221.912 128.656 221.194C129.589 220.549 130.738 219.976 131.815 219.472C132.604 219.184 133.179 218.753 133.681 218.323C134.112 218.034 134.471 217.82 134.83 217.604C133.825 217.531 132.604 217.747 131.241 217.961C130.235 218.107 129.159 218.323 127.938 218.393C127.292 218.466 126.645 218.466 126 218.537C124.923 218.537 123.774 218.607 122.697 218.753C121.045 219.111 119.61 219.902 118.604 221.051C117.743 222.055 117.312 223.419 117.455 225.142C117.599 226.794 118.389 228.012 119.107 229.235C120.04 230.669 120.974 232.107 120.83 234.404C120.686 236.557 119.466 237.85 117.814 238.567C116.235 239.286 114.225 239.429 112.502 239.429C111.496 239.429 110.492 239.359 109.63 239.286C108.769 239.142 107.979 238.926 107.404 238.712C106.759 238.425 106.184 238.136 105.609 237.778C104.676 237.275 103.743 236.7 102.451 236.557C101.302 236.486 100.082 236.7 99.1479 237.348C98.3561 237.922 97.7105 238.712 97.3515 239.716Z" fill="#F3C242"/>
<path fill-rule="evenodd" clip-rule="evenodd" d="M108.91 163.545C109.269 164.621 109.987 165.483 110.992 166.056C112.213 166.847 113.792 167.276 115.299 167.276C116.807 167.206 118.459 166.559 120.325 165.769C122.981 164.621 125.925 163.328 129.586 163.472C125.35 162.467 121.904 163.4 119.033 164.19C117.597 164.621 116.305 164.979 115.156 164.979C113.578 165.051 112.284 164.908 111.28 164.621C110.274 164.333 109.556 163.976 108.91 163.545Z" fill="#F3C242"/>
<path fill-rule="evenodd" clip-rule="evenodd" d="M146.96 225.931C147.03 225.861 147.176 225.931 147.176 226.075C146.888 227.081 146.673 228.085 146.53 229.162C146.384 230.168 146.384 231.244 146.384 232.321C146.457 234.403 147.104 235.769 147.75 237.132C148.54 238.782 149.257 240.362 148.756 243.019C148.756 243.091 148.54 243.162 148.467 243.019C147.679 241.081 146.817 239.789 146.1 238.639C145.166 237.132 144.374 235.983 144.09 234.046C143.944 233.04 144.16 231.388 144.734 229.737C145.239 228.301 146.027 226.936 146.96 225.931Z" fill="#008057"/>
<path fill-rule="evenodd" clip-rule="evenodd" d="M133.608 212.721C134.326 213.583 135.474 214.23 136.623 214.66C137.913 215.164 139.423 215.378 140.785 215.307C143.944 215.163 145.524 213.943 147.031 212.793C147.319 212.579 147.606 212.363 147.895 212.218C147.963 212.145 147.895 211.932 147.749 211.932C145.238 212.579 142.794 212.936 140.354 213.009C137.985 213.081 135.831 212.936 133.749 212.506C133.608 212.507 133.464 212.652 133.608 212.721Z" fill="#008057"/>
<path fill-rule="evenodd" clip-rule="evenodd" d="M127.505 208.988C128.367 209.78 129.515 210.354 130.807 210.784C132.099 211.214 133.464 211.43 134.899 211.43C136.479 211.357 138.057 210.927 139.423 210.28C140.786 209.561 141.935 208.557 142.581 207.481C142.652 207.337 142.511 207.194 142.365 207.267C141.289 207.982 139.853 208.558 138.416 208.917C136.909 209.347 135.403 209.634 133.895 209.707C132.818 209.779 131.741 209.707 130.665 209.561C129.659 209.419 128.654 209.131 127.721 208.701C127.576 208.701 127.433 208.847 127.505 208.988Z" fill="#008057"/>
<path fill-rule="evenodd" clip-rule="evenodd" d="M121.546 200.373C122.551 200.373 123.484 201.09 124.489 201.882C126.284 203.173 128.295 204.752 131.74 203.532C131.812 203.462 131.812 203.316 131.74 203.246C130.736 202.886 129.803 202.24 128.87 201.666C126.788 200.23 124.634 198.723 121.475 200.087C121.402 200.159 121.402 200.373 121.546 200.373Z" fill="#008057"/>
<path fill-rule="evenodd" clip-rule="evenodd" d="M132.171 199.511C133.967 198.004 135.617 197.79 137.124 197.573C138.273 197.43 139.279 197.359 140.354 196.786C142.51 195.636 143.944 194.198 144.519 192.332C145.021 190.538 144.663 188.241 143.083 185.513C143.011 185.369 142.795 185.513 142.795 185.656C143.225 187.02 143.155 188.385 142.724 189.605C142.221 190.898 141.288 192.117 140.068 192.908C139.135 193.555 138.13 194.058 137.125 194.632C134.756 195.924 132.459 197.072 131.884 199.37C131.884 199.511 132.028 199.583 132.171 199.511Z" fill="#008057"/>
<path fill-rule="evenodd" clip-rule="evenodd" d="M121.69 197.143C123.556 196.21 125.136 196.067 126.715 195.851C128.151 195.709 129.658 195.491 131.381 194.775C133.105 193.985 134.684 192.692 135.474 190.899C136.12 189.391 136.192 187.523 135.33 185.297C135.33 185.225 135.114 185.225 135.114 185.297C133.464 189.246 131.239 190.252 128.295 191.472C127.505 191.759 126.715 192.117 125.854 192.551C124.489 193.195 123.124 194.058 122.264 194.918C121.546 195.637 121.187 196.352 121.475 197.072C121.474 197.143 121.618 197.216 121.69 197.143Z" fill="#008057"/>
</g>
<defs>
<clipPath id="clip0_29_42">
<rect width="272.957" height="366.358" fill="white" transform="translate(0.000244141 6.10352e-05)"/>
</clipPath>
</defs>
</svg>
