<svg width="460" height="318" viewBox="0 0 460 318" fill="none" xmlns="http://www.w3.org/2000/svg">
<path d="M229.66 317.104C229.66 317.104 373.7 317.104 409.428 307.591C429.545 302.2 444.674 286.662 449.984 267.477C459.801 232.279 459.801 158.235 459.801 158.235C459.801 158.235 459.801 84.6669 449.984 49.7854C444.674 30.1249 429.545 14.9038 409.428 9.67166C373.7 -3.78466e-05 229.66 0 229.66 0C229.66 0 85.9411 -3.78466e-05 50.3738 9.67166C30.5784 14.9038 15.1282 30.1249 9.49537 49.7854C2.70333e-06 84.6669 0 158.235 0 158.235C0 158.235 2.70333e-06 232.279 9.49537 267.477C15.1282 286.662 30.5784 302.2 50.3738 307.591C85.9411 317.104 229.66 317.104 229.66 317.104Z" fill="#343434"/>
<path d="M301.249 158.552L182.335 91.1675V225.937L301.249 158.552Z" fill="white"/>
</svg>
